<?xml version="1.0" encoding="utf-8" standalone="no"?>
<!DOCTYPE svg PUBLIC "-//W3C//DTD SVG 1.1//EN"
  "http://www.w3.org/Graphics/SVG/1.1/DTD/svg11.dtd">
<!-- Created with matplotlib (https://matplotlib.org/) -->
<svg height="317.783088pt" version="1.1" viewBox="0 0 888.696875 317.783088" width="888.696875pt" xmlns="http://www.w3.org/2000/svg" xmlns:xlink="http://www.w3.org/1999/xlink">
 <metadata>
  <rdf:RDF xmlns:cc="http://creativecommons.org/ns#" xmlns:dc="http://purl.org/dc/elements/1.1/" xmlns:rdf="http://www.w3.org/1999/02/22-rdf-syntax-ns#">
   <cc:Work>
    <dc:type rdf:resource="http://purl.org/dc/dcmitype/StillImage"/>
    <dc:date>2020-11-12T23:32:44.208302</dc:date>
    <dc:format>image/svg+xml</dc:format>
    <dc:creator>
     <cc:Agent>
      <dc:title>Matplotlib v3.3.2, https://matplotlib.org/</dc:title>
     </cc:Agent>
    </dc:creator>
   </cc:Work>
  </rdf:RDF>
 </metadata>
 <defs>
  <style type="text/css">*{stroke-linecap:butt;stroke-linejoin:round;}</style>
 </defs>
 <g id="figure_1">
  <g id="patch_1">
   <path d="M 0 317.783088 
L 888.696875 317.783088 
L 888.696875 0 
L 0 0 
z
" style="fill:none;"/>
  </g>
  <g id="axes_1">
   <g id="patch_2">
    <path d="M 44.496875 275.834375 
L 881.496875 275.834375 
L 881.496875 112.754375 
L 44.496875 112.754375 
z
" style="fill:#ffffff;"/>
   </g>
   <g id="matplotlib.axis_1">
    <g id="xtick_1">
     <g id="line2d_1">
      <defs>
       <path d="M 0 0 
L 0 3.5 
" id="m7186c3030c" style="stroke:#000000;stroke-width:0.8;"/>
      </defs>
      <g>
       <use style="stroke:#000000;stroke-width:0.8;" x="151.715883" xlink:href="#m7186c3030c" y="275.834375"/>
      </g>
     </g>
     <g id="text_1">
      <!-- 2 -->
      <g transform="translate(150.482331 292.376844)rotate(-30)scale(0.1 -0.1)">
       <defs>
        <path d="M 9 -4.703125 
Q 7.90625 -4.703125 7.34375 -4.640625 
Q 6.796875 -4.59375 6.546875 -4.34375 
Q 6.296875 -4.09375 6.25 -3.546875 
Q 6.203125 -3 6.203125 -1.90625 
L 6.296875 0.296875 
Q 6.296875 1.59375 7.09375 2.40625 
L 23.59375 20.59375 
Q 42 40.5 42 50.796875 
Q 42 56.796875 38 60.796875 
Q 34.09375 64.703125 28.296875 64.703125 
Q 20.203125 64.703125 11.40625 60.203125 
Q 10 59.5 9.796875 60.796875 
L 9.203125 64.09375 
Q 8.90625 65.796875 10.203125 66.203125 
Q 15.296875 68.5 19.390625 69.59375 
Q 23.5 70.703125 27.796875 70.703125 
Q 37.40625 70.703125 43.09375 65.90625 
Q 49.5 60.703125 49.5 51.09375 
Q 49.5 47.40625 47.703125 43 
Q 45.90625 38.59375 42.703125 33.796875 
Q 40.703125 31 37.046875 26.5 
Q 33.40625 22 28.703125 16.90625 
Q 25.203125 13.09375 21.75 9.1875 
Q 18.296875 5.296875 14.796875 1.5 
L 49.796875 1.5 
Q 51.203125 1.5 51.203125 0.09375 
L 51.203125 -3.296875 
Q 51.203125 -4.703125 49.796875 -4.703125 
z
" id="NanumGothic-50"/>
       </defs>
       <use xlink:href="#NanumGothic-50"/>
      </g>
     </g>
    </g>
    <g id="xtick_2">
     <g id="line2d_2">
      <g>
       <use style="stroke:#000000;stroke-width:0.8;" x="290.062991" xlink:href="#m7186c3030c" y="275.834375"/>
      </g>
     </g>
     <g id="text_2">
      <!-- 4 -->
      <g transform="translate(288.829439 292.376844)rotate(-30)scale(0.1 -0.1)">
       <defs>
        <path d="M 39.203125 19 
L 39.203125 63.59375 
Q 31.796875 52.40625 24.5 41.296875 
Q 17.203125 30.203125 9.703125 19 
z
M 46 -3.296875 
Q 46 -4.703125 44.59375 -4.703125 
L 40.59375 -4.703125 
Q 39.203125 -4.703125 39.203125 -3.296875 
L 39.203125 12.90625 
L 6.203125 12.90625 
Q 4.09375 12.90625 3.75 13.25 
Q 3.40625 13.59375 3.40625 15.703125 
L 3.40625 18.796875 
Q 3.40625 19.703125 3.5 20 
Q 3.59375 20.296875 4.09375 21.09375 
L 36 68.703125 
Q 36.59375 69.59375 36.84375 69.75 
Q 37.09375 69.90625 38.203125 69.90625 
L 43.203125 69.90625 
Q 45.296875 69.90625 45.640625 69.546875 
Q 46 69.203125 46 67.09375 
L 46 19 
L 55.90625 19 
Q 57.296875 19 57.296875 17.59375 
L 57.296875 14.296875 
Q 57.296875 12.90625 55.90625 12.90625 
L 46 12.90625 
z
" id="NanumGothic-52"/>
       </defs>
       <use xlink:href="#NanumGothic-52"/>
      </g>
     </g>
    </g>
    <g id="xtick_3">
     <g id="line2d_3">
      <g>
       <use style="stroke:#000000;stroke-width:0.8;" x="428.410098" xlink:href="#m7186c3030c" y="275.834375"/>
      </g>
     </g>
     <g id="text_3">
      <!-- 6 -->
      <g transform="translate(427.176546 292.376844)rotate(-30)scale(0.1 -0.1)">
       <defs>
        <path d="M 48.09375 18.796875 
Q 48.09375 26.90625 43.90625 31.59375 
Q 39.703125 36.40625 31.90625 36.40625 
Q 27.90625 36.40625 24.703125 35.15625 
Q 21.5 33.90625 19.25 31.703125 
Q 17 29.5 15.75 26.390625 
Q 14.5 23.296875 14.5 19.59375 
Q 14.5 12 18.703125 6.796875 
Q 23.296875 0.703125 31 0.703125 
Q 38.90625 0.703125 43.703125 6 
Q 48.09375 11 48.09375 18.796875 
z
M 50.703125 62.703125 
Q 48.40625 63.5 45.453125 64 
Q 42.5 64.5 39.59375 64.5 
Q 26 64.5 19.5 54.703125 
Q 14 46.5 13.796875 32.203125 
Q 16 36.203125 20.203125 39 
Q 25.40625 42.703125 31.90625 42.703125 
Q 41 42.703125 47.203125 37.90625 
Q 55.09375 31.796875 55.09375 19.296875 
Q 55.09375 8.703125 48.59375 1.703125 
Q 42 -5.40625 30.796875 -5.40625 
Q 6.796875 -5.40625 6.796875 30 
Q 6.796875 48.5 14.203125 58.90625 
Q 22.90625 70.703125 40.40625 70.703125 
Q 43 70.703125 45.84375 70.296875 
Q 48.703125 69.90625 51.09375 69.203125 
Q 52.59375 68.90625 52.40625 67.40625 
L 52.203125 63.703125 
Q 52.203125 63 51.703125 62.75 
Q 51.203125 62.5 50.703125 62.703125 
z
" id="NanumGothic-54"/>
       </defs>
       <use xlink:href="#NanumGothic-54"/>
      </g>
     </g>
    </g>
    <g id="xtick_4">
     <g id="line2d_4">
      <g>
       <use style="stroke:#000000;stroke-width:0.8;" x="566.757206" xlink:href="#m7186c3030c" y="275.834375"/>
      </g>
     </g>
     <g id="text_4">
      <!-- 8 -->
      <g transform="translate(565.523654 292.376844)rotate(-30)scale(0.1 -0.1)">
       <defs>
        <path d="M 46 52.5 
Q 46 58.203125 41 61.5 
Q 36.59375 64.59375 30.703125 64.59375 
Q 24.296875 64.59375 19.90625 61.40625 
Q 15.09375 58.203125 15.09375 52.5 
Q 15.09375 47.296875 20.09375 43.09375 
Q 21.5 41.796875 23.84375 40.296875 
Q 26.203125 38.796875 29.40625 37.296875 
Q 30.203125 36.90625 30.703125 36.953125 
Q 31.203125 37 32.203125 37.5 
Q 38.59375 41 42.296875 44.84375 
Q 46 48.703125 46 52.5 
z
M 48.5 15 
Q 48.5 20.5 43.5 24.59375 
Q 41.90625 25.90625 39 27.5 
Q 36.09375 29.09375 31.90625 31 
Q 30.59375 31.703125 29 31 
Q 25.09375 29.5 22.09375 27.84375 
Q 19.09375 26.203125 17.296875 24.796875 
Q 15.296875 22.796875 14.046875 20.140625 
Q 12.796875 17.5 12.796875 14.5 
Q 12.796875 8.40625 18.5 4.5 
Q 23.703125 0.59375 30.703125 0.59375 
Q 37.90625 0.59375 42.796875 4 
Q 48.5 7.90625 48.5 15 
z
M 55.5 14.5 
Q 55.5 9.59375 53.453125 5.6875 
Q 51.40625 1.796875 47.59375 -0.796875 
Q 44.296875 -3 40 -4.203125 
Q 35.703125 -5.40625 30.703125 -5.40625 
Q 25.796875 -5.40625 21.546875 -4.09375 
Q 17.296875 -2.796875 13.796875 -0.5 
Q 10 2.203125 7.890625 6.046875 
Q 5.796875 9.90625 5.796875 14.5 
Q 5.796875 22.296875 11 27.203125 
Q 15 31 23.296875 34.09375 
Q 8.09375 41.59375 8.09375 53.296875 
Q 8.09375 57.5 10.1875 60.75 
Q 12.296875 64 16.09375 66.59375 
Q 19.296875 68.59375 22.9375 69.640625 
Q 26.59375 70.703125 30.703125 70.703125 
Q 35.5 70.703125 39.296875 69.640625 
Q 43.09375 68.59375 46.203125 66.5 
Q 53.09375 61.703125 53.09375 53.296875 
Q 53.09375 42.90625 37.5 34.09375 
Q 41.59375 32.59375 44.84375 30.796875 
Q 48.09375 29 50.09375 27.203125 
Q 55.5 22.40625 55.5 14.5 
z
" id="NanumGothic-56"/>
       </defs>
       <use xlink:href="#NanumGothic-56"/>
      </g>
     </g>
    </g>
    <g id="xtick_5">
     <g id="line2d_5">
      <g>
       <use style="stroke:#000000;stroke-width:0.8;" x="705.104313" xlink:href="#m7186c3030c" y="275.834375"/>
      </g>
     </g>
     <g id="text_5">
      <!-- 10 -->
      <g transform="translate(701.246975 295.406532)rotate(-30)scale(0.1 -0.1)">
       <defs>
        <path d="M 36.90625 -3.296875 
Q 36.90625 -4.703125 35.5 -4.703125 
L 31.40625 -4.703125 
Q 30 -4.703125 30 -3.296875 
L 30 61.703125 
Q 26.90625 59.09375 24.203125 56.796875 
Q 21.5 54.5 18.5 51.90625 
Q 17.40625 51 16.5 52.09375 
L 14.5 54.5 
Q 14.203125 55 14.203125 55.546875 
Q 14.203125 56.09375 14.703125 56.5 
L 30.203125 69.5 
Q 30.59375 69.90625 31.40625 69.90625 
L 34.09375 69.90625 
Q 36.203125 69.90625 36.546875 69.546875 
Q 36.90625 69.203125 36.90625 67.09375 
z
" id="NanumGothic-49"/>
        <path d="M 47.90625 32.703125 
Q 47.90625 64.09375 30.703125 64.09375 
Q 13.5 64.09375 13.5 32.703125 
Q 13.5 1.203125 30.703125 1.203125 
Q 47.90625 1.203125 47.90625 32.703125 
z
M 55.09375 32.703125 
Q 55.09375 -5.09375 30.703125 -5.09375 
Q 6.09375 -5.09375 6.09375 32.703125 
Q 6.09375 48.40625 10.90625 58.203125 
Q 17 70.5 30.703125 70.5 
Q 44.203125 70.5 50.40625 58.203125 
Q 52.703125 53.296875 53.890625 47 
Q 55.09375 40.703125 55.09375 32.703125 
z
" id="NanumGothic-48"/>
       </defs>
       <use xlink:href="#NanumGothic-49"/>
       <use x="60.599991" xlink:href="#NanumGothic-48"/>
      </g>
     </g>
    </g>
    <g id="xtick_6">
     <g id="line2d_6">
      <g>
       <use style="stroke:#000000;stroke-width:0.8;" x="843.45142" xlink:href="#m7186c3030c" y="275.834375"/>
      </g>
     </g>
     <g id="text_6">
      <!-- 12 -->
      <g transform="translate(839.594082 295.406532)rotate(-30)scale(0.1 -0.1)">
       <use xlink:href="#NanumGothic-49"/>
       <use x="60.599991" xlink:href="#NanumGothic-50"/>
      </g>
     </g>
    </g>
    <g id="text_7">
     <!-- 월 -->
     <g transform="translate(458.296875 308.623713)scale(0.1 -0.1)">
      <defs>
       <path d="M 56.90625 61.59375 
Q 56.90625 58.203125 55.09375 55.34375 
Q 53.296875 52.5 50.25 50.390625 
Q 47.203125 48.296875 43.046875 47.140625 
Q 38.90625 46 34.09375 46 
Q 29.5 46 25.390625 47.140625 
Q 21.296875 48.296875 18.25 50.34375 
Q 15.203125 52.40625 13.453125 55.25 
Q 11.703125 58.09375 11.703125 61.59375 
Q 11.703125 65.5 13.453125 68.390625 
Q 15.203125 71.296875 18.25 73.296875 
Q 21.296875 75.296875 25.390625 76.296875 
Q 29.5 77.296875 34.09375 77.296875 
Q 38.5 77.296875 42.59375 76.296875 
Q 46.703125 75.296875 49.890625 73.296875 
Q 53.09375 71.296875 55 68.34375 
Q 56.90625 65.40625 56.90625 61.59375 
z
M 82.5 -13.09375 
Q 82.5 -13.59375 82.046875 -13.9375 
Q 81.59375 -14.296875 81.203125 -14.296875 
L 28.59375 -14.296875 
Q 23.90625 -14.296875 22.453125 -12.546875 
Q 21 -10.796875 21 -6.59375 
L 21 -2.09375 
Q 21 2.09375 22.75 3.546875 
Q 24.5 5 29 5 
L 71.296875 5 
Q 72.703125 5 73.09375 5.390625 
Q 73.5 5.796875 73.5 7.296875 
L 73.5 10 
Q 73.5 11.5 73.140625 11.890625 
Q 72.796875 12.296875 71.40625 12.296875 
L 22.203125 12.296875 
Q 21.703125 12.296875 21.25 12.59375 
Q 20.796875 12.90625 20.796875 13.40625 
L 20.796875 17 
Q 20.796875 17.5 21.25 17.796875 
Q 21.703125 18.09375 22.203125 18.09375 
L 72.5 18.09375 
Q 74.90625 18.09375 76.40625 17.75 
Q 77.90625 17.40625 78.796875 16.59375 
Q 79.703125 15.796875 80.046875 14.34375 
Q 80.40625 12.90625 80.40625 10.796875 
L 80.40625 6.296875 
Q 80.40625 2.09375 78.65625 0.640625 
Q 76.90625 -0.796875 72.40625 -0.796875 
L 30 -0.796875 
Q 28.59375 -0.796875 28.25 -1.1875 
Q 27.90625 -1.59375 27.90625 -3.09375 
L 27.90625 -6.203125 
Q 27.90625 -7.59375 28.296875 -8.046875 
Q 28.703125 -8.5 30.09375 -8.5 
L 81.09375 -8.5 
Q 81.59375 -8.5 82.046875 -8.796875 
Q 82.5 -9.09375 82.5 -9.59375 
z
M 50.296875 61.703125 
Q 50.296875 64.40625 48.84375 66.25 
Q 47.40625 68.09375 45.046875 69.25 
Q 42.703125 70.40625 39.796875 70.953125 
Q 36.90625 71.5 34.09375 71.5 
Q 31.203125 71.5 28.34375 70.953125 
Q 25.5 70.40625 23.25 69.203125 
Q 21 68 19.640625 66.140625 
Q 18.296875 64.296875 18.296875 61.703125 
Q 18.296875 59.203125 19.59375 57.296875 
Q 20.90625 55.40625 23.09375 54.15625 
Q 25.296875 52.90625 28.140625 52.296875 
Q 31 51.703125 34.09375 51.703125 
Q 36.90625 51.703125 39.796875 52.34375 
Q 42.703125 53 45.046875 54.296875 
Q 47.40625 55.59375 48.84375 57.4375 
Q 50.296875 59.296875 50.296875 61.703125 
z
M 73.59375 31.703125 
L 73.59375 76.796875 
Q 73.59375 78.203125 75 78.203125 
L 79.09375 78.203125 
Q 80.5 78.203125 80.5 76.796875 
L 80.5 24.296875 
Q 80.5 22.90625 79.09375 22.90625 
L 75 22.90625 
Q 73.59375 22.90625 73.59375 24.296875 
L 73.59375 25.90625 
L 53.5 25.90625 
Q 52.203125 25.90625 52.203125 27.09375 
L 52.203125 30.5 
Q 52.203125 31.703125 53.5 31.703125 
z
M 65.5 43.40625 
Q 66 43.5 66.453125 43.25 
Q 66.90625 43 67 42.59375 
L 67.40625 39.203125 
Q 67.703125 37.90625 66.203125 37.703125 
Q 59.90625 36.90625 52.59375 36.25 
Q 45.296875 35.59375 38.09375 35.296875 
L 38.09375 22.296875 
Q 38.09375 21.703125 37.75 21.25 
Q 37.40625 20.796875 36.796875 20.796875 
L 32.5 20.796875 
Q 32 20.796875 31.59375 21.25 
Q 31.203125 21.703125 31.203125 22.296875 
L 31.203125 35 
Q 28.203125 34.90625 24.75 34.75 
Q 21.296875 34.59375 17.9375 34.546875 
Q 14.59375 34.5 11.5 34.453125 
Q 8.40625 34.40625 6.09375 34.5 
Q 5.5 34.5 5.046875 34.890625 
Q 4.59375 35.296875 4.59375 35.796875 
L 4.59375 39.203125 
Q 4.59375 39.796875 5.046875 40.140625 
Q 5.5 40.5 6.09375 40.5 
Q 8.90625 40.5 12.84375 40.546875 
Q 16.796875 40.59375 21 40.6875 
Q 25.203125 40.796875 29.140625 40.890625 
Q 33.09375 41 35.90625 41.09375 
Q 39.40625 41.203125 43.296875 41.453125 
Q 47.203125 41.703125 51.09375 42 
Q 55 42.296875 58.703125 42.640625 
Q 62.40625 43 65.5 43.40625 
z
" id="NanumGothic-50900"/>
      </defs>
      <use xlink:href="#NanumGothic-50900"/>
     </g>
    </g>
   </g>
   <g id="matplotlib.axis_2">
    <g id="ytick_1">
     <g id="line2d_7">
      <defs>
       <path d="M 0 0 
L -3.5 0 
" id="m4e0d60fd74" style="stroke:#000000;stroke-width:0.8;"/>
      </defs>
      <g>
       <use style="stroke:#000000;stroke-width:0.8;" x="44.496875" xlink:href="#m4e0d60fd74" y="268.262327"/>
      </g>
     </g>
     <g id="text_8">
      <!-- 7500 -->
      <g transform="translate(13.259375 272.022483)scale(0.1 -0.1)">
       <defs>
        <path d="M 24.203125 -3.296875 
Q 23.5 -4.703125 22.203125 -4.703125 
L 17.203125 -4.703125 
Q 16.59375 -4.703125 16.34375 -4.296875 
Q 16.09375 -3.90625 16.40625 -3.296875 
L 45.5 63.796875 
L 8.40625 63.796875 
Q 7 63.796875 7 65.203125 
L 7 68.5 
Q 7 69.90625 8.40625 69.90625 
L 49.90625 69.90625 
Q 52 69.90625 52.34375 69.546875 
Q 52.703125 69.203125 52.703125 67.09375 
L 52.703125 64.59375 
Q 52.703125 63.796875 52.40625 63.203125 
z
" id="NanumGothic-55"/>
        <path d="M 11.5 -3.203125 
Q 10.09375 -2.703125 10.09375 -1.40625 
L 10.09375 2.796875 
Q 10.09375 4.5 11.5 3.796875 
Q 15.09375 2.09375 18.546875 1.390625 
Q 22 0.703125 26.09375 0.703125 
Q 34.90625 0.703125 40.40625 5 
Q 46.40625 9.59375 46.40625 18.203125 
Q 46.40625 35.09375 27.09375 35.09375 
Q 23.296875 35.09375 20.25 34.6875 
Q 17.203125 34.296875 13.5 33.296875 
Q 12.40625 33 11.703125 33.546875 
Q 11 34.09375 11 35.203125 
L 11.59375 67.09375 
Q 11.59375 69.203125 11.9375 69.546875 
Q 12.296875 69.90625 14.40625 69.90625 
L 48.59375 69.90625 
Q 50 69.90625 50 68.5 
L 50 65.203125 
Q 50 63.796875 48.59375 63.796875 
L 18.40625 63.796875 
Q 18.296875 57.5 18.140625 51.5 
Q 18 45.5 17.90625 39.203125 
Q 22.796875 41.09375 29.796875 41.09375 
Q 40.296875 41.09375 46.796875 35.40625 
Q 53.296875 29.5 53.296875 19.59375 
Q 53.296875 7.5 45.796875 0.90625 
Q 38.59375 -5.40625 26.09375 -5.40625 
Q 21.59375 -5.40625 18.296875 -4.90625 
Q 15 -4.40625 11.5 -3.203125 
z
" id="NanumGothic-53"/>
       </defs>
       <use xlink:href="#NanumGothic-55"/>
       <use x="60.599991" xlink:href="#NanumGothic-53"/>
       <use x="121.199982" xlink:href="#NanumGothic-48"/>
       <use x="181.799973" xlink:href="#NanumGothic-48"/>
      </g>
     </g>
    </g>
    <g id="ytick_2">
     <g id="line2d_8">
      <g>
       <use style="stroke:#000000;stroke-width:0.8;" x="44.496875" xlink:href="#m4e0d60fd74" y="246.425577"/>
      </g>
     </g>
     <g id="text_9">
      <!-- 10000 -->
      <g transform="translate(7.2 250.185733)scale(0.1 -0.1)">
       <use xlink:href="#NanumGothic-49"/>
       <use x="60.599991" xlink:href="#NanumGothic-48"/>
       <use x="121.199982" xlink:href="#NanumGothic-48"/>
       <use x="181.799973" xlink:href="#NanumGothic-48"/>
       <use x="242.399963" xlink:href="#NanumGothic-48"/>
      </g>
     </g>
    </g>
    <g id="ytick_3">
     <g id="line2d_9">
      <g>
       <use style="stroke:#000000;stroke-width:0.8;" x="44.496875" xlink:href="#m4e0d60fd74" y="224.588826"/>
      </g>
     </g>
     <g id="text_10">
      <!-- 12500 -->
      <g transform="translate(7.2 228.348982)scale(0.1 -0.1)">
       <use xlink:href="#NanumGothic-49"/>
       <use x="60.599991" xlink:href="#NanumGothic-50"/>
       <use x="121.199982" xlink:href="#NanumGothic-53"/>
       <use x="181.799973" xlink:href="#NanumGothic-48"/>
       <use x="242.399963" xlink:href="#NanumGothic-48"/>
      </g>
     </g>
    </g>
    <g id="ytick_4">
     <g id="line2d_10">
      <g>
       <use style="stroke:#000000;stroke-width:0.8;" x="44.496875" xlink:href="#m4e0d60fd74" y="202.752076"/>
      </g>
     </g>
     <g id="text_11">
      <!-- 15000 -->
      <g transform="translate(7.2 206.512232)scale(0.1 -0.1)">
       <use xlink:href="#NanumGothic-49"/>
       <use x="60.599991" xlink:href="#NanumGothic-53"/>
       <use x="121.199982" xlink:href="#NanumGothic-48"/>
       <use x="181.799973" xlink:href="#NanumGothic-48"/>
       <use x="242.399963" xlink:href="#NanumGothic-48"/>
      </g>
     </g>
    </g>
    <g id="ytick_5">
     <g id="line2d_11">
      <g>
       <use style="stroke:#000000;stroke-width:0.8;" x="44.496875" xlink:href="#m4e0d60fd74" y="180.915326"/>
      </g>
     </g>
     <g id="text_12">
      <!-- 17500 -->
      <g transform="translate(7.2 184.675482)scale(0.1 -0.1)">
       <use xlink:href="#NanumGothic-49"/>
       <use x="60.599991" xlink:href="#NanumGothic-55"/>
       <use x="121.199982" xlink:href="#NanumGothic-53"/>
       <use x="181.799973" xlink:href="#NanumGothic-48"/>
       <use x="242.399963" xlink:href="#NanumGothic-48"/>
      </g>
     </g>
    </g>
    <g id="ytick_6">
     <g id="line2d_12">
      <g>
       <use style="stroke:#000000;stroke-width:0.8;" x="44.496875" xlink:href="#m4e0d60fd74" y="159.078575"/>
      </g>
     </g>
     <g id="text_13">
      <!-- 20000 -->
      <g transform="translate(7.2 162.838732)scale(0.1 -0.1)">
       <use xlink:href="#NanumGothic-50"/>
       <use x="60.599991" xlink:href="#NanumGothic-48"/>
       <use x="121.199982" xlink:href="#NanumGothic-48"/>
       <use x="181.799973" xlink:href="#NanumGothic-48"/>
       <use x="242.399963" xlink:href="#NanumGothic-48"/>
      </g>
     </g>
    </g>
    <g id="ytick_7">
     <g id="line2d_13">
      <g>
       <use style="stroke:#000000;stroke-width:0.8;" x="44.496875" xlink:href="#m4e0d60fd74" y="137.241825"/>
      </g>
     </g>
     <g id="text_14">
      <!-- 22500 -->
      <g transform="translate(7.2 141.001981)scale(0.1 -0.1)">
       <use xlink:href="#NanumGothic-50"/>
       <use x="60.599991" xlink:href="#NanumGothic-50"/>
       <use x="121.199982" xlink:href="#NanumGothic-53"/>
       <use x="181.799973" xlink:href="#NanumGothic-48"/>
       <use x="242.399963" xlink:href="#NanumGothic-48"/>
      </g>
     </g>
    </g>
    <g id="ytick_8">
     <g id="line2d_14">
      <g>
       <use style="stroke:#000000;stroke-width:0.8;" x="44.496875" xlink:href="#m4e0d60fd74" y="115.405075"/>
      </g>
     </g>
     <g id="text_15">
      <!-- 25000 -->
      <g transform="translate(7.2 119.165231)scale(0.1 -0.1)">
       <use xlink:href="#NanumGothic-50"/>
       <use x="60.599991" xlink:href="#NanumGothic-53"/>
       <use x="121.199982" xlink:href="#NanumGothic-48"/>
       <use x="181.799973" xlink:href="#NanumGothic-48"/>
       <use x="242.399963" xlink:href="#NanumGothic-48"/>
      </g>
     </g>
    </g>
   </g>
   <g id="line2d_15">
    <path clip-path="url(#p199cce0f2d)" d="M 82.54233 266.928538 
L 151.715883 265.942436 
L 220.889437 265.19755 
L 290.062991 265.523722 
L 359.236544 265.230926 
L 428.410098 264.787939 
L 497.583652 264.250893 
L 566.757206 263.414982 
L 635.930759 263.128254 
L 705.104313 265.316671 
L 774.277867 264.061941 
L 843.45142 264.349321 
" style="fill:none;stroke:#1f77b4;stroke-linecap:square;stroke-width:1.5;"/>
   </g>
   <g id="line2d_16">
    <path clip-path="url(#p199cce0f2d)" d="M 82.54233 220.126181 
L 151.715883 219.577074 
L 220.889437 219.407009 
L 290.062991 219.111558 
L 359.236544 216.564912 
L 428.410098 214.838324 
L 497.583652 214.963711 
L 566.757206 213.718492 
L 635.930759 214.348307 
L 705.104313 218.758169 
L 774.277867 216.293962 
L 843.45142 217.123243 
" style="fill:none;stroke:#ff7f0e;stroke-linecap:square;stroke-width:1.5;"/>
   </g>
   <g id="line2d_17">
    <path clip-path="url(#p199cce0f2d)" d="M 82.54233 254.580118 
L 151.715883 254.327903 
L 220.889437 253.660616 
L 290.062991 253.369488 
L 359.236544 252.720937 
L 428.410098 252.412515 
L 497.583652 252.344777 
L 566.757206 252.503312 
L 635.930759 249.976692 
L 705.104313 252.880192 
L 774.277867 251.802876 
L 843.45142 252.982279 
" style="fill:none;stroke:#2ca02c;stroke-linecap:square;stroke-width:1.5;"/>
   </g>
   <g id="line2d_18">
    <path clip-path="url(#p199cce0f2d)" d="M 82.54233 262.19525 
L 151.715883 262.013201 
L 220.889437 261.776536 
L 290.062991 261.829634 
L 359.236544 261.17729 
L 428.410098 260.594731 
L 497.583652 260.470331 
L 566.757206 259.708757 
L 635.930759 258.660227 
L 705.104313 260.131719 
L 774.277867 259.563876 
L 843.45142 259.697189 
" style="fill:none;stroke:#d62728;stroke-linecap:square;stroke-width:1.5;"/>
   </g>
   <g id="line2d_19">
    <path clip-path="url(#p199cce0f2d)" d="M 82.54233 251.115412 
L 151.715883 251.115412 
L 220.889437 250.938621 
L 290.062991 249.813561 
L 359.236544 244.804879 
L 428.410098 244.950697 
L 497.583652 244.928654 
L 566.757206 244.574283 
L 635.930759 245.394933 
L 705.104313 247.061244 
L 774.277867 244.161018 
L 843.45142 244.710909 
" style="fill:none;stroke:#9467bd;stroke-linecap:square;stroke-width:1.5;"/>
   </g>
   <g id="line2d_20">
    <path clip-path="url(#p199cce0f2d)" d="M 82.54233 232.172247 
L 151.715883 232.786664 
L 220.889437 231.770221 
L 290.062991 232.441453 
L 359.236544 229.448027 
L 428.410098 229.329847 
L 497.583652 224.865992 
L 566.757206 224.280399 
L 635.930759 224.480654 
L 705.104313 231.051631 
L 774.277867 229.154017 
L 843.45142 227.429351 
" style="fill:none;stroke:#8c564b;stroke-linecap:square;stroke-width:1.5;"/>
   </g>
   <g id="line2d_21">
    <path clip-path="url(#p199cce0f2d)" d="M 82.54233 246.751381 
L 151.715883 246.198311 
L 220.889437 247.144115 
L 290.062991 245.800172 
L 359.236544 245.663736 
L 428.410098 245.034521 
L 497.583652 244.506912 
L 566.757206 244.952731 
L 635.930759 239.060641 
L 705.104313 242.430449 
L 774.277867 241.920732 
L 843.45142 242.478147 
" style="fill:none;stroke:#e377c2;stroke-linecap:square;stroke-width:1.5;"/>
   </g>
   <g id="line2d_22">
    <path clip-path="url(#p199cce0f2d)" d="M 82.54233 229.682947 
L 151.715883 229.574855 
L 220.889437 229.914984 
L 290.062991 230.233495 
L 359.236544 228.789387 
L 428.410098 228.391609 
L 497.583652 227.414458 
L 566.757206 225.989086 
L 635.930759 224.386443 
L 705.104313 228.242586 
L 774.277867 228.630852 
L 843.45142 227.302907 
" style="fill:none;stroke:#7f7f7f;stroke-linecap:square;stroke-width:1.5;"/>
   </g>
   <g id="line2d_23">
    <path clip-path="url(#p199cce0f2d)" d="M 82.54233 136.967468 
L 151.715883 136.803168 
L 220.889437 134.402087 
L 290.062991 131.770409 
L 359.236544 130.794699 
L 428.410098 120.456789 
L 497.583652 120.167102 
L 566.757206 124.447542 
L 635.930759 123.349328 
L 705.104313 127.472098 
L 774.277867 121.788481 
L 843.45142 124.108854 
" style="fill:none;stroke:#bcbd22;stroke-linecap:square;stroke-width:1.5;"/>
   </g>
   <g id="line2d_24">
    <path clip-path="url(#p199cce0f2d)" d="M 82.54233 250.542562 
L 151.715883 250.542562 
L 220.889437 250.513738 
L 290.062991 247.28691 
L 359.236544 247.28691 
L 428.410098 247.305115 
L 497.583652 247.311183 
L 566.757206 247.107895 
L 635.930759 246.875781 
L 705.104313 249.026115 
L 774.277867 247.547848 
L 843.45142 247.103541 
" style="fill:none;stroke:#17becf;stroke-linecap:square;stroke-width:1.5;"/>
   </g>
   <g id="line2d_25">
    <path clip-path="url(#p199cce0f2d)" d="M 82.54233 247.008181 
L 151.715883 246.932189 
L 220.889437 246.342597 
L 290.062991 244.883028 
L 359.236544 244.822759 
L 428.410098 245.21058 
L 497.583652 245.21058 
L 566.757206 245.674392 
L 635.930759 247.677883 
L 705.104313 247.748102 
L 774.277867 246.862561 
L 843.45142 245.736346 
" style="fill:none;stroke:#1f77b4;stroke-linecap:square;stroke-width:1.5;"/>
   </g>
   <g id="line2d_26">
    <path clip-path="url(#p199cce0f2d)" d="M 82.54233 232.006203 
L 151.715883 231.196234 
L 220.889437 229.786715 
L 290.062991 227.603259 
L 359.236544 227.725763 
L 428.410098 230.940378 
L 497.583652 230.338098 
L 566.757206 229.138088 
L 635.930759 229.283728 
L 705.104313 230.637327 
L 774.277867 229.125193 
L 843.45142 228.64267 
" style="fill:none;stroke:#ff7f0e;stroke-linecap:square;stroke-width:1.5;"/>
   </g>
   <g id="line2d_27">
    <path clip-path="url(#p199cce0f2d)" d="M 82.54233 268.421648 
L 151.715883 268.303467 
L 220.889437 268.169433 
L 290.062991 268.193934 
L 359.236544 268.136285 
L 428.410098 268.041164 
L 497.583652 267.617444 
L 566.757206 267.278756 
L 635.930759 266.715237 
L 705.104313 267.302104 
L 774.277867 267.48834 
L 843.45142 266.882899 
" style="fill:none;stroke:#2ca02c;stroke-linecap:square;stroke-width:1.5;"/>
   </g>
   <g id="line2d_28">
    <path clip-path="url(#p199cce0f2d)" d="M 82.54233 267.543941 
L 151.715883 267.365229 
L 220.889437 267.252814 
L 290.062991 266.362136 
L 359.236544 265.916798 
L 428.410098 265.755381 
L 497.583652 265.419575 
L 566.757206 265.050621 
L 635.930759 265.432698 
L 705.104313 267.099083 
L 774.277867 266.353489 
L 843.45142 265.972717 
" style="fill:none;stroke:#d62728;stroke-linecap:square;stroke-width:1.5;"/>
   </g>
   <g id="line2d_29">
    <path clip-path="url(#p199cce0f2d)" d="M 82.54233 239.865526 
L 151.715883 239.436361 
L 220.889437 236.480847 
L 290.062991 234.90299 
L 359.236544 231.844558 
L 428.410098 229.43847 
L 497.583652 232.00284 
L 566.757206 231.860318 
L 635.930759 232.48505 
L 705.104313 238.886613 
L 774.277867 241.99025 
L 843.45142 237.773232 
" style="fill:none;stroke:#9467bd;stroke-linecap:square;stroke-width:1.5;"/>
   </g>
   <g id="line2d_30">
    <path clip-path="url(#p199cce0f2d)" d="M 82.54233 262.856697 
L 151.715883 262.489563 
L 220.889437 263.208659 
L 290.062991 262.504734 
L 359.236544 261.808395 
L 428.410098 262.010756 
L 497.583652 261.2137 
L 566.757206 260.788917 
L 635.930759 261.285002 
L 705.104313 261.489929 
L 774.277867 261.53259 
L 843.45142 261.336583 
" style="fill:none;stroke:#8c564b;stroke-linecap:square;stroke-width:1.5;"/>
   </g>
   <g id="line2d_31">
    <path clip-path="url(#p199cce0f2d)" d="M 82.54233 267.963338 
L 151.715883 268.228524 
L 220.889437 267.134633 
L 290.062991 266.344842 
L 359.236544 266.16613 
L 428.410098 266.573997 
L 497.583652 266.804593 
L 566.757206 266.839182 
L 635.930759 266.510583 
L 705.104313 267.379353 
L 774.277867 267.650592 
L 843.45142 267.309022 
" style="fill:none;stroke:#e377c2;stroke-linecap:square;stroke-width:1.5;"/>
   </g>
   <g id="patch_3">
    <path d="M 44.496875 275.834375 
L 44.496875 112.754375 
" style="fill:none;stroke:#000000;stroke-linecap:square;stroke-linejoin:miter;stroke-width:0.8;"/>
   </g>
   <g id="patch_4">
    <path d="M 881.496875 275.834375 
L 881.496875 112.754375 
" style="fill:none;stroke:#000000;stroke-linecap:square;stroke-linejoin:miter;stroke-width:0.8;"/>
   </g>
   <g id="patch_5">
    <path d="M 44.496875 275.834375 
L 881.496875 275.834375 
" style="fill:none;stroke:#000000;stroke-linecap:square;stroke-linejoin:miter;stroke-width:0.8;"/>
   </g>
   <g id="patch_6">
    <path d="M 44.496875 112.754375 
L 881.496875 112.754375 
" style="fill:none;stroke:#000000;stroke-linecap:square;stroke-linejoin:miter;stroke-width:0.8;"/>
   </g>
   <g id="legend_1">
    <g id="patch_7">
     <path d="M 437.596875 270.834375 
L 488.396875 270.834375 
Q 490.396875 270.834375 490.396875 268.834375 
L 490.396875 9.2 
Q 490.396875 7.2 488.396875 7.2 
L 437.596875 7.2 
Q 435.596875 7.2 435.596875 9.2 
L 435.596875 268.834375 
Q 435.596875 270.834375 437.596875 270.834375 
z
" style="fill:#ffffff;opacity:0.8;stroke:#cccccc;stroke-linejoin:miter;"/>
    </g>
    <g id="text_16">
     <!-- 지역명 -->
     <g transform="translate(448.896875 18.720312)scale(0.1 -0.1)">
      <defs>
       <path d="M 59.796875 13.40625 
Q 59.5 12.90625 59.046875 12.796875 
Q 58.59375 12.703125 57.796875 13.296875 
Q 55.40625 15.09375 52.703125 17.4375 
Q 50 19.796875 47.390625 22.4375 
Q 44.796875 25.09375 42.296875 27.9375 
Q 39.796875 30.796875 37.703125 33.59375 
Q 32.703125 27.296875 26.296875 21.546875 
Q 19.90625 15.796875 11.703125 10.09375 
Q 11.203125 9.796875 10.703125 9.640625 
Q 10.203125 9.5 9.90625 9.90625 
L 7.5 13 
Q 7.09375 13.5 7.1875 14.046875 
Q 7.296875 14.59375 7.703125 14.90625 
Q 23.703125 26.203125 32.640625 37.796875 
Q 41.59375 49.40625 45.09375 62 
Q 45.5 63.40625 45.140625 64.046875 
Q 44.796875 64.703125 43.40625 64.703125 
L 13.09375 64.703125 
Q 11.90625 64.703125 11.90625 66 
L 11.90625 69.5 
Q 11.90625 70.703125 13.296875 70.703125 
L 46.09375 70.703125 
Q 51.296875 70.703125 52.6875 68.890625 
Q 54.09375 67.09375 52.703125 62.5 
Q 48.796875 49.703125 41.703125 39 
Q 44 35.796875 46.59375 32.6875 
Q 49.203125 29.59375 51.796875 26.84375 
Q 54.40625 24.09375 57 21.84375 
Q 59.59375 19.59375 61.90625 18.09375 
Q 62.40625 17.703125 62.40625 17.203125 
Q 62.40625 16.703125 62.09375 16.296875 
z
M 80.5 -12.59375 
Q 80.5 -14 79.09375 -14 
L 75 -14 
Q 73.59375 -14 73.59375 -12.59375 
L 73.59375 76.796875 
Q 73.59375 78.203125 75 78.203125 
L 79.09375 78.203125 
Q 80.5 78.203125 80.5 76.796875 
L 80.5 -12.59375 
z
" id="NanumGothic-51648"/>
       <path d="M 80.5 25.90625 
Q 80.5 24.5 79.09375 24.5 
L 75 24.5 
Q 73.59375 24.5 73.59375 25.90625 
L 73.59375 38.09375 
L 52.09375 38.09375 
Q 48.90625 33.90625 43.796875 31.59375 
Q 38.703125 29.296875 32.59375 29.296875 
Q 27.703125 29.296875 23.390625 30.890625 
Q 19.09375 32.5 15.890625 35.453125 
Q 12.703125 38.40625 10.84375 42.453125 
Q 9 46.5 9 51.5 
Q 9 56.703125 10.84375 60.84375 
Q 12.703125 65 15.890625 67.84375 
Q 19.09375 70.703125 23.390625 72.25 
Q 27.703125 73.796875 32.59375 73.796875 
Q 38.796875 73.796875 44.390625 71.09375 
Q 50 68.40625 53.203125 63.40625 
L 73.59375 63.40625 
L 73.59375 76.796875 
Q 73.59375 78.203125 75 78.203125 
L 79.09375 78.203125 
Q 80.5 78.203125 80.5 76.796875 
L 80.5 25.90625 
z
M 49.59375 51.59375 
Q 49.59375 55.5 48.1875 58.5 
Q 46.796875 61.5 44.4375 63.5 
Q 42.09375 65.5 39.046875 66.5 
Q 36 67.5 32.59375 67.5 
Q 29.09375 67.5 26.09375 66.5 
Q 23.09375 65.5 20.84375 63.5 
Q 18.59375 61.5 17.296875 58.5 
Q 16 55.5 16 51.59375 
Q 16 47.90625 17.25 44.953125 
Q 18.5 42 20.703125 39.890625 
Q 22.90625 37.796875 25.953125 36.6875 
Q 29 35.59375 32.59375 35.59375 
Q 36 35.59375 39.046875 36.6875 
Q 42.09375 37.796875 44.4375 39.890625 
Q 46.796875 42 48.1875 44.953125 
Q 49.59375 47.90625 49.59375 51.59375 
z
M 22.203125 18.203125 
Q 22.203125 18.796875 22.703125 19.09375 
Q 23.203125 19.40625 23.703125 19.40625 
L 72.90625 19.40625 
Q 77.59375 19.40625 79.046875 17.65625 
Q 80.5 15.90625 80.5 11.796875 
L 80.5 -13 
Q 80.5 -14.40625 79.09375 -14.40625 
L 75 -14.40625 
Q 73.59375 -14.40625 73.59375 -13 
L 73.59375 11.296875 
Q 73.59375 12.703125 73.140625 13.046875 
Q 72.703125 13.40625 71.296875 13.40625 
L 23.703125 13.40625 
Q 23.203125 13.40625 22.703125 13.75 
Q 22.203125 14.09375 22.203125 14.59375 
L 22.203125 18.203125 
z
M 56.59375 51.5 
Q 56.59375 47.703125 55.296875 44 
L 73.59375 44 
L 73.59375 57.5 
L 55.796875 57.5 
Q 56.59375 54.5 56.59375 51.5 
z
" id="NanumGothic-50669"/>
       <path d="M 80.5 23.59375 
Q 80.5 22.203125 79.09375 22.203125 
L 75 22.203125 
Q 73.59375 22.203125 73.59375 23.59375 
L 73.59375 39.5 
L 53.796875 39.5 
L 53.796875 36.296875 
Q 53.796875 32.09375 52.1875 30.640625 
Q 50.59375 29.203125 46.203125 29.203125 
L 18.703125 29.203125 
Q 16.296875 29.203125 14.84375 29.5 
Q 13.40625 29.796875 12.546875 30.640625 
Q 11.703125 31.5 11.390625 32.84375 
Q 11.09375 34.203125 11.09375 36.296875 
L 11.09375 66.796875 
Q 11.09375 71 12.6875 72.453125 
Q 14.296875 73.90625 18.703125 73.90625 
L 46.203125 73.90625 
Q 48.59375 73.90625 50.046875 73.59375 
Q 51.5 73.296875 52.34375 72.5 
Q 53.203125 71.703125 53.5 70.296875 
Q 53.796875 68.90625 53.796875 66.796875 
L 53.796875 63.09375 
L 73.59375 63.09375 
L 73.59375 76.796875 
Q 73.59375 78.203125 75 78.203125 
L 79.09375 78.203125 
Q 80.5 78.203125 80.5 76.796875 
L 80.5 23.59375 
z
M 81.296875 3.90625 
Q 81.296875 -0.40625 79 -3.796875 
Q 76.703125 -7.203125 72.75 -9.546875 
Q 68.796875 -11.90625 63.546875 -13.15625 
Q 58.296875 -14.40625 52.296875 -14.40625 
Q 45.796875 -14.40625 40.5 -13.15625 
Q 35.203125 -11.90625 31.390625 -9.546875 
Q 27.59375 -7.203125 25.5 -3.796875 
Q 23.40625 -0.40625 23.40625 3.90625 
Q 23.40625 8.09375 25.5 11.4375 
Q 27.59375 14.796875 31.390625 17.140625 
Q 35.203125 19.5 40.5 20.75 
Q 45.796875 22 52.296875 22 
Q 58.296875 22 63.546875 20.75 
Q 68.796875 19.5 72.75 17.203125 
Q 76.703125 14.90625 79 11.546875 
Q 81.296875 8.203125 81.296875 3.90625 
z
M 20.40625 67.90625 
Q 19 67.90625 18.5 67.34375 
Q 18 66.796875 18 65.296875 
L 18 37.796875 
Q 18 36.296875 18.5 35.75 
Q 19 35.203125 20.40625 35.203125 
L 44.5 35.203125 
Q 45.90625 35.203125 46.40625 35.75 
Q 46.90625 36.296875 46.90625 37.796875 
L 46.90625 65.296875 
Q 46.90625 66.796875 46.40625 67.34375 
Q 45.90625 67.90625 44.5 67.90625 
z
M 74.203125 3.59375 
Q 74.203125 6.59375 72.390625 8.890625 
Q 70.59375 11.203125 67.546875 12.75 
Q 64.5 14.296875 60.5 15.140625 
Q 56.5 16 52.203125 16 
Q 47.40625 16 43.40625 15.140625 
Q 39.40625 14.296875 36.546875 12.75 
Q 33.703125 11.203125 32.09375 8.890625 
Q 30.5 6.59375 30.5 3.59375 
Q 30.5 0.703125 32.09375 -1.546875 
Q 33.703125 -3.796875 36.546875 -5.296875 
Q 39.40625 -6.796875 43.40625 -7.59375 
Q 47.40625 -8.40625 52.203125 -8.40625 
Q 56.5 -8.40625 60.5 -7.59375 
Q 64.5 -6.796875 67.546875 -5.296875 
Q 70.59375 -3.796875 72.390625 -1.546875 
Q 74.203125 0.703125 74.203125 3.59375 
z
M 53.796875 45.40625 
L 73.59375 45.40625 
L 73.59375 57.203125 
L 53.796875 57.203125 
z
" id="NanumGothic-47749"/>
      </defs>
      <use xlink:href="#NanumGothic-51648"/>
      <use x="93.999985" xlink:href="#NanumGothic-50669"/>
      <use x="187.999969" xlink:href="#NanumGothic-47749"/>
     </g>
    </g>
    <g id="line2d_32">
     <path d="M 439.596875 29.7 
L 459.596875 29.7 
" style="fill:none;stroke:#1f77b4;stroke-linecap:square;stroke-width:1.5;"/>
    </g>
    <g id="line2d_33"/>
    <g id="text_17">
     <!-- 강원 -->
     <g transform="translate(467.596875 33.2)scale(0.1 -0.1)">
      <defs>
       <path d="M 78.203125 3.90625 
Q 78.203125 -0.40625 75.890625 -3.796875 
Q 73.59375 -7.203125 69.640625 -9.546875 
Q 65.703125 -11.90625 60.453125 -13.15625 
Q 55.203125 -14.40625 49.203125 -14.40625 
Q 42.703125 -14.40625 37.390625 -13.15625 
Q 32.09375 -11.90625 28.296875 -9.546875 
Q 24.5 -7.203125 22.390625 -3.796875 
Q 20.296875 -0.40625 20.296875 3.90625 
Q 20.296875 8.09375 22.390625 11.4375 
Q 24.5 14.796875 28.296875 17.140625 
Q 32.09375 19.5 37.390625 20.75 
Q 42.703125 22 49.203125 22 
Q 55.203125 22 60.453125 20.75 
Q 65.703125 19.5 69.640625 17.203125 
Q 73.59375 14.90625 75.890625 11.546875 
Q 78.203125 8.203125 78.203125 3.90625 
z
M 71.09375 3.59375 
Q 71.09375 6.59375 69.296875 8.890625 
Q 67.5 11.203125 64.453125 12.75 
Q 61.40625 14.296875 57.40625 15.140625 
Q 53.40625 16 49.09375 16 
Q 44.296875 16 40.296875 15.140625 
Q 36.296875 14.296875 33.4375 12.75 
Q 30.59375 11.203125 29 8.890625 
Q 27.40625 6.59375 27.40625 3.59375 
Q 27.40625 0.703125 29 -1.546875 
Q 30.59375 -3.796875 33.4375 -5.296875 
Q 36.296875 -6.796875 40.296875 -7.59375 
Q 44.296875 -8.40625 49.09375 -8.40625 
Q 53.40625 -8.40625 57.40625 -7.59375 
Q 61.40625 -6.796875 64.453125 -5.296875 
Q 67.5 -3.796875 69.296875 -1.546875 
Q 71.09375 0.703125 71.09375 3.59375 
z
M 51.40625 66.703125 
Q 49.09375 52.796875 39.296875 42.1875 
Q 29.5 31.59375 10.90625 23.796875 
Q 9.90625 23.296875 9.453125 23.5 
Q 9 23.703125 8.703125 24.40625 
L 7.203125 27.703125 
Q 6.796875 28.5 7.140625 29 
Q 7.5 29.5 8 29.703125 
Q 23.90625 36.296875 32.953125 45.34375 
Q 42 54.40625 43.90625 64.90625 
Q 44.5 67.796875 41.5 67.796875 
L 10.703125 67.796875 
Q 9.5 67.796875 9.5 69.09375 
L 9.5 72.59375 
Q 9.5 73.796875 10.703125 73.796875 
L 43.796875 73.796875 
Q 48.59375 73.796875 50.296875 72.09375 
Q 52 70.40625 51.40625 66.703125 
z
M 77 23.90625 
Q 77 22.5 75.59375 22.5 
L 71.5 22.5 
Q 70.09375 22.5 70.09375 23.90625 
L 70.09375 76.796875 
Q 70.09375 78.203125 71.5 78.203125 
L 75.59375 78.203125 
Q 77 78.203125 77 76.796875 
L 77 52.90625 
L 90.796875 52.90625 
Q 91.40625 52.90625 91.84375 52.546875 
Q 92.296875 52.203125 92.296875 51.59375 
L 92.296875 48.203125 
Q 92.296875 47.703125 91.84375 47.296875 
Q 91.40625 46.90625 90.796875 46.90625 
L 77 46.90625 
L 77 23.90625 
z
" id="NanumGothic-44053"/>
       <path d="M 56.90625 57.796875 
Q 56.90625 54 55.203125 50.703125 
Q 53.5 47.40625 50.453125 44.953125 
Q 47.40625 42.5 43.203125 41.046875 
Q 39 39.59375 34.09375 39.59375 
Q 29.296875 39.59375 25.1875 41 
Q 21.09375 42.40625 18.09375 44.90625 
Q 15.09375 47.40625 13.390625 50.703125 
Q 11.703125 54 11.703125 57.796875 
Q 11.703125 62 13.390625 65.390625 
Q 15.09375 68.796875 18.09375 71.1875 
Q 21.09375 73.59375 25.1875 74.84375 
Q 29.296875 76.09375 34.09375 76.09375 
Q 38.703125 76.09375 42.796875 74.796875 
Q 46.90625 73.5 50.046875 71.140625 
Q 53.203125 68.796875 55.046875 65.390625 
Q 56.90625 62 56.90625 57.796875 
z
M 73.59375 22.40625 
L 73.59375 76.796875 
Q 73.59375 78.203125 75 78.203125 
L 79.09375 78.203125 
Q 80.5 78.203125 80.5 76.796875 
L 80.5 5.296875 
Q 80.5 3.90625 79.09375 3.90625 
L 75 3.90625 
Q 73.59375 3.90625 73.59375 5.296875 
L 73.59375 16.40625 
L 53.59375 16.40625 
Q 52.296875 16.40625 52.296875 17.59375 
L 52.296875 21.203125 
Q 52.296875 22.40625 53.59375 22.40625 
z
M 50.296875 57.90625 
Q 50.296875 60.90625 49 63.203125 
Q 47.703125 65.5 45.5 67.046875 
Q 43.296875 68.59375 40.34375 69.390625 
Q 37.40625 70.203125 34.09375 70.203125 
Q 30.703125 70.203125 27.796875 69.390625 
Q 24.90625 68.59375 22.796875 67 
Q 20.703125 65.40625 19.5 63.15625 
Q 18.296875 60.90625 18.296875 57.90625 
Q 18.296875 52.203125 22.640625 48.796875 
Q 27 45.40625 34.09375 45.40625 
Q 37.40625 45.40625 40.34375 46.34375 
Q 43.296875 47.296875 45.5 48.9375 
Q 47.703125 50.59375 49 52.890625 
Q 50.296875 55.203125 50.296875 57.90625 
z
M 32.09375 9.09375 
Q 31.59375 9.09375 31.1875 9.546875 
Q 30.796875 10 30.796875 10.59375 
L 30.796875 26.703125 
Q 27.703125 26.5 24.203125 26.390625 
Q 20.703125 26.296875 17.34375 26.1875 
Q 14 26.09375 11.046875 26.046875 
Q 8.09375 26 6.09375 26.09375 
Q 5.5 26.09375 5.046875 26.5 
Q 4.59375 26.90625 4.59375 27.40625 
L 4.59375 30.796875 
Q 4.59375 31.40625 5.046875 31.75 
Q 5.5 32.09375 6.09375 32.09375 
Q 9 32.09375 13 32.140625 
Q 17 32.203125 21.203125 32.296875 
Q 25.40625 32.40625 29.296875 32.546875 
Q 33.203125 32.703125 35.90625 32.90625 
Q 39.40625 33.09375 43.703125 33.5 
Q 48 33.90625 52.296875 34.40625 
Q 56.59375 34.90625 60.4375 35.453125 
Q 64.296875 36 66.90625 36.5 
Q 67.40625 36.59375 67.84375 36.34375 
Q 68.296875 36.09375 68.40625 35.703125 
L 68.90625 32.296875 
Q 69 31.09375 67.703125 30.796875 
Q 61.296875 29.703125 53.34375 28.640625 
Q 45.40625 27.59375 37.703125 27.09375 
L 37.703125 10.59375 
Q 37.703125 10 37.34375 9.546875 
Q 37 9.09375 36.40625 9.09375 
z
M 82.90625 -11 
Q 82.90625 -11.59375 82.40625 -11.890625 
Q 81.90625 -12.203125 81.40625 -12.203125 
L 27 -12.203125 
Q 22.296875 -12.203125 20.84375 -10.453125 
Q 19.40625 -8.703125 19.40625 -4.59375 
L 19.40625 8 
Q 19.40625 9.40625 20.796875 9.40625 
L 24.90625 9.40625 
Q 26.296875 9.40625 26.296875 8 
L 26.296875 -4.09375 
Q 26.296875 -5.5 26.75 -5.84375 
Q 27.203125 -6.203125 28.59375 -6.203125 
L 81.40625 -6.203125 
Q 81.90625 -6.203125 82.40625 -6.546875 
Q 82.90625 -6.90625 82.90625 -7.40625 
L 82.90625 -11 
z
" id="NanumGothic-50896"/>
      </defs>
      <use xlink:href="#NanumGothic-44053"/>
      <use x="93.999985" xlink:href="#NanumGothic-50896"/>
     </g>
    </g>
    <g id="line2d_34">
     <path d="M 439.596875 44.179687 
L 459.596875 44.179687 
" style="fill:none;stroke:#ff7f0e;stroke-linecap:square;stroke-width:1.5;"/>
    </g>
    <g id="line2d_35"/>
    <g id="text_18">
     <!-- 경기 -->
     <g transform="translate(467.596875 47.679687)scale(0.1 -0.1)">
      <defs>
       <path d="M 81.296875 3.90625 
Q 81.296875 -0.40625 79 -3.796875 
Q 76.703125 -7.203125 72.75 -9.546875 
Q 68.796875 -11.90625 63.546875 -13.15625 
Q 58.296875 -14.40625 52.296875 -14.40625 
Q 45.796875 -14.40625 40.5 -13.15625 
Q 35.203125 -11.90625 31.390625 -9.546875 
Q 27.59375 -7.203125 25.5 -3.796875 
Q 23.40625 -0.40625 23.40625 3.90625 
Q 23.40625 8.09375 25.5 11.4375 
Q 27.59375 14.796875 31.390625 17.140625 
Q 35.203125 19.5 40.5 20.75 
Q 45.796875 22 52.296875 22 
Q 58.296875 22 63.546875 20.75 
Q 68.796875 19.5 72.75 17.203125 
Q 76.703125 14.90625 79 11.546875 
Q 81.296875 8.203125 81.296875 3.90625 
z
M 53.59375 66.703125 
Q 53.296875 65.203125 53 63.75 
Q 52.703125 62.296875 52.296875 60.90625 
L 73.59375 60.90625 
L 73.59375 76.796875 
Q 73.59375 78.203125 75 78.203125 
L 79.09375 78.203125 
Q 80.5 78.203125 80.5 76.796875 
L 80.5 23.796875 
Q 80.5 22.40625 79.09375 22.40625 
L 75 22.40625 
Q 73.59375 22.40625 73.59375 23.796875 
L 73.59375 37 
L 48.09375 37 
Q 46.796875 37 46.796875 38.203125 
L 46.796875 41.703125 
Q 46.796875 42.90625 48.09375 42.90625 
L 73.59375 42.90625 
L 73.59375 55 
L 50.09375 55 
Q 45.796875 45.296875 36.890625 37.546875 
Q 28 29.796875 13.59375 23.796875 
Q 12 23.09375 11.40625 24.40625 
L 9.90625 27.703125 
Q 9.5 28.5 9.796875 29 
Q 10.09375 29.5 10.703125 29.703125 
Q 26.59375 36.296875 35.390625 45.34375 
Q 44.203125 54.40625 46.09375 64.90625 
Q 46.703125 67.796875 43.703125 67.796875 
L 13.40625 67.796875 
Q 12.203125 67.796875 12.203125 69.09375 
L 12.203125 72.59375 
Q 12.203125 73.796875 13.40625 73.796875 
L 46 73.796875 
Q 50.796875 73.796875 52.5 72.09375 
Q 54.203125 70.40625 53.59375 66.703125 
z
M 74.203125 3.59375 
Q 74.203125 6.59375 72.390625 8.890625 
Q 70.59375 11.203125 67.546875 12.75 
Q 64.5 14.296875 60.5 15.140625 
Q 56.5 16 52.203125 16 
Q 47.40625 16 43.40625 15.140625 
Q 39.40625 14.296875 36.546875 12.75 
Q 33.703125 11.203125 32.09375 8.890625 
Q 30.5 6.59375 30.5 3.59375 
Q 30.5 0.703125 32.09375 -1.546875 
Q 33.703125 -3.796875 36.546875 -5.296875 
Q 39.40625 -6.796875 43.40625 -7.59375 
Q 47.40625 -8.40625 52.203125 -8.40625 
Q 56.5 -8.40625 60.5 -7.59375 
Q 64.5 -6.796875 67.546875 -5.296875 
Q 70.59375 -3.796875 72.390625 -1.546875 
Q 74.203125 0.703125 74.203125 3.59375 
z
" id="NanumGothic-44221"/>
       <path d="M 80.5 -12.59375 
Q 80.5 -14 79.09375 -14 
L 75 -14 
Q 73.59375 -14 73.59375 -12.59375 
L 73.59375 76.796875 
Q 73.59375 78.203125 75 78.203125 
L 79.09375 78.203125 
Q 80.5 78.203125 80.5 76.796875 
L 80.5 -12.59375 
z
M 53.703125 63.5 
Q 53.203125 54.90625 50.296875 46.59375 
Q 47.40625 38.296875 42.25 30.75 
Q 37.09375 23.203125 29.84375 16.75 
Q 22.59375 10.296875 13.40625 5.40625 
Q 12.09375 4.703125 11.5 5.703125 
L 9.296875 9.203125 
Q 8.59375 10.40625 9.703125 10.90625 
Q 18.203125 15.296875 24.75 20.9375 
Q 31.296875 26.59375 35.9375 33.1875 
Q 40.59375 39.796875 43.296875 47.09375 
Q 46 54.40625 46.703125 62.09375 
Q 46.90625 63.59375 46.296875 64.140625 
Q 45.703125 64.703125 44.296875 64.703125 
L 12.5 64.703125 
Q 11.296875 64.703125 11.296875 66 
L 11.296875 69.5 
Q 11.296875 70.703125 12.5 70.703125 
L 46.203125 70.703125 
Q 50.90625 70.703125 52.40625 68.953125 
Q 53.90625 67.203125 53.703125 63.5 
z
" id="NanumGothic-44592"/>
      </defs>
      <use xlink:href="#NanumGothic-44221"/>
      <use x="93.999985" xlink:href="#NanumGothic-44592"/>
     </g>
    </g>
    <g id="line2d_36">
     <path d="M 439.596875 58.659375 
L 459.596875 58.659375 
" style="fill:none;stroke:#2ca02c;stroke-linecap:square;stroke-width:1.5;"/>
    </g>
    <g id="line2d_37"/>
    <g id="text_19">
     <!-- 경남 -->
     <g transform="translate(467.596875 62.159375)scale(0.1 -0.1)">
      <defs>
       <path d="M 19.90625 12.796875 
Q 19.90625 17 21.5 18.453125 
Q 23.09375 19.90625 27.5 19.90625 
L 69.40625 19.90625 
Q 71.796875 19.90625 73.25 19.59375 
Q 74.703125 19.296875 75.546875 18.5 
Q 76.40625 17.703125 76.703125 16.296875 
Q 77 14.90625 77 12.796875 
L 77 -6.09375 
Q 77 -10.296875 75.390625 -11.75 
Q 73.796875 -13.203125 69.40625 -13.203125 
L 27.5 -13.203125 
Q 25.09375 -13.203125 23.640625 -12.890625 
Q 22.203125 -12.59375 21.34375 -11.75 
Q 20.5 -10.90625 20.203125 -9.546875 
Q 19.90625 -8.203125 19.90625 -6.09375 
z
M 29.203125 13.90625 
Q 27.796875 13.90625 27.296875 13.34375 
Q 26.796875 12.796875 26.796875 11.296875 
L 26.796875 -4.59375 
Q 26.796875 -6.09375 27.296875 -6.640625 
Q 27.796875 -7.203125 29.203125 -7.203125 
L 67.703125 -7.203125 
Q 69.09375 -7.203125 69.59375 -6.640625 
Q 70.09375 -6.09375 70.09375 -4.59375 
L 70.09375 11.296875 
Q 70.09375 12.796875 69.59375 13.34375 
Q 69.09375 13.90625 67.703125 13.90625 
z
M 19 40.796875 
Q 19 39.296875 19.5 38.796875 
Q 20 38.296875 21.40625 38.203125 
Q 30.796875 37.90625 41.1875 38.703125 
Q 51.59375 39.5 61 41.296875 
Q 62.59375 41.59375 62.90625 40.203125 
L 63.40625 37.09375 
Q 63.5 35.90625 62.09375 35.5 
Q 58.296875 34.59375 53.09375 33.890625 
Q 47.90625 33.203125 42.203125 32.75 
Q 36.5 32.296875 30.703125 32.046875 
Q 24.90625 31.796875 20 32 
Q 15.5 32.203125 13.796875 34.140625 
Q 12.09375 36.09375 12.09375 40.296875 
L 12.09375 73.5 
Q 12.09375 74.90625 13.5 74.90625 
L 17.59375 74.90625 
Q 19 74.90625 19 73.5 
L 19 40.796875 
z
M 77 26.796875 
Q 77 25.40625 75.59375 25.40625 
L 71.5 25.40625 
Q 70.09375 25.40625 70.09375 26.796875 
L 70.09375 76.796875 
Q 70.09375 78.203125 71.5 78.203125 
L 75.59375 78.203125 
Q 77 78.203125 77 76.796875 
L 77 53 
L 90.796875 53 
Q 91.40625 53 91.84375 52.640625 
Q 92.296875 52.296875 92.296875 51.703125 
L 92.296875 48.296875 
Q 92.296875 47.796875 91.84375 47.390625 
Q 91.40625 47 90.796875 47 
L 77 47 
L 77 26.796875 
z
" id="NanumGothic-45224"/>
      </defs>
      <use xlink:href="#NanumGothic-44221"/>
      <use x="93.999985" xlink:href="#NanumGothic-45224"/>
     </g>
    </g>
    <g id="line2d_38">
     <path d="M 439.596875 73.139062 
L 459.596875 73.139062 
" style="fill:none;stroke:#d62728;stroke-linecap:square;stroke-width:1.5;"/>
    </g>
    <g id="line2d_39"/>
    <g id="text_20">
     <!-- 경북 -->
     <g transform="translate(467.596875 76.639062)scale(0.1 -0.1)">
      <defs>
       <path d="M 25 43.59375 
Q 22.59375 43.59375 21.140625 43.890625 
Q 19.703125 44.203125 18.890625 45.046875 
Q 18.09375 45.90625 17.796875 47.25 
Q 17.5 48.59375 17.5 50.703125 
L 17.5 76.40625 
Q 17.5 76.90625 17.890625 77.25 
Q 18.296875 77.59375 18.796875 77.59375 
L 23.09375 77.59375 
Q 23.59375 77.59375 23.9375 77.1875 
Q 24.296875 76.796875 24.296875 76.40625 
L 24.296875 66.40625 
L 69.703125 66.40625 
L 69.703125 76.296875 
Q 69.703125 76.796875 70.046875 77.1875 
Q 70.40625 77.59375 70.90625 77.59375 
L 75.203125 77.59375 
Q 75.703125 77.59375 76.09375 77.25 
Q 76.5 76.90625 76.5 76.40625 
L 76.5 50 
Q 76.5 46.203125 74.890625 44.890625 
Q 73.296875 43.59375 68.90625 43.59375 
z
M 15.203125 15.5 
Q 15.203125 16.09375 15.703125 16.390625 
Q 16.203125 16.703125 16.703125 16.703125 
L 43.40625 16.703125 
L 43.40625 28.40625 
L 4.5 28.40625 
Q 3.90625 28.40625 3.453125 28.796875 
Q 3 29.203125 3 29.703125 
L 3 33.09375 
Q 3 33.703125 3.453125 34.046875 
Q 3.90625 34.40625 4.5 34.40625 
L 89.5 34.40625 
Q 90 34.40625 90.5 34.046875 
Q 91 33.703125 91 33.09375 
L 91 29.703125 
Q 91 29.203125 90.5 28.796875 
Q 90 28.40625 89.5 28.40625 
L 50.296875 28.40625 
L 50.296875 16.703125 
L 69.5 16.703125 
Q 74.203125 16.703125 75.640625 14.953125 
Q 77.09375 13.203125 77.09375 9.09375 
L 77.09375 -13.59375 
Q 77.09375 -15 75.703125 -15 
L 71.59375 -15 
Q 70.203125 -15 70.203125 -13.59375 
L 70.203125 8.59375 
Q 70.203125 10 69.75 10.34375 
Q 69.296875 10.703125 67.90625 10.703125 
L 16.703125 10.703125 
Q 16.203125 10.703125 15.703125 11.046875 
Q 15.203125 11.40625 15.203125 11.90625 
L 15.203125 15.5 
z
M 24.296875 60.5 
L 24.296875 51.90625 
Q 24.296875 50.40625 24.796875 49.953125 
Q 25.296875 49.5 26.703125 49.5 
L 67.296875 49.5 
Q 68.703125 49.5 69.203125 49.953125 
Q 69.703125 50.40625 69.703125 51.90625 
L 69.703125 60.5 
z
" id="NanumGothic-48513"/>
      </defs>
      <use xlink:href="#NanumGothic-44221"/>
      <use x="93.999985" xlink:href="#NanumGothic-48513"/>
     </g>
    </g>
    <g id="line2d_40">
     <path d="M 439.596875 87.61875 
L 459.596875 87.61875 
" style="fill:none;stroke:#9467bd;stroke-linecap:square;stroke-width:1.5;"/>
    </g>
    <g id="line2d_41"/>
    <g id="text_21">
     <!-- 광주 -->
     <g transform="translate(467.596875 91.11875)scale(0.1 -0.1)">
      <defs>
       <path d="M 78.296875 3.203125 
Q 78.296875 -1 75.796875 -4.296875 
Q 73.296875 -7.59375 69.140625 -9.84375 
Q 65 -12.09375 59.59375 -13.25 
Q 54.203125 -14.40625 48.296875 -14.40625 
Q 41.90625 -14.40625 36.40625 -13.25 
Q 30.90625 -12.09375 26.90625 -9.84375 
Q 22.90625 -7.59375 20.65625 -4.296875 
Q 18.40625 -1 18.40625 3.203125 
Q 18.40625 7.40625 20.65625 10.65625 
Q 22.90625 13.90625 26.90625 16.046875 
Q 30.90625 18.203125 36.40625 19.296875 
Q 41.90625 20.40625 48.296875 20.40625 
Q 54.203125 20.40625 59.59375 19.296875 
Q 65 18.203125 69.140625 16.046875 
Q 73.296875 13.90625 75.796875 10.65625 
Q 78.296875 7.40625 78.296875 3.203125 
z
M 71.203125 2.90625 
Q 71.203125 5.703125 69.34375 7.84375 
Q 67.5 10 64.34375 11.390625 
Q 61.203125 12.796875 57 13.5 
Q 52.796875 14.203125 48.203125 14.203125 
Q 43.09375 14.203125 38.890625 13.5 
Q 34.703125 12.796875 31.75 11.390625 
Q 28.796875 10 27.140625 7.84375 
Q 25.5 5.703125 25.5 2.90625 
Q 25.5 0.203125 27.140625 -1.84375 
Q 28.796875 -3.90625 31.75 -5.296875 
Q 34.703125 -6.703125 38.890625 -7.453125 
Q 43.09375 -8.203125 48.203125 -8.203125 
Q 52.796875 -8.203125 57 -7.453125 
Q 61.203125 -6.703125 64.34375 -5.296875 
Q 67.5 -3.90625 69.34375 -1.84375 
Q 71.203125 0.203125 71.203125 2.90625 
z
M 65.09375 35.796875 
Q 66 35.90625 66.25 35.65625 
Q 66.5 35.40625 66.59375 34.90625 
L 67 31.5 
Q 67.09375 30.90625 66.84375 30.546875 
Q 66.59375 30.203125 65.703125 30.09375 
Q 59.203125 29.296875 49.140625 28.6875 
Q 39.09375 28.09375 26.59375 28.09375 
L 5.796875 28.09375 
Q 5.203125 28.09375 4.75 28.5 
Q 4.296875 28.90625 4.296875 29.40625 
L 4.296875 32.90625 
Q 4.296875 33.5 4.75 33.796875 
Q 5.203125 34.09375 5.796875 34.09375 
L 23.09375 34.09375 
L 27 34.09375 
L 27 53.703125 
Q 27 55.09375 28.40625 55.09375 
L 32.5 55.09375 
Q 33.90625 55.09375 33.90625 53.703125 
L 33.90625 34.09375 
Q 42.796875 34.296875 50.796875 34.640625 
Q 58.796875 35 65.09375 35.796875 
z
M 77 23.296875 
Q 77 21.90625 75.59375 21.90625 
L 71.5 21.90625 
Q 70.09375 21.90625 70.09375 23.296875 
L 70.09375 76.796875 
Q 70.09375 78.203125 71.5 78.203125 
L 75.59375 78.203125 
Q 77 78.203125 77 76.796875 
L 77 49.90625 
L 90.796875 49.90625 
Q 91.40625 49.90625 91.84375 49.546875 
Q 92.296875 49.203125 92.296875 48.59375 
L 92.296875 45.203125 
Q 92.296875 44.703125 91.84375 44.296875 
Q 91.40625 43.90625 90.796875 43.90625 
L 77 43.90625 
L 77 23.296875 
z
M 11 72.59375 
Q 11 73.203125 11.5 73.5 
Q 12 73.796875 12.5 73.796875 
L 49 73.796875 
Q 51.40625 73.796875 52.84375 73.296875 
Q 54.296875 72.796875 55.09375 71.84375 
Q 55.90625 70.90625 56.203125 69.40625 
Q 56.5 67.90625 56.59375 65.796875 
Q 56.796875 60.703125 56.09375 55.75 
Q 55.40625 50.796875 53.796875 44.796875 
Q 53.59375 44.203125 53.25 43.703125 
Q 52.90625 43.203125 52.296875 43.296875 
L 48.296875 43.59375 
Q 46.59375 43.703125 47.09375 45.40625 
Q 47.796875 47.90625 48.390625 50.203125 
Q 49 52.5 49.34375 54.953125 
Q 49.703125 57.40625 49.796875 60 
Q 49.90625 62.59375 49.796875 65.703125 
Q 49.703125 67.09375 49.296875 67.4375 
Q 48.90625 67.796875 47.5 67.796875 
L 12.5 67.796875 
Q 12 67.796875 11.5 68.140625 
Q 11 68.5 11 69 
L 11 72.59375 
z
" id="NanumGothic-44305"/>
       <path d="M 82.5 39.796875 
Q 82.09375 38.796875 80.59375 39.296875 
Q 72.796875 41.09375 64.5 44.140625 
Q 56.203125 47.203125 48.40625 51 
Q 41.203125 47.296875 32.796875 44.046875 
Q 24.40625 40.796875 14.90625 38.203125 
Q 13.5 37.703125 13 39 
L 11.796875 42.203125 
Q 11.203125 43.703125 12.59375 44 
Q 19.796875 45.90625 26.84375 48.546875 
Q 33.90625 51.203125 40.34375 54.25 
Q 46.796875 57.296875 52.5 60.640625 
Q 58.203125 64 62.59375 67.40625 
Q 63.796875 68.296875 63.640625 69 
Q 63.5 69.703125 61.90625 69.703125 
L 18.90625 69.703125 
Q 17.59375 69.703125 17.59375 71 
L 17.59375 74.5 
Q 17.59375 75.703125 18.90625 75.703125 
L 64.59375 75.703125 
Q 68.5 75.703125 70.75 74.84375 
Q 73 74 73.640625 72.59375 
Q 74.296875 71.203125 73.390625 69.34375 
Q 72.5 67.5 70.296875 65.5 
Q 63.703125 59.59375 54.703125 54.40625 
Q 61 51.59375 68.453125 49.09375 
Q 75.90625 46.59375 83 44.90625 
Q 83.90625 44.703125 84 44.390625 
Q 84.09375 44.09375 83.796875 43.5 
z
M 44.59375 -13.40625 
Q 44.09375 -13.40625 43.6875 -12.953125 
Q 43.296875 -12.5 43.296875 -11.90625 
L 43.296875 20.5 
L 4.5 20.5 
Q 3.90625 20.5 3.453125 20.890625 
Q 3 21.296875 3 21.796875 
L 3 25.203125 
Q 3 25.796875 3.453125 26.140625 
Q 3.90625 26.5 4.5 26.5 
L 89.5 26.5 
Q 90 26.5 90.5 26.140625 
Q 91 25.796875 91 25.203125 
L 91 21.796875 
Q 91 21.296875 90.5 20.890625 
Q 90 20.5 89.5 20.5 
L 50.203125 20.5 
L 50.203125 -11.90625 
Q 50.203125 -12.5 49.84375 -12.953125 
Q 49.5 -13.40625 48.90625 -13.40625 
z
" id="NanumGothic-51452"/>
      </defs>
      <use xlink:href="#NanumGothic-44305"/>
      <use x="93.999985" xlink:href="#NanumGothic-51452"/>
     </g>
    </g>
    <g id="line2d_42">
     <path d="M 439.596875 102.098437 
L 459.596875 102.098437 
" style="fill:none;stroke:#8c564b;stroke-linecap:square;stroke-width:1.5;"/>
    </g>
    <g id="line2d_43"/>
    <g id="text_22">
     <!-- 대구 -->
     <g transform="translate(467.596875 105.598437)scale(0.1 -0.1)">
      <defs>
       <path d="M 64.5 40.40625 
L 77.203125 40.40625 
L 77.203125 76.796875 
Q 77.203125 78.203125 78.59375 78.203125 
L 82.40625 78.203125 
Q 83.796875 78.203125 83.796875 76.796875 
L 83.796875 -12.59375 
Q 83.796875 -14 82.40625 -14 
L 78.59375 -14 
Q 77.203125 -14 77.203125 -12.59375 
L 77.203125 34.40625 
L 64.5 34.40625 
L 64.5 -8.796875 
Q 64.5 -10.203125 63.09375 -10.203125 
L 59.296875 -10.203125 
Q 57.90625 -10.203125 57.90625 -8.796875 
L 57.90625 75.09375 
Q 57.90625 76.5 59.296875 76.5 
L 63.09375 76.5 
Q 64.5 76.5 64.5 75.09375 
z
M 53.09375 16.90625 
Q 53.296875 15.5 51.796875 15.203125 
Q 44.796875 13.5 35.6875 12.75 
Q 26.59375 12 17.09375 12.203125 
Q 12.59375 12.296875 10.9375 14.296875 
Q 9.296875 16.296875 9.296875 20.5 
L 9.296875 62.796875 
Q 9.296875 67 10.890625 68.390625 
Q 12.5 69.796875 16.90625 69.796875 
L 44.296875 69.796875 
Q 45.59375 69.796875 45.59375 68.59375 
L 45.59375 65 
Q 45.59375 63.796875 44.296875 63.796875 
L 18.203125 63.796875 
Q 16.796875 63.796875 16.5 63.4375 
Q 16.203125 63.09375 16.203125 61.59375 
L 16.203125 21 
Q 16.203125 19.5 16.703125 19 
Q 17.203125 18.5 18.59375 18.40625 
Q 27.296875 18.09375 35.09375 18.6875 
Q 42.90625 19.296875 50.703125 21 
Q 52.296875 21.296875 52.59375 19.90625 
z
" id="NanumGothic-45824"/>
       <path d="M 15.09375 74.203125 
Q 15.09375 74.796875 15.59375 75.09375 
Q 16.09375 75.40625 16.59375 75.40625 
L 69.5 75.40625 
Q 71.90625 75.40625 73.34375 74.90625 
Q 74.796875 74.40625 75.59375 73.453125 
Q 76.40625 72.5 76.75 71 
Q 77.09375 69.5 77.09375 67.40625 
Q 77.296875 59.59375 76.140625 51.5 
Q 75 43.40625 73 34 
L 89.5 34 
Q 90 34 90.5 33.640625 
Q 91 33.296875 91 32.703125 
L 91 29.296875 
Q 91 28.796875 90.5 28.390625 
Q 90 28 89.5 28 
L 50.203125 28 
L 50.203125 -11.90625 
Q 50.203125 -12.5 49.84375 -12.953125 
Q 49.5 -13.40625 48.90625 -13.40625 
L 44.59375 -13.40625 
Q 44.09375 -13.40625 43.6875 -12.953125 
Q 43.296875 -12.5 43.296875 -11.90625 
L 43.296875 28 
L 4.5 28 
Q 3.90625 28 3.453125 28.390625 
Q 3 28.796875 3 29.296875 
L 3 32.703125 
Q 3 33.296875 3.453125 33.640625 
Q 3.90625 34 4.5 34 
L 66.203125 34 
Q 67.203125 37.90625 68.09375 42.5 
Q 69 47.09375 69.546875 51.6875 
Q 70.09375 56.296875 70.296875 60.390625 
Q 70.5 64.5 70.296875 67.296875 
Q 70.09375 68.703125 69.75 69.046875 
Q 69.40625 69.40625 68 69.40625 
L 16.59375 69.40625 
Q 16.09375 69.40625 15.59375 69.75 
Q 15.09375 70.09375 15.09375 70.59375 
L 15.09375 74.203125 
z
" id="NanumGothic-44396"/>
      </defs>
      <use xlink:href="#NanumGothic-45824"/>
      <use x="93.999985" xlink:href="#NanumGothic-44396"/>
     </g>
    </g>
    <g id="line2d_44">
     <path d="M 439.596875 116.578125 
L 459.596875 116.578125 
" style="fill:none;stroke:#e377c2;stroke-linecap:square;stroke-width:1.5;"/>
    </g>
    <g id="line2d_45"/>
    <g id="text_23">
     <!-- 대전 -->
     <g transform="translate(467.596875 120.078125)scale(0.1 -0.1)">
      <defs>
       <path d="M 51.703125 63.09375 
Q 50.296875 58.90625 47.6875 54.59375 
Q 45.09375 50.296875 41.59375 46.09375 
Q 45.59375 41.40625 50.84375 37.25 
Q 56.09375 33.09375 61.203125 30.40625 
Q 62.5 29.796875 61.796875 28.5 
L 59.5 25.09375 
Q 59.203125 24.59375 58.59375 24.546875 
Q 58 24.5 57.5 24.796875 
Q 52.40625 27.59375 47.15625 32 
Q 41.90625 36.40625 37.40625 41.296875 
Q 31.703125 35.296875 24.890625 30.296875 
Q 18.09375 25.296875 11.203125 22.09375 
Q 10.703125 21.90625 10.203125 21.75 
Q 9.703125 21.59375 9.40625 22.09375 
L 7.40625 25.59375 
Q 7.09375 26.09375 7.296875 26.640625 
Q 7.5 27.203125 8 27.40625 
Q 19.796875 33.40625 29.140625 42.296875 
Q 38.5 51.203125 44.09375 62.703125 
Q 44.796875 64.09375 44.296875 64.6875 
Q 43.796875 65.296875 42.40625 65.296875 
L 13.09375 65.296875 
Q 11.90625 65.296875 11.90625 66.59375 
L 11.90625 70.09375 
Q 11.90625 71.296875 13.09375 71.296875 
L 45.09375 71.296875 
Q 50.296875 71.296875 51.796875 69.4375 
Q 53.296875 67.59375 51.703125 63.09375 
z
M 73.59375 51.5 
L 73.59375 76.796875 
Q 73.59375 78.203125 75 78.203125 
L 79.09375 78.203125 
Q 80.5 78.203125 80.5 76.796875 
L 80.5 12.203125 
Q 80.5 10.796875 79.09375 10.796875 
L 75 10.796875 
Q 73.59375 10.796875 73.59375 12.203125 
L 73.59375 45.703125 
L 54.703125 45.703125 
Q 53.40625 45.703125 53.40625 46.90625 
L 53.40625 50.296875 
Q 53.40625 51.5 54.703125 51.5 
z
M 83.59375 -11 
Q 83.59375 -11.59375 83.09375 -11.890625 
Q 82.59375 -12.203125 82.09375 -12.203125 
L 31.5 -12.203125 
Q 26.796875 -12.203125 25.34375 -10.453125 
Q 23.90625 -8.703125 23.90625 -4.59375 
L 23.90625 14.40625 
Q 23.90625 15.796875 25.296875 15.796875 
L 29.40625 15.796875 
Q 30.796875 15.796875 30.796875 14.40625 
L 30.796875 -4.09375 
Q 30.796875 -5.5 31.25 -5.84375 
Q 31.703125 -6.203125 33.09375 -6.203125 
L 82.09375 -6.203125 
Q 82.59375 -6.203125 83.09375 -6.546875 
Q 83.59375 -6.90625 83.59375 -7.40625 
L 83.59375 -11 
z
" id="NanumGothic-51204"/>
      </defs>
      <use xlink:href="#NanumGothic-45824"/>
      <use x="93.999985" xlink:href="#NanumGothic-51204"/>
     </g>
    </g>
    <g id="line2d_46">
     <path d="M 439.596875 131.057812 
L 459.596875 131.057812 
" style="fill:none;stroke:#7f7f7f;stroke-linecap:square;stroke-width:1.5;"/>
    </g>
    <g id="line2d_47"/>
    <g id="text_24">
     <!-- 부산 -->
     <g transform="translate(467.596875 134.557812)scale(0.1 -0.1)">
      <defs>
       <path d="M 23.40625 37.796875 
Q 21 37.796875 19.546875 38.09375 
Q 18.09375 38.40625 17.296875 39.25 
Q 16.5 40.09375 16.203125 41.4375 
Q 15.90625 42.796875 15.90625 44.90625 
L 15.90625 76.703125 
Q 15.90625 77.203125 16.296875 77.546875 
Q 16.703125 77.90625 17.203125 77.90625 
L 21.5 77.90625 
Q 22 77.90625 22.34375 77.5 
Q 22.703125 77.09375 22.703125 76.703125 
L 22.703125 63.40625 
L 70.796875 63.40625 
L 70.796875 76.59375 
Q 70.796875 77.09375 71.140625 77.5 
Q 71.5 77.90625 72 77.90625 
L 76.296875 77.90625 
Q 76.796875 77.90625 77.1875 77.546875 
Q 77.59375 77.203125 77.59375 76.703125 
L 77.59375 44.203125 
Q 77.59375 40.40625 76 39.09375 
Q 74.40625 37.796875 70 37.796875 
z
M 44.59375 -13.40625 
Q 44.09375 -13.40625 43.6875 -12.953125 
Q 43.296875 -12.5 43.296875 -11.90625 
L 43.296875 19.40625 
L 4.5 19.40625 
Q 3.90625 19.40625 3.453125 19.796875 
Q 3 20.203125 3 20.703125 
L 3 24.09375 
Q 3 24.703125 3.453125 25.046875 
Q 3.90625 25.40625 4.5 25.40625 
L 89.5 25.40625 
Q 90 25.40625 90.5 25.046875 
Q 91 24.703125 91 24.09375 
L 91 20.703125 
Q 91 20.203125 90.5 19.796875 
Q 90 19.40625 89.5 19.40625 
L 50.203125 19.40625 
L 50.203125 -11.90625 
Q 50.203125 -12.5 49.84375 -12.953125 
Q 49.5 -13.40625 48.90625 -13.40625 
z
M 22.703125 57.5 
L 22.703125 46.09375 
Q 22.703125 44.59375 23.203125 44.140625 
Q 23.703125 43.703125 25.09375 43.703125 
L 68.40625 43.703125 
Q 69.796875 43.703125 70.296875 44.140625 
Q 70.796875 44.59375 70.796875 46.09375 
L 70.796875 57.5 
z
" id="NanumGothic-48512"/>
       <path d="M 36.203125 73.59375 
Q 36.203125 69.703125 35.75 66 
Q 35.296875 62.296875 34.5 58.796875 
Q 35.703125 54.703125 37.953125 50.640625 
Q 40.203125 46.59375 43.25 42.9375 
Q 46.296875 39.296875 49.890625 36.34375 
Q 53.5 33.40625 57.296875 31.59375 
Q 57.90625 31.296875 57.84375 30.796875 
Q 57.796875 30.296875 57.59375 29.796875 
L 55.59375 26.5 
Q 55.296875 26 54.890625 25.796875 
Q 54.5 25.59375 53.59375 26.09375 
Q 50.703125 27.5 47.546875 30.09375 
Q 44.40625 32.703125 41.34375 35.84375 
Q 38.296875 39 35.6875 42.546875 
Q 33.09375 46.09375 31.40625 49.40625 
Q 28 41.296875 22.453125 34.640625 
Q 16.90625 28 9.40625 23.09375 
Q 8.90625 22.796875 8.296875 22.6875 
Q 7.703125 22.59375 7.296875 23.09375 
L 4.796875 26.40625 
Q 4.5 26.796875 4.703125 27.390625 
Q 4.90625 28 5.40625 28.296875 
Q 10.796875 31.59375 15.25 36.5 
Q 19.703125 41.40625 22.84375 47.296875 
Q 26 53.203125 27.640625 59.953125 
Q 29.296875 66.703125 29.203125 73.703125 
Q 29.203125 75.296875 30.40625 75.296875 
L 35.09375 75 
Q 36.203125 75 36.203125 73.59375 
z
M 77 13 
Q 77 11.59375 75.59375 11.59375 
L 71.5 11.59375 
Q 70.09375 11.59375 70.09375 13 
L 70.09375 76.796875 
Q 70.09375 78.203125 71.5 78.203125 
L 75.59375 78.203125 
Q 77 78.203125 77 76.796875 
L 77 48.59375 
L 90.796875 48.59375 
Q 91.40625 48.59375 91.84375 48.25 
Q 92.296875 47.90625 92.296875 47.296875 
L 92.296875 43.90625 
Q 92.296875 43.40625 91.84375 43 
Q 91.40625 42.59375 90.796875 42.59375 
L 77 42.59375 
L 77 13 
z
M 81.5 -11 
Q 81.5 -11.59375 81 -11.890625 
Q 80.5 -12.203125 80 -12.203125 
L 28.5 -12.203125 
Q 23.796875 -12.203125 22.34375 -10.453125 
Q 20.90625 -8.703125 20.90625 -4.59375 
L 20.90625 15 
Q 20.90625 16.40625 22.296875 16.40625 
L 26.40625 16.40625 
Q 27.796875 16.40625 27.796875 15 
L 27.796875 -4.09375 
Q 27.796875 -5.5 28.25 -5.84375 
Q 28.703125 -6.203125 30.09375 -6.203125 
L 80 -6.203125 
Q 80.5 -6.203125 81 -6.546875 
Q 81.5 -6.90625 81.5 -7.40625 
L 81.5 -11 
z
" id="NanumGothic-49328"/>
      </defs>
      <use xlink:href="#NanumGothic-48512"/>
      <use x="93.999985" xlink:href="#NanumGothic-49328"/>
     </g>
    </g>
    <g id="line2d_48">
     <path d="M 439.596875 145.5375 
L 459.596875 145.5375 
" style="fill:none;stroke:#bcbd22;stroke-linecap:square;stroke-width:1.5;"/>
    </g>
    <g id="line2d_49"/>
    <g id="text_25">
     <!-- 서울 -->
     <g transform="translate(467.596875 149.0375)scale(0.1 -0.1)">
      <defs>
       <path d="M 80.5 -12.59375 
Q 80.5 -14 79.09375 -14 
L 75 -14 
Q 73.59375 -14 73.59375 -12.59375 
L 73.59375 39.59375 
L 51.703125 39.59375 
Q 50.40625 39.59375 50.40625 40.796875 
L 50.40625 44.40625 
Q 50.40625 45.59375 51.703125 45.59375 
L 73.59375 45.59375 
L 73.59375 76.796875 
Q 73.59375 78.203125 75 78.203125 
L 79.09375 78.203125 
Q 80.5 78.203125 80.5 76.796875 
L 80.5 -12.59375 
z
M 36.296875 71.703125 
Q 36.296875 65.09375 35.75 59.046875 
Q 35.203125 53 34 47.40625 
Q 35 43.40625 37.09375 38.953125 
Q 39.203125 34.5 42.046875 30.09375 
Q 44.90625 25.703125 48.453125 21.546875 
Q 52 17.40625 56 14.09375 
Q 56.5 13.703125 56.546875 13.09375 
Q 56.59375 12.5 56.296875 12.09375 
L 53.796875 9 
Q 52.90625 7.90625 51.703125 9 
Q 48.90625 11.40625 45.953125 14.75 
Q 43 18.09375 40.25 21.796875 
Q 37.5 25.5 35.09375 29.390625 
Q 32.703125 33.296875 31 36.90625 
Q 27.796875 27.796875 22.59375 20.140625 
Q 17.40625 12.5 10.203125 5.90625 
Q 9.203125 5.09375 8.5 5.796875 
L 5.5 8.90625 
Q 5.203125 9.203125 5.25 9.703125 
Q 5.296875 10.203125 5.796875 10.703125 
Q 11.90625 16.5 16.40625 22.890625 
Q 20.90625 29.296875 23.75 36.6875 
Q 26.59375 44.09375 27.9375 52.796875 
Q 29.296875 61.5 29.296875 71.90625 
Q 29.296875 72.59375 29.640625 72.9375 
Q 30 73.296875 30.5 73.296875 
L 35.203125 73.09375 
Q 36.296875 73.09375 36.296875 71.703125 
z
" id="NanumGothic-49436"/>
       <path d="M 89.5 38.90625 
Q 90 38.90625 90.5 38.546875 
Q 91 38.203125 91 37.59375 
L 91 34.203125 
Q 91 33.703125 90.5 33.296875 
Q 90 32.90625 89.5 32.90625 
L 50.296875 32.90625 
L 50.296875 22.90625 
L 69 22.90625 
Q 71.40625 22.90625 72.90625 22.546875 
Q 74.40625 22.203125 75.296875 21.390625 
Q 76.203125 20.59375 76.546875 19.140625 
Q 76.90625 17.703125 76.90625 15.59375 
L 76.90625 9.203125 
Q 76.90625 5 75.15625 3.546875 
Q 73.40625 2.09375 68.90625 2.09375 
L 25.796875 2.09375 
Q 24.40625 2.09375 24.046875 1.6875 
Q 23.703125 1.296875 23.703125 -0.203125 
L 23.703125 -5.296875 
Q 23.703125 -6.703125 24.09375 -7.140625 
Q 24.5 -7.59375 25.90625 -7.59375 
L 77.59375 -7.59375 
Q 78.09375 -7.59375 78.546875 -7.890625 
Q 79 -8.203125 79 -8.703125 
L 79 -12.203125 
Q 79 -12.703125 78.546875 -13.046875 
Q 78.09375 -13.40625 77.703125 -13.40625 
L 24.5 -13.40625 
Q 19.796875 -13.40625 18.34375 -11.65625 
Q 16.90625 -9.90625 16.90625 -5.703125 
L 16.90625 0.703125 
Q 16.90625 4.90625 18.65625 6.34375 
Q 20.40625 7.796875 24.90625 7.796875 
L 67.90625 7.796875 
Q 69.296875 7.796875 69.6875 8.1875 
Q 70.09375 8.59375 70.09375 10.09375 
L 70.09375 14.90625 
Q 70.09375 16.40625 69.75 16.796875 
Q 69.40625 17.203125 68 17.203125 
L 18.09375 17.203125 
Q 17.59375 17.203125 17.140625 17.5 
Q 16.703125 17.796875 16.703125 18.296875 
L 16.703125 21.796875 
Q 16.703125 22.296875 17.140625 22.59375 
Q 17.59375 22.90625 18.09375 22.90625 
L 43.40625 22.90625 
L 43.40625 32.90625 
L 4.5 32.90625 
Q 3.90625 32.90625 3.453125 33.296875 
Q 3 33.703125 3 34.203125 
L 3 37.59375 
Q 3 38.203125 3.453125 38.546875 
Q 3.90625 38.90625 4.5 38.90625 
L 89.5 38.90625 
z
M 46.90625 44.90625 
Q 42.203125 44.90625 36.796875 45.59375 
Q 31.40625 46.296875 26.796875 48.25 
Q 22.203125 50.203125 19.203125 53.5 
Q 16.203125 56.796875 16.203125 62.09375 
Q 16.203125 67.296875 19.203125 70.59375 
Q 22.203125 73.90625 26.796875 75.796875 
Q 31.40625 77.703125 36.796875 78.453125 
Q 42.203125 79.203125 46.90625 79.203125 
Q 51.796875 79.203125 57.1875 78.5 
Q 62.59375 77.796875 67.140625 75.890625 
Q 71.703125 74 74.640625 70.640625 
Q 77.59375 67.296875 77.59375 62.09375 
Q 77.59375 56.796875 74.59375 53.5 
Q 71.59375 50.203125 67.046875 48.25 
Q 62.5 46.296875 57.09375 45.59375 
Q 51.703125 44.90625 46.90625 44.90625 
z
M 46.90625 73.09375 
Q 43.59375 73.09375 39.5 72.6875 
Q 35.40625 72.296875 31.796875 71.09375 
Q 28.203125 69.90625 25.75 67.703125 
Q 23.296875 65.5 23.296875 62 
Q 23.296875 58.5 25.75 56.34375 
Q 28.203125 54.203125 31.796875 53 
Q 35.40625 51.796875 39.5 51.390625 
Q 43.59375 51 46.90625 51 
Q 50.09375 51 54.1875 51.390625 
Q 58.296875 51.796875 61.890625 53 
Q 65.5 54.203125 68 56.34375 
Q 70.5 58.5 70.5 62 
Q 70.5 65.5 68 67.703125 
Q 65.5 69.90625 61.890625 71.09375 
Q 58.296875 72.296875 54.1875 72.6875 
Q 50.09375 73.09375 46.90625 73.09375 
z
" id="NanumGothic-50872"/>
      </defs>
      <use xlink:href="#NanumGothic-49436"/>
      <use x="93.999985" xlink:href="#NanumGothic-50872"/>
     </g>
    </g>
    <g id="line2d_50">
     <path d="M 439.596875 160.017187 
L 459.596875 160.017187 
" style="fill:none;stroke:#17becf;stroke-linecap:square;stroke-width:1.5;"/>
    </g>
    <g id="line2d_51"/>
    <g id="text_26">
     <!-- 세종 -->
     <g transform="translate(467.596875 163.517187)scale(0.1 -0.1)">
      <defs>
       <path d="M 31.796875 71.203125 
Q 31.796875 64.59375 31.546875 58.890625 
Q 31.296875 53.203125 30.5 48.09375 
Q 31.09375 44 32.6875 39.640625 
Q 34.296875 35.296875 36.59375 30.84375 
Q 38.90625 26.40625 41.953125 22.15625 
Q 45 17.90625 48.59375 14.203125 
Q 49 13.796875 49.046875 13.1875 
Q 49.09375 12.59375 48.59375 12.203125 
L 45.796875 9.5 
Q 45.296875 9 44.6875 9.046875 
Q 44.09375 9.09375 43.703125 9.59375 
Q 41.296875 12.203125 38.9375 15.296875 
Q 36.59375 18.40625 34.5 21.75 
Q 32.40625 25.09375 30.65625 28.5 
Q 28.90625 31.90625 27.703125 35 
Q 25.09375 26.703125 20.6875 20.140625 
Q 16.296875 13.59375 9.703125 7.296875 
Q 8.703125 6.5 8 7.203125 
L 4.796875 10.203125 
Q 3.90625 10.90625 5.09375 12 
Q 10.40625 17 14.15625 22.59375 
Q 17.90625 28.203125 20.296875 35.203125 
Q 22.703125 42.203125 23.796875 51.046875 
Q 24.90625 59.90625 24.90625 71.40625 
Q 24.90625 72.09375 25.25 72.4375 
Q 25.59375 72.796875 26.09375 72.796875 
L 30.5 72.59375 
Q 31.796875 72.59375 31.796875 71.203125 
z
M 59.5 43.796875 
L 59.5 75.09375 
Q 59.5 76.5 60.90625 76.5 
L 64.703125 76.5 
Q 66.09375 76.5 66.09375 75.09375 
L 66.09375 -8.796875 
Q 66.09375 -10.203125 64.703125 -10.203125 
L 60.90625 -10.203125 
Q 59.5 -10.203125 59.5 -8.796875 
L 59.5 37.796875 
L 44.703125 37.796875 
Q 43.40625 37.796875 43.40625 39 
L 43.40625 42.59375 
Q 43.40625 43.796875 44.703125 43.796875 
z
M 83.796875 -12.59375 
Q 83.796875 -14 82.40625 -14 
L 78.59375 -14 
Q 77.203125 -14 77.203125 -12.59375 
L 77.203125 76.796875 
Q 77.203125 78.203125 78.59375 78.203125 
L 82.40625 78.203125 
Q 83.796875 78.203125 83.796875 76.796875 
z
" id="NanumGothic-49464"/>
       <path d="M 78 1.703125 
Q 78 -3.40625 74.796875 -6.59375 
Q 71.59375 -9.796875 66.890625 -11.59375 
Q 62.203125 -13.40625 56.75 -14.046875 
Q 51.296875 -14.703125 46.796875 -14.703125 
Q 43.796875 -14.703125 40.34375 -14.390625 
Q 36.90625 -14.09375 33.453125 -13.4375 
Q 30 -12.796875 26.796875 -11.59375 
Q 23.59375 -10.40625 21.140625 -8.546875 
Q 18.703125 -6.703125 17.203125 -4.203125 
Q 15.703125 -1.703125 15.703125 1.703125 
Q 15.703125 6.703125 18.890625 9.84375 
Q 22.09375 13 26.796875 14.796875 
Q 31.5 16.59375 36.953125 17.296875 
Q 42.40625 18 46.796875 18 
Q 51.296875 18 56.75 17.34375 
Q 62.203125 16.703125 66.953125 14.890625 
Q 71.703125 13.09375 74.84375 9.890625 
Q 78 6.703125 78 1.703125 
z
M 70.203125 65.90625 
Q 65 61 56.09375 56.40625 
Q 58.90625 55.59375 62.34375 54.6875 
Q 65.796875 53.796875 69.390625 52.890625 
Q 73 52 76.59375 51.203125 
Q 80.203125 50.40625 83.296875 49.796875 
Q 84.59375 49.5 84.203125 48.40625 
L 82.796875 45.09375 
Q 82.296875 44 81 44.296875 
Q 77.59375 44.90625 73.390625 45.90625 
Q 69.203125 46.90625 64.84375 48.046875 
Q 60.5 49.203125 56.25 50.390625 
Q 52 51.59375 48.40625 52.796875 
Q 40.5 49.5 31.453125 46.953125 
Q 22.40625 44.40625 13 42.796875 
Q 12.09375 42.59375 11.75 42.9375 
Q 11.40625 43.296875 11.203125 43.90625 
L 10.296875 46.90625 
Q 9.90625 48.40625 11.09375 48.5 
Q 18 49.59375 25.59375 51.6875 
Q 33.203125 53.796875 40.25 56.390625 
Q 47.296875 59 53.1875 61.84375 
Q 59.09375 64.703125 62.59375 67.296875 
Q 64.203125 68.5 63.84375 69.203125 
Q 63.5 69.90625 62.09375 69.90625 
L 18.90625 69.90625 
Q 17.59375 69.90625 17.59375 71.203125 
L 17.59375 74.703125 
Q 17.59375 75.90625 18.90625 75.90625 
L 64.59375 75.90625 
Q 72.296875 75.90625 73.6875 73.25 
Q 75.09375 70.59375 70.203125 65.90625 
z
M 70.703125 1.59375 
Q 70.703125 4.90625 68 6.84375 
Q 65.296875 8.796875 61.5 9.890625 
Q 57.703125 11 53.640625 11.34375 
Q 49.59375 11.703125 46.796875 11.703125 
Q 43.90625 11.703125 39.84375 11.34375 
Q 35.796875 11 32.046875 9.890625 
Q 28.296875 8.796875 25.640625 6.84375 
Q 23 4.90625 23 1.59375 
Q 23 -1.59375 25.640625 -3.59375 
Q 28.296875 -5.59375 32.046875 -6.640625 
Q 35.796875 -7.703125 39.84375 -8.046875 
Q 43.90625 -8.40625 46.796875 -8.40625 
Q 49.59375 -8.40625 53.6875 -8.046875 
Q 57.796875 -7.703125 61.546875 -6.640625 
Q 65.296875 -5.59375 68 -3.59375 
Q 70.703125 -1.59375 70.703125 1.59375 
z
M 49 46 
Q 49.5 46 49.890625 45.546875 
Q 50.296875 45.09375 50.296875 44.5 
L 50.296875 31.09375 
L 89.5 31.09375 
Q 90 31.09375 90.5 30.75 
Q 91 30.40625 91 29.796875 
L 91 26.40625 
Q 91 25.90625 90.5 25.5 
Q 90 25.09375 89.5 25.09375 
L 4.5 25.09375 
Q 3.90625 25.09375 3.453125 25.5 
Q 3 25.90625 3 26.40625 
L 3 29.796875 
Q 3 30.40625 3.453125 30.75 
Q 3.90625 31.09375 4.5 31.09375 
L 43.40625 31.09375 
L 43.40625 44.5 
Q 43.40625 45.09375 43.75 45.546875 
Q 44.09375 46 44.703125 46 
L 49 46 
z
" id="NanumGothic-51333"/>
      </defs>
      <use xlink:href="#NanumGothic-49464"/>
      <use x="93.999985" xlink:href="#NanumGothic-51333"/>
     </g>
    </g>
    <g id="line2d_52">
     <path d="M 439.596875 174.496875 
L 459.596875 174.496875 
" style="fill:none;stroke:#1f77b4;stroke-linecap:square;stroke-width:1.5;"/>
    </g>
    <g id="line2d_53"/>
    <g id="text_27">
     <!-- 울산 -->
     <g transform="translate(467.596875 177.996875)scale(0.1 -0.1)">
      <use xlink:href="#NanumGothic-50872"/>
      <use x="93.999985" xlink:href="#NanumGothic-49328"/>
     </g>
    </g>
    <g id="line2d_54">
     <path d="M 439.596875 188.976562 
L 459.596875 188.976562 
" style="fill:none;stroke:#ff7f0e;stroke-linecap:square;stroke-width:1.5;"/>
    </g>
    <g id="line2d_55"/>
    <g id="text_28">
     <!-- 인천 -->
     <g transform="translate(467.596875 192.476562)scale(0.1 -0.1)">
      <defs>
       <path d="M 80.5 13 
Q 80.5 11.59375 79.09375 11.59375 
L 75 11.59375 
Q 73.59375 11.59375 73.59375 13 
L 73.59375 76.796875 
Q 73.59375 78.203125 75 78.203125 
L 79.09375 78.203125 
Q 80.5 78.203125 80.5 76.796875 
L 80.5 13 
z
M 83.5 -11 
Q 83.5 -11.59375 83 -11.890625 
Q 82.5 -12.203125 82 -12.203125 
L 31.90625 -12.203125 
Q 27.203125 -12.203125 25.75 -10.453125 
Q 24.296875 -8.703125 24.296875 -4.59375 
L 24.296875 15 
Q 24.296875 16.40625 25.703125 16.40625 
L 29.796875 16.40625 
Q 31.203125 16.40625 31.203125 15 
L 31.203125 -4.09375 
Q 31.203125 -5.5 31.640625 -5.84375 
Q 32.09375 -6.203125 33.5 -6.203125 
L 82 -6.203125 
Q 82.5 -6.203125 83 -6.546875 
Q 83.5 -6.90625 83.5 -7.40625 
L 83.5 -11 
z
M 56 50.5 
Q 56 45.296875 54.203125 40.9375 
Q 52.40625 36.59375 49.203125 33.5 
Q 46 30.40625 41.640625 28.65625 
Q 37.296875 26.90625 32.203125 26.90625 
Q 27.296875 26.90625 23 28.59375 
Q 18.703125 30.296875 15.546875 33.4375 
Q 12.40625 36.59375 10.59375 40.890625 
Q 8.796875 45.203125 8.796875 50.5 
Q 8.796875 56 10.59375 60.390625 
Q 12.40625 64.796875 15.546875 67.890625 
Q 18.703125 71 23 72.59375 
Q 27.296875 74.203125 32.203125 74.203125 
Q 36.796875 74.203125 41.09375 72.59375 
Q 45.40625 71 48.703125 67.953125 
Q 52 64.90625 54 60.5 
Q 56 56.09375 56 50.5 
z
M 49 50.59375 
Q 49 54.796875 47.640625 58.046875 
Q 46.296875 61.296875 44 63.4375 
Q 41.703125 65.59375 38.640625 66.6875 
Q 35.59375 67.796875 32.203125 67.796875 
Q 28.703125 67.796875 25.75 66.6875 
Q 22.796875 65.59375 20.546875 63.4375 
Q 18.296875 61.296875 17.046875 58.046875 
Q 15.796875 54.796875 15.796875 50.59375 
Q 15.796875 46.59375 17 43.390625 
Q 18.203125 40.203125 20.390625 37.953125 
Q 22.59375 35.703125 25.59375 34.453125 
Q 28.59375 33.203125 32.203125 33.203125 
Q 35.59375 33.203125 38.640625 34.453125 
Q 41.703125 35.703125 44 37.953125 
Q 46.296875 40.203125 47.640625 43.390625 
Q 49 46.59375 49 50.59375 
z
" id="NanumGothic-51064"/>
       <path d="M 58.703125 21.5 
Q 58.40625 20.796875 57.953125 20.59375 
Q 57.5 20.40625 56.59375 20.796875 
Q 51.40625 23.203125 46.25 26.5 
Q 41.09375 29.796875 36.40625 34 
Q 26 25 12.40625 19 
Q 11.90625 18.796875 11.40625 18.75 
Q 10.90625 18.703125 10.59375 19.203125 
L 8.796875 22.796875 
Q 8.5 23.296875 8.75 23.796875 
Q 9 24.296875 9.5 24.5 
Q 20.90625 29.90625 29.953125 37.203125 
Q 39 44.5 45.203125 54 
Q 46 55.296875 45.453125 55.9375 
Q 44.90625 56.59375 43.5 56.59375 
L 13.203125 56.59375 
Q 12 56.59375 12 57.90625 
L 12 61.40625 
Q 12 62.59375 13.203125 62.59375 
L 46.203125 62.59375 
Q 51.40625 62.59375 53.25 60.59375 
Q 55.09375 58.59375 52.796875 54.40625 
Q 47.796875 45.5 41 38.40625 
Q 45.296875 34.5 50.09375 31.453125 
Q 54.90625 28.40625 59.59375 26.5 
Q 60.203125 26.296875 60.390625 25.75 
Q 60.59375 25.203125 60.40625 24.703125 
z
M 73.59375 45.59375 
L 73.59375 76.796875 
Q 73.59375 78.203125 75 78.203125 
L 79.09375 78.203125 
Q 80.5 78.203125 80.5 76.796875 
L 80.5 11.59375 
Q 80.5 10.203125 79.09375 10.203125 
L 75 10.203125 
Q 73.59375 10.203125 73.59375 11.59375 
L 73.59375 39.59375 
L 57 39.59375 
Q 55.703125 39.59375 55.703125 40.796875 
L 55.703125 44.40625 
Q 55.703125 45.59375 57 45.59375 
z
M 83.59375 -11 
Q 83.59375 -11.59375 83.09375 -11.890625 
Q 82.59375 -12.203125 82.09375 -12.203125 
L 31.203125 -12.203125 
Q 26.5 -12.203125 25.046875 -10.453125 
Q 23.59375 -8.703125 23.59375 -4.59375 
L 23.59375 12.5 
Q 23.59375 13.90625 25 13.90625 
L 29.09375 13.90625 
Q 30.5 13.90625 30.5 12.5 
L 30.5 -4.09375 
Q 30.5 -5.5 30.953125 -5.84375 
Q 31.40625 -6.203125 32.796875 -6.203125 
L 82.09375 -6.203125 
Q 82.59375 -6.203125 83.09375 -6.546875 
Q 83.59375 -6.90625 83.59375 -7.40625 
L 83.59375 -11 
z
M 44.296875 75.703125 
Q 45.796875 75.703125 45.796875 74.296875 
L 45.796875 71.09375 
Q 45.796875 69.59375 44.296875 69.59375 
L 21.703125 69.59375 
Q 20.203125 69.59375 20.203125 71.09375 
L 20.203125 74.296875 
Q 20.203125 75.703125 21.703125 75.703125 
L 44.296875 75.703125 
z
" id="NanumGothic-52380"/>
      </defs>
      <use xlink:href="#NanumGothic-51064"/>
      <use x="93.999985" xlink:href="#NanumGothic-52380"/>
     </g>
    </g>
    <g id="line2d_56">
     <path d="M 439.596875 203.45625 
L 459.596875 203.45625 
" style="fill:none;stroke:#2ca02c;stroke-linecap:square;stroke-width:1.5;"/>
    </g>
    <g id="line2d_57"/>
    <g id="text_29">
     <!-- 전남 -->
     <g transform="translate(467.596875 206.95625)scale(0.1 -0.1)">
      <use xlink:href="#NanumGothic-51204"/>
      <use x="93.999985" xlink:href="#NanumGothic-45224"/>
     </g>
    </g>
    <g id="line2d_58">
     <path d="M 439.596875 217.935937 
L 459.596875 217.935937 
" style="fill:none;stroke:#d62728;stroke-linecap:square;stroke-width:1.5;"/>
    </g>
    <g id="line2d_59"/>
    <g id="text_30">
     <!-- 전북 -->
     <g transform="translate(467.596875 221.435937)scale(0.1 -0.1)">
      <use xlink:href="#NanumGothic-51204"/>
      <use x="93.999985" xlink:href="#NanumGothic-48513"/>
     </g>
    </g>
    <g id="line2d_60">
     <path d="M 439.596875 232.415625 
L 459.596875 232.415625 
" style="fill:none;stroke:#9467bd;stroke-linecap:square;stroke-width:1.5;"/>
    </g>
    <g id="line2d_61"/>
    <g id="text_31">
     <!-- 제주 -->
     <g transform="translate(467.596875 235.915625)scale(0.1 -0.1)">
      <defs>
       <path d="M 44 62.09375 
Q 42.5 56.296875 40.296875 50.75 
Q 38.09375 45.203125 35.203125 39.796875 
Q 36.703125 36.796875 38.75 33.640625 
Q 40.796875 30.5 43.1875 27.5 
Q 45.59375 24.5 48.140625 21.84375 
Q 50.703125 19.203125 53.203125 17.203125 
Q 53.703125 16.703125 53.640625 16.203125 
Q 53.59375 15.703125 53.203125 15.296875 
L 50.796875 12.59375 
Q 50.40625 12.203125 50 12.09375 
Q 49.59375 12 48.796875 12.703125 
Q 46.59375 14.59375 44.1875 17.09375 
Q 41.796875 19.59375 39.5 22.390625 
Q 37.203125 25.203125 35.09375 28.046875 
Q 33 30.90625 31.40625 33.59375 
Q 26.90625 26.703125 21.09375 20.5 
Q 15.296875 14.296875 8.40625 9.09375 
Q 7.90625 8.796875 7.34375 8.640625 
Q 6.796875 8.5 6.5 8.90625 
L 3.90625 12 
Q 3.5 12.5 3.640625 13 
Q 3.796875 13.5 4.296875 13.796875 
Q 16.796875 23.59375 24.6875 35.1875 
Q 32.59375 46.796875 36.40625 61.59375 
Q 36.796875 63 36.4375 63.59375 
Q 36.09375 64.203125 34.703125 64.203125 
L 9.296875 64.203125 
Q 8.09375 64.203125 8.09375 65.5 
L 8.09375 69 
Q 8.09375 70.203125 9.5 70.203125 
L 37.40625 70.203125 
Q 42.59375 70.203125 43.890625 68.5 
Q 45.203125 66.796875 44 62.09375 
z
M 59.5 44.796875 
L 59.5 75.09375 
Q 59.5 76.5 60.90625 76.5 
L 64.703125 76.5 
Q 66.09375 76.5 66.09375 75.09375 
L 66.09375 -8.796875 
Q 66.09375 -10.203125 64.703125 -10.203125 
L 60.90625 -10.203125 
Q 59.5 -10.203125 59.5 -8.796875 
L 59.5 38.796875 
L 45.09375 38.796875 
Q 44.5 38.796875 44.046875 39.1875 
Q 43.59375 39.59375 43.59375 40.09375 
L 43.59375 43.5 
Q 43.59375 44.09375 44.046875 44.4375 
Q 44.5 44.796875 45.09375 44.796875 
z
M 83.796875 -12.59375 
Q 83.796875 -14 82.40625 -14 
L 78.59375 -14 
Q 77.203125 -14 77.203125 -12.59375 
L 77.203125 76.796875 
Q 77.203125 78.203125 78.59375 78.203125 
L 82.40625 78.203125 
Q 83.796875 78.203125 83.796875 76.796875 
z
" id="NanumGothic-51228"/>
      </defs>
      <use xlink:href="#NanumGothic-51228"/>
      <use x="93.999985" xlink:href="#NanumGothic-51452"/>
     </g>
    </g>
    <g id="line2d_62">
     <path d="M 439.596875 246.895312 
L 459.596875 246.895312 
" style="fill:none;stroke:#8c564b;stroke-linecap:square;stroke-width:1.5;"/>
    </g>
    <g id="line2d_63"/>
    <g id="text_32">
     <!-- 충남 -->
     <g transform="translate(467.596875 250.395312)scale(0.1 -0.1)">
      <defs>
       <path d="M 89.5 31.203125 
Q 90 31.203125 90.5 30.84375 
Q 91 30.5 91 29.90625 
L 91 26.5 
Q 91 26 90.5 25.59375 
Q 90 25.203125 89.5 25.203125 
L 50.296875 25.203125 
L 50.296875 16.203125 
Q 54.703125 16 59.59375 15.140625 
Q 64.5 14.296875 68.59375 12.546875 
Q 72.703125 10.796875 75.34375 7.9375 
Q 78 5.09375 78 0.796875 
Q 78 -4 74.796875 -7 
Q 71.59375 -10 66.84375 -11.75 
Q 62.09375 -13.5 56.640625 -14.140625 
Q 51.203125 -14.796875 46.796875 -14.796875 
Q 43.90625 -14.796875 40.453125 -14.546875 
Q 37 -14.296875 33.546875 -13.59375 
Q 30.09375 -12.90625 26.890625 -11.75 
Q 23.703125 -10.59375 21.203125 -8.890625 
Q 18.703125 -7.203125 17.203125 -4.796875 
Q 15.703125 -2.40625 15.703125 0.796875 
Q 15.703125 5 18.390625 7.84375 
Q 21.09375 10.703125 25.1875 12.5 
Q 29.296875 14.296875 34.140625 15.140625 
Q 39 16 43.40625 16.203125 
L 43.40625 25.203125 
L 4.5 25.203125 
Q 3.90625 25.203125 3.453125 25.59375 
Q 3 26 3 26.5 
L 3 29.90625 
Q 3 30.5 3.453125 30.84375 
Q 3.90625 31.203125 4.5 31.203125 
L 89.5 31.203125 
z
M 68.796875 56.40625 
Q 63.40625 52.59375 55.90625 49.09375 
Q 61.40625 47.5 67.90625 46.140625 
Q 74.40625 44.796875 80.40625 44 
Q 81.203125 43.90625 81.34375 43.546875 
Q 81.5 43.203125 81.296875 42.5 
L 80.40625 39.09375 
Q 80.203125 38 78.796875 38.296875 
Q 75.59375 38.796875 71.640625 39.546875 
Q 67.703125 40.296875 63.5 41.25 
Q 59.296875 42.203125 55.09375 43.25 
Q 50.90625 44.296875 47 45.40625 
Q 40.203125 42.90625 32.34375 40.84375 
Q 24.5 38.796875 15.59375 37.296875 
Q 14.09375 37 13.703125 38 
L 12.5 41.40625 
Q 12.296875 41.90625 12.59375 42.40625 
Q 12.90625 42.90625 13.5 43 
Q 20.59375 44.296875 26.796875 45.84375 
Q 33 47.40625 38.59375 49.203125 
Q 44.203125 51 49.453125 53.09375 
Q 54.703125 55.203125 59.90625 57.703125 
Q 61.59375 58.5 61.4375 59.203125 
Q 61.296875 59.90625 59.703125 59.90625 
L 19.90625 59.90625 
Q 18.59375 59.90625 18.59375 61.203125 
L 18.59375 64.703125 
Q 18.59375 65.90625 19.90625 65.90625 
L 63.09375 65.90625 
Q 70.90625 65.90625 72.59375 63.15625 
Q 74.296875 60.40625 68.796875 56.40625 
z
M 70.703125 0.703125 
Q 70.703125 3.703125 68 5.546875 
Q 65.296875 7.40625 61.4375 8.40625 
Q 57.59375 9.40625 53.546875 9.703125 
Q 49.5 10 46.796875 10 
Q 44 10 39.953125 9.703125 
Q 35.90625 9.40625 32.15625 8.40625 
Q 28.40625 7.40625 25.703125 5.546875 
Q 23 3.703125 23 0.703125 
Q 23 -2.296875 25.703125 -4.09375 
Q 28.40625 -5.90625 32.15625 -6.90625 
Q 35.90625 -7.90625 39.953125 -8.203125 
Q 44 -8.5 46.796875 -8.5 
Q 49.5 -8.5 53.546875 -8.203125 
Q 57.59375 -7.90625 61.4375 -6.90625 
Q 65.296875 -5.90625 68 -4.09375 
Q 70.703125 -2.296875 70.703125 0.703125 
z
M 59.59375 78.203125 
Q 61.09375 78.203125 61.09375 76.796875 
L 61.09375 73.59375 
Q 61.09375 72.09375 59.59375 72.09375 
L 33.296875 72.09375 
Q 31.796875 72.09375 31.796875 73.59375 
L 31.796875 76.796875 
Q 31.796875 78.203125 33.296875 78.203125 
L 59.59375 78.203125 
z
" id="NanumGothic-52649"/>
      </defs>
      <use xlink:href="#NanumGothic-52649"/>
      <use x="93.999985" xlink:href="#NanumGothic-45224"/>
     </g>
    </g>
    <g id="line2d_64">
     <path d="M 439.596875 261.375 
L 459.596875 261.375 
" style="fill:none;stroke:#e377c2;stroke-linecap:square;stroke-width:1.5;"/>
    </g>
    <g id="line2d_65"/>
    <g id="text_33">
     <!-- 충북 -->
     <g transform="translate(467.596875 264.875)scale(0.1 -0.1)">
      <use xlink:href="#NanumGothic-52649"/>
      <use x="93.999985" xlink:href="#NanumGothic-48513"/>
     </g>
    </g>
   </g>
  </g>
 </g>
 <defs>
  <clipPath id="p199cce0f2d">
   <rect height="163.08" width="837" x="44.496875" y="112.754375"/>
  </clipPath>
 </defs>
</svg>
