<?xml version="1.0" encoding="utf-8" standalone="no"?>
<!DOCTYPE svg PUBLIC "-//W3C//DTD SVG 1.1//EN"
  "http://www.w3.org/Graphics/SVG/1.1/DTD/svg11.dtd">
<!-- Created with matplotlib (https://matplotlib.org/) -->
<svg height="261.799375pt" version="1.1" viewBox="0 0 623.176563 261.799375" width="623.176563pt" xmlns="http://www.w3.org/2000/svg" xmlns:xlink="http://www.w3.org/1999/xlink">
 <metadata>
  <rdf:RDF xmlns:cc="http://creativecommons.org/ns#" xmlns:dc="http://purl.org/dc/elements/1.1/" xmlns:rdf="http://www.w3.org/1999/02/22-rdf-syntax-ns#">
   <cc:Work>
    <dc:type rdf:resource="http://purl.org/dc/dcmitype/StillImage"/>
    <dc:date>2020-11-13T00:21:13.875789</dc:date>
    <dc:format>image/svg+xml</dc:format>
    <dc:creator>
     <cc:Agent>
      <dc:title>Matplotlib v3.3.2, https://matplotlib.org/</dc:title>
     </cc:Agent>
    </dc:creator>
   </cc:Work>
  </rdf:RDF>
 </metadata>
 <defs>
  <style type="text/css">*{stroke-linecap:butt;stroke-linejoin:round;}</style>
 </defs>
 <g id="figure_1">
  <g id="patch_1">
   <path d="M 0 261.799375 
L 623.176563 261.799375 
L 623.176563 0 
L 0 0 
z
" style="fill:none;"/>
  </g>
  <g id="axes_1">
   <g id="patch_2">
    <path d="M 57.976563 224.64 
L 615.976562 224.64 
L 615.976562 7.2 
L 57.976563 7.2 
z
" style="fill:#ffffff;"/>
   </g>
   <g id="PolyCollection_1">
    <defs>
     <path d="M 99.009058 -47.043011 
L 96.658353 -47.043011 
L 96.309849 -48.445601 
L 95.882067 -49.848191 
L 95.36448 -51.250781 
L 94.747265 -52.653371 
L 94.021965 -54.055961 
L 93.18221 -55.458551 
L 92.224455 -56.86114 
L 91.148688 -58.26373 
L 89.959042 -59.66632 
L 88.664256 -61.06891 
L 87.277924 -62.4715 
L 85.818491 -63.87409 
L 84.308971 -65.27668 
L 82.776363 -66.679269 
L 81.250805 -68.081859 
L 79.764483 -69.484449 
L 78.350371 -70.887039 
L 77.040871 -72.289629 
L 75.866437 -73.692219 
L 74.85428 -75.094809 
L 74.027218 -76.497399 
L 73.402757 -77.899988 
L 72.992443 -79.302578 
L 72.801514 -80.705168 
L 72.828866 -82.107758 
L 73.067315 -83.510348 
L 73.504133 -84.912938 
L 74.121807 -86.315528 
L 74.898973 -87.718117 
L 75.811475 -89.120707 
L 76.833469 -90.523297 
L 77.938538 -91.925887 
L 79.100738 -93.328477 
L 80.295537 -94.731067 
L 81.500608 -96.133657 
L 82.696427 -97.536247 
L 83.86667 -98.938836 
L 84.998392 -100.341426 
L 86.082007 -101.744016 
L 87.111077 -103.146606 
L 88.081947 -104.549196 
L 88.993278 -105.951786 
L 89.845517 -107.354376 
L 90.640351 -108.756965 
L 91.380204 -110.159555 
L 92.067799 -111.562145 
L 92.705813 -112.964735 
L 93.296648 -114.367325 
L 93.842304 -115.769915 
L 94.344355 -117.172505 
L 94.803992 -118.575095 
L 95.222133 -119.977684 
L 95.59954 -121.380274 
L 95.936954 -122.782864 
L 96.235199 -124.185454 
L 96.49526 -125.588044 
L 96.718319 -126.990634 
L 96.90576 -128.393224 
L 97.059134 -129.795813 
L 97.180107 -131.198403 
L 97.270402 -132.600993 
L 97.331741 -134.003583 
L 97.365806 -135.406173 
L 97.37422 -136.808763 
L 97.358563 -138.211353 
L 97.320412 -139.613942 
L 97.261409 -141.016532 
L 97.183345 -142.419122 
L 97.088258 -143.821712 
L 96.978513 -145.224302 
L 96.856877 -146.626892 
L 96.726553 -148.029482 
L 96.59118 -149.432072 
L 96.454779 -150.834661 
L 96.321655 -152.237251 
L 96.19625 -153.639841 
L 96.082962 -155.042431 
L 95.985932 -156.445021 
L 95.908836 -157.847611 
L 95.854675 -159.250201 
L 95.825606 -160.65279 
L 95.82281 -162.05538 
L 95.846425 -163.45797 
L 95.895541 -164.86056 
L 95.968265 -166.26315 
L 96.061842 -167.66574 
L 96.172833 -169.06833 
L 96.297323 -170.47092 
L 96.431154 -171.873509 
L 96.570149 -173.276099 
L 96.710325 -174.678689 
L 96.848073 -176.081279 
L 96.980292 -177.483869 
L 97.104483 -178.886459 
L 97.218789 -180.289049 
L 97.321989 -181.691638 
L 97.413465 -183.094228 
L 97.493123 -184.496818 
L 97.561308 -185.899408 
L 98.106103 -185.899408 
L 98.106103 -185.899408 
L 98.174288 -184.496818 
L 98.253946 -183.094228 
L 98.345421 -181.691638 
L 98.448622 -180.289049 
L 98.562927 -178.886459 
L 98.687119 -177.483869 
L 98.819338 -176.081279 
L 98.957086 -174.678689 
L 99.097262 -173.276099 
L 99.236257 -171.873509 
L 99.370088 -170.47092 
L 99.494578 -169.06833 
L 99.605569 -167.66574 
L 99.699145 -166.26315 
L 99.771869 -164.86056 
L 99.820986 -163.45797 
L 99.844601 -162.05538 
L 99.841805 -160.65279 
L 99.812736 -159.250201 
L 99.758575 -157.847611 
L 99.681479 -156.445021 
L 99.584449 -155.042431 
L 99.47116 -153.639841 
L 99.345756 -152.237251 
L 99.212632 -150.834661 
L 99.076231 -149.432072 
L 98.940858 -148.029482 
L 98.810534 -146.626892 
L 98.688898 -145.224302 
L 98.579153 -143.821712 
L 98.484065 -142.419122 
L 98.406002 -141.016532 
L 98.346999 -139.613942 
L 98.308848 -138.211353 
L 98.293191 -136.808763 
L 98.301605 -135.406173 
L 98.33567 -134.003583 
L 98.397009 -132.600993 
L 98.487304 -131.198403 
L 98.608277 -129.795813 
L 98.761651 -128.393224 
L 98.949092 -126.990634 
L 99.172151 -125.588044 
L 99.432212 -124.185454 
L 99.730456 -122.782864 
L 100.06787 -121.380274 
L 100.445278 -119.977684 
L 100.863418 -118.575095 
L 101.323056 -117.172505 
L 101.825106 -115.769915 
L 102.370763 -114.367325 
L 102.961598 -112.964735 
L 103.599612 -111.562145 
L 104.287206 -110.159555 
L 105.02706 -108.756965 
L 105.821894 -107.354376 
L 106.674132 -105.951786 
L 107.585464 -104.549196 
L 108.556334 -103.146606 
L 109.585404 -101.744016 
L 110.669019 -100.341426 
L 111.800741 -98.938836 
L 112.970983 -97.536247 
L 114.166802 -96.133657 
L 115.371874 -94.731067 
L 116.566673 -93.328477 
L 117.728872 -91.925887 
L 118.833941 -90.523297 
L 119.855936 -89.120707 
L 120.768437 -87.718117 
L 121.545604 -86.315528 
L 122.163277 -84.912938 
L 122.600096 -83.510348 
L 122.838545 -82.107758 
L 122.865897 -80.705168 
L 122.674968 -79.302578 
L 122.264654 -77.899988 
L 121.640193 -76.497399 
L 120.81313 -75.094809 
L 119.800973 -73.692219 
L 118.62654 -72.289629 
L 117.31704 -70.887039 
L 115.902928 -69.484449 
L 114.416606 -68.081859 
L 112.891048 -66.679269 
L 111.35844 -65.27668 
L 109.848919 -63.87409 
L 108.389487 -62.4715 
L 107.003155 -61.06891 
L 105.708368 -59.66632 
L 104.518723 -58.26373 
L 103.442956 -56.86114 
L 102.485201 -55.458551 
L 101.645446 -54.055961 
L 100.920146 -52.653371 
L 100.302931 -51.250781 
L 99.785344 -49.848191 
L 99.357562 -48.445601 
L 99.009058 -47.043011 
z
" id="m8386ba6b0a" style="stroke:#3d3d3d;stroke-width:1.5;"/>
    </defs>
    <g clip-path="url(#pd9738814c2)">
     <use style="fill:#3274a1;stroke:#3d3d3d;stroke-width:1.5;" x="0" xlink:href="#m8386ba6b0a" y="261.799375"/>
    </g>
   </g>
   <g id="PolyCollection_2">
    <defs>
     <path d="M 178.267654 -56.103963 
L 176.828328 -56.103963 
L 176.438245 -57.469747 
L 175.885285 -58.83553 
L 175.126886 -60.201314 
L 174.120839 -61.567098 
L 172.830641 -62.932881 
L 171.231934 -64.298665 
L 169.319182 -65.664449 
L 167.111352 -67.030233 
L 164.655182 -68.396016 
L 162.024829 -69.7618 
L 159.317208 -71.127584 
L 156.643223 -72.493367 
L 154.116129 -73.859151 
L 151.839083 -75.224935 
L 149.894397 -76.590719 
L 148.336712 -77.956502 
L 147.191412 -79.322286 
L 146.458185 -80.68807 
L 146.118308 -82.053854 
L 146.143208 -83.419637 
L 146.501731 -84.785421 
L 147.16418 -86.151205 
L 148.102503 -87.516988 
L 149.287423 -88.882772 
L 150.684382 -90.248556 
L 152.250517 -91.61434 
L 153.934379 -92.980123 
L 155.679049 -94.345907 
L 157.427997 -95.711691 
L 159.13206 -97.077474 
L 160.755514 -98.443258 
L 162.279491 -99.809042 
L 163.701854 -101.174826 
L 165.033667 -102.540609 
L 166.293317 -103.906393 
L 167.499912 -105.272177 
L 168.66755 -106.63796 
L 169.801698 -108.003744 
L 170.898216 -109.369528 
L 171.944838 -110.735312 
L 172.924402 -112.101095 
L 173.818803 -113.466879 
L 174.612683 -114.832663 
L 175.296123 -116.198447 
L 175.865952 -117.56423 
L 176.325704 -118.930014 
L 176.68449 -120.295798 
L 176.955246 -121.661581 
L 177.152814 -123.027365 
L 177.292206 -124.393149 
L 177.387296 -125.758933 
L 177.450007 -127.124716 
L 177.489966 -128.4905 
L 177.514513 -129.856284 
L 177.528943 -131.222067 
L 177.536844 -132.587851 
L 177.540451 -133.953635 
L 177.540941 -135.319419 
L 177.538644 -136.685202 
L 177.533169 -138.050986 
L 177.523459 -139.41677 
L 177.507803 -140.782554 
L 177.483855 -142.148337 
L 177.448692 -143.514121 
L 177.398973 -144.879905 
L 177.331212 -146.245688 
L 177.242181 -147.611472 
L 177.129414 -148.977256 
L 176.991735 -150.34304 
L 176.829725 -151.708823 
L 176.646014 -153.074607 
L 176.44532 -154.440391 
L 176.234183 -155.806174 
L 176.020446 -157.171958 
L 175.812553 -158.537742 
L 175.618812 -159.903526 
L 175.446769 -161.269309 
L 175.302771 -162.635093 
L 175.191782 -164.000877 
L 175.117377 -165.366661 
L 175.081855 -166.732444 
L 175.086342 -168.098228 
L 175.13081 -169.464012 
L 175.214006 -170.829795 
L 175.333294 -172.195579 
L 175.48454 -173.561363 
L 175.662091 -174.927147 
L 175.858952 -176.29293 
L 176.067179 -177.658714 
L 176.278439 -179.024498 
L 176.484679 -180.390281 
L 176.678785 -181.756065 
L 176.855113 -183.121849 
L 177.009834 -184.487633 
L 177.141029 -185.853416 
L 177.248564 -187.2192 
L 177.33378 -188.584984 
L 177.39907 -189.950767 
L 177.447436 -191.316551 
L 177.648546 -191.316551 
L 177.648546 -191.316551 
L 177.696913 -189.950767 
L 177.762203 -188.584984 
L 177.847418 -187.2192 
L 177.954953 -185.853416 
L 178.086148 -184.487633 
L 178.240869 -183.121849 
L 178.417197 -181.756065 
L 178.611303 -180.390281 
L 178.817543 -179.024498 
L 179.028803 -177.658714 
L 179.23703 -176.29293 
L 179.433892 -174.927147 
L 179.611442 -173.561363 
L 179.762688 -172.195579 
L 179.881977 -170.829795 
L 179.965172 -169.464012 
L 180.009641 -168.098228 
L 180.014127 -166.732444 
L 179.978605 -165.366661 
L 179.9042 -164.000877 
L 179.793211 -162.635093 
L 179.649213 -161.269309 
L 179.47717 -159.903526 
L 179.283429 -158.537742 
L 179.075536 -157.171958 
L 178.861799 -155.806174 
L 178.650663 -154.440391 
L 178.449968 -153.074607 
L 178.266257 -151.708823 
L 178.104247 -150.34304 
L 177.966568 -148.977256 
L 177.853801 -147.611472 
L 177.76477 -146.245688 
L 177.697009 -144.879905 
L 177.64729 -143.514121 
L 177.612127 -142.148337 
L 177.588179 -140.782554 
L 177.572523 -139.41677 
L 177.562813 -138.050986 
L 177.557338 -136.685202 
L 177.555041 -135.319419 
L 177.555531 -133.953635 
L 177.559138 -132.587851 
L 177.567039 -131.222067 
L 177.581469 -129.856284 
L 177.606016 -128.4905 
L 177.645975 -127.124716 
L 177.708686 -125.758933 
L 177.803776 -124.393149 
L 177.943168 -123.027365 
L 178.140736 -121.661581 
L 178.411493 -120.295798 
L 178.770278 -118.930014 
L 179.23003 -117.56423 
L 179.79986 -116.198447 
L 180.483299 -114.832663 
L 181.27718 -113.466879 
L 182.17158 -112.101095 
L 183.151144 -110.735312 
L 184.197766 -109.369528 
L 185.294284 -108.003744 
L 186.428432 -106.63796 
L 187.59607 -105.272177 
L 188.802665 -103.906393 
L 190.062315 -102.540609 
L 191.394128 -101.174826 
L 192.816492 -99.809042 
L 194.340468 -98.443258 
L 195.963922 -97.077474 
L 197.667985 -95.711691 
L 199.416933 -94.345907 
L 201.161603 -92.980123 
L 202.845465 -91.61434 
L 204.4116 -90.248556 
L 205.808559 -88.882772 
L 206.993479 -87.516988 
L 207.931802 -86.151205 
L 208.594251 -84.785421 
L 208.952774 -83.419637 
L 208.977674 -82.053854 
L 208.637797 -80.68807 
L 207.90457 -79.322286 
L 206.75927 -77.956502 
L 205.201586 -76.590719 
L 203.256899 -75.224935 
L 200.979853 -73.859151 
L 198.452759 -72.493367 
L 195.778775 -71.127584 
L 193.071153 -69.7618 
L 190.4408 -68.396016 
L 187.98463 -67.030233 
L 185.7768 -65.664449 
L 183.864048 -64.298665 
L 182.265341 -62.932881 
L 180.975143 -61.567098 
L 179.969096 -60.201314 
L 179.210697 -58.83553 
L 178.657738 -57.469747 
L 178.267654 -56.103963 
z
" id="mbae91cf933" style="stroke:#3d3d3d;stroke-width:1.5;"/>
    </defs>
    <g clip-path="url(#pd9738814c2)">
     <use style="fill:#e1812c;stroke:#3d3d3d;stroke-width:1.5;" x="0" xlink:href="#mbae91cf933" y="261.799375"/>
    </g>
   </g>
   <g id="PolyCollection_3">
    <defs>
     <path d="M 257.735712 -57.217761 
L 256.788842 -57.217761 
L 256.516649 -58.602931 
L 256.120331 -59.988102 
L 255.561132 -61.373272 
L 254.796685 -62.758442 
L 253.784504 -64.143613 
L 252.486938 -65.528783 
L 250.87724 -66.913954 
L 248.94604 -68.299124 
L 246.707178 -69.684295 
L 244.201707 -71.069465 
L 241.498906 -72.454636 
L 238.69357 -73.839806 
L 235.899436 -75.224977 
L 233.239389 -76.610147 
L 230.833794 -77.995318 
L 228.788757 -79.380488 
L 227.186167 -80.765659 
L 226.07701 -82.150829 
L 225.478722 -83.535999 
L 225.376563 -84.92117 
L 225.728258 -86.30634 
L 226.470772 -87.691511 
L 227.527991 -89.076681 
L 228.818363 -90.461852 
L 230.261858 -91.847022 
L 231.785983 -93.232193 
L 233.330666 -94.617363 
L 234.85186 -96.002534 
L 236.323525 -97.387704 
L 237.73764 -98.772875 
L 239.101938 -100.158045 
L 240.435421 -101.543216 
L 241.762172 -102.928386 
L 243.104462 -104.313556 
L 244.476451 -105.698727 
L 245.879766 -107.083897 
L 247.301851 -108.469068 
L 248.71739 -109.854238 
L 250.092331 -111.239409 
L 251.389513 -112.624579 
L 252.574571 -114.00975 
L 253.620878 -115.39492 
L 254.512654 -116.780091 
L 255.245894 -118.165261 
L 255.827314 -119.550432 
L 256.271879 -120.935602 
L 256.599657 -122.320773 
L 256.832713 -123.705943 
L 256.992529 -125.091113 
L 257.098236 -126.476284 
L 257.16568 -127.861454 
L 257.207177 -129.246625 
L 257.231772 -130.631795 
L 257.245746 -132.016966 
L 257.25322 -133.402136 
L 257.256707 -134.787307 
L 257.257551 -136.172477 
L 257.256241 -137.557648 
L 257.252579 -138.942818 
L 257.245758 -140.327989 
L 257.23435 -141.713159 
L 257.216284 -143.09833 
L 257.188829 -144.4835 
L 257.148653 -145.86867 
L 257.092006 -147.253841 
L 257.015056 -148.639011 
L 256.914377 -150.024182 
L 256.787566 -151.409352 
L 256.633892 -152.794523 
L 256.454856 -154.179693 
L 256.254525 -155.564864 
L 256.039522 -156.950034 
L 255.818613 -158.335205 
L 255.601909 -159.720375 
L 255.399822 -161.105546 
L 255.22194 -162.490716 
L 255.076057 -163.875887 
L 254.96753 -165.261057 
L 254.899059 -166.646227 
L 254.870888 -168.031398 
L 254.881325 -169.416568 
L 254.927388 -170.801739 
L 255.00543 -172.186909 
L 255.111568 -173.57208 
L 255.241886 -174.95725 
L 255.392401 -176.342421 
L 255.558917 -177.727591 
L 255.73685 -179.112762 
L 255.92116 -180.497932 
L 256.106446 -181.883103 
L 256.287208 -183.268273 
L 256.458248 -184.653444 
L 256.615097 -186.038614 
L 256.754392 -187.423784 
L 256.874113 -188.808955 
L 256.973641 -190.194125 
L 257.053639 -191.579296 
L 257.115785 -192.964466 
L 257.162432 -194.349637 
L 257.362121 -194.349637 
L 257.362121 -194.349637 
L 257.408769 -192.964466 
L 257.470914 -191.579296 
L 257.550912 -190.194125 
L 257.650441 -188.808955 
L 257.770162 -187.423784 
L 257.909456 -186.038614 
L 258.066305 -184.653444 
L 258.237346 -183.268273 
L 258.418108 -181.883103 
L 258.603393 -180.497932 
L 258.787704 -179.112762 
L 258.965637 -177.727591 
L 259.132153 -176.342421 
L 259.282668 -174.95725 
L 259.412985 -173.57208 
L 259.519124 -172.186909 
L 259.597166 -170.801739 
L 259.643229 -169.416568 
L 259.653665 -168.031398 
L 259.625495 -166.646227 
L 259.557023 -165.261057 
L 259.448496 -163.875887 
L 259.302614 -162.490716 
L 259.124732 -161.105546 
L 258.922644 -159.720375 
L 258.705941 -158.335205 
L 258.485032 -156.950034 
L 258.270029 -155.564864 
L 258.069698 -154.179693 
L 257.890661 -152.794523 
L 257.736987 -151.409352 
L 257.610177 -150.024182 
L 257.509497 -148.639011 
L 257.432547 -147.253841 
L 257.375901 -145.86867 
L 257.335725 -144.4835 
L 257.308269 -143.09833 
L 257.290204 -141.713159 
L 257.278796 -140.327989 
L 257.271974 -138.942818 
L 257.268313 -137.557648 
L 257.267002 -136.172477 
L 257.267847 -134.787307 
L 257.271333 -133.402136 
L 257.278807 -132.016966 
L 257.292782 -130.631795 
L 257.317376 -129.246625 
L 257.358874 -127.861454 
L 257.426317 -126.476284 
L 257.532025 -125.091113 
L 257.691841 -123.705943 
L 257.924897 -122.320773 
L 258.252675 -120.935602 
L 258.697239 -119.550432 
L 259.27866 -118.165261 
L 260.0119 -116.780091 
L 260.903676 -115.39492 
L 261.949982 -114.00975 
L 263.13504 -112.624579 
L 264.432222 -111.239409 
L 265.807163 -109.854238 
L 267.222702 -108.469068 
L 268.644788 -107.083897 
L 270.048102 -105.698727 
L 271.420092 -104.313556 
L 272.762382 -102.928386 
L 274.089133 -101.543216 
L 275.422615 -100.158045 
L 276.786913 -98.772875 
L 278.201029 -97.387704 
L 279.672694 -96.002534 
L 281.193887 -94.617363 
L 282.738571 -93.232193 
L 284.262696 -91.847022 
L 285.706191 -90.461852 
L 286.996562 -89.076681 
L 288.053782 -87.691511 
L 288.796295 -86.30634 
L 289.147991 -84.92117 
L 289.045832 -83.535999 
L 288.447544 -82.150829 
L 287.338387 -80.765659 
L 285.735797 -79.380488 
L 283.690759 -77.995318 
L 281.285164 -76.610147 
L 278.625118 -75.224977 
L 275.830984 -73.839806 
L 273.025648 -72.454636 
L 270.322847 -71.069465 
L 267.817375 -69.684295 
L 265.578514 -68.299124 
L 263.647313 -66.913954 
L 262.037616 -65.528783 
L 260.74005 -64.143613 
L 259.727869 -62.758442 
L 258.963422 -61.373272 
L 258.404223 -59.988102 
L 258.007904 -58.602931 
L 257.735712 -57.217761 
z
" id="maee382f366" style="stroke:#3d3d3d;stroke-width:1.5;"/>
    </defs>
    <g clip-path="url(#pd9738814c2)">
     <use style="fill:#3a923a;stroke:#3d3d3d;stroke-width:1.5;" x="0" xlink:href="#maee382f366" y="261.799375"/>
    </g>
   </g>
   <g id="PolyCollection_4">
    <defs>
     <path d="M 337.994542 -59.781344 
L 335.958583 -59.781344 
L 335.476768 -61.195272 
L 334.826771 -62.609199 
L 333.977653 -64.023126 
L 332.903903 -65.437054 
L 331.590125 -66.850981 
L 330.035696 -68.264909 
L 328.258582 -69.678836 
L 326.297441 -71.092764 
L 324.211278 -72.506691 
L 322.076254 -73.920619 
L 319.979728 -75.334546 
L 318.012134 -76.748474 
L 316.257783 -78.162401 
L 314.785923 -79.576329 
L 313.643444 -80.990256 
L 312.850318 -82.404184 
L 312.398429 -83.818111 
L 312.253835 -85.232039 
L 312.362007 -86.645966 
L 312.655163 -88.059894 
L 313.06066 -89.473821 
L 313.509409 -90.887749 
L 313.943452 -92.301676 
L 314.322038 -93.715604 
L 314.625688 -95.129531 
L 314.857925 -96.543459 
L 315.044395 -97.957386 
L 315.229305 -99.371313 
L 315.469362 -100.785241 
L 315.825745 -102.199168 
L 316.35511 -103.613096 
L 317.100897 -105.027023 
L 318.086369 -106.440951 
L 319.310589 -107.854878 
L 320.748043 -109.268806 
L 322.351922 -110.682733 
L 324.060358 -112.096661 
L 325.804362 -113.510588 
L 327.516015 -114.924516 
L 329.135528 -116.338443 
L 330.616232 -117.752371 
L 331.927077 -119.166298 
L 333.052733 -120.580226 
L 333.991822 -121.994153 
L 334.753959 -123.408081 
L 335.356338 -124.822008 
L 335.820424 -126.235936 
L 336.169165 -127.649863 
L 336.424885 -129.063791 
L 336.60789 -130.477718 
L 336.735709 -131.891646 
L 336.822818 -133.305573 
L 336.880726 -134.7195 
L 336.918257 -136.133428 
L 336.941958 -137.547355 
L 336.956528 -138.961283 
L 336.965229 -140.37521 
L 336.970249 -141.789138 
L 336.972991 -143.203065 
L 336.974297 -144.616993 
L 336.974601 -146.03092 
L 336.974018 -147.444848 
L 336.972376 -148.858775 
L 336.969195 -150.272703 
L 336.963623 -151.68663 
L 336.954331 -153.100558 
L 336.939391 -154.514485 
L 336.916159 -155.928413 
L 336.881196 -157.34234 
L 336.830277 -158.756268 
L 336.758543 -160.170195 
L 336.660845 -161.584123 
L 336.532305 -162.99805 
L 336.369088 -164.411978 
L 336.169322 -165.825905 
L 335.934046 -167.239833 
L 335.668015 -168.65376 
L 335.38015 -170.067687 
L 335.083477 -171.481615 
L 334.794415 -172.895542 
L 334.531413 -174.30947 
L 334.313073 -175.723397 
L 334.155999 -177.137325 
L 334.072714 -178.551252 
L 334.070019 -179.96518 
L 334.148076 -181.379107 
L 334.300393 -182.793035 
L 334.514718 -184.206962 
L 334.77466 -185.62089 
L 335.061749 -187.034817 
L 335.357573 -188.448745 
L 335.64566 -189.862672 
L 335.912845 -191.2766 
L 336.150003 -192.690527 
L 336.35214 -194.104455 
L 336.517973 -195.518382 
L 336.64915 -196.93231 
L 336.749329 -198.346237 
L 336.823265 -199.760165 
L 337.12986 -199.760165 
L 337.12986 -199.760165 
L 337.203796 -198.346237 
L 337.303975 -196.93231 
L 337.435152 -195.518382 
L 337.600985 -194.104455 
L 337.803122 -192.690527 
L 338.04028 -191.2766 
L 338.307465 -189.862672 
L 338.595552 -188.448745 
L 338.891376 -187.034817 
L 339.178465 -185.62089 
L 339.438407 -184.206962 
L 339.652732 -182.793035 
L 339.805049 -181.379107 
L 339.883106 -179.96518 
L 339.880411 -178.551252 
L 339.797126 -177.137325 
L 339.640052 -175.723397 
L 339.421712 -174.30947 
L 339.15871 -172.895542 
L 338.869648 -171.481615 
L 338.572975 -170.067687 
L 338.28511 -168.65376 
L 338.019079 -167.239833 
L 337.783803 -165.825905 
L 337.584037 -164.411978 
L 337.42082 -162.99805 
L 337.29228 -161.584123 
L 337.194582 -160.170195 
L 337.122848 -158.756268 
L 337.071929 -157.34234 
L 337.036966 -155.928413 
L 337.013734 -154.514485 
L 336.998794 -153.100558 
L 336.989502 -151.68663 
L 336.98393 -150.272703 
L 336.980749 -148.858775 
L 336.979107 -147.444848 
L 336.978524 -146.03092 
L 336.978828 -144.616993 
L 336.980134 -143.203065 
L 336.982876 -141.789138 
L 336.987896 -140.37521 
L 336.996597 -138.961283 
L 337.011167 -137.547355 
L 337.034868 -136.133428 
L 337.072399 -134.7195 
L 337.130307 -133.305573 
L 337.217416 -131.891646 
L 337.345235 -130.477718 
L 337.52824 -129.063791 
L 337.78396 -127.649863 
L 338.132701 -126.235936 
L 338.596787 -124.822008 
L 339.199166 -123.408081 
L 339.961303 -121.994153 
L 340.900392 -120.580226 
L 342.026048 -119.166298 
L 343.336893 -117.752371 
L 344.817597 -116.338443 
L 346.43711 -114.924516 
L 348.148763 -113.510588 
L 349.892767 -112.096661 
L 351.601203 -110.682733 
L 353.205082 -109.268806 
L 354.642536 -107.854878 
L 355.866756 -106.440951 
L 356.852228 -105.027023 
L 357.598015 -103.613096 
L 358.12738 -102.199168 
L 358.483763 -100.785241 
L 358.72382 -99.371313 
L 358.90873 -97.957386 
L 359.0952 -96.543459 
L 359.327437 -95.129531 
L 359.631087 -93.715604 
L 360.009673 -92.301676 
L 360.443716 -90.887749 
L 360.892465 -89.473821 
L 361.297962 -88.059894 
L 361.591118 -86.645966 
L 361.69929 -85.232039 
L 361.554696 -83.818111 
L 361.102807 -82.404184 
L 360.309681 -80.990256 
L 359.167202 -79.576329 
L 357.695342 -78.162401 
L 355.940991 -76.748474 
L 353.973397 -75.334546 
L 351.876871 -73.920619 
L 349.741847 -72.506691 
L 347.655684 -71.092764 
L 345.694543 -69.678836 
L 343.917429 -68.264909 
L 342.363 -66.850981 
L 341.049222 -65.437054 
L 339.975472 -64.023126 
L 339.126354 -62.609199 
L 338.476357 -61.195272 
L 337.994542 -59.781344 
z
" id="m29f12997d6" style="stroke:#3d3d3d;stroke-width:1.5;"/>
    </defs>
    <g clip-path="url(#pd9738814c2)">
     <use style="fill:#c03d3e;stroke:#3d3d3d;stroke-width:1.5;" x="0" xlink:href="#m29f12997d6" y="261.799375"/>
    </g>
   </g>
   <g id="PolyCollection_5">
    <defs>
     <path d="M 417.479424 -60.303916 
L 415.902273 -60.303916 
L 415.517282 -61.786481 
L 414.991037 -63.269045 
L 414.29416 -64.75161 
L 413.400501 -66.234174 
L 412.291322 -67.716738 
L 410.959779 -69.199303 
L 409.415013 -70.681867 
L 407.685006 -72.164432 
L 405.81739 -73.646996 
L 403.877639 -75.129561 
L 401.944455 -76.612125 
L 400.10271 -78.094689 
L 398.434829 -79.577254 
L 397.011887 -81.059818 
L 395.885848 -82.542383 
L 395.08423 -84.024947 
L 394.60803 -85.507511 
L 394.433154 -86.990076 
L 394.514928 -88.47264 
L 394.794769 -89.955205 
L 395.207821 -91.437769 
L 395.690373 -92.920334 
L 396.186111 -94.402898 
L 396.650662 -95.885462 
L 397.054268 -97.368027 
L 397.382719 -98.850591 
L 397.636855 -100.333156 
L 397.830955 -101.81572 
L 397.990279 -103.298284 
L 398.14798 -104.780849 
L 398.34155 -106.263413 
L 398.609013 -107.745978 
L 398.985108 -109.228542 
L 399.497769 -110.711107 
L 400.165245 -112.193671 
L 400.994149 -113.676235 
L 401.978661 -115.1588 
L 403.100955 -116.641364 
L 404.332826 -118.123929 
L 405.638279 -119.606493 
L 406.976808 -121.089057 
L 408.306947 -122.571622 
L 409.589692 -124.054186 
L 410.791418 -125.536751 
L 411.885991 -127.019315 
L 412.855915 -128.50188 
L 413.692508 -129.984444 
L 414.39519 -131.467008 
L 414.970135 -132.949573 
L 415.428536 -134.432137 
L 415.784758 -135.914702 
L 416.054615 -137.397266 
L 416.25393 -138.87983 
L 416.397468 -140.362395 
L 416.49825 -141.844959 
L 416.567219 -143.327524 
L 416.613176 -144.810088 
L 416.642906 -146.292653 
L 416.661424 -147.775217 
L 416.672247 -149.257781 
L 416.677667 -150.740346 
L 416.678976 -152.22291 
L 416.676629 -153.705475 
L 416.670351 -155.188039 
L 416.659185 -156.670603 
L 416.641506 -158.153168 
L 416.615028 -159.635732 
L 416.57683 -161.118297 
L 416.523454 -162.600861 
L 416.451093 -164.083426 
L 416.355901 -165.56599 
L 416.234448 -167.048554 
L 416.08429 -168.531119 
L 415.904607 -170.013683 
L 415.696845 -171.496248 
L 415.465221 -172.978812 
L 415.217004 -174.461376 
L 414.962433 -175.943941 
L 414.714221 -177.426505 
L 414.486623 -178.90907 
L 414.294143 -180.391634 
L 414.150045 -181.874198 
L 414.064847 -183.356763 
L 414.045062 -184.839327 
L 414.092377 -186.321892 
L 414.203418 -187.804456 
L 414.370146 -189.287021 
L 414.580823 -190.769585 
L 414.821375 -192.252149 
L 415.07695 -193.734714 
L 415.333413 -195.217278 
L 415.578585 -196.699843 
L 415.803081 -198.182407 
L 416.000688 -199.664971 
L 416.168313 -201.147536 
L 416.305591 -202.6301 
L 416.414278 -204.112665 
L 416.497547 -205.595229 
L 416.55933 -207.077794 
L 416.822366 -207.077794 
L 416.822366 -207.077794 
L 416.884149 -205.595229 
L 416.967419 -204.112665 
L 417.076105 -202.6301 
L 417.213384 -201.147536 
L 417.381009 -199.664971 
L 417.578615 -198.182407 
L 417.803111 -196.699843 
L 418.048284 -195.217278 
L 418.304747 -193.734714 
L 418.560322 -192.252149 
L 418.800874 -190.769585 
L 419.01155 -189.287021 
L 419.178279 -187.804456 
L 419.28932 -186.321892 
L 419.336634 -184.839327 
L 419.31685 -183.356763 
L 419.231651 -181.874198 
L 419.087553 -180.391634 
L 418.895074 -178.90907 
L 418.667475 -177.426505 
L 418.419263 -175.943941 
L 418.164693 -174.461376 
L 417.916475 -172.978812 
L 417.684851 -171.496248 
L 417.477089 -170.013683 
L 417.297407 -168.531119 
L 417.147248 -167.048554 
L 417.025796 -165.56599 
L 416.930604 -164.083426 
L 416.858242 -162.600861 
L 416.804867 -161.118297 
L 416.766669 -159.635732 
L 416.74019 -158.153168 
L 416.722511 -156.670603 
L 416.711346 -155.188039 
L 416.705068 -153.705475 
L 416.702721 -152.22291 
L 416.704029 -150.740346 
L 416.709449 -149.257781 
L 416.720273 -147.775217 
L 416.738791 -146.292653 
L 416.768521 -144.810088 
L 416.814477 -143.327524 
L 416.883446 -141.844959 
L 416.984229 -140.362395 
L 417.127767 -138.87983 
L 417.327082 -137.397266 
L 417.596938 -135.914702 
L 417.95316 -134.432137 
L 418.411561 -132.949573 
L 418.986507 -131.467008 
L 419.689188 -129.984444 
L 420.525781 -128.50188 
L 421.495706 -127.019315 
L 422.590278 -125.536751 
L 423.792004 -124.054186 
L 425.07475 -122.571622 
L 426.404889 -121.089057 
L 427.743418 -119.606493 
L 429.048871 -118.123929 
L 430.280741 -116.641364 
L 431.403036 -115.1588 
L 432.387547 -113.676235 
L 433.216452 -112.193671 
L 433.883927 -110.711107 
L 434.396588 -109.228542 
L 434.772683 -107.745978 
L 435.040147 -106.263413 
L 435.233717 -104.780849 
L 435.391417 -103.298284 
L 435.550741 -101.81572 
L 435.744841 -100.333156 
L 435.998978 -98.850591 
L 436.327428 -97.368027 
L 436.731034 -95.885462 
L 437.195586 -94.402898 
L 437.691324 -92.920334 
L 438.173876 -91.437769 
L 438.586928 -89.955205 
L 438.866768 -88.47264 
L 438.948542 -86.990076 
L 438.773667 -85.507511 
L 438.297467 -84.024947 
L 437.495848 -82.542383 
L 436.369809 -81.059818 
L 434.946867 -79.577254 
L 433.278986 -78.094689 
L 431.437241 -76.612125 
L 429.504057 -75.129561 
L 427.564306 -73.646996 
L 425.696691 -72.164432 
L 423.966683 -70.681867 
L 422.421917 -69.199303 
L 421.090374 -67.716738 
L 419.981195 -66.234174 
L 419.087536 -64.75161 
L 418.390659 -63.269045 
L 417.864415 -61.786481 
L 417.479424 -60.303916 
z
" id="m0fd99e87f9" style="stroke:#3d3d3d;stroke-width:1.5;"/>
    </defs>
    <g clip-path="url(#pd9738814c2)">
     <use style="fill:#9372b2;stroke:#3d3d3d;stroke-width:1.5;" x="0" xlink:href="#m0fd99e87f9" y="261.799375"/>
    </g>
   </g>
   <g id="PolyCollection_6">
    <defs>
     <path d="M 496.783381 -61.975095 
L 496.026886 -61.975095 
L 495.800341 -63.614204 
L 495.467188 -65.253313 
L 494.994181 -66.892421 
L 494.346151 -68.53153 
L 493.48999 -70.170639 
L 492.399963 -71.809748 
L 491.063764 -73.448856 
L 489.488282 -75.087965 
L 487.703785 -76.727074 
L 485.765182 -78.366182 
L 483.749428 -80.005291 
L 481.748824 -81.6444 
L 479.860908 -83.283508 
L 478.176543 -84.922617 
L 476.768432 -86.561726 
L 475.68235 -88.200835 
L 474.932888 -89.839943 
L 474.504506 -91.479052 
L 474.357453 -93.118161 
L 474.437045 -94.757269 
L 474.684118 -96.396378 
L 475.04438 -98.035487 
L 475.474927 -99.674595 
L 475.947041 -101.313704 
L 476.445409 -102.952813 
L 476.964754 -104.591921 
L 477.505339 -106.23103 
L 478.068839 -107.870139 
L 478.655711 -109.509248 
L 479.264567 -111.148356 
L 479.893337 -112.787465 
L 480.541463 -114.426574 
L 481.212061 -116.065682 
L 481.91304 -117.704791 
L 482.656538 -119.3439 
L 483.456585 -120.983008 
L 484.325492 -122.622117 
L 485.269886 -124.261226 
L 486.287449 -125.900334 
L 487.365273 -127.539443 
L 488.480288 -129.178552 
L 489.601719 -130.817661 
L 490.695 -132.456769 
L 491.726285 -134.095878 
L 492.666623 -135.734987 
L 493.495029 -137.374095 
L 494.200039 -139.013204 
L 494.77968 -140.652313 
L 495.240149 -142.291421 
L 495.593663 -143.93053 
L 495.856004 -145.569639 
L 496.044225 -147.208747 
L 496.1748 -148.847856 
L 496.262383 -150.486965 
L 496.31915 -152.126074 
L 496.354621 -153.765182 
L 496.375821 -155.404291 
L 496.387614 -157.0434 
L 496.393091 -158.682508 
L 496.393923 -160.321617 
L 496.390626 -161.960726 
L 496.382741 -163.599834 
L 496.368927 -165.238943 
L 496.34702 -166.878052 
L 496.314101 -168.517161 
L 496.266639 -170.156269 
L 496.200755 -171.795378 
L 496.112649 -173.434487 
L 495.999185 -175.073595 
L 495.858599 -176.712704 
L 495.691213 -178.351813 
L 495.500036 -179.990921 
L 495.291073 -181.63003 
L 495.073219 -183.269139 
L 494.857653 -184.908247 
L 494.656768 -186.547356 
L 494.482779 -188.186465 
L 494.346239 -189.825574 
L 494.254752 -191.464682 
L 494.212137 -193.103791 
L 494.218199 -194.7429 
L 494.269146 -196.382008 
L 494.358494 -198.021117 
L 494.478261 -199.660226 
L 494.620134 -201.299334 
L 494.776405 -202.938443 
L 494.940503 -204.577552 
L 495.107141 -206.21666 
L 495.272142 -207.855769 
L 495.432138 -209.494878 
L 495.584264 -211.133987 
L 495.725993 -212.773095 
L 495.855124 -214.412204 
L 495.969899 -216.051313 
L 496.069172 -217.690421 
L 496.152542 -219.32953 
L 496.220401 -220.968639 
L 496.273858 -222.607747 
L 496.314571 -224.246856 
L 496.495696 -224.246856 
L 496.495696 -224.246856 
L 496.53641 -222.607747 
L 496.589866 -220.968639 
L 496.657725 -219.32953 
L 496.741096 -217.690421 
L 496.840369 -216.051313 
L 496.955144 -214.412204 
L 497.084275 -212.773095 
L 497.226004 -211.133987 
L 497.37813 -209.494878 
L 497.538125 -207.855769 
L 497.703127 -206.21666 
L 497.869765 -204.577552 
L 498.033863 -202.938443 
L 498.190134 -201.299334 
L 498.332007 -199.660226 
L 498.451773 -198.021117 
L 498.541122 -196.382008 
L 498.592068 -194.7429 
L 498.598131 -193.103791 
L 498.555516 -191.464682 
L 498.464029 -189.825574 
L 498.327489 -188.186465 
L 498.1535 -186.547356 
L 497.952615 -184.908247 
L 497.737049 -183.269139 
L 497.519195 -181.63003 
L 497.310232 -179.990921 
L 497.119055 -178.351813 
L 496.951669 -176.712704 
L 496.811083 -175.073595 
L 496.697619 -173.434487 
L 496.609513 -171.795378 
L 496.543629 -170.156269 
L 496.496167 -168.517161 
L 496.463248 -166.878052 
L 496.44134 -165.238943 
L 496.427526 -163.599834 
L 496.419642 -161.960726 
L 496.416345 -160.321617 
L 496.417177 -158.682508 
L 496.422654 -157.0434 
L 496.434447 -155.404291 
L 496.455647 -153.765182 
L 496.491118 -152.126074 
L 496.547885 -150.486965 
L 496.635468 -148.847856 
L 496.766043 -147.208747 
L 496.954263 -145.569639 
L 497.216605 -143.93053 
L 497.570119 -142.291421 
L 498.030588 -140.652313 
L 498.610229 -139.013204 
L 499.315239 -137.374095 
L 500.143645 -135.734987 
L 501.083982 -134.095878 
L 502.115268 -132.456769 
L 503.208548 -130.817661 
L 504.329979 -129.178552 
L 505.444995 -127.539443 
L 506.522818 -125.900334 
L 507.540382 -124.261226 
L 508.484776 -122.622117 
L 509.353683 -120.983008 
L 510.15373 -119.3439 
L 510.897228 -117.704791 
L 511.598207 -116.065682 
L 512.268805 -114.426574 
L 512.916931 -112.787465 
L 513.545701 -111.148356 
L 514.154557 -109.509248 
L 514.741429 -107.870139 
L 515.304928 -106.23103 
L 515.845514 -104.591921 
L 516.364859 -102.952813 
L 516.863226 -101.313704 
L 517.33534 -99.674595 
L 517.765888 -98.035487 
L 518.12615 -96.396378 
L 518.373222 -94.757269 
L 518.452815 -93.118161 
L 518.305762 -91.479052 
L 517.87738 -89.839943 
L 517.127918 -88.200835 
L 516.041836 -86.561726 
L 514.633725 -84.922617 
L 512.94936 -83.283508 
L 511.061444 -81.6444 
L 509.06084 -80.005291 
L 507.045086 -78.366182 
L 505.106483 -76.727074 
L 503.321986 -75.087965 
L 501.746504 -73.448856 
L 500.410305 -71.809748 
L 499.320278 -70.170639 
L 498.464116 -68.53153 
L 497.816087 -66.892421 
L 497.34308 -65.253313 
L 497.009927 -63.614204 
L 496.783381 -61.975095 
z
" id="mabf67f72cd" style="stroke:#3d3d3d;stroke-width:1.5;"/>
    </defs>
    <g clip-path="url(#pd9738814c2)">
     <use style="fill:#845b53;stroke:#3d3d3d;stroke-width:1.5;" x="0" xlink:href="#mabf67f72cd" y="261.799375"/>
    </g>
   </g>
   <g id="PolyCollection_7">
    <defs>
     <path d="M 576.83201 -62.033286 
L 575.40683 -62.033286 
L 575.071846 -63.878563 
L 574.619804 -65.72384 
L 574.028714 -67.569118 
L 573.28019 -69.414395 
L 572.362841 -71.259672 
L 571.275764 -73.104949 
L 570.031518 -74.950227 
L 568.657935 -76.795504 
L 567.198119 -78.640781 
L 565.708242 -80.486059 
L 564.253077 -82.331336 
L 562.899659 -84.176613 
L 561.709873 -86.021891 
L 560.733108 -87.867168 
L 560.000168 -89.712445 
L 559.519538 -91.557722 
L 559.276679 -93.403 
L 559.236524 -95.248277 
L 559.34876 -97.093554 
L 559.555017 -98.938832 
L 559.796794 -100.784109 
L 560.022891 -102.629386 
L 560.195291 -104.474664 
L 560.292812 -106.319941 
L 560.31223 -108.165218 
L 560.267007 -110.010496 
L 560.184105 -111.855773 
L 560.099525 -113.70105 
L 560.053301 -115.546327 
L 560.084634 -117.391605 
L 560.227684 -119.236882 
L 560.508392 -121.082159 
L 560.942504 -122.927437 
L 561.534799 -124.772714 
L 562.279395 -126.617991 
L 563.160922 -128.463269 
L 564.156305 -130.308546 
L 565.236898 -132.153823 
L 566.370754 -133.9991 
L 567.524844 -135.844378 
L 568.667099 -137.689655 
L 569.768188 -139.534932 
L 570.802961 -141.38021 
L 571.751515 -143.225487 
L 572.599827 -145.070764 
L 573.339954 -146.916042 
L 573.969782 -148.761319 
L 574.492377 -150.606596 
L 574.915019 -152.451873 
L 575.248041 -154.297151 
L 575.503603 -156.142428 
L 575.694536 -157.987705 
L 575.833362 -159.832983 
L 575.931567 -161.67826 
L 575.999129 -163.523537 
L 576.044314 -165.368815 
L 576.073663 -167.214092 
L 576.092133 -169.059369 
L 576.103312 -170.904647 
L 576.10967 -172.749924 
L 576.112784 -174.595201 
L 576.113535 -176.440478 
L 576.112245 -178.285756 
L 576.108754 -180.131033 
L 576.102466 -181.97631 
L 576.092338 -183.821588 
L 576.076874 -185.666865 
L 576.054107 -187.512142 
L 576.021628 -189.35742 
L 575.976661 -191.202697 
L 575.91622 -193.047974 
L 575.83737 -194.893251 
L 575.737566 -196.738529 
L 575.615084 -198.583806 
L 575.469482 -200.429083 
L 575.302039 -202.274361 
L 575.116097 -204.119638 
L 574.917238 -205.964915 
L 574.713214 -207.810193 
L 574.513589 -209.65547 
L 574.329107 -211.500747 
L 574.1708 -213.346024 
L 574.048946 -215.191302 
L 573.972 -217.036579 
L 573.945643 -218.881856 
L 573.972095 -220.727134 
L 574.049809 -222.572411 
L 574.173599 -224.417688 
L 574.335198 -226.262966 
L 574.524162 -228.108243 
L 574.728986 -229.95352 
L 574.938261 -231.798798 
L 575.141718 -233.644075 
L 575.331016 -235.489352 
L 575.500203 -237.334629 
L 575.645833 -239.179907 
L 575.766777 -241.025184 
L 575.863814 -242.870461 
L 575.939105 -244.715739 
L 576.299735 -244.715739 
L 576.299735 -244.715739 
L 576.375025 -242.870461 
L 576.472063 -241.025184 
L 576.593007 -239.179907 
L 576.738637 -237.334629 
L 576.907824 -235.489352 
L 577.097121 -233.644075 
L 577.300578 -231.798798 
L 577.509853 -229.95352 
L 577.714677 -228.108243 
L 577.903642 -226.262966 
L 578.065241 -224.417688 
L 578.18903 -222.572411 
L 578.266744 -220.727134 
L 578.293196 -218.881856 
L 578.266839 -217.036579 
L 578.189894 -215.191302 
L 578.06804 -213.346024 
L 577.909732 -211.500747 
L 577.72525 -209.65547 
L 577.525626 -207.810193 
L 577.321601 -205.964915 
L 577.122743 -204.119638 
L 576.936801 -202.274361 
L 576.769357 -200.429083 
L 576.623755 -198.583806 
L 576.501274 -196.738529 
L 576.40147 -194.893251 
L 576.322619 -193.047974 
L 576.262179 -191.202697 
L 576.217211 -189.35742 
L 576.184732 -187.512142 
L 576.161966 -185.666865 
L 576.146501 -183.821588 
L 576.136374 -181.97631 
L 576.130085 -180.131033 
L 576.126595 -178.285756 
L 576.125304 -176.440478 
L 576.126056 -174.595201 
L 576.12917 -172.749924 
L 576.135527 -170.904647 
L 576.146706 -169.059369 
L 576.165176 -167.214092 
L 576.194525 -165.368815 
L 576.23971 -163.523537 
L 576.307273 -161.67826 
L 576.405477 -159.832983 
L 576.544303 -157.987705 
L 576.735236 -156.142428 
L 576.990798 -154.297151 
L 577.323821 -152.451873 
L 577.746462 -150.606596 
L 578.269057 -148.761319 
L 578.898885 -146.916042 
L 579.639013 -145.070764 
L 580.487325 -143.225487 
L 581.435878 -141.38021 
L 582.470652 -139.534932 
L 583.571741 -137.689655 
L 584.713995 -135.844378 
L 585.868085 -133.9991 
L 587.001941 -132.153823 
L 588.082534 -130.308546 
L 589.077917 -128.463269 
L 589.959444 -126.617991 
L 590.70404 -124.772714 
L 591.296335 -122.927437 
L 591.730447 -121.082159 
L 592.011155 -119.236882 
L 592.154205 -117.391605 
L 592.185538 -115.546327 
L 592.139314 -113.70105 
L 592.054734 -111.855773 
L 591.971833 -110.010496 
L 591.92661 -108.165218 
L 591.946027 -106.319941 
L 592.043549 -104.474664 
L 592.215949 -102.629386 
L 592.442045 -100.784109 
L 592.683823 -98.938832 
L 592.89008 -97.093554 
L 593.002315 -95.248277 
L 592.96216 -93.403 
L 592.719302 -91.557722 
L 592.238671 -89.712445 
L 591.505731 -87.867168 
L 590.528966 -86.021891 
L 589.33918 -84.176613 
L 587.985762 -82.331336 
L 586.530598 -80.486059 
L 585.040721 -78.640781 
L 583.580905 -76.795504 
L 582.207321 -74.950227 
L 580.963075 -73.104949 
L 579.875998 -71.259672 
L 578.95865 -69.414395 
L 578.210125 -67.569118 
L 577.619035 -65.72384 
L 577.166994 -63.878563 
L 576.83201 -62.033286 
z
" id="md2d6efba59" style="stroke:#3d3d3d;stroke-width:1.5;"/>
    </defs>
    <g clip-path="url(#pd9738814c2)">
     <use style="fill:#d684bd;stroke:#3d3d3d;stroke-width:1.5;" x="0" xlink:href="#md2d6efba59" y="261.799375"/>
    </g>
   </g>
   <g id="matplotlib.axis_1">
    <g id="xtick_1">
     <g id="line2d_1">
      <defs>
       <path d="M 0 0 
L 0 3.5 
" id="m2a01542ed5" style="stroke:#000000;stroke-width:0.8;"/>
      </defs>
      <g>
       <use style="stroke:#000000;stroke-width:0.8;" x="97.833705" xlink:href="#m2a01542ed5" y="224.64"/>
      </g>
     </g>
     <g id="text_1">
      <!-- 2013 -->
      <g transform="translate(85.714955 239.160313)scale(0.1 -0.1)">
       <defs>
        <path d="M 9 -4.703125 
Q 7.90625 -4.703125 7.34375 -4.640625 
Q 6.796875 -4.59375 6.546875 -4.34375 
Q 6.296875 -4.09375 6.25 -3.546875 
Q 6.203125 -3 6.203125 -1.90625 
L 6.296875 0.296875 
Q 6.296875 1.59375 7.09375 2.40625 
L 23.59375 20.59375 
Q 42 40.5 42 50.796875 
Q 42 56.796875 38 60.796875 
Q 34.09375 64.703125 28.296875 64.703125 
Q 20.203125 64.703125 11.40625 60.203125 
Q 10 59.5 9.796875 60.796875 
L 9.203125 64.09375 
Q 8.90625 65.796875 10.203125 66.203125 
Q 15.296875 68.5 19.390625 69.59375 
Q 23.5 70.703125 27.796875 70.703125 
Q 37.40625 70.703125 43.09375 65.90625 
Q 49.5 60.703125 49.5 51.09375 
Q 49.5 47.40625 47.703125 43 
Q 45.90625 38.59375 42.703125 33.796875 
Q 40.703125 31 37.046875 26.5 
Q 33.40625 22 28.703125 16.90625 
Q 25.203125 13.09375 21.75 9.1875 
Q 18.296875 5.296875 14.796875 1.5 
L 49.796875 1.5 
Q 51.203125 1.5 51.203125 0.09375 
L 51.203125 -3.296875 
Q 51.203125 -4.703125 49.796875 -4.703125 
z
" id="NanumGothic-50"/>
        <path d="M 47.90625 32.703125 
Q 47.90625 64.09375 30.703125 64.09375 
Q 13.5 64.09375 13.5 32.703125 
Q 13.5 1.203125 30.703125 1.203125 
Q 47.90625 1.203125 47.90625 32.703125 
z
M 55.09375 32.703125 
Q 55.09375 -5.09375 30.703125 -5.09375 
Q 6.09375 -5.09375 6.09375 32.703125 
Q 6.09375 48.40625 10.90625 58.203125 
Q 17 70.5 30.703125 70.5 
Q 44.203125 70.5 50.40625 58.203125 
Q 52.703125 53.296875 53.890625 47 
Q 55.09375 40.703125 55.09375 32.703125 
z
" id="NanumGothic-48"/>
        <path d="M 36.90625 -3.296875 
Q 36.90625 -4.703125 35.5 -4.703125 
L 31.40625 -4.703125 
Q 30 -4.703125 30 -3.296875 
L 30 61.703125 
Q 26.90625 59.09375 24.203125 56.796875 
Q 21.5 54.5 18.5 51.90625 
Q 17.40625 51 16.5 52.09375 
L 14.5 54.5 
Q 14.203125 55 14.203125 55.546875 
Q 14.203125 56.09375 14.703125 56.5 
L 30.203125 69.5 
Q 30.59375 69.90625 31.40625 69.90625 
L 34.09375 69.90625 
Q 36.203125 69.90625 36.546875 69.546875 
Q 36.90625 69.203125 36.90625 67.09375 
z
" id="NanumGothic-49"/>
        <path d="M 7.703125 -3 
Q 6.203125 -2.59375 6.40625 -0.703125 
L 6.796875 3.203125 
Q 7 4.40625 8.40625 3.796875 
Q 12.59375 2.09375 16.34375 1.390625 
Q 20.09375 0.703125 25.09375 0.59375 
Q 33 0.5 38.40625 4.59375 
Q 44.703125 8.796875 44.703125 16.90625 
Q 44.703125 31.09375 23.40625 31.09375 
L 18.203125 31.09375 
Q 16.90625 31.09375 16.90625 32.203125 
L 16.90625 35.90625 
Q 16.90625 37.203125 18.203125 37.203125 
L 18.703125 37.203125 
Q 29.40625 37.203125 35.40625 39.5 
Q 44.5 43 44.5 52.09375 
Q 44.5 55 42.953125 57.453125 
Q 41.40625 59.90625 38.796875 61.59375 
Q 36.40625 63 33.40625 63.796875 
Q 30.40625 64.59375 27.09375 64.59375 
Q 23.703125 64.59375 19.59375 63.6875 
Q 15.5 62.796875 11.703125 61.296875 
Q 10.40625 60.796875 10.203125 62.09375 
L 9.796875 65.796875 
Q 9.5 67.203125 11.09375 67.796875 
Q 15.59375 69.296875 19.5 70 
Q 23.40625 70.703125 27.796875 70.703125 
Q 37.90625 70.703125 44.296875 66.40625 
Q 51.59375 61.5 51.59375 52.09375 
Q 51.59375 45.40625 46.796875 40.5 
Q 42.796875 36.203125 36.40625 34.203125 
Q 39.59375 33.796875 42.34375 32.5 
Q 45.09375 31.203125 47.09375 28.90625 
Q 49.40625 26.40625 50.59375 23.25 
Q 51.796875 20.09375 51.796875 16.296875 
Q 51.796875 11.296875 49.75 7.25 
Q 47.703125 3.203125 43.90625 0.296875 
Q 40.203125 -2.40625 35.390625 -3.953125 
Q 30.59375 -5.5 24.703125 -5.40625 
Q 19.40625 -5.296875 15.546875 -4.796875 
Q 11.703125 -4.296875 7.703125 -3 
z
" id="NanumGothic-51"/>
       </defs>
       <use xlink:href="#NanumGothic-50"/>
       <use x="60.599991" xlink:href="#NanumGothic-48"/>
       <use x="121.199982" xlink:href="#NanumGothic-49"/>
       <use x="181.799973" xlink:href="#NanumGothic-51"/>
      </g>
     </g>
    </g>
    <g id="xtick_2">
     <g id="line2d_2">
      <g>
       <use style="stroke:#000000;stroke-width:0.8;" x="177.547991" xlink:href="#m2a01542ed5" y="224.64"/>
      </g>
     </g>
     <g id="text_2">
      <!-- 2014 -->
      <g transform="translate(165.429241 239.160313)scale(0.1 -0.1)">
       <defs>
        <path d="M 39.203125 19 
L 39.203125 63.59375 
Q 31.796875 52.40625 24.5 41.296875 
Q 17.203125 30.203125 9.703125 19 
z
M 46 -3.296875 
Q 46 -4.703125 44.59375 -4.703125 
L 40.59375 -4.703125 
Q 39.203125 -4.703125 39.203125 -3.296875 
L 39.203125 12.90625 
L 6.203125 12.90625 
Q 4.09375 12.90625 3.75 13.25 
Q 3.40625 13.59375 3.40625 15.703125 
L 3.40625 18.796875 
Q 3.40625 19.703125 3.5 20 
Q 3.59375 20.296875 4.09375 21.09375 
L 36 68.703125 
Q 36.59375 69.59375 36.84375 69.75 
Q 37.09375 69.90625 38.203125 69.90625 
L 43.203125 69.90625 
Q 45.296875 69.90625 45.640625 69.546875 
Q 46 69.203125 46 67.09375 
L 46 19 
L 55.90625 19 
Q 57.296875 19 57.296875 17.59375 
L 57.296875 14.296875 
Q 57.296875 12.90625 55.90625 12.90625 
L 46 12.90625 
z
" id="NanumGothic-52"/>
       </defs>
       <use xlink:href="#NanumGothic-50"/>
       <use x="60.599991" xlink:href="#NanumGothic-48"/>
       <use x="121.199982" xlink:href="#NanumGothic-49"/>
       <use x="181.799973" xlink:href="#NanumGothic-52"/>
      </g>
     </g>
    </g>
    <g id="xtick_3">
     <g id="line2d_3">
      <g>
       <use style="stroke:#000000;stroke-width:0.8;" x="257.262277" xlink:href="#m2a01542ed5" y="224.64"/>
      </g>
     </g>
     <g id="text_3">
      <!-- 2015 -->
      <g transform="translate(245.143527 239.160313)scale(0.1 -0.1)">
       <defs>
        <path d="M 11.5 -3.203125 
Q 10.09375 -2.703125 10.09375 -1.40625 
L 10.09375 2.796875 
Q 10.09375 4.5 11.5 3.796875 
Q 15.09375 2.09375 18.546875 1.390625 
Q 22 0.703125 26.09375 0.703125 
Q 34.90625 0.703125 40.40625 5 
Q 46.40625 9.59375 46.40625 18.203125 
Q 46.40625 35.09375 27.09375 35.09375 
Q 23.296875 35.09375 20.25 34.6875 
Q 17.203125 34.296875 13.5 33.296875 
Q 12.40625 33 11.703125 33.546875 
Q 11 34.09375 11 35.203125 
L 11.59375 67.09375 
Q 11.59375 69.203125 11.9375 69.546875 
Q 12.296875 69.90625 14.40625 69.90625 
L 48.59375 69.90625 
Q 50 69.90625 50 68.5 
L 50 65.203125 
Q 50 63.796875 48.59375 63.796875 
L 18.40625 63.796875 
Q 18.296875 57.5 18.140625 51.5 
Q 18 45.5 17.90625 39.203125 
Q 22.796875 41.09375 29.796875 41.09375 
Q 40.296875 41.09375 46.796875 35.40625 
Q 53.296875 29.5 53.296875 19.59375 
Q 53.296875 7.5 45.796875 0.90625 
Q 38.59375 -5.40625 26.09375 -5.40625 
Q 21.59375 -5.40625 18.296875 -4.90625 
Q 15 -4.40625 11.5 -3.203125 
z
" id="NanumGothic-53"/>
       </defs>
       <use xlink:href="#NanumGothic-50"/>
       <use x="60.599991" xlink:href="#NanumGothic-48"/>
       <use x="121.199982" xlink:href="#NanumGothic-49"/>
       <use x="181.799973" xlink:href="#NanumGothic-53"/>
      </g>
     </g>
    </g>
    <g id="xtick_4">
     <g id="line2d_4">
      <g>
       <use style="stroke:#000000;stroke-width:0.8;" x="336.976562" xlink:href="#m2a01542ed5" y="224.64"/>
      </g>
     </g>
     <g id="text_4">
      <!-- 2016 -->
      <g transform="translate(324.857813 239.160313)scale(0.1 -0.1)">
       <defs>
        <path d="M 48.09375 18.796875 
Q 48.09375 26.90625 43.90625 31.59375 
Q 39.703125 36.40625 31.90625 36.40625 
Q 27.90625 36.40625 24.703125 35.15625 
Q 21.5 33.90625 19.25 31.703125 
Q 17 29.5 15.75 26.390625 
Q 14.5 23.296875 14.5 19.59375 
Q 14.5 12 18.703125 6.796875 
Q 23.296875 0.703125 31 0.703125 
Q 38.90625 0.703125 43.703125 6 
Q 48.09375 11 48.09375 18.796875 
z
M 50.703125 62.703125 
Q 48.40625 63.5 45.453125 64 
Q 42.5 64.5 39.59375 64.5 
Q 26 64.5 19.5 54.703125 
Q 14 46.5 13.796875 32.203125 
Q 16 36.203125 20.203125 39 
Q 25.40625 42.703125 31.90625 42.703125 
Q 41 42.703125 47.203125 37.90625 
Q 55.09375 31.796875 55.09375 19.296875 
Q 55.09375 8.703125 48.59375 1.703125 
Q 42 -5.40625 30.796875 -5.40625 
Q 6.796875 -5.40625 6.796875 30 
Q 6.796875 48.5 14.203125 58.90625 
Q 22.90625 70.703125 40.40625 70.703125 
Q 43 70.703125 45.84375 70.296875 
Q 48.703125 69.90625 51.09375 69.203125 
Q 52.59375 68.90625 52.40625 67.40625 
L 52.203125 63.703125 
Q 52.203125 63 51.703125 62.75 
Q 51.203125 62.5 50.703125 62.703125 
z
" id="NanumGothic-54"/>
       </defs>
       <use xlink:href="#NanumGothic-50"/>
       <use x="60.599991" xlink:href="#NanumGothic-48"/>
       <use x="121.199982" xlink:href="#NanumGothic-49"/>
       <use x="181.799973" xlink:href="#NanumGothic-54"/>
      </g>
     </g>
    </g>
    <g id="xtick_5">
     <g id="line2d_5">
      <g>
       <use style="stroke:#000000;stroke-width:0.8;" x="416.690848" xlink:href="#m2a01542ed5" y="224.64"/>
      </g>
     </g>
     <g id="text_5">
      <!-- 2017 -->
      <g transform="translate(404.572098 239.160313)scale(0.1 -0.1)">
       <defs>
        <path d="M 24.203125 -3.296875 
Q 23.5 -4.703125 22.203125 -4.703125 
L 17.203125 -4.703125 
Q 16.59375 -4.703125 16.34375 -4.296875 
Q 16.09375 -3.90625 16.40625 -3.296875 
L 45.5 63.796875 
L 8.40625 63.796875 
Q 7 63.796875 7 65.203125 
L 7 68.5 
Q 7 69.90625 8.40625 69.90625 
L 49.90625 69.90625 
Q 52 69.90625 52.34375 69.546875 
Q 52.703125 69.203125 52.703125 67.09375 
L 52.703125 64.59375 
Q 52.703125 63.796875 52.40625 63.203125 
z
" id="NanumGothic-55"/>
       </defs>
       <use xlink:href="#NanumGothic-50"/>
       <use x="60.599991" xlink:href="#NanumGothic-48"/>
       <use x="121.199982" xlink:href="#NanumGothic-49"/>
       <use x="181.799973" xlink:href="#NanumGothic-55"/>
      </g>
     </g>
    </g>
    <g id="xtick_6">
     <g id="line2d_6">
      <g>
       <use style="stroke:#000000;stroke-width:0.8;" x="496.405134" xlink:href="#m2a01542ed5" y="224.64"/>
      </g>
     </g>
     <g id="text_6">
      <!-- 2018 -->
      <g transform="translate(484.286384 239.160313)scale(0.1 -0.1)">
       <defs>
        <path d="M 46 52.5 
Q 46 58.203125 41 61.5 
Q 36.59375 64.59375 30.703125 64.59375 
Q 24.296875 64.59375 19.90625 61.40625 
Q 15.09375 58.203125 15.09375 52.5 
Q 15.09375 47.296875 20.09375 43.09375 
Q 21.5 41.796875 23.84375 40.296875 
Q 26.203125 38.796875 29.40625 37.296875 
Q 30.203125 36.90625 30.703125 36.953125 
Q 31.203125 37 32.203125 37.5 
Q 38.59375 41 42.296875 44.84375 
Q 46 48.703125 46 52.5 
z
M 48.5 15 
Q 48.5 20.5 43.5 24.59375 
Q 41.90625 25.90625 39 27.5 
Q 36.09375 29.09375 31.90625 31 
Q 30.59375 31.703125 29 31 
Q 25.09375 29.5 22.09375 27.84375 
Q 19.09375 26.203125 17.296875 24.796875 
Q 15.296875 22.796875 14.046875 20.140625 
Q 12.796875 17.5 12.796875 14.5 
Q 12.796875 8.40625 18.5 4.5 
Q 23.703125 0.59375 30.703125 0.59375 
Q 37.90625 0.59375 42.796875 4 
Q 48.5 7.90625 48.5 15 
z
M 55.5 14.5 
Q 55.5 9.59375 53.453125 5.6875 
Q 51.40625 1.796875 47.59375 -0.796875 
Q 44.296875 -3 40 -4.203125 
Q 35.703125 -5.40625 30.703125 -5.40625 
Q 25.796875 -5.40625 21.546875 -4.09375 
Q 17.296875 -2.796875 13.796875 -0.5 
Q 10 2.203125 7.890625 6.046875 
Q 5.796875 9.90625 5.796875 14.5 
Q 5.796875 22.296875 11 27.203125 
Q 15 31 23.296875 34.09375 
Q 8.09375 41.59375 8.09375 53.296875 
Q 8.09375 57.5 10.1875 60.75 
Q 12.296875 64 16.09375 66.59375 
Q 19.296875 68.59375 22.9375 69.640625 
Q 26.59375 70.703125 30.703125 70.703125 
Q 35.5 70.703125 39.296875 69.640625 
Q 43.09375 68.59375 46.203125 66.5 
Q 53.09375 61.703125 53.09375 53.296875 
Q 53.09375 42.90625 37.5 34.09375 
Q 41.59375 32.59375 44.84375 30.796875 
Q 48.09375 29 50.09375 27.203125 
Q 55.5 22.40625 55.5 14.5 
z
" id="NanumGothic-56"/>
       </defs>
       <use xlink:href="#NanumGothic-50"/>
       <use x="60.599991" xlink:href="#NanumGothic-48"/>
       <use x="121.199982" xlink:href="#NanumGothic-49"/>
       <use x="181.799973" xlink:href="#NanumGothic-56"/>
      </g>
     </g>
    </g>
    <g id="xtick_7">
     <g id="line2d_7">
      <g>
       <use style="stroke:#000000;stroke-width:0.8;" x="576.11942" xlink:href="#m2a01542ed5" y="224.64"/>
      </g>
     </g>
     <g id="text_7">
      <!-- 2019 -->
      <g transform="translate(564.00067 239.160313)scale(0.1 -0.1)">
       <defs>
        <path d="M 46.796875 45.703125 
Q 46.796875 53.5 42.59375 58.796875 
Q 38 64.5 30.40625 64.5 
Q 22.296875 64.5 17.703125 59.40625 
Q 13.203125 54.59375 13.203125 46.59375 
Q 13.203125 38.09375 17.296875 33.40625 
L 17.203125 33.40625 
Q 21.5 28.796875 29.40625 28.796875 
Q 37.59375 28.796875 42.203125 33.40625 
Q 46.796875 38.203125 46.796875 45.703125 
z
M 10.203125 -4 
Q 8.703125 -3.703125 8.90625 -1.703125 
L 9.203125 1.796875 
Q 9.40625 3 10.796875 2.40625 
Q 13.296875 1.40625 15.84375 1 
Q 18.40625 0.59375 21.59375 0.59375 
Q 28.59375 0.59375 33.796875 3.34375 
Q 39 6.09375 42.296875 11.203125 
Q 47.296875 19.59375 47.5 32.5 
Q 41.40625 22.703125 29.40625 22.703125 
Q 20.203125 22.703125 14 27.40625 
Q 6.09375 33.5 6.09375 46.09375 
Q 6.09375 57.203125 12.59375 63.796875 
Q 19.203125 70.703125 30.59375 70.703125 
Q 54.59375 70.703125 54.59375 35.296875 
Q 54.59375 -5.40625 20.90625 -5.40625 
Q 16.296875 -5.40625 10.203125 -4 
z
" id="NanumGothic-57"/>
       </defs>
       <use xlink:href="#NanumGothic-50"/>
       <use x="60.599991" xlink:href="#NanumGothic-48"/>
       <use x="121.199982" xlink:href="#NanumGothic-49"/>
       <use x="181.799973" xlink:href="#NanumGothic-57"/>
      </g>
     </g>
    </g>
    <g id="text_8">
     <!--  -->
     <g transform="translate(327.576563 252.64)scale(0.1 -0.1)">
      <defs>
       <path d="M 80.5 13.5 
Q 80.5 12.09375 79.09375 12.09375 
L 75 12.09375 
Q 73.59375 12.09375 73.59375 13.5 
L 73.59375 34.90625 
L 51.09375 34.90625 
Q 47.796875 30.90625 42.9375 28.65625 
Q 38.09375 26.40625 32.296875 26.40625 
Q 27.296875 26.40625 23 28.09375 
Q 18.703125 29.796875 15.546875 32.9375 
Q 12.40625 36.09375 10.546875 40.390625 
Q 8.703125 44.703125 8.703125 50 
Q 8.703125 55.5 10.546875 59.890625 
Q 12.40625 64.296875 15.546875 67.390625 
Q 18.703125 70.5 23 72.09375 
Q 27.296875 73.703125 32.296875 73.703125 
Q 38.40625 73.703125 43.75 71.046875 
Q 49.09375 68.40625 52.40625 63.40625 
L 73.59375 63.40625 
L 73.59375 76.796875 
Q 73.59375 78.203125 75 78.203125 
L 79.09375 78.203125 
Q 80.5 78.203125 80.5 76.796875 
L 80.5 13.5 
z
M 49.296875 50.09375 
Q 49.296875 54.296875 47.890625 57.546875 
Q 46.5 60.796875 44.140625 62.9375 
Q 41.796875 65.09375 38.75 66.1875 
Q 35.703125 67.296875 32.296875 67.296875 
Q 28.796875 67.296875 25.796875 66.1875 
Q 22.796875 65.09375 20.546875 62.9375 
Q 18.296875 60.796875 17 57.546875 
Q 15.703125 54.296875 15.703125 50.09375 
Q 15.703125 46.09375 16.953125 42.890625 
Q 18.203125 39.703125 20.390625 37.453125 
Q 22.59375 35.203125 25.640625 33.953125 
Q 28.703125 32.703125 32.296875 32.703125 
Q 35.703125 32.703125 38.75 33.953125 
Q 41.796875 35.203125 44.140625 37.453125 
Q 46.5 39.703125 47.890625 42.890625 
Q 49.296875 46.09375 49.296875 50.09375 
z
M 83.5 -11 
Q 83.5 -11.59375 83 -11.890625 
Q 82.5 -12.203125 82 -12.203125 
L 31.90625 -12.203125 
Q 27.203125 -12.203125 25.75 -10.453125 
Q 24.296875 -8.703125 24.296875 -4.59375 
L 24.296875 15 
Q 24.296875 16.40625 25.703125 16.40625 
L 29.796875 16.40625 
Q 31.203125 16.40625 31.203125 15 
L 31.203125 -4.09375 
Q 31.203125 -5.5 31.640625 -5.84375 
Q 32.09375 -6.203125 33.5 -6.203125 
L 82 -6.203125 
Q 82.5 -6.203125 83 -6.546875 
Q 83.5 -6.90625 83.5 -7.40625 
L 83.5 -11 
z
M 56.296875 50 
Q 56.296875 45 54.59375 40.796875 
L 73.59375 40.796875 
L 73.59375 57.5 
L 55.203125 57.5 
Q 56.296875 53.90625 56.296875 50 
z
" id="NanumGothic-50672"/>
       <path d="M 78.59375 31 
Q 78.59375 29.59375 77.296875 29.59375 
L 50.203125 29.59375 
L 50.203125 7.796875 
L 89.5 7.796875 
Q 90 7.796875 90.5 7.4375 
Q 91 7.09375 91 6.5 
L 91 3.09375 
Q 91 2.59375 90.5 2.1875 
Q 90 1.796875 89.5 1.796875 
L 4.5 1.796875 
Q 3.90625 1.796875 3.453125 2.1875 
Q 3 2.59375 3 3.09375 
L 3 6.5 
Q 3 7.09375 3.453125 7.4375 
Q 3.90625 7.796875 4.5 7.796875 
L 43.296875 7.796875 
L 43.296875 29.59375 
L 23.296875 29.59375 
Q 18.90625 29.59375 17.296875 31.046875 
Q 15.703125 32.5 15.703125 36.703125 
L 15.703125 64.59375 
Q 15.703125 68.796875 17.296875 70.25 
Q 18.90625 71.703125 23.296875 71.703125 
L 76.59375 71.703125 
Q 77.90625 71.703125 77.90625 70.40625 
L 77.90625 67.09375 
Q 77.90625 65.703125 76.59375 65.703125 
L 25 65.703125 
Q 23.59375 65.703125 23.09375 65.09375 
Q 22.59375 64.5 22.59375 63 
L 22.59375 38.203125 
Q 22.59375 36.796875 23.09375 36.1875 
Q 23.59375 35.59375 25 35.59375 
L 77.296875 35.59375 
Q 78.59375 35.59375 78.59375 34.296875 
z
" id="NanumGothic-46020"/>
      </defs>
      <use xlink:href="#NanumGothic-50672"/>
      <use x="93.999985" xlink:href="#NanumGothic-46020"/>
     </g>
    </g>
   </g>
   <g id="matplotlib.axis_2">
    <g id="ytick_1">
     <g id="line2d_8">
      <defs>
       <path d="M 0 0 
L -3.5 0 
" id="m2293f5f5d7" style="stroke:#000000;stroke-width:0.8;"/>
      </defs>
      <g>
       <use style="stroke:#000000;stroke-width:0.8;" x="57.976563" xlink:href="#m2293f5f5d7" y="195.245554"/>
      </g>
     </g>
     <g id="text_9">
      <!-- 5000 -->
      <g transform="translate(26.739063 199.00571)scale(0.1 -0.1)">
       <use xlink:href="#NanumGothic-53"/>
       <use x="60.599991" xlink:href="#NanumGothic-48"/>
       <use x="121.199982" xlink:href="#NanumGothic-48"/>
       <use x="181.799973" xlink:href="#NanumGothic-48"/>
      </g>
     </g>
    </g>
    <g id="ytick_2">
     <g id="line2d_9">
      <g>
       <use style="stroke:#000000;stroke-width:0.8;" x="57.976563" xlink:href="#m2293f5f5d7" y="159.248302"/>
      </g>
     </g>
     <g id="text_10">
      <!-- 10000 -->
      <g transform="translate(20.679688 163.008459)scale(0.1 -0.1)">
       <use xlink:href="#NanumGothic-49"/>
       <use x="60.599991" xlink:href="#NanumGothic-48"/>
       <use x="121.199982" xlink:href="#NanumGothic-48"/>
       <use x="181.799973" xlink:href="#NanumGothic-48"/>
       <use x="242.399963" xlink:href="#NanumGothic-48"/>
      </g>
     </g>
    </g>
    <g id="ytick_3">
     <g id="line2d_10">
      <g>
       <use style="stroke:#000000;stroke-width:0.8;" x="57.976563" xlink:href="#m2293f5f5d7" y="123.251051"/>
      </g>
     </g>
     <g id="text_11">
      <!-- 15000 -->
      <g transform="translate(20.679688 127.011207)scale(0.1 -0.1)">
       <use xlink:href="#NanumGothic-49"/>
       <use x="60.599991" xlink:href="#NanumGothic-53"/>
       <use x="121.199982" xlink:href="#NanumGothic-48"/>
       <use x="181.799973" xlink:href="#NanumGothic-48"/>
       <use x="242.399963" xlink:href="#NanumGothic-48"/>
      </g>
     </g>
    </g>
    <g id="ytick_4">
     <g id="line2d_11">
      <g>
       <use style="stroke:#000000;stroke-width:0.8;" x="57.976563" xlink:href="#m2293f5f5d7" y="87.253799"/>
      </g>
     </g>
     <g id="text_12">
      <!-- 20000 -->
      <g transform="translate(20.679688 91.013956)scale(0.1 -0.1)">
       <use xlink:href="#NanumGothic-50"/>
       <use x="60.599991" xlink:href="#NanumGothic-48"/>
       <use x="121.199982" xlink:href="#NanumGothic-48"/>
       <use x="181.799973" xlink:href="#NanumGothic-48"/>
       <use x="242.399963" xlink:href="#NanumGothic-48"/>
      </g>
     </g>
    </g>
    <g id="ytick_5">
     <g id="line2d_12">
      <g>
       <use style="stroke:#000000;stroke-width:0.8;" x="57.976563" xlink:href="#m2293f5f5d7" y="51.256548"/>
      </g>
     </g>
     <g id="text_13">
      <!-- 25000 -->
      <g transform="translate(20.679688 55.016704)scale(0.1 -0.1)">
       <use xlink:href="#NanumGothic-50"/>
       <use x="60.599991" xlink:href="#NanumGothic-53"/>
       <use x="121.199982" xlink:href="#NanumGothic-48"/>
       <use x="181.799973" xlink:href="#NanumGothic-48"/>
       <use x="242.399963" xlink:href="#NanumGothic-48"/>
      </g>
     </g>
    </g>
    <g id="ytick_6">
     <g id="line2d_13">
      <g>
       <use style="stroke:#000000;stroke-width:0.8;" x="57.976563" xlink:href="#m2293f5f5d7" y="15.259296"/>
      </g>
     </g>
     <g id="text_14">
      <!-- 30000 -->
      <g transform="translate(20.679688 19.019452)scale(0.1 -0.1)">
       <use xlink:href="#NanumGothic-51"/>
       <use x="60.599991" xlink:href="#NanumGothic-48"/>
       <use x="121.199982" xlink:href="#NanumGothic-48"/>
       <use x="181.799973" xlink:href="#NanumGothic-48"/>
       <use x="242.399963" xlink:href="#NanumGothic-48"/>
      </g>
     </g>
    </g>
    <g id="text_15">
     <!--  -->
     <g transform="translate(14.720313 144.12)rotate(-90)scale(0.1 -0.1)">
      <defs>
       <path d="M 81.296875 3.90625 
Q 81.296875 -0.40625 79 -3.796875 
Q 76.703125 -7.203125 72.75 -9.546875 
Q 68.796875 -11.90625 63.546875 -13.15625 
Q 58.296875 -14.40625 52.296875 -14.40625 
Q 45.796875 -14.40625 40.5 -13.15625 
Q 35.203125 -11.90625 31.390625 -9.546875 
Q 27.59375 -7.203125 25.5 -3.796875 
Q 23.40625 -0.40625 23.40625 3.90625 
Q 23.40625 8.09375 25.5 11.4375 
Q 27.59375 14.796875 31.390625 17.140625 
Q 35.203125 19.5 40.5 20.75 
Q 45.796875 22 52.296875 22 
Q 58.296875 22 63.546875 20.75 
Q 68.796875 19.5 72.75 17.203125 
Q 76.703125 14.90625 79 11.546875 
Q 81.296875 8.203125 81.296875 3.90625 
z
M 58.203125 69.203125 
Q 58.203125 67.90625 56.703125 67.90625 
L 48.40625 67.90625 
L 48.40625 36.203125 
Q 51.59375 36.40625 54.6875 36.75 
Q 57.796875 37.09375 60.703125 37.59375 
Q 61.59375 37.796875 61.890625 37.640625 
Q 62.203125 37.5 62.40625 36.796875 
L 63 33.5 
Q 63.09375 32.90625 62.890625 32.59375 
Q 62.703125 32.296875 61.703125 32.09375 
Q 56 31.09375 49 30.640625 
Q 42 30.203125 34.703125 29.796875 
Q 31.90625 29.59375 28.296875 29.546875 
Q 24.703125 29.5 20.890625 29.453125 
Q 17.09375 29.40625 13.390625 29.40625 
Q 9.703125 29.40625 6.796875 29.5 
Q 6.203125 29.5 5.75 29.890625 
Q 5.296875 30.296875 5.296875 30.796875 
L 5.296875 34 
Q 5.296875 34.59375 5.75 34.9375 
Q 6.203125 35.296875 6.796875 35.296875 
L 18.296875 35.296875 
L 18.296875 67.90625 
L 7.5 67.90625 
Q 7 67.90625 6.546875 68.296875 
Q 6.09375 68.703125 6.09375 69.296875 
L 6.09375 72.40625 
Q 6.09375 73 6.546875 73.390625 
Q 7 73.796875 7.5 73.796875 
L 56.703125 73.796875 
Q 58.203125 73.796875 58.203125 72.5 
L 58.203125 69.203125 
z
M 74.203125 3.59375 
Q 74.203125 6.59375 72.390625 8.890625 
Q 70.59375 11.203125 67.546875 12.75 
Q 64.5 14.296875 60.5 15.140625 
Q 56.5 16 52.203125 16 
Q 47.40625 16 43.40625 15.140625 
Q 39.40625 14.296875 36.546875 12.75 
Q 33.703125 11.203125 32.09375 8.890625 
Q 30.5 6.59375 30.5 3.59375 
Q 30.5 0.703125 32.09375 -1.546875 
Q 33.703125 -3.796875 36.546875 -5.296875 
Q 39.40625 -6.796875 43.40625 -7.59375 
Q 47.40625 -8.40625 52.203125 -8.40625 
Q 56.5 -8.40625 60.5 -7.59375 
Q 64.5 -6.796875 67.546875 -5.296875 
Q 70.59375 -3.796875 72.390625 -1.546875 
Q 74.203125 0.703125 74.203125 3.59375 
z
M 73.59375 64 
L 73.59375 76.796875 
Q 73.59375 78.203125 75 78.203125 
L 79.09375 78.203125 
Q 80.5 78.203125 80.5 76.796875 
L 80.5 24.296875 
Q 80.5 22.90625 79.09375 22.90625 
L 75 22.90625 
Q 73.59375 22.90625 73.59375 24.296875 
L 73.59375 42 
L 58.296875 42 
Q 57 42 57 43.203125 
L 57 46.703125 
Q 57 47.90625 58.296875 47.90625 
L 73.59375 47.90625 
L 73.59375 58.09375 
L 58.296875 58.09375 
Q 57 58.09375 57 59.296875 
L 57 62.796875 
Q 57 64 58.296875 64 
z
M 34.5 35.59375 
Q 36.296875 35.59375 38.09375 35.640625 
Q 39.90625 35.703125 41.59375 35.796875 
L 41.59375 67.90625 
L 25.09375 67.90625 
L 25.09375 35.40625 
Q 27.703125 35.5 30.09375 35.5 
Q 32.5 35.5 34.5 35.59375 
z
" id="NanumGothic-54217"/>
       <path d="M 78.203125 3.90625 
Q 78.203125 -0.40625 75.890625 -3.796875 
Q 73.59375 -7.203125 69.640625 -9.546875 
Q 65.703125 -11.90625 60.453125 -13.15625 
Q 55.203125 -14.40625 49.203125 -14.40625 
Q 42.703125 -14.40625 37.390625 -13.15625 
Q 32.09375 -11.90625 28.296875 -9.546875 
Q 24.5 -7.203125 22.390625 -3.796875 
Q 20.296875 -0.40625 20.296875 3.90625 
Q 20.296875 8.09375 22.390625 11.4375 
Q 24.5 14.796875 28.296875 17.140625 
Q 32.09375 19.5 37.390625 20.75 
Q 42.703125 22 49.203125 22 
Q 55.203125 22 60.453125 20.75 
Q 65.703125 19.5 69.640625 17.203125 
Q 73.59375 14.90625 75.890625 11.546875 
Q 78.203125 8.203125 78.203125 3.90625 
z
M 71.09375 3.59375 
Q 71.09375 6.59375 69.296875 8.890625 
Q 67.5 11.203125 64.453125 12.75 
Q 61.40625 14.296875 57.40625 15.140625 
Q 53.40625 16 49.09375 16 
Q 44.296875 16 40.296875 15.140625 
Q 36.296875 14.296875 33.4375 12.75 
Q 30.59375 11.203125 29 8.890625 
Q 27.40625 6.59375 27.40625 3.59375 
Q 27.40625 0.703125 29 -1.546875 
Q 30.59375 -3.796875 33.4375 -5.296875 
Q 36.296875 -6.796875 40.296875 -7.59375 
Q 44.296875 -8.40625 49.09375 -8.40625 
Q 53.40625 -8.40625 57.40625 -7.59375 
Q 61.40625 -6.796875 64.453125 -5.296875 
Q 67.5 -3.796875 69.296875 -1.546875 
Q 71.09375 0.703125 71.09375 3.59375 
z
M 63.59375 36.40625 
Q 63.90625 35.09375 62.40625 34.703125 
Q 59.09375 33.90625 53.640625 33.09375 
Q 48.203125 32.296875 42 31.6875 
Q 35.796875 31.09375 29.546875 30.75 
Q 23.296875 30.40625 18.40625 30.5 
Q 13.90625 30.59375 12.25 32.59375 
Q 10.59375 34.59375 10.59375 38.796875 
L 10.59375 66.90625 
Q 10.59375 71.09375 12.1875 72.5 
Q 13.796875 73.90625 18.203125 73.90625 
L 52.296875 73.90625 
Q 53.59375 73.90625 53.59375 72.703125 
L 53.59375 69.09375 
Q 53.59375 67.90625 52.296875 67.90625 
L 19.5 67.90625 
Q 18.09375 67.90625 17.796875 67.546875 
Q 17.5 67.203125 17.5 65.703125 
L 17.5 39.296875 
Q 17.5 37.796875 18 37.25 
Q 18.5 36.703125 19.90625 36.703125 
Q 25 36.703125 30.390625 36.953125 
Q 35.796875 37.203125 41.09375 37.703125 
Q 46.40625 38.203125 51.5 38.890625 
Q 56.59375 39.59375 61.09375 40.5 
Q 62.09375 40.703125 62.4375 40.390625 
Q 62.796875 40.09375 63 39.5 
z
M 77 24.296875 
Q 77 22.90625 75.59375 22.90625 
L 71.5 22.90625 
Q 70.09375 22.90625 70.09375 24.296875 
L 70.09375 76.796875 
Q 70.09375 78.203125 71.5 78.203125 
L 75.59375 78.203125 
Q 77 78.203125 77 76.796875 
L 77 53 
L 90.796875 53 
Q 91.40625 53 91.84375 52.640625 
Q 92.296875 52.296875 92.296875 51.703125 
L 92.296875 48.296875 
Q 92.296875 47.796875 91.84375 47.390625 
Q 91.40625 47 90.796875 47 
L 77 47 
L 77 24.296875 
z
" id="NanumGothic-45817"/>
       <path d="M 25 41.203125 
Q 22.59375 41.203125 21.140625 41.5 
Q 19.703125 41.796875 18.890625 42.640625 
Q 18.09375 43.5 17.796875 44.84375 
Q 17.5 46.203125 17.5 48.296875 
L 17.5 75.59375 
Q 17.5 76.09375 17.890625 76.4375 
Q 18.296875 76.796875 18.796875 76.796875 
L 23.09375 76.796875 
Q 23.59375 76.796875 23.9375 76.390625 
Q 24.296875 76 24.296875 75.59375 
L 24.296875 65.296875 
L 69.703125 65.296875 
L 69.703125 75.5 
Q 69.703125 76 70.046875 76.390625 
Q 70.40625 76.796875 70.90625 76.796875 
L 75.203125 76.796875 
Q 75.703125 76.796875 76.09375 76.4375 
Q 76.5 76.09375 76.5 75.59375 
L 76.5 47.59375 
Q 76.5 43.796875 74.890625 42.5 
Q 73.296875 41.203125 68.90625 41.203125 
z
M 45.5 4.09375 
Q 45 4.09375 44.59375 4.546875 
Q 44.203125 5 44.203125 5.59375 
L 44.203125 25.40625 
L 4.5 25.40625 
Q 3.90625 25.40625 3.453125 25.796875 
Q 3 26.203125 3 26.703125 
L 3 30.09375 
Q 3 30.703125 3.453125 31.046875 
Q 3.90625 31.40625 4.5 31.40625 
L 89.5 31.40625 
Q 90 31.40625 90.5 31.046875 
Q 91 30.703125 91 30.09375 
L 91 26.703125 
Q 91 26.203125 90.5 25.796875 
Q 90 25.40625 89.5 25.40625 
L 51.09375 25.40625 
L 51.09375 5.59375 
Q 51.09375 5 50.75 4.546875 
Q 50.40625 4.09375 49.796875 4.09375 
z
M 24.296875 59.40625 
L 24.296875 49.5 
Q 24.296875 48 24.796875 47.546875 
Q 25.296875 47.09375 26.703125 47.09375 
L 67.296875 47.09375 
Q 68.703125 47.09375 69.203125 47.546875 
Q 69.703125 48 69.703125 49.5 
L 69.703125 59.40625 
z
M 80.203125 -11 
Q 80.203125 -11.59375 79.703125 -11.890625 
Q 79.203125 -12.203125 78.703125 -12.203125 
L 23.59375 -12.203125 
Q 18.90625 -12.203125 17.453125 -10.25 
Q 16 -8.296875 16 -4.203125 
L 16 14.296875 
Q 16 15.703125 17.40625 15.703125 
L 21.5 15.703125 
Q 22.90625 15.703125 22.90625 14.296875 
L 22.90625 -4.09375 
Q 22.90625 -5.5 23.34375 -5.84375 
Q 23.796875 -6.203125 25.203125 -6.203125 
L 78.703125 -6.203125 
Q 79.203125 -6.203125 79.703125 -6.546875 
Q 80.203125 -6.90625 80.203125 -7.40625 
L 80.203125 -11 
z
" id="NanumGothic-48516"/>
       <path d="M 55.5 52 
Q 55.5 47 53.703125 42.84375 
Q 51.90625 38.703125 48.75 35.703125 
Q 45.59375 32.703125 41.25 31 
Q 36.90625 29.296875 31.703125 29.296875 
Q 26.703125 29.296875 22.390625 30.9375 
Q 18.09375 32.59375 14.9375 35.59375 
Q 11.796875 38.59375 10.046875 42.796875 
Q 8.296875 47 8.296875 52 
Q 8.296875 57.296875 10.046875 61.546875 
Q 11.796875 65.796875 14.9375 68.75 
Q 18.09375 71.703125 22.390625 73.25 
Q 26.703125 74.796875 31.703125 74.796875 
Q 36.5 74.796875 40.796875 73.25 
Q 45.09375 71.703125 48.34375 68.796875 
Q 51.59375 65.90625 53.546875 61.65625 
Q 55.5 57.40625 55.5 52 
z
M 78.203125 3.90625 
Q 78.203125 -0.40625 75.890625 -3.796875 
Q 73.59375 -7.203125 69.640625 -9.546875 
Q 65.703125 -11.90625 60.453125 -13.15625 
Q 55.203125 -14.40625 49.203125 -14.40625 
Q 42.703125 -14.40625 37.390625 -13.15625 
Q 32.09375 -11.90625 28.296875 -9.546875 
Q 24.5 -7.203125 22.390625 -3.796875 
Q 20.296875 -0.40625 20.296875 3.90625 
Q 20.296875 8.09375 22.390625 11.4375 
Q 24.5 14.796875 28.296875 17.140625 
Q 32.09375 19.5 37.390625 20.75 
Q 42.703125 22 49.203125 22 
Q 55.203125 22 60.453125 20.75 
Q 65.703125 19.5 69.640625 17.203125 
Q 73.59375 14.90625 75.890625 11.546875 
Q 78.203125 8.203125 78.203125 3.90625 
z
M 48.5 52.09375 
Q 48.5 56.09375 47.140625 59.140625 
Q 45.796875 62.203125 43.5 64.25 
Q 41.203125 66.296875 38.140625 67.34375 
Q 35.09375 68.40625 31.703125 68.40625 
Q 28.203125 68.40625 25.203125 67.34375 
Q 22.203125 66.296875 20 64.25 
Q 17.796875 62.203125 16.546875 59.140625 
Q 15.296875 56.09375 15.296875 52.09375 
Q 15.296875 48.296875 16.5 45.296875 
Q 17.703125 42.296875 19.84375 40.09375 
Q 22 37.90625 25 36.75 
Q 28 35.59375 31.703125 35.59375 
Q 35.09375 35.59375 38.140625 36.75 
Q 41.203125 37.90625 43.5 40.09375 
Q 45.796875 42.296875 47.140625 45.296875 
Q 48.5 48.296875 48.5 52.09375 
z
M 71.09375 3.59375 
Q 71.09375 6.59375 69.296875 8.890625 
Q 67.5 11.203125 64.453125 12.75 
Q 61.40625 14.296875 57.40625 15.140625 
Q 53.40625 16 49.09375 16 
Q 44.296875 16 40.296875 15.140625 
Q 36.296875 14.296875 33.4375 12.75 
Q 30.59375 11.203125 29 8.890625 
Q 27.40625 6.59375 27.40625 3.59375 
Q 27.40625 0.703125 29 -1.546875 
Q 30.59375 -3.796875 33.4375 -5.296875 
Q 36.296875 -6.796875 40.296875 -7.59375 
Q 44.296875 -8.40625 49.09375 -8.40625 
Q 53.40625 -8.40625 57.40625 -7.59375 
Q 61.40625 -6.796875 64.453125 -5.296875 
Q 67.5 -3.796875 69.296875 -1.546875 
Q 71.09375 0.703125 71.09375 3.59375 
z
M 77 24.59375 
Q 77 23.203125 75.59375 23.203125 
L 71.5 23.203125 
Q 70.09375 23.203125 70.09375 24.59375 
L 70.09375 76.796875 
Q 70.09375 78.203125 71.5 78.203125 
L 75.59375 78.203125 
Q 77 78.203125 77 76.796875 
L 77 60.59375 
L 90.796875 60.59375 
Q 91.40625 60.59375 91.84375 60.25 
Q 92.296875 59.90625 92.296875 59.296875 
L 92.296875 56 
Q 92.296875 55.5 91.84375 55.09375 
Q 91.40625 54.703125 90.796875 54.703125 
L 77 54.703125 
L 77 42.703125 
L 90.796875 42.703125 
Q 91.40625 42.703125 91.84375 42.34375 
Q 92.296875 42 92.296875 41.40625 
L 92.296875 38.09375 
Q 92.296875 37.59375 91.84375 37.1875 
Q 91.40625 36.796875 90.796875 36.796875 
L 77 36.796875 
L 77 24.59375 
z
" id="NanumGothic-50577"/>
       <path d="M 50.703125 63.5 
Q 50.203125 54.90625 47.296875 46.59375 
Q 44.40625 38.296875 39.25 30.75 
Q 34.09375 23.203125 26.84375 16.75 
Q 19.59375 10.296875 10.40625 5.40625 
Q 9.09375 4.703125 8.5 5.703125 
L 6.296875 9.203125 
Q 5.59375 10.40625 6.703125 10.90625 
Q 15.203125 15.296875 21.75 20.9375 
Q 28.296875 26.59375 32.9375 33.1875 
Q 37.59375 39.796875 40.296875 47.09375 
Q 43 54.40625 43.703125 62.09375 
Q 43.90625 63.59375 43.296875 64.140625 
Q 42.703125 64.703125 41.296875 64.703125 
L 10.296875 64.703125 
Q 9.09375 64.703125 9.09375 66 
L 9.09375 69.5 
Q 9.09375 70.703125 10.296875 70.703125 
L 43.203125 70.703125 
Q 47.90625 70.703125 49.40625 68.953125 
Q 50.90625 67.203125 50.703125 63.5 
z
M 77 -12.59375 
Q 77 -14 75.59375 -14 
L 71.5 -14 
Q 70.09375 -14 70.09375 -12.59375 
L 70.09375 76.796875 
Q 70.09375 78.203125 71.5 78.203125 
L 75.59375 78.203125 
Q 77 78.203125 77 76.796875 
L 77 41.40625 
L 90.796875 41.40625 
Q 91.40625 41.40625 91.84375 41.046875 
Q 92.296875 40.703125 92.296875 40.09375 
L 92.296875 36.703125 
Q 92.296875 36.203125 91.84375 35.796875 
Q 91.40625 35.40625 90.796875 35.40625 
L 77 35.40625 
L 77 -12.59375 
z
" id="NanumGothic-44032"/>
       <path d="M 53.5 65.796875 
Q 53 62.90625 52.296875 60.40625 
L 73.59375 60.40625 
L 73.59375 76.796875 
Q 73.59375 78.203125 75 78.203125 
L 79.09375 78.203125 
Q 80.5 78.203125 80.5 76.796875 
L 80.5 25.59375 
Q 80.5 24.203125 79.09375 24.203125 
L 75 24.203125 
Q 73.59375 24.203125 73.59375 25.59375 
L 73.59375 36.5 
L 48.203125 36.5 
Q 46.90625 36.5 46.90625 37.703125 
L 46.90625 41.203125 
Q 46.90625 42.40625 48.203125 42.40625 
L 73.59375 42.40625 
L 73.59375 54.5 
L 50.203125 54.5 
Q 46 44.703125 37.09375 36.84375 
Q 28.203125 29 13.59375 22.90625 
Q 12 22.203125 11.40625 23.5 
L 9.90625 26.796875 
Q 9.5 27.59375 9.84375 28.09375 
Q 10.203125 28.59375 10.703125 28.796875 
Q 26.59375 35.40625 35.34375 44.5 
Q 44.09375 53.59375 46 64.09375 
Q 46.59375 66.90625 43.59375 66.90625 
L 13.40625 66.90625 
Q 12.203125 66.90625 12.203125 68.203125 
L 12.203125 71.703125 
Q 12.203125 72.90625 13.40625 72.90625 
L 45.90625 72.90625 
Q 50.703125 72.90625 52.390625 71.203125 
Q 54.09375 69.5 53.5 65.796875 
z
M 22.203125 18.203125 
Q 22.203125 18.796875 22.703125 19.09375 
Q 23.203125 19.40625 23.703125 19.40625 
L 72.90625 19.40625 
Q 77.59375 19.40625 79.046875 17.65625 
Q 80.5 15.90625 80.5 11.796875 
L 80.5 -13 
Q 80.5 -14.40625 79.09375 -14.40625 
L 75 -14.40625 
Q 73.59375 -14.40625 73.59375 -13 
L 73.59375 11.296875 
Q 73.59375 12.703125 73.140625 13.046875 
Q 72.703125 13.40625 71.296875 13.40625 
L 23.703125 13.40625 
Q 23.203125 13.40625 22.703125 13.75 
Q 22.203125 14.09375 22.203125 14.59375 
L 22.203125 18.203125 
z
" id="NanumGothic-44201"/>
      </defs>
      <use xlink:href="#NanumGothic-54217"/>
      <use x="93.999985" xlink:href="#NanumGothic-45817"/>
      <use x="187.999969" xlink:href="#NanumGothic-48516"/>
      <use x="281.999954" xlink:href="#NanumGothic-50577"/>
      <use x="375.999939" xlink:href="#NanumGothic-44032"/>
      <use x="469.999924" xlink:href="#NanumGothic-44201"/>
     </g>
    </g>
   </g>
   <g id="line2d_14">
    <path clip-path="url(#pd9738814c2)" d="M 97.833705 190.364327 
L 97.833705 157.779615 
" style="fill:none;stroke:#3d3d3d;stroke-linecap:square;stroke-width:1.5;"/>
   </g>
   <g id="line2d_15">
    <path clip-path="url(#pd9738814c2)" d="M 97.833705 186.015859 
L 97.833705 172.848064 
" style="fill:none;stroke:#3d3d3d;stroke-linecap:square;stroke-width:4.5;"/>
   </g>
   <g id="line2d_16">
    <path clip-path="url(#pd9738814c2)" d="M 177.547991 190.861089 
L 177.547991 152.941584 
" style="fill:none;stroke:#3d3d3d;stroke-linecap:square;stroke-width:1.5;"/>
   </g>
   <g id="line2d_17">
    <path clip-path="url(#pd9738814c2)" d="M 177.547991 183.830826 
L 177.547991 169.557915 
" style="fill:none;stroke:#3d3d3d;stroke-linecap:square;stroke-width:4.5;"/>
   </g>
   <g id="line2d_18">
    <path clip-path="url(#pd9738814c2)" d="M 257.262277 189.601185 
L 257.262277 154.316679 
" style="fill:none;stroke:#3d3d3d;stroke-linecap:square;stroke-width:1.5;"/>
   </g>
   <g id="line2d_19">
    <path clip-path="url(#pd9738814c2)" d="M 257.262277 181.02304 
L 257.262277 164.597494 
" style="fill:none;stroke:#3d3d3d;stroke-linecap:square;stroke-width:4.5;"/>
   </g>
   <g id="line2d_20">
    <path clip-path="url(#pd9738814c2)" d="M 336.976562 185.888428 
L 336.976562 146.639905 
" style="fill:none;stroke:#3d3d3d;stroke-linecap:square;stroke-width:1.5;"/>
   </g>
   <g id="line2d_21">
    <path clip-path="url(#pd9738814c2)" d="M 336.976562 179.527174 
L 336.976562 156.52925 
" style="fill:none;stroke:#3d3d3d;stroke-linecap:square;stroke-width:4.5;"/>
   </g>
   <g id="line2d_22">
    <path clip-path="url(#pd9738814c2)" d="M 416.690848 184.29663 
L 416.690848 136.352611 
" style="fill:none;stroke:#3d3d3d;stroke-linecap:square;stroke-width:1.5;"/>
   </g>
   <g id="line2d_23">
    <path clip-path="url(#pd9738814c2)" d="M 416.690848 177.287965 
L 416.690848 152.306233 
" style="fill:none;stroke:#3d3d3d;stroke-linecap:square;stroke-width:4.5;"/>
   </g>
   <g id="line2d_24">
    <path clip-path="url(#pd9738814c2)" d="M 496.405134 181.897053 
L 496.405134 132.052379 
" style="fill:none;stroke:#3d3d3d;stroke-linecap:square;stroke-width:1.5;"/>
   </g>
   <g id="line2d_25">
    <path clip-path="url(#pd9738814c2)" d="M 496.405134 173.498534 
L 496.405134 145.463875 
" style="fill:none;stroke:#3d3d3d;stroke-linecap:square;stroke-width:4.5;"/>
   </g>
   <g id="line2d_26">
    <path clip-path="url(#pd9738814c2)" d="M 576.11942 178.048227 
L 576.11942 123.594465 
" style="fill:none;stroke:#3d3d3d;stroke-linecap:square;stroke-width:1.5;"/>
   </g>
   <g id="line2d_27">
    <path clip-path="url(#pd9738814c2)" d="M 576.11942 170.617854 
L 576.11942 138.051321 
" style="fill:none;stroke:#3d3d3d;stroke-linecap:square;stroke-width:4.5;"/>
   </g>
   <g id="patch_3">
    <path d="M 57.976563 224.64 
L 57.976563 7.2 
" style="fill:none;stroke:#000000;stroke-linecap:square;stroke-linejoin:miter;stroke-width:0.8;"/>
   </g>
   <g id="patch_4">
    <path d="M 615.976562 224.64 
L 615.976562 7.2 
" style="fill:none;stroke:#000000;stroke-linecap:square;stroke-linejoin:miter;stroke-width:0.8;"/>
   </g>
   <g id="patch_5">
    <path d="M 57.976563 224.64 
L 615.976562 224.64 
" style="fill:none;stroke:#000000;stroke-linecap:square;stroke-linejoin:miter;stroke-width:0.8;"/>
   </g>
   <g id="patch_6">
    <path d="M 57.976563 7.2 
L 615.976562 7.2 
" style="fill:none;stroke:#000000;stroke-linecap:square;stroke-linejoin:miter;stroke-width:0.8;"/>
   </g>
   <g id="PathCollection_1">
    <defs>
     <path d="M 0 1.5 
C 0.397805 1.5 0.77937 1.341951 1.06066 1.06066 
C 1.341951 0.77937 1.5 0.397805 1.5 0 
C 1.5 -0.397805 1.341951 -0.77937 1.06066 -1.06066 
C 0.77937 -1.341951 0.397805 -1.5 0 -1.5 
C -0.397805 -1.5 -0.77937 -1.341951 -1.06066 -1.06066 
C -1.341951 -0.77937 -1.5 -0.397805 -1.5 0 
C -1.5 0.397805 -1.341951 0.77937 -1.06066 1.06066 
C -0.77937 1.341951 -0.397805 1.5 0 1.5 
z
" id="ma66a8aad89" style="stroke:#3d3d3d;"/>
    </defs>
    <g clip-path="url(#pd9738814c2)">
     <use style="fill:#ffffff;stroke:#3d3d3d;" x="97.833705" xlink:href="#ma66a8aad89" y="176.519784"/>
    </g>
   </g>
   <g id="PathCollection_2">
    <g clip-path="url(#pd9738814c2)">
     <use style="fill:#ffffff;stroke:#3d3d3d;" x="177.547991" xlink:href="#ma66a8aad89" y="174.917906"/>
    </g>
   </g>
   <g id="PathCollection_3">
    <g clip-path="url(#pd9738814c2)">
     <use style="fill:#ffffff;stroke:#3d3d3d;" x="257.262277" xlink:href="#ma66a8aad89" y="174.266356"/>
    </g>
   </g>
   <g id="PathCollection_4">
    <g clip-path="url(#pd9738814c2)">
     <use style="fill:#ffffff;stroke:#3d3d3d;" x="336.976562" xlink:href="#ma66a8aad89" y="167.689658"/>
    </g>
   </g>
   <g id="PathCollection_5">
    <g clip-path="url(#pd9738814c2)">
     <use style="fill:#ffffff;stroke:#3d3d3d;" x="416.690848" xlink:href="#ma66a8aad89" y="166.169134"/>
    </g>
   </g>
   <g id="PathCollection_6">
    <g clip-path="url(#pd9738814c2)">
     <use style="fill:#ffffff;stroke:#3d3d3d;" x="496.405134" xlink:href="#ma66a8aad89" y="160.633477"/>
    </g>
   </g>
   <g id="PathCollection_7">
    <g clip-path="url(#pd9738814c2)">
     <use style="fill:#ffffff;stroke:#3d3d3d;" x="576.11942" xlink:href="#ma66a8aad89" y="149.894777"/>
    </g>
   </g>
  </g>
 </g>
 <defs>
  <clipPath id="pd9738814c2">
   <rect height="217.44" width="558" x="57.976563" y="7.2"/>
  </clipPath>
 </defs>
</svg>
