<?xml version="1.0" encoding="utf-8" standalone="no"?>
<!DOCTYPE svg PUBLIC "-//W3C//DTD SVG 1.1//EN"
  "http://www.w3.org/Graphics/SVG/1.1/DTD/svg11.dtd">
<!-- Created with matplotlib (https://matplotlib.org/) -->
<svg height="209.221148pt" version="1.1" viewBox="0 0 623.176563 209.221148" width="623.176563pt" xmlns="http://www.w3.org/2000/svg" xmlns:xlink="http://www.w3.org/1999/xlink">
 <metadata>
  <rdf:RDF xmlns:cc="http://creativecommons.org/ns#" xmlns:dc="http://purl.org/dc/elements/1.1/" xmlns:rdf="http://www.w3.org/1999/02/22-rdf-syntax-ns#">
   <cc:Work>
    <dc:type rdf:resource="http://purl.org/dc/dcmitype/StillImage"/>
    <dc:date>2020-11-12T23:32:47.471483</dc:date>
    <dc:format>image/svg+xml</dc:format>
    <dc:creator>
     <cc:Agent>
      <dc:title>Matplotlib v3.3.2, https://matplotlib.org/</dc:title>
     </cc:Agent>
    </dc:creator>
   </cc:Work>
  </rdf:RDF>
 </metadata>
 <defs>
  <style type="text/css">*{stroke-linecap:butt;stroke-linejoin:round;}</style>
 </defs>
 <g id="figure_1">
  <g id="patch_1">
   <path d="M 0 209.221148 
L 623.176563 209.221148 
L 623.176563 0 
L 0 0 
z
" style="fill:none;"/>
  </g>
  <g id="axes_1">
   <g id="patch_2">
    <path d="M 57.976563 172.061773 
L 615.976562 172.061773 
L 615.976562 8.981773 
L 57.976563 8.981773 
z
" style="fill:#ffffff;"/>
   </g>
   <g id="patch_3">
    <path clip-path="url(#p9677351c32)" d="M 61.258915 172.061773 
L 87.517739 172.061773 
L 87.517739 19.981999 
L 61.258915 19.981999 
z
" style="fill:#ea96a3;"/>
   </g>
   <g id="patch_4">
    <path clip-path="url(#p9677351c32)" d="M 94.082445 172.061773 
L 120.341268 172.061773 
L 120.341268 95.278675 
L 94.082445 95.278675 
z
" style="fill:#e6957a;"/>
   </g>
   <g id="patch_5">
    <path clip-path="url(#p9677351c32)" d="M 126.905974 172.061773 
L 153.164798 172.061773 
L 153.164798 85.989076 
L 126.905974 85.989076 
z
" style="fill:#ce974c;"/>
   </g>
   <g id="patch_6">
    <path clip-path="url(#p9677351c32)" d="M 159.729504 172.061773 
L 185.988327 172.061773 
L 185.988327 94.171582 
L 159.729504 94.171582 
z
" style="fill:#b59c49;"/>
   </g>
   <g id="patch_7">
    <path clip-path="url(#p9677351c32)" d="M 192.553033 172.061773 
L 218.811857 172.061773 
L 218.811857 94.856108 
L 192.553033 94.856108 
z
" style="fill:#9da045;"/>
   </g>
   <g id="patch_8">
    <path clip-path="url(#p9677351c32)" d="M 225.376562 172.061773 
L 251.635386 172.061773 
L 251.635386 107.933432 
L 225.376562 107.933432 
z
" style="fill:#83a846;"/>
   </g>
   <g id="patch_9">
    <path clip-path="url(#p9677351c32)" d="M 258.200092 172.061773 
L 284.458915 172.061773 
L 284.458915 105.98863 
L 258.200092 105.98863 
z
" style="fill:#48b058;"/>
   </g>
   <g id="patch_10">
    <path clip-path="url(#p9677351c32)" d="M 291.023621 172.061773 
L 317.282445 172.061773 
L 317.282445 107.525097 
L 291.023621 107.525097 
z
" style="fill:#49ae88;"/>
   </g>
   <g id="patch_11">
    <path clip-path="url(#p9677351c32)" d="M 323.847151 172.061773 
L 350.105974 172.061773 
L 350.105974 108.932387 
L 323.847151 108.932387 
z
" style="fill:#4bac9c;"/>
   </g>
   <g id="patch_12">
    <path clip-path="url(#p9677351c32)" d="M 356.67068 172.061773 
L 382.929504 172.061773 
L 382.929504 121.213269 
L 356.67068 121.213269 
z
" style="fill:#4cabac;"/>
   </g>
   <g id="patch_13">
    <path clip-path="url(#p9677351c32)" d="M 389.49421 172.061773 
L 415.753033 172.061773 
L 415.753033 122.863558 
L 389.49421 122.863558 
z
" style="fill:#50acbe;"/>
   </g>
   <g id="patch_14">
    <path clip-path="url(#p9677351c32)" d="M 422.317739 172.061773 
L 448.576563 172.061773 
L 448.576563 119.003588 
L 422.317739 119.003588 
z
" style="fill:#56acd9;"/>
   </g>
   <g id="patch_15">
    <path clip-path="url(#p9677351c32)" d="M 455.141268 172.061773 
L 481.400092 172.061773 
L 481.400092 122.2863 
L 455.141268 122.2863 
z
" style="fill:#99ade9;"/>
   </g>
   <g id="patch_16">
    <path clip-path="url(#p9677351c32)" d="M 487.964798 172.061773 
L 514.223621 172.061773 
L 514.223621 123.310384 
L 487.964798 123.310384 
z
" style="fill:#bda4ea;"/>
   </g>
   <g id="patch_17">
    <path clip-path="url(#p9677351c32)" d="M 520.788327 172.061773 
L 547.047151 172.061773 
L 547.047151 118.08283 
L 520.788327 118.08283 
z
" style="fill:#da93e8;"/>
   </g>
   <g id="patch_18">
    <path clip-path="url(#p9677351c32)" d="M 553.611857 172.061773 
L 579.87068 172.061773 
L 579.87068 112.333167 
L 553.611857 112.333167 
z
" style="fill:#e78dd4;"/>
   </g>
   <g id="patch_19">
    <path clip-path="url(#p9677351c32)" d="M 586.435386 172.061773 
L 612.69421 172.061773 
L 612.69421 99.622259 
L 586.435386 99.622259 
z
" style="fill:#e992bc;"/>
   </g>
   <g id="matplotlib.axis_1">
    <g id="xtick_1">
     <g id="line2d_1">
      <defs>
       <path d="M 0 0 
L 0 3.5 
" id="m3078ffa417" style="stroke:#000000;stroke-width:0.8;"/>
      </defs>
      <g>
       <use style="stroke:#000000;stroke-width:0.8;" x="74.388327" xlink:href="#m3078ffa417" y="172.061773"/>
      </g>
     </g>
     <g id="text_1">
      <!-- 서울 -->
      <g transform="translate(64.988327 186.582085)scale(0.1 -0.1)">
       <defs>
        <path d="M 80.5 -12.59375 
Q 80.5 -14 79.09375 -14 
L 75 -14 
Q 73.59375 -14 73.59375 -12.59375 
L 73.59375 39.59375 
L 51.703125 39.59375 
Q 50.40625 39.59375 50.40625 40.796875 
L 50.40625 44.40625 
Q 50.40625 45.59375 51.703125 45.59375 
L 73.59375 45.59375 
L 73.59375 76.796875 
Q 73.59375 78.203125 75 78.203125 
L 79.09375 78.203125 
Q 80.5 78.203125 80.5 76.796875 
L 80.5 -12.59375 
z
M 36.296875 71.703125 
Q 36.296875 65.09375 35.75 59.046875 
Q 35.203125 53 34 47.40625 
Q 35 43.40625 37.09375 38.953125 
Q 39.203125 34.5 42.046875 30.09375 
Q 44.90625 25.703125 48.453125 21.546875 
Q 52 17.40625 56 14.09375 
Q 56.5 13.703125 56.546875 13.09375 
Q 56.59375 12.5 56.296875 12.09375 
L 53.796875 9 
Q 52.90625 7.90625 51.703125 9 
Q 48.90625 11.40625 45.953125 14.75 
Q 43 18.09375 40.25 21.796875 
Q 37.5 25.5 35.09375 29.390625 
Q 32.703125 33.296875 31 36.90625 
Q 27.796875 27.796875 22.59375 20.140625 
Q 17.40625 12.5 10.203125 5.90625 
Q 9.203125 5.09375 8.5 5.796875 
L 5.5 8.90625 
Q 5.203125 9.203125 5.25 9.703125 
Q 5.296875 10.203125 5.796875 10.703125 
Q 11.90625 16.5 16.40625 22.890625 
Q 20.90625 29.296875 23.75 36.6875 
Q 26.59375 44.09375 27.9375 52.796875 
Q 29.296875 61.5 29.296875 71.90625 
Q 29.296875 72.59375 29.640625 72.9375 
Q 30 73.296875 30.5 73.296875 
L 35.203125 73.09375 
Q 36.296875 73.09375 36.296875 71.703125 
z
" id="NanumGothic-49436"/>
        <path d="M 89.5 38.90625 
Q 90 38.90625 90.5 38.546875 
Q 91 38.203125 91 37.59375 
L 91 34.203125 
Q 91 33.703125 90.5 33.296875 
Q 90 32.90625 89.5 32.90625 
L 50.296875 32.90625 
L 50.296875 22.90625 
L 69 22.90625 
Q 71.40625 22.90625 72.90625 22.546875 
Q 74.40625 22.203125 75.296875 21.390625 
Q 76.203125 20.59375 76.546875 19.140625 
Q 76.90625 17.703125 76.90625 15.59375 
L 76.90625 9.203125 
Q 76.90625 5 75.15625 3.546875 
Q 73.40625 2.09375 68.90625 2.09375 
L 25.796875 2.09375 
Q 24.40625 2.09375 24.046875 1.6875 
Q 23.703125 1.296875 23.703125 -0.203125 
L 23.703125 -5.296875 
Q 23.703125 -6.703125 24.09375 -7.140625 
Q 24.5 -7.59375 25.90625 -7.59375 
L 77.59375 -7.59375 
Q 78.09375 -7.59375 78.546875 -7.890625 
Q 79 -8.203125 79 -8.703125 
L 79 -12.203125 
Q 79 -12.703125 78.546875 -13.046875 
Q 78.09375 -13.40625 77.703125 -13.40625 
L 24.5 -13.40625 
Q 19.796875 -13.40625 18.34375 -11.65625 
Q 16.90625 -9.90625 16.90625 -5.703125 
L 16.90625 0.703125 
Q 16.90625 4.90625 18.65625 6.34375 
Q 20.40625 7.796875 24.90625 7.796875 
L 67.90625 7.796875 
Q 69.296875 7.796875 69.6875 8.1875 
Q 70.09375 8.59375 70.09375 10.09375 
L 70.09375 14.90625 
Q 70.09375 16.40625 69.75 16.796875 
Q 69.40625 17.203125 68 17.203125 
L 18.09375 17.203125 
Q 17.59375 17.203125 17.140625 17.5 
Q 16.703125 17.796875 16.703125 18.296875 
L 16.703125 21.796875 
Q 16.703125 22.296875 17.140625 22.59375 
Q 17.59375 22.90625 18.09375 22.90625 
L 43.40625 22.90625 
L 43.40625 32.90625 
L 4.5 32.90625 
Q 3.90625 32.90625 3.453125 33.296875 
Q 3 33.703125 3 34.203125 
L 3 37.59375 
Q 3 38.203125 3.453125 38.546875 
Q 3.90625 38.90625 4.5 38.90625 
L 89.5 38.90625 
z
M 46.90625 44.90625 
Q 42.203125 44.90625 36.796875 45.59375 
Q 31.40625 46.296875 26.796875 48.25 
Q 22.203125 50.203125 19.203125 53.5 
Q 16.203125 56.796875 16.203125 62.09375 
Q 16.203125 67.296875 19.203125 70.59375 
Q 22.203125 73.90625 26.796875 75.796875 
Q 31.40625 77.703125 36.796875 78.453125 
Q 42.203125 79.203125 46.90625 79.203125 
Q 51.796875 79.203125 57.1875 78.5 
Q 62.59375 77.796875 67.140625 75.890625 
Q 71.703125 74 74.640625 70.640625 
Q 77.59375 67.296875 77.59375 62.09375 
Q 77.59375 56.796875 74.59375 53.5 
Q 71.59375 50.203125 67.046875 48.25 
Q 62.5 46.296875 57.09375 45.59375 
Q 51.703125 44.90625 46.90625 44.90625 
z
M 46.90625 73.09375 
Q 43.59375 73.09375 39.5 72.6875 
Q 35.40625 72.296875 31.796875 71.09375 
Q 28.203125 69.90625 25.75 67.703125 
Q 23.296875 65.5 23.296875 62 
Q 23.296875 58.5 25.75 56.34375 
Q 28.203125 54.203125 31.796875 53 
Q 35.40625 51.796875 39.5 51.390625 
Q 43.59375 51 46.90625 51 
Q 50.09375 51 54.1875 51.390625 
Q 58.296875 51.796875 61.890625 53 
Q 65.5 54.203125 68 56.34375 
Q 70.5 58.5 70.5 62 
Q 70.5 65.5 68 67.703125 
Q 65.5 69.90625 61.890625 71.09375 
Q 58.296875 72.296875 54.1875 72.6875 
Q 50.09375 73.09375 46.90625 73.09375 
z
" id="NanumGothic-50872"/>
       </defs>
       <use xlink:href="#NanumGothic-49436"/>
       <use x="93.999985" xlink:href="#NanumGothic-50872"/>
      </g>
     </g>
    </g>
    <g id="xtick_2">
     <g id="line2d_2">
      <g>
       <use style="stroke:#000000;stroke-width:0.8;" x="107.211857" xlink:href="#m3078ffa417" y="172.061773"/>
      </g>
     </g>
     <g id="text_2">
      <!-- 인천 -->
      <g transform="translate(97.811857 186.582085)scale(0.1 -0.1)">
       <defs>
        <path d="M 80.5 13 
Q 80.5 11.59375 79.09375 11.59375 
L 75 11.59375 
Q 73.59375 11.59375 73.59375 13 
L 73.59375 76.796875 
Q 73.59375 78.203125 75 78.203125 
L 79.09375 78.203125 
Q 80.5 78.203125 80.5 76.796875 
L 80.5 13 
z
M 83.5 -11 
Q 83.5 -11.59375 83 -11.890625 
Q 82.5 -12.203125 82 -12.203125 
L 31.90625 -12.203125 
Q 27.203125 -12.203125 25.75 -10.453125 
Q 24.296875 -8.703125 24.296875 -4.59375 
L 24.296875 15 
Q 24.296875 16.40625 25.703125 16.40625 
L 29.796875 16.40625 
Q 31.203125 16.40625 31.203125 15 
L 31.203125 -4.09375 
Q 31.203125 -5.5 31.640625 -5.84375 
Q 32.09375 -6.203125 33.5 -6.203125 
L 82 -6.203125 
Q 82.5 -6.203125 83 -6.546875 
Q 83.5 -6.90625 83.5 -7.40625 
L 83.5 -11 
z
M 56 50.5 
Q 56 45.296875 54.203125 40.9375 
Q 52.40625 36.59375 49.203125 33.5 
Q 46 30.40625 41.640625 28.65625 
Q 37.296875 26.90625 32.203125 26.90625 
Q 27.296875 26.90625 23 28.59375 
Q 18.703125 30.296875 15.546875 33.4375 
Q 12.40625 36.59375 10.59375 40.890625 
Q 8.796875 45.203125 8.796875 50.5 
Q 8.796875 56 10.59375 60.390625 
Q 12.40625 64.796875 15.546875 67.890625 
Q 18.703125 71 23 72.59375 
Q 27.296875 74.203125 32.203125 74.203125 
Q 36.796875 74.203125 41.09375 72.59375 
Q 45.40625 71 48.703125 67.953125 
Q 52 64.90625 54 60.5 
Q 56 56.09375 56 50.5 
z
M 49 50.59375 
Q 49 54.796875 47.640625 58.046875 
Q 46.296875 61.296875 44 63.4375 
Q 41.703125 65.59375 38.640625 66.6875 
Q 35.59375 67.796875 32.203125 67.796875 
Q 28.703125 67.796875 25.75 66.6875 
Q 22.796875 65.59375 20.546875 63.4375 
Q 18.296875 61.296875 17.046875 58.046875 
Q 15.796875 54.796875 15.796875 50.59375 
Q 15.796875 46.59375 17 43.390625 
Q 18.203125 40.203125 20.390625 37.953125 
Q 22.59375 35.703125 25.59375 34.453125 
Q 28.59375 33.203125 32.203125 33.203125 
Q 35.59375 33.203125 38.640625 34.453125 
Q 41.703125 35.703125 44 37.953125 
Q 46.296875 40.203125 47.640625 43.390625 
Q 49 46.59375 49 50.59375 
z
" id="NanumGothic-51064"/>
        <path d="M 58.703125 21.5 
Q 58.40625 20.796875 57.953125 20.59375 
Q 57.5 20.40625 56.59375 20.796875 
Q 51.40625 23.203125 46.25 26.5 
Q 41.09375 29.796875 36.40625 34 
Q 26 25 12.40625 19 
Q 11.90625 18.796875 11.40625 18.75 
Q 10.90625 18.703125 10.59375 19.203125 
L 8.796875 22.796875 
Q 8.5 23.296875 8.75 23.796875 
Q 9 24.296875 9.5 24.5 
Q 20.90625 29.90625 29.953125 37.203125 
Q 39 44.5 45.203125 54 
Q 46 55.296875 45.453125 55.9375 
Q 44.90625 56.59375 43.5 56.59375 
L 13.203125 56.59375 
Q 12 56.59375 12 57.90625 
L 12 61.40625 
Q 12 62.59375 13.203125 62.59375 
L 46.203125 62.59375 
Q 51.40625 62.59375 53.25 60.59375 
Q 55.09375 58.59375 52.796875 54.40625 
Q 47.796875 45.5 41 38.40625 
Q 45.296875 34.5 50.09375 31.453125 
Q 54.90625 28.40625 59.59375 26.5 
Q 60.203125 26.296875 60.390625 25.75 
Q 60.59375 25.203125 60.40625 24.703125 
z
M 73.59375 45.59375 
L 73.59375 76.796875 
Q 73.59375 78.203125 75 78.203125 
L 79.09375 78.203125 
Q 80.5 78.203125 80.5 76.796875 
L 80.5 11.59375 
Q 80.5 10.203125 79.09375 10.203125 
L 75 10.203125 
Q 73.59375 10.203125 73.59375 11.59375 
L 73.59375 39.59375 
L 57 39.59375 
Q 55.703125 39.59375 55.703125 40.796875 
L 55.703125 44.40625 
Q 55.703125 45.59375 57 45.59375 
z
M 83.59375 -11 
Q 83.59375 -11.59375 83.09375 -11.890625 
Q 82.59375 -12.203125 82.09375 -12.203125 
L 31.203125 -12.203125 
Q 26.5 -12.203125 25.046875 -10.453125 
Q 23.59375 -8.703125 23.59375 -4.59375 
L 23.59375 12.5 
Q 23.59375 13.90625 25 13.90625 
L 29.09375 13.90625 
Q 30.5 13.90625 30.5 12.5 
L 30.5 -4.09375 
Q 30.5 -5.5 30.953125 -5.84375 
Q 31.40625 -6.203125 32.796875 -6.203125 
L 82.09375 -6.203125 
Q 82.59375 -6.203125 83.09375 -6.546875 
Q 83.59375 -6.90625 83.59375 -7.40625 
L 83.59375 -11 
z
M 44.296875 75.703125 
Q 45.796875 75.703125 45.796875 74.296875 
L 45.796875 71.09375 
Q 45.796875 69.59375 44.296875 69.59375 
L 21.703125 69.59375 
Q 20.203125 69.59375 20.203125 71.09375 
L 20.203125 74.296875 
Q 20.203125 75.703125 21.703125 75.703125 
L 44.296875 75.703125 
z
" id="NanumGothic-52380"/>
       </defs>
       <use xlink:href="#NanumGothic-51064"/>
       <use x="93.999985" xlink:href="#NanumGothic-52380"/>
      </g>
     </g>
    </g>
    <g id="xtick_3">
     <g id="line2d_3">
      <g>
       <use style="stroke:#000000;stroke-width:0.8;" x="140.035386" xlink:href="#m3078ffa417" y="172.061773"/>
      </g>
     </g>
     <g id="text_3">
      <!-- 경기 -->
      <g transform="translate(130.635386 186.582085)scale(0.1 -0.1)">
       <defs>
        <path d="M 81.296875 3.90625 
Q 81.296875 -0.40625 79 -3.796875 
Q 76.703125 -7.203125 72.75 -9.546875 
Q 68.796875 -11.90625 63.546875 -13.15625 
Q 58.296875 -14.40625 52.296875 -14.40625 
Q 45.796875 -14.40625 40.5 -13.15625 
Q 35.203125 -11.90625 31.390625 -9.546875 
Q 27.59375 -7.203125 25.5 -3.796875 
Q 23.40625 -0.40625 23.40625 3.90625 
Q 23.40625 8.09375 25.5 11.4375 
Q 27.59375 14.796875 31.390625 17.140625 
Q 35.203125 19.5 40.5 20.75 
Q 45.796875 22 52.296875 22 
Q 58.296875 22 63.546875 20.75 
Q 68.796875 19.5 72.75 17.203125 
Q 76.703125 14.90625 79 11.546875 
Q 81.296875 8.203125 81.296875 3.90625 
z
M 53.59375 66.703125 
Q 53.296875 65.203125 53 63.75 
Q 52.703125 62.296875 52.296875 60.90625 
L 73.59375 60.90625 
L 73.59375 76.796875 
Q 73.59375 78.203125 75 78.203125 
L 79.09375 78.203125 
Q 80.5 78.203125 80.5 76.796875 
L 80.5 23.796875 
Q 80.5 22.40625 79.09375 22.40625 
L 75 22.40625 
Q 73.59375 22.40625 73.59375 23.796875 
L 73.59375 37 
L 48.09375 37 
Q 46.796875 37 46.796875 38.203125 
L 46.796875 41.703125 
Q 46.796875 42.90625 48.09375 42.90625 
L 73.59375 42.90625 
L 73.59375 55 
L 50.09375 55 
Q 45.796875 45.296875 36.890625 37.546875 
Q 28 29.796875 13.59375 23.796875 
Q 12 23.09375 11.40625 24.40625 
L 9.90625 27.703125 
Q 9.5 28.5 9.796875 29 
Q 10.09375 29.5 10.703125 29.703125 
Q 26.59375 36.296875 35.390625 45.34375 
Q 44.203125 54.40625 46.09375 64.90625 
Q 46.703125 67.796875 43.703125 67.796875 
L 13.40625 67.796875 
Q 12.203125 67.796875 12.203125 69.09375 
L 12.203125 72.59375 
Q 12.203125 73.796875 13.40625 73.796875 
L 46 73.796875 
Q 50.796875 73.796875 52.5 72.09375 
Q 54.203125 70.40625 53.59375 66.703125 
z
M 74.203125 3.59375 
Q 74.203125 6.59375 72.390625 8.890625 
Q 70.59375 11.203125 67.546875 12.75 
Q 64.5 14.296875 60.5 15.140625 
Q 56.5 16 52.203125 16 
Q 47.40625 16 43.40625 15.140625 
Q 39.40625 14.296875 36.546875 12.75 
Q 33.703125 11.203125 32.09375 8.890625 
Q 30.5 6.59375 30.5 3.59375 
Q 30.5 0.703125 32.09375 -1.546875 
Q 33.703125 -3.796875 36.546875 -5.296875 
Q 39.40625 -6.796875 43.40625 -7.59375 
Q 47.40625 -8.40625 52.203125 -8.40625 
Q 56.5 -8.40625 60.5 -7.59375 
Q 64.5 -6.796875 67.546875 -5.296875 
Q 70.59375 -3.796875 72.390625 -1.546875 
Q 74.203125 0.703125 74.203125 3.59375 
z
" id="NanumGothic-44221"/>
        <path d="M 80.5 -12.59375 
Q 80.5 -14 79.09375 -14 
L 75 -14 
Q 73.59375 -14 73.59375 -12.59375 
L 73.59375 76.796875 
Q 73.59375 78.203125 75 78.203125 
L 79.09375 78.203125 
Q 80.5 78.203125 80.5 76.796875 
L 80.5 -12.59375 
z
M 53.703125 63.5 
Q 53.203125 54.90625 50.296875 46.59375 
Q 47.40625 38.296875 42.25 30.75 
Q 37.09375 23.203125 29.84375 16.75 
Q 22.59375 10.296875 13.40625 5.40625 
Q 12.09375 4.703125 11.5 5.703125 
L 9.296875 9.203125 
Q 8.59375 10.40625 9.703125 10.90625 
Q 18.203125 15.296875 24.75 20.9375 
Q 31.296875 26.59375 35.9375 33.1875 
Q 40.59375 39.796875 43.296875 47.09375 
Q 46 54.40625 46.703125 62.09375 
Q 46.90625 63.59375 46.296875 64.140625 
Q 45.703125 64.703125 44.296875 64.703125 
L 12.5 64.703125 
Q 11.296875 64.703125 11.296875 66 
L 11.296875 69.5 
Q 11.296875 70.703125 12.5 70.703125 
L 46.203125 70.703125 
Q 50.90625 70.703125 52.40625 68.953125 
Q 53.90625 67.203125 53.703125 63.5 
z
" id="NanumGothic-44592"/>
       </defs>
       <use xlink:href="#NanumGothic-44221"/>
       <use x="93.999985" xlink:href="#NanumGothic-44592"/>
      </g>
     </g>
    </g>
    <g id="xtick_4">
     <g id="line2d_4">
      <g>
       <use style="stroke:#000000;stroke-width:0.8;" x="172.858915" xlink:href="#m3078ffa417" y="172.061773"/>
      </g>
     </g>
     <g id="text_4">
      <!-- 부산 -->
      <g transform="translate(163.458915 186.582085)scale(0.1 -0.1)">
       <defs>
        <path d="M 23.40625 37.796875 
Q 21 37.796875 19.546875 38.09375 
Q 18.09375 38.40625 17.296875 39.25 
Q 16.5 40.09375 16.203125 41.4375 
Q 15.90625 42.796875 15.90625 44.90625 
L 15.90625 76.703125 
Q 15.90625 77.203125 16.296875 77.546875 
Q 16.703125 77.90625 17.203125 77.90625 
L 21.5 77.90625 
Q 22 77.90625 22.34375 77.5 
Q 22.703125 77.09375 22.703125 76.703125 
L 22.703125 63.40625 
L 70.796875 63.40625 
L 70.796875 76.59375 
Q 70.796875 77.09375 71.140625 77.5 
Q 71.5 77.90625 72 77.90625 
L 76.296875 77.90625 
Q 76.796875 77.90625 77.1875 77.546875 
Q 77.59375 77.203125 77.59375 76.703125 
L 77.59375 44.203125 
Q 77.59375 40.40625 76 39.09375 
Q 74.40625 37.796875 70 37.796875 
z
M 44.59375 -13.40625 
Q 44.09375 -13.40625 43.6875 -12.953125 
Q 43.296875 -12.5 43.296875 -11.90625 
L 43.296875 19.40625 
L 4.5 19.40625 
Q 3.90625 19.40625 3.453125 19.796875 
Q 3 20.203125 3 20.703125 
L 3 24.09375 
Q 3 24.703125 3.453125 25.046875 
Q 3.90625 25.40625 4.5 25.40625 
L 89.5 25.40625 
Q 90 25.40625 90.5 25.046875 
Q 91 24.703125 91 24.09375 
L 91 20.703125 
Q 91 20.203125 90.5 19.796875 
Q 90 19.40625 89.5 19.40625 
L 50.203125 19.40625 
L 50.203125 -11.90625 
Q 50.203125 -12.5 49.84375 -12.953125 
Q 49.5 -13.40625 48.90625 -13.40625 
z
M 22.703125 57.5 
L 22.703125 46.09375 
Q 22.703125 44.59375 23.203125 44.140625 
Q 23.703125 43.703125 25.09375 43.703125 
L 68.40625 43.703125 
Q 69.796875 43.703125 70.296875 44.140625 
Q 70.796875 44.59375 70.796875 46.09375 
L 70.796875 57.5 
z
" id="NanumGothic-48512"/>
        <path d="M 36.203125 73.59375 
Q 36.203125 69.703125 35.75 66 
Q 35.296875 62.296875 34.5 58.796875 
Q 35.703125 54.703125 37.953125 50.640625 
Q 40.203125 46.59375 43.25 42.9375 
Q 46.296875 39.296875 49.890625 36.34375 
Q 53.5 33.40625 57.296875 31.59375 
Q 57.90625 31.296875 57.84375 30.796875 
Q 57.796875 30.296875 57.59375 29.796875 
L 55.59375 26.5 
Q 55.296875 26 54.890625 25.796875 
Q 54.5 25.59375 53.59375 26.09375 
Q 50.703125 27.5 47.546875 30.09375 
Q 44.40625 32.703125 41.34375 35.84375 
Q 38.296875 39 35.6875 42.546875 
Q 33.09375 46.09375 31.40625 49.40625 
Q 28 41.296875 22.453125 34.640625 
Q 16.90625 28 9.40625 23.09375 
Q 8.90625 22.796875 8.296875 22.6875 
Q 7.703125 22.59375 7.296875 23.09375 
L 4.796875 26.40625 
Q 4.5 26.796875 4.703125 27.390625 
Q 4.90625 28 5.40625 28.296875 
Q 10.796875 31.59375 15.25 36.5 
Q 19.703125 41.40625 22.84375 47.296875 
Q 26 53.203125 27.640625 59.953125 
Q 29.296875 66.703125 29.203125 73.703125 
Q 29.203125 75.296875 30.40625 75.296875 
L 35.09375 75 
Q 36.203125 75 36.203125 73.59375 
z
M 77 13 
Q 77 11.59375 75.59375 11.59375 
L 71.5 11.59375 
Q 70.09375 11.59375 70.09375 13 
L 70.09375 76.796875 
Q 70.09375 78.203125 71.5 78.203125 
L 75.59375 78.203125 
Q 77 78.203125 77 76.796875 
L 77 48.59375 
L 90.796875 48.59375 
Q 91.40625 48.59375 91.84375 48.25 
Q 92.296875 47.90625 92.296875 47.296875 
L 92.296875 43.90625 
Q 92.296875 43.40625 91.84375 43 
Q 91.40625 42.59375 90.796875 42.59375 
L 77 42.59375 
L 77 13 
z
M 81.5 -11 
Q 81.5 -11.59375 81 -11.890625 
Q 80.5 -12.203125 80 -12.203125 
L 28.5 -12.203125 
Q 23.796875 -12.203125 22.34375 -10.453125 
Q 20.90625 -8.703125 20.90625 -4.59375 
L 20.90625 15 
Q 20.90625 16.40625 22.296875 16.40625 
L 26.40625 16.40625 
Q 27.796875 16.40625 27.796875 15 
L 27.796875 -4.09375 
Q 27.796875 -5.5 28.25 -5.84375 
Q 28.703125 -6.203125 30.09375 -6.203125 
L 80 -6.203125 
Q 80.5 -6.203125 81 -6.546875 
Q 81.5 -6.90625 81.5 -7.40625 
L 81.5 -11 
z
" id="NanumGothic-49328"/>
       </defs>
       <use xlink:href="#NanumGothic-48512"/>
       <use x="93.999985" xlink:href="#NanumGothic-49328"/>
      </g>
     </g>
    </g>
    <g id="xtick_5">
     <g id="line2d_5">
      <g>
       <use style="stroke:#000000;stroke-width:0.8;" x="205.682445" xlink:href="#m3078ffa417" y="172.061773"/>
      </g>
     </g>
     <g id="text_5">
      <!-- 대구 -->
      <g transform="translate(196.282445 186.582085)scale(0.1 -0.1)">
       <defs>
        <path d="M 64.5 40.40625 
L 77.203125 40.40625 
L 77.203125 76.796875 
Q 77.203125 78.203125 78.59375 78.203125 
L 82.40625 78.203125 
Q 83.796875 78.203125 83.796875 76.796875 
L 83.796875 -12.59375 
Q 83.796875 -14 82.40625 -14 
L 78.59375 -14 
Q 77.203125 -14 77.203125 -12.59375 
L 77.203125 34.40625 
L 64.5 34.40625 
L 64.5 -8.796875 
Q 64.5 -10.203125 63.09375 -10.203125 
L 59.296875 -10.203125 
Q 57.90625 -10.203125 57.90625 -8.796875 
L 57.90625 75.09375 
Q 57.90625 76.5 59.296875 76.5 
L 63.09375 76.5 
Q 64.5 76.5 64.5 75.09375 
z
M 53.09375 16.90625 
Q 53.296875 15.5 51.796875 15.203125 
Q 44.796875 13.5 35.6875 12.75 
Q 26.59375 12 17.09375 12.203125 
Q 12.59375 12.296875 10.9375 14.296875 
Q 9.296875 16.296875 9.296875 20.5 
L 9.296875 62.796875 
Q 9.296875 67 10.890625 68.390625 
Q 12.5 69.796875 16.90625 69.796875 
L 44.296875 69.796875 
Q 45.59375 69.796875 45.59375 68.59375 
L 45.59375 65 
Q 45.59375 63.796875 44.296875 63.796875 
L 18.203125 63.796875 
Q 16.796875 63.796875 16.5 63.4375 
Q 16.203125 63.09375 16.203125 61.59375 
L 16.203125 21 
Q 16.203125 19.5 16.703125 19 
Q 17.203125 18.5 18.59375 18.40625 
Q 27.296875 18.09375 35.09375 18.6875 
Q 42.90625 19.296875 50.703125 21 
Q 52.296875 21.296875 52.59375 19.90625 
z
" id="NanumGothic-45824"/>
        <path d="M 15.09375 74.203125 
Q 15.09375 74.796875 15.59375 75.09375 
Q 16.09375 75.40625 16.59375 75.40625 
L 69.5 75.40625 
Q 71.90625 75.40625 73.34375 74.90625 
Q 74.796875 74.40625 75.59375 73.453125 
Q 76.40625 72.5 76.75 71 
Q 77.09375 69.5 77.09375 67.40625 
Q 77.296875 59.59375 76.140625 51.5 
Q 75 43.40625 73 34 
L 89.5 34 
Q 90 34 90.5 33.640625 
Q 91 33.296875 91 32.703125 
L 91 29.296875 
Q 91 28.796875 90.5 28.390625 
Q 90 28 89.5 28 
L 50.203125 28 
L 50.203125 -11.90625 
Q 50.203125 -12.5 49.84375 -12.953125 
Q 49.5 -13.40625 48.90625 -13.40625 
L 44.59375 -13.40625 
Q 44.09375 -13.40625 43.6875 -12.953125 
Q 43.296875 -12.5 43.296875 -11.90625 
L 43.296875 28 
L 4.5 28 
Q 3.90625 28 3.453125 28.390625 
Q 3 28.796875 3 29.296875 
L 3 32.703125 
Q 3 33.296875 3.453125 33.640625 
Q 3.90625 34 4.5 34 
L 66.203125 34 
Q 67.203125 37.90625 68.09375 42.5 
Q 69 47.09375 69.546875 51.6875 
Q 70.09375 56.296875 70.296875 60.390625 
Q 70.5 64.5 70.296875 67.296875 
Q 70.09375 68.703125 69.75 69.046875 
Q 69.40625 69.40625 68 69.40625 
L 16.59375 69.40625 
Q 16.09375 69.40625 15.59375 69.75 
Q 15.09375 70.09375 15.09375 70.59375 
L 15.09375 74.203125 
z
" id="NanumGothic-44396"/>
       </defs>
       <use xlink:href="#NanumGothic-45824"/>
       <use x="93.999985" xlink:href="#NanumGothic-44396"/>
      </g>
     </g>
    </g>
    <g id="xtick_6">
     <g id="line2d_6">
      <g>
       <use style="stroke:#000000;stroke-width:0.8;" x="238.505974" xlink:href="#m3078ffa417" y="172.061773"/>
      </g>
     </g>
     <g id="text_6">
      <!-- 광주 -->
      <g transform="translate(229.105974 186.582085)scale(0.1 -0.1)">
       <defs>
        <path d="M 78.296875 3.203125 
Q 78.296875 -1 75.796875 -4.296875 
Q 73.296875 -7.59375 69.140625 -9.84375 
Q 65 -12.09375 59.59375 -13.25 
Q 54.203125 -14.40625 48.296875 -14.40625 
Q 41.90625 -14.40625 36.40625 -13.25 
Q 30.90625 -12.09375 26.90625 -9.84375 
Q 22.90625 -7.59375 20.65625 -4.296875 
Q 18.40625 -1 18.40625 3.203125 
Q 18.40625 7.40625 20.65625 10.65625 
Q 22.90625 13.90625 26.90625 16.046875 
Q 30.90625 18.203125 36.40625 19.296875 
Q 41.90625 20.40625 48.296875 20.40625 
Q 54.203125 20.40625 59.59375 19.296875 
Q 65 18.203125 69.140625 16.046875 
Q 73.296875 13.90625 75.796875 10.65625 
Q 78.296875 7.40625 78.296875 3.203125 
z
M 71.203125 2.90625 
Q 71.203125 5.703125 69.34375 7.84375 
Q 67.5 10 64.34375 11.390625 
Q 61.203125 12.796875 57 13.5 
Q 52.796875 14.203125 48.203125 14.203125 
Q 43.09375 14.203125 38.890625 13.5 
Q 34.703125 12.796875 31.75 11.390625 
Q 28.796875 10 27.140625 7.84375 
Q 25.5 5.703125 25.5 2.90625 
Q 25.5 0.203125 27.140625 -1.84375 
Q 28.796875 -3.90625 31.75 -5.296875 
Q 34.703125 -6.703125 38.890625 -7.453125 
Q 43.09375 -8.203125 48.203125 -8.203125 
Q 52.796875 -8.203125 57 -7.453125 
Q 61.203125 -6.703125 64.34375 -5.296875 
Q 67.5 -3.90625 69.34375 -1.84375 
Q 71.203125 0.203125 71.203125 2.90625 
z
M 65.09375 35.796875 
Q 66 35.90625 66.25 35.65625 
Q 66.5 35.40625 66.59375 34.90625 
L 67 31.5 
Q 67.09375 30.90625 66.84375 30.546875 
Q 66.59375 30.203125 65.703125 30.09375 
Q 59.203125 29.296875 49.140625 28.6875 
Q 39.09375 28.09375 26.59375 28.09375 
L 5.796875 28.09375 
Q 5.203125 28.09375 4.75 28.5 
Q 4.296875 28.90625 4.296875 29.40625 
L 4.296875 32.90625 
Q 4.296875 33.5 4.75 33.796875 
Q 5.203125 34.09375 5.796875 34.09375 
L 23.09375 34.09375 
L 27 34.09375 
L 27 53.703125 
Q 27 55.09375 28.40625 55.09375 
L 32.5 55.09375 
Q 33.90625 55.09375 33.90625 53.703125 
L 33.90625 34.09375 
Q 42.796875 34.296875 50.796875 34.640625 
Q 58.796875 35 65.09375 35.796875 
z
M 77 23.296875 
Q 77 21.90625 75.59375 21.90625 
L 71.5 21.90625 
Q 70.09375 21.90625 70.09375 23.296875 
L 70.09375 76.796875 
Q 70.09375 78.203125 71.5 78.203125 
L 75.59375 78.203125 
Q 77 78.203125 77 76.796875 
L 77 49.90625 
L 90.796875 49.90625 
Q 91.40625 49.90625 91.84375 49.546875 
Q 92.296875 49.203125 92.296875 48.59375 
L 92.296875 45.203125 
Q 92.296875 44.703125 91.84375 44.296875 
Q 91.40625 43.90625 90.796875 43.90625 
L 77 43.90625 
L 77 23.296875 
z
M 11 72.59375 
Q 11 73.203125 11.5 73.5 
Q 12 73.796875 12.5 73.796875 
L 49 73.796875 
Q 51.40625 73.796875 52.84375 73.296875 
Q 54.296875 72.796875 55.09375 71.84375 
Q 55.90625 70.90625 56.203125 69.40625 
Q 56.5 67.90625 56.59375 65.796875 
Q 56.796875 60.703125 56.09375 55.75 
Q 55.40625 50.796875 53.796875 44.796875 
Q 53.59375 44.203125 53.25 43.703125 
Q 52.90625 43.203125 52.296875 43.296875 
L 48.296875 43.59375 
Q 46.59375 43.703125 47.09375 45.40625 
Q 47.796875 47.90625 48.390625 50.203125 
Q 49 52.5 49.34375 54.953125 
Q 49.703125 57.40625 49.796875 60 
Q 49.90625 62.59375 49.796875 65.703125 
Q 49.703125 67.09375 49.296875 67.4375 
Q 48.90625 67.796875 47.5 67.796875 
L 12.5 67.796875 
Q 12 67.796875 11.5 68.140625 
Q 11 68.5 11 69 
L 11 72.59375 
z
" id="NanumGothic-44305"/>
        <path d="M 82.5 39.796875 
Q 82.09375 38.796875 80.59375 39.296875 
Q 72.796875 41.09375 64.5 44.140625 
Q 56.203125 47.203125 48.40625 51 
Q 41.203125 47.296875 32.796875 44.046875 
Q 24.40625 40.796875 14.90625 38.203125 
Q 13.5 37.703125 13 39 
L 11.796875 42.203125 
Q 11.203125 43.703125 12.59375 44 
Q 19.796875 45.90625 26.84375 48.546875 
Q 33.90625 51.203125 40.34375 54.25 
Q 46.796875 57.296875 52.5 60.640625 
Q 58.203125 64 62.59375 67.40625 
Q 63.796875 68.296875 63.640625 69 
Q 63.5 69.703125 61.90625 69.703125 
L 18.90625 69.703125 
Q 17.59375 69.703125 17.59375 71 
L 17.59375 74.5 
Q 17.59375 75.703125 18.90625 75.703125 
L 64.59375 75.703125 
Q 68.5 75.703125 70.75 74.84375 
Q 73 74 73.640625 72.59375 
Q 74.296875 71.203125 73.390625 69.34375 
Q 72.5 67.5 70.296875 65.5 
Q 63.703125 59.59375 54.703125 54.40625 
Q 61 51.59375 68.453125 49.09375 
Q 75.90625 46.59375 83 44.90625 
Q 83.90625 44.703125 84 44.390625 
Q 84.09375 44.09375 83.796875 43.5 
z
M 44.59375 -13.40625 
Q 44.09375 -13.40625 43.6875 -12.953125 
Q 43.296875 -12.5 43.296875 -11.90625 
L 43.296875 20.5 
L 4.5 20.5 
Q 3.90625 20.5 3.453125 20.890625 
Q 3 21.296875 3 21.796875 
L 3 25.203125 
Q 3 25.796875 3.453125 26.140625 
Q 3.90625 26.5 4.5 26.5 
L 89.5 26.5 
Q 90 26.5 90.5 26.140625 
Q 91 25.796875 91 25.203125 
L 91 21.796875 
Q 91 21.296875 90.5 20.890625 
Q 90 20.5 89.5 20.5 
L 50.203125 20.5 
L 50.203125 -11.90625 
Q 50.203125 -12.5 49.84375 -12.953125 
Q 49.5 -13.40625 48.90625 -13.40625 
z
" id="NanumGothic-51452"/>
       </defs>
       <use xlink:href="#NanumGothic-44305"/>
       <use x="93.999985" xlink:href="#NanumGothic-51452"/>
      </g>
     </g>
    </g>
    <g id="xtick_7">
     <g id="line2d_7">
      <g>
       <use style="stroke:#000000;stroke-width:0.8;" x="271.329504" xlink:href="#m3078ffa417" y="172.061773"/>
      </g>
     </g>
     <g id="text_7">
      <!-- 대전 -->
      <g transform="translate(261.929504 186.582085)scale(0.1 -0.1)">
       <defs>
        <path d="M 51.703125 63.09375 
Q 50.296875 58.90625 47.6875 54.59375 
Q 45.09375 50.296875 41.59375 46.09375 
Q 45.59375 41.40625 50.84375 37.25 
Q 56.09375 33.09375 61.203125 30.40625 
Q 62.5 29.796875 61.796875 28.5 
L 59.5 25.09375 
Q 59.203125 24.59375 58.59375 24.546875 
Q 58 24.5 57.5 24.796875 
Q 52.40625 27.59375 47.15625 32 
Q 41.90625 36.40625 37.40625 41.296875 
Q 31.703125 35.296875 24.890625 30.296875 
Q 18.09375 25.296875 11.203125 22.09375 
Q 10.703125 21.90625 10.203125 21.75 
Q 9.703125 21.59375 9.40625 22.09375 
L 7.40625 25.59375 
Q 7.09375 26.09375 7.296875 26.640625 
Q 7.5 27.203125 8 27.40625 
Q 19.796875 33.40625 29.140625 42.296875 
Q 38.5 51.203125 44.09375 62.703125 
Q 44.796875 64.09375 44.296875 64.6875 
Q 43.796875 65.296875 42.40625 65.296875 
L 13.09375 65.296875 
Q 11.90625 65.296875 11.90625 66.59375 
L 11.90625 70.09375 
Q 11.90625 71.296875 13.09375 71.296875 
L 45.09375 71.296875 
Q 50.296875 71.296875 51.796875 69.4375 
Q 53.296875 67.59375 51.703125 63.09375 
z
M 73.59375 51.5 
L 73.59375 76.796875 
Q 73.59375 78.203125 75 78.203125 
L 79.09375 78.203125 
Q 80.5 78.203125 80.5 76.796875 
L 80.5 12.203125 
Q 80.5 10.796875 79.09375 10.796875 
L 75 10.796875 
Q 73.59375 10.796875 73.59375 12.203125 
L 73.59375 45.703125 
L 54.703125 45.703125 
Q 53.40625 45.703125 53.40625 46.90625 
L 53.40625 50.296875 
Q 53.40625 51.5 54.703125 51.5 
z
M 83.59375 -11 
Q 83.59375 -11.59375 83.09375 -11.890625 
Q 82.59375 -12.203125 82.09375 -12.203125 
L 31.5 -12.203125 
Q 26.796875 -12.203125 25.34375 -10.453125 
Q 23.90625 -8.703125 23.90625 -4.59375 
L 23.90625 14.40625 
Q 23.90625 15.796875 25.296875 15.796875 
L 29.40625 15.796875 
Q 30.796875 15.796875 30.796875 14.40625 
L 30.796875 -4.09375 
Q 30.796875 -5.5 31.25 -5.84375 
Q 31.703125 -6.203125 33.09375 -6.203125 
L 82.09375 -6.203125 
Q 82.59375 -6.203125 83.09375 -6.546875 
Q 83.59375 -6.90625 83.59375 -7.40625 
L 83.59375 -11 
z
" id="NanumGothic-51204"/>
       </defs>
       <use xlink:href="#NanumGothic-45824"/>
       <use x="93.999985" xlink:href="#NanumGothic-51204"/>
      </g>
     </g>
    </g>
    <g id="xtick_8">
     <g id="line2d_8">
      <g>
       <use style="stroke:#000000;stroke-width:0.8;" x="304.153033" xlink:href="#m3078ffa417" y="172.061773"/>
      </g>
     </g>
     <g id="text_8">
      <!-- 울산 -->
      <g transform="translate(294.753033 186.582085)scale(0.1 -0.1)">
       <use xlink:href="#NanumGothic-50872"/>
       <use x="93.999985" xlink:href="#NanumGothic-49328"/>
      </g>
     </g>
    </g>
    <g id="xtick_9">
     <g id="line2d_9">
      <g>
       <use style="stroke:#000000;stroke-width:0.8;" x="336.976562" xlink:href="#m3078ffa417" y="172.061773"/>
      </g>
     </g>
     <g id="text_9">
      <!-- 세종 -->
      <g transform="translate(327.576563 186.582085)scale(0.1 -0.1)">
       <defs>
        <path d="M 31.796875 71.203125 
Q 31.796875 64.59375 31.546875 58.890625 
Q 31.296875 53.203125 30.5 48.09375 
Q 31.09375 44 32.6875 39.640625 
Q 34.296875 35.296875 36.59375 30.84375 
Q 38.90625 26.40625 41.953125 22.15625 
Q 45 17.90625 48.59375 14.203125 
Q 49 13.796875 49.046875 13.1875 
Q 49.09375 12.59375 48.59375 12.203125 
L 45.796875 9.5 
Q 45.296875 9 44.6875 9.046875 
Q 44.09375 9.09375 43.703125 9.59375 
Q 41.296875 12.203125 38.9375 15.296875 
Q 36.59375 18.40625 34.5 21.75 
Q 32.40625 25.09375 30.65625 28.5 
Q 28.90625 31.90625 27.703125 35 
Q 25.09375 26.703125 20.6875 20.140625 
Q 16.296875 13.59375 9.703125 7.296875 
Q 8.703125 6.5 8 7.203125 
L 4.796875 10.203125 
Q 3.90625 10.90625 5.09375 12 
Q 10.40625 17 14.15625 22.59375 
Q 17.90625 28.203125 20.296875 35.203125 
Q 22.703125 42.203125 23.796875 51.046875 
Q 24.90625 59.90625 24.90625 71.40625 
Q 24.90625 72.09375 25.25 72.4375 
Q 25.59375 72.796875 26.09375 72.796875 
L 30.5 72.59375 
Q 31.796875 72.59375 31.796875 71.203125 
z
M 59.5 43.796875 
L 59.5 75.09375 
Q 59.5 76.5 60.90625 76.5 
L 64.703125 76.5 
Q 66.09375 76.5 66.09375 75.09375 
L 66.09375 -8.796875 
Q 66.09375 -10.203125 64.703125 -10.203125 
L 60.90625 -10.203125 
Q 59.5 -10.203125 59.5 -8.796875 
L 59.5 37.796875 
L 44.703125 37.796875 
Q 43.40625 37.796875 43.40625 39 
L 43.40625 42.59375 
Q 43.40625 43.796875 44.703125 43.796875 
z
M 83.796875 -12.59375 
Q 83.796875 -14 82.40625 -14 
L 78.59375 -14 
Q 77.203125 -14 77.203125 -12.59375 
L 77.203125 76.796875 
Q 77.203125 78.203125 78.59375 78.203125 
L 82.40625 78.203125 
Q 83.796875 78.203125 83.796875 76.796875 
z
" id="NanumGothic-49464"/>
        <path d="M 78 1.703125 
Q 78 -3.40625 74.796875 -6.59375 
Q 71.59375 -9.796875 66.890625 -11.59375 
Q 62.203125 -13.40625 56.75 -14.046875 
Q 51.296875 -14.703125 46.796875 -14.703125 
Q 43.796875 -14.703125 40.34375 -14.390625 
Q 36.90625 -14.09375 33.453125 -13.4375 
Q 30 -12.796875 26.796875 -11.59375 
Q 23.59375 -10.40625 21.140625 -8.546875 
Q 18.703125 -6.703125 17.203125 -4.203125 
Q 15.703125 -1.703125 15.703125 1.703125 
Q 15.703125 6.703125 18.890625 9.84375 
Q 22.09375 13 26.796875 14.796875 
Q 31.5 16.59375 36.953125 17.296875 
Q 42.40625 18 46.796875 18 
Q 51.296875 18 56.75 17.34375 
Q 62.203125 16.703125 66.953125 14.890625 
Q 71.703125 13.09375 74.84375 9.890625 
Q 78 6.703125 78 1.703125 
z
M 70.203125 65.90625 
Q 65 61 56.09375 56.40625 
Q 58.90625 55.59375 62.34375 54.6875 
Q 65.796875 53.796875 69.390625 52.890625 
Q 73 52 76.59375 51.203125 
Q 80.203125 50.40625 83.296875 49.796875 
Q 84.59375 49.5 84.203125 48.40625 
L 82.796875 45.09375 
Q 82.296875 44 81 44.296875 
Q 77.59375 44.90625 73.390625 45.90625 
Q 69.203125 46.90625 64.84375 48.046875 
Q 60.5 49.203125 56.25 50.390625 
Q 52 51.59375 48.40625 52.796875 
Q 40.5 49.5 31.453125 46.953125 
Q 22.40625 44.40625 13 42.796875 
Q 12.09375 42.59375 11.75 42.9375 
Q 11.40625 43.296875 11.203125 43.90625 
L 10.296875 46.90625 
Q 9.90625 48.40625 11.09375 48.5 
Q 18 49.59375 25.59375 51.6875 
Q 33.203125 53.796875 40.25 56.390625 
Q 47.296875 59 53.1875 61.84375 
Q 59.09375 64.703125 62.59375 67.296875 
Q 64.203125 68.5 63.84375 69.203125 
Q 63.5 69.90625 62.09375 69.90625 
L 18.90625 69.90625 
Q 17.59375 69.90625 17.59375 71.203125 
L 17.59375 74.703125 
Q 17.59375 75.90625 18.90625 75.90625 
L 64.59375 75.90625 
Q 72.296875 75.90625 73.6875 73.25 
Q 75.09375 70.59375 70.203125 65.90625 
z
M 70.703125 1.59375 
Q 70.703125 4.90625 68 6.84375 
Q 65.296875 8.796875 61.5 9.890625 
Q 57.703125 11 53.640625 11.34375 
Q 49.59375 11.703125 46.796875 11.703125 
Q 43.90625 11.703125 39.84375 11.34375 
Q 35.796875 11 32.046875 9.890625 
Q 28.296875 8.796875 25.640625 6.84375 
Q 23 4.90625 23 1.59375 
Q 23 -1.59375 25.640625 -3.59375 
Q 28.296875 -5.59375 32.046875 -6.640625 
Q 35.796875 -7.703125 39.84375 -8.046875 
Q 43.90625 -8.40625 46.796875 -8.40625 
Q 49.59375 -8.40625 53.6875 -8.046875 
Q 57.796875 -7.703125 61.546875 -6.640625 
Q 65.296875 -5.59375 68 -3.59375 
Q 70.703125 -1.59375 70.703125 1.59375 
z
M 49 46 
Q 49.5 46 49.890625 45.546875 
Q 50.296875 45.09375 50.296875 44.5 
L 50.296875 31.09375 
L 89.5 31.09375 
Q 90 31.09375 90.5 30.75 
Q 91 30.40625 91 29.796875 
L 91 26.40625 
Q 91 25.90625 90.5 25.5 
Q 90 25.09375 89.5 25.09375 
L 4.5 25.09375 
Q 3.90625 25.09375 3.453125 25.5 
Q 3 25.90625 3 26.40625 
L 3 29.796875 
Q 3 30.40625 3.453125 30.75 
Q 3.90625 31.09375 4.5 31.09375 
L 43.40625 31.09375 
L 43.40625 44.5 
Q 43.40625 45.09375 43.75 45.546875 
Q 44.09375 46 44.703125 46 
L 49 46 
z
" id="NanumGothic-51333"/>
       </defs>
       <use xlink:href="#NanumGothic-49464"/>
       <use x="93.999985" xlink:href="#NanumGothic-51333"/>
      </g>
     </g>
    </g>
    <g id="xtick_10">
     <g id="line2d_10">
      <g>
       <use style="stroke:#000000;stroke-width:0.8;" x="369.800092" xlink:href="#m3078ffa417" y="172.061773"/>
      </g>
     </g>
     <g id="text_10">
      <!-- 강원 -->
      <g transform="translate(360.400092 186.582085)scale(0.1 -0.1)">
       <defs>
        <path d="M 78.203125 3.90625 
Q 78.203125 -0.40625 75.890625 -3.796875 
Q 73.59375 -7.203125 69.640625 -9.546875 
Q 65.703125 -11.90625 60.453125 -13.15625 
Q 55.203125 -14.40625 49.203125 -14.40625 
Q 42.703125 -14.40625 37.390625 -13.15625 
Q 32.09375 -11.90625 28.296875 -9.546875 
Q 24.5 -7.203125 22.390625 -3.796875 
Q 20.296875 -0.40625 20.296875 3.90625 
Q 20.296875 8.09375 22.390625 11.4375 
Q 24.5 14.796875 28.296875 17.140625 
Q 32.09375 19.5 37.390625 20.75 
Q 42.703125 22 49.203125 22 
Q 55.203125 22 60.453125 20.75 
Q 65.703125 19.5 69.640625 17.203125 
Q 73.59375 14.90625 75.890625 11.546875 
Q 78.203125 8.203125 78.203125 3.90625 
z
M 71.09375 3.59375 
Q 71.09375 6.59375 69.296875 8.890625 
Q 67.5 11.203125 64.453125 12.75 
Q 61.40625 14.296875 57.40625 15.140625 
Q 53.40625 16 49.09375 16 
Q 44.296875 16 40.296875 15.140625 
Q 36.296875 14.296875 33.4375 12.75 
Q 30.59375 11.203125 29 8.890625 
Q 27.40625 6.59375 27.40625 3.59375 
Q 27.40625 0.703125 29 -1.546875 
Q 30.59375 -3.796875 33.4375 -5.296875 
Q 36.296875 -6.796875 40.296875 -7.59375 
Q 44.296875 -8.40625 49.09375 -8.40625 
Q 53.40625 -8.40625 57.40625 -7.59375 
Q 61.40625 -6.796875 64.453125 -5.296875 
Q 67.5 -3.796875 69.296875 -1.546875 
Q 71.09375 0.703125 71.09375 3.59375 
z
M 51.40625 66.703125 
Q 49.09375 52.796875 39.296875 42.1875 
Q 29.5 31.59375 10.90625 23.796875 
Q 9.90625 23.296875 9.453125 23.5 
Q 9 23.703125 8.703125 24.40625 
L 7.203125 27.703125 
Q 6.796875 28.5 7.140625 29 
Q 7.5 29.5 8 29.703125 
Q 23.90625 36.296875 32.953125 45.34375 
Q 42 54.40625 43.90625 64.90625 
Q 44.5 67.796875 41.5 67.796875 
L 10.703125 67.796875 
Q 9.5 67.796875 9.5 69.09375 
L 9.5 72.59375 
Q 9.5 73.796875 10.703125 73.796875 
L 43.796875 73.796875 
Q 48.59375 73.796875 50.296875 72.09375 
Q 52 70.40625 51.40625 66.703125 
z
M 77 23.90625 
Q 77 22.5 75.59375 22.5 
L 71.5 22.5 
Q 70.09375 22.5 70.09375 23.90625 
L 70.09375 76.796875 
Q 70.09375 78.203125 71.5 78.203125 
L 75.59375 78.203125 
Q 77 78.203125 77 76.796875 
L 77 52.90625 
L 90.796875 52.90625 
Q 91.40625 52.90625 91.84375 52.546875 
Q 92.296875 52.203125 92.296875 51.59375 
L 92.296875 48.203125 
Q 92.296875 47.703125 91.84375 47.296875 
Q 91.40625 46.90625 90.796875 46.90625 
L 77 46.90625 
L 77 23.90625 
z
" id="NanumGothic-44053"/>
        <path d="M 56.90625 57.796875 
Q 56.90625 54 55.203125 50.703125 
Q 53.5 47.40625 50.453125 44.953125 
Q 47.40625 42.5 43.203125 41.046875 
Q 39 39.59375 34.09375 39.59375 
Q 29.296875 39.59375 25.1875 41 
Q 21.09375 42.40625 18.09375 44.90625 
Q 15.09375 47.40625 13.390625 50.703125 
Q 11.703125 54 11.703125 57.796875 
Q 11.703125 62 13.390625 65.390625 
Q 15.09375 68.796875 18.09375 71.1875 
Q 21.09375 73.59375 25.1875 74.84375 
Q 29.296875 76.09375 34.09375 76.09375 
Q 38.703125 76.09375 42.796875 74.796875 
Q 46.90625 73.5 50.046875 71.140625 
Q 53.203125 68.796875 55.046875 65.390625 
Q 56.90625 62 56.90625 57.796875 
z
M 73.59375 22.40625 
L 73.59375 76.796875 
Q 73.59375 78.203125 75 78.203125 
L 79.09375 78.203125 
Q 80.5 78.203125 80.5 76.796875 
L 80.5 5.296875 
Q 80.5 3.90625 79.09375 3.90625 
L 75 3.90625 
Q 73.59375 3.90625 73.59375 5.296875 
L 73.59375 16.40625 
L 53.59375 16.40625 
Q 52.296875 16.40625 52.296875 17.59375 
L 52.296875 21.203125 
Q 52.296875 22.40625 53.59375 22.40625 
z
M 50.296875 57.90625 
Q 50.296875 60.90625 49 63.203125 
Q 47.703125 65.5 45.5 67.046875 
Q 43.296875 68.59375 40.34375 69.390625 
Q 37.40625 70.203125 34.09375 70.203125 
Q 30.703125 70.203125 27.796875 69.390625 
Q 24.90625 68.59375 22.796875 67 
Q 20.703125 65.40625 19.5 63.15625 
Q 18.296875 60.90625 18.296875 57.90625 
Q 18.296875 52.203125 22.640625 48.796875 
Q 27 45.40625 34.09375 45.40625 
Q 37.40625 45.40625 40.34375 46.34375 
Q 43.296875 47.296875 45.5 48.9375 
Q 47.703125 50.59375 49 52.890625 
Q 50.296875 55.203125 50.296875 57.90625 
z
M 32.09375 9.09375 
Q 31.59375 9.09375 31.1875 9.546875 
Q 30.796875 10 30.796875 10.59375 
L 30.796875 26.703125 
Q 27.703125 26.5 24.203125 26.390625 
Q 20.703125 26.296875 17.34375 26.1875 
Q 14 26.09375 11.046875 26.046875 
Q 8.09375 26 6.09375 26.09375 
Q 5.5 26.09375 5.046875 26.5 
Q 4.59375 26.90625 4.59375 27.40625 
L 4.59375 30.796875 
Q 4.59375 31.40625 5.046875 31.75 
Q 5.5 32.09375 6.09375 32.09375 
Q 9 32.09375 13 32.140625 
Q 17 32.203125 21.203125 32.296875 
Q 25.40625 32.40625 29.296875 32.546875 
Q 33.203125 32.703125 35.90625 32.90625 
Q 39.40625 33.09375 43.703125 33.5 
Q 48 33.90625 52.296875 34.40625 
Q 56.59375 34.90625 60.4375 35.453125 
Q 64.296875 36 66.90625 36.5 
Q 67.40625 36.59375 67.84375 36.34375 
Q 68.296875 36.09375 68.40625 35.703125 
L 68.90625 32.296875 
Q 69 31.09375 67.703125 30.796875 
Q 61.296875 29.703125 53.34375 28.640625 
Q 45.40625 27.59375 37.703125 27.09375 
L 37.703125 10.59375 
Q 37.703125 10 37.34375 9.546875 
Q 37 9.09375 36.40625 9.09375 
z
M 82.90625 -11 
Q 82.90625 -11.59375 82.40625 -11.890625 
Q 81.90625 -12.203125 81.40625 -12.203125 
L 27 -12.203125 
Q 22.296875 -12.203125 20.84375 -10.453125 
Q 19.40625 -8.703125 19.40625 -4.59375 
L 19.40625 8 
Q 19.40625 9.40625 20.796875 9.40625 
L 24.90625 9.40625 
Q 26.296875 9.40625 26.296875 8 
L 26.296875 -4.09375 
Q 26.296875 -5.5 26.75 -5.84375 
Q 27.203125 -6.203125 28.59375 -6.203125 
L 81.40625 -6.203125 
Q 81.90625 -6.203125 82.40625 -6.546875 
Q 82.90625 -6.90625 82.90625 -7.40625 
L 82.90625 -11 
z
" id="NanumGothic-50896"/>
       </defs>
       <use xlink:href="#NanumGothic-44053"/>
       <use x="93.999985" xlink:href="#NanumGothic-50896"/>
      </g>
     </g>
    </g>
    <g id="xtick_11">
     <g id="line2d_11">
      <g>
       <use style="stroke:#000000;stroke-width:0.8;" x="402.623621" xlink:href="#m3078ffa417" y="172.061773"/>
      </g>
     </g>
     <g id="text_11">
      <!-- 충북 -->
      <g transform="translate(393.223621 186.582085)scale(0.1 -0.1)">
       <defs>
        <path d="M 89.5 31.203125 
Q 90 31.203125 90.5 30.84375 
Q 91 30.5 91 29.90625 
L 91 26.5 
Q 91 26 90.5 25.59375 
Q 90 25.203125 89.5 25.203125 
L 50.296875 25.203125 
L 50.296875 16.203125 
Q 54.703125 16 59.59375 15.140625 
Q 64.5 14.296875 68.59375 12.546875 
Q 72.703125 10.796875 75.34375 7.9375 
Q 78 5.09375 78 0.796875 
Q 78 -4 74.796875 -7 
Q 71.59375 -10 66.84375 -11.75 
Q 62.09375 -13.5 56.640625 -14.140625 
Q 51.203125 -14.796875 46.796875 -14.796875 
Q 43.90625 -14.796875 40.453125 -14.546875 
Q 37 -14.296875 33.546875 -13.59375 
Q 30.09375 -12.90625 26.890625 -11.75 
Q 23.703125 -10.59375 21.203125 -8.890625 
Q 18.703125 -7.203125 17.203125 -4.796875 
Q 15.703125 -2.40625 15.703125 0.796875 
Q 15.703125 5 18.390625 7.84375 
Q 21.09375 10.703125 25.1875 12.5 
Q 29.296875 14.296875 34.140625 15.140625 
Q 39 16 43.40625 16.203125 
L 43.40625 25.203125 
L 4.5 25.203125 
Q 3.90625 25.203125 3.453125 25.59375 
Q 3 26 3 26.5 
L 3 29.90625 
Q 3 30.5 3.453125 30.84375 
Q 3.90625 31.203125 4.5 31.203125 
L 89.5 31.203125 
z
M 68.796875 56.40625 
Q 63.40625 52.59375 55.90625 49.09375 
Q 61.40625 47.5 67.90625 46.140625 
Q 74.40625 44.796875 80.40625 44 
Q 81.203125 43.90625 81.34375 43.546875 
Q 81.5 43.203125 81.296875 42.5 
L 80.40625 39.09375 
Q 80.203125 38 78.796875 38.296875 
Q 75.59375 38.796875 71.640625 39.546875 
Q 67.703125 40.296875 63.5 41.25 
Q 59.296875 42.203125 55.09375 43.25 
Q 50.90625 44.296875 47 45.40625 
Q 40.203125 42.90625 32.34375 40.84375 
Q 24.5 38.796875 15.59375 37.296875 
Q 14.09375 37 13.703125 38 
L 12.5 41.40625 
Q 12.296875 41.90625 12.59375 42.40625 
Q 12.90625 42.90625 13.5 43 
Q 20.59375 44.296875 26.796875 45.84375 
Q 33 47.40625 38.59375 49.203125 
Q 44.203125 51 49.453125 53.09375 
Q 54.703125 55.203125 59.90625 57.703125 
Q 61.59375 58.5 61.4375 59.203125 
Q 61.296875 59.90625 59.703125 59.90625 
L 19.90625 59.90625 
Q 18.59375 59.90625 18.59375 61.203125 
L 18.59375 64.703125 
Q 18.59375 65.90625 19.90625 65.90625 
L 63.09375 65.90625 
Q 70.90625 65.90625 72.59375 63.15625 
Q 74.296875 60.40625 68.796875 56.40625 
z
M 70.703125 0.703125 
Q 70.703125 3.703125 68 5.546875 
Q 65.296875 7.40625 61.4375 8.40625 
Q 57.59375 9.40625 53.546875 9.703125 
Q 49.5 10 46.796875 10 
Q 44 10 39.953125 9.703125 
Q 35.90625 9.40625 32.15625 8.40625 
Q 28.40625 7.40625 25.703125 5.546875 
Q 23 3.703125 23 0.703125 
Q 23 -2.296875 25.703125 -4.09375 
Q 28.40625 -5.90625 32.15625 -6.90625 
Q 35.90625 -7.90625 39.953125 -8.203125 
Q 44 -8.5 46.796875 -8.5 
Q 49.5 -8.5 53.546875 -8.203125 
Q 57.59375 -7.90625 61.4375 -6.90625 
Q 65.296875 -5.90625 68 -4.09375 
Q 70.703125 -2.296875 70.703125 0.703125 
z
M 59.59375 78.203125 
Q 61.09375 78.203125 61.09375 76.796875 
L 61.09375 73.59375 
Q 61.09375 72.09375 59.59375 72.09375 
L 33.296875 72.09375 
Q 31.796875 72.09375 31.796875 73.59375 
L 31.796875 76.796875 
Q 31.796875 78.203125 33.296875 78.203125 
L 59.59375 78.203125 
z
" id="NanumGothic-52649"/>
        <path d="M 25 43.59375 
Q 22.59375 43.59375 21.140625 43.890625 
Q 19.703125 44.203125 18.890625 45.046875 
Q 18.09375 45.90625 17.796875 47.25 
Q 17.5 48.59375 17.5 50.703125 
L 17.5 76.40625 
Q 17.5 76.90625 17.890625 77.25 
Q 18.296875 77.59375 18.796875 77.59375 
L 23.09375 77.59375 
Q 23.59375 77.59375 23.9375 77.1875 
Q 24.296875 76.796875 24.296875 76.40625 
L 24.296875 66.40625 
L 69.703125 66.40625 
L 69.703125 76.296875 
Q 69.703125 76.796875 70.046875 77.1875 
Q 70.40625 77.59375 70.90625 77.59375 
L 75.203125 77.59375 
Q 75.703125 77.59375 76.09375 77.25 
Q 76.5 76.90625 76.5 76.40625 
L 76.5 50 
Q 76.5 46.203125 74.890625 44.890625 
Q 73.296875 43.59375 68.90625 43.59375 
z
M 15.203125 15.5 
Q 15.203125 16.09375 15.703125 16.390625 
Q 16.203125 16.703125 16.703125 16.703125 
L 43.40625 16.703125 
L 43.40625 28.40625 
L 4.5 28.40625 
Q 3.90625 28.40625 3.453125 28.796875 
Q 3 29.203125 3 29.703125 
L 3 33.09375 
Q 3 33.703125 3.453125 34.046875 
Q 3.90625 34.40625 4.5 34.40625 
L 89.5 34.40625 
Q 90 34.40625 90.5 34.046875 
Q 91 33.703125 91 33.09375 
L 91 29.703125 
Q 91 29.203125 90.5 28.796875 
Q 90 28.40625 89.5 28.40625 
L 50.296875 28.40625 
L 50.296875 16.703125 
L 69.5 16.703125 
Q 74.203125 16.703125 75.640625 14.953125 
Q 77.09375 13.203125 77.09375 9.09375 
L 77.09375 -13.59375 
Q 77.09375 -15 75.703125 -15 
L 71.59375 -15 
Q 70.203125 -15 70.203125 -13.59375 
L 70.203125 8.59375 
Q 70.203125 10 69.75 10.34375 
Q 69.296875 10.703125 67.90625 10.703125 
L 16.703125 10.703125 
Q 16.203125 10.703125 15.703125 11.046875 
Q 15.203125 11.40625 15.203125 11.90625 
L 15.203125 15.5 
z
M 24.296875 60.5 
L 24.296875 51.90625 
Q 24.296875 50.40625 24.796875 49.953125 
Q 25.296875 49.5 26.703125 49.5 
L 67.296875 49.5 
Q 68.703125 49.5 69.203125 49.953125 
Q 69.703125 50.40625 69.703125 51.90625 
L 69.703125 60.5 
z
" id="NanumGothic-48513"/>
       </defs>
       <use xlink:href="#NanumGothic-52649"/>
       <use x="93.999985" xlink:href="#NanumGothic-48513"/>
      </g>
     </g>
    </g>
    <g id="xtick_12">
     <g id="line2d_12">
      <g>
       <use style="stroke:#000000;stroke-width:0.8;" x="435.447151" xlink:href="#m3078ffa417" y="172.061773"/>
      </g>
     </g>
     <g id="text_12">
      <!-- 충남 -->
      <g transform="translate(426.047151 186.582085)scale(0.1 -0.1)">
       <defs>
        <path d="M 19.90625 12.796875 
Q 19.90625 17 21.5 18.453125 
Q 23.09375 19.90625 27.5 19.90625 
L 69.40625 19.90625 
Q 71.796875 19.90625 73.25 19.59375 
Q 74.703125 19.296875 75.546875 18.5 
Q 76.40625 17.703125 76.703125 16.296875 
Q 77 14.90625 77 12.796875 
L 77 -6.09375 
Q 77 -10.296875 75.390625 -11.75 
Q 73.796875 -13.203125 69.40625 -13.203125 
L 27.5 -13.203125 
Q 25.09375 -13.203125 23.640625 -12.890625 
Q 22.203125 -12.59375 21.34375 -11.75 
Q 20.5 -10.90625 20.203125 -9.546875 
Q 19.90625 -8.203125 19.90625 -6.09375 
z
M 29.203125 13.90625 
Q 27.796875 13.90625 27.296875 13.34375 
Q 26.796875 12.796875 26.796875 11.296875 
L 26.796875 -4.59375 
Q 26.796875 -6.09375 27.296875 -6.640625 
Q 27.796875 -7.203125 29.203125 -7.203125 
L 67.703125 -7.203125 
Q 69.09375 -7.203125 69.59375 -6.640625 
Q 70.09375 -6.09375 70.09375 -4.59375 
L 70.09375 11.296875 
Q 70.09375 12.796875 69.59375 13.34375 
Q 69.09375 13.90625 67.703125 13.90625 
z
M 19 40.796875 
Q 19 39.296875 19.5 38.796875 
Q 20 38.296875 21.40625 38.203125 
Q 30.796875 37.90625 41.1875 38.703125 
Q 51.59375 39.5 61 41.296875 
Q 62.59375 41.59375 62.90625 40.203125 
L 63.40625 37.09375 
Q 63.5 35.90625 62.09375 35.5 
Q 58.296875 34.59375 53.09375 33.890625 
Q 47.90625 33.203125 42.203125 32.75 
Q 36.5 32.296875 30.703125 32.046875 
Q 24.90625 31.796875 20 32 
Q 15.5 32.203125 13.796875 34.140625 
Q 12.09375 36.09375 12.09375 40.296875 
L 12.09375 73.5 
Q 12.09375 74.90625 13.5 74.90625 
L 17.59375 74.90625 
Q 19 74.90625 19 73.5 
L 19 40.796875 
z
M 77 26.796875 
Q 77 25.40625 75.59375 25.40625 
L 71.5 25.40625 
Q 70.09375 25.40625 70.09375 26.796875 
L 70.09375 76.796875 
Q 70.09375 78.203125 71.5 78.203125 
L 75.59375 78.203125 
Q 77 78.203125 77 76.796875 
L 77 53 
L 90.796875 53 
Q 91.40625 53 91.84375 52.640625 
Q 92.296875 52.296875 92.296875 51.703125 
L 92.296875 48.296875 
Q 92.296875 47.796875 91.84375 47.390625 
Q 91.40625 47 90.796875 47 
L 77 47 
L 77 26.796875 
z
" id="NanumGothic-45224"/>
       </defs>
       <use xlink:href="#NanumGothic-52649"/>
       <use x="93.999985" xlink:href="#NanumGothic-45224"/>
      </g>
     </g>
    </g>
    <g id="xtick_13">
     <g id="line2d_13">
      <g>
       <use style="stroke:#000000;stroke-width:0.8;" x="468.27068" xlink:href="#m3078ffa417" y="172.061773"/>
      </g>
     </g>
     <g id="text_13">
      <!-- 전북 -->
      <g transform="translate(458.87068 186.582085)scale(0.1 -0.1)">
       <use xlink:href="#NanumGothic-51204"/>
       <use x="93.999985" xlink:href="#NanumGothic-48513"/>
      </g>
     </g>
    </g>
    <g id="xtick_14">
     <g id="line2d_14">
      <g>
       <use style="stroke:#000000;stroke-width:0.8;" x="501.09421" xlink:href="#m3078ffa417" y="172.061773"/>
      </g>
     </g>
     <g id="text_14">
      <!-- 전남 -->
      <g transform="translate(491.69421 186.582085)scale(0.1 -0.1)">
       <use xlink:href="#NanumGothic-51204"/>
       <use x="93.999985" xlink:href="#NanumGothic-45224"/>
      </g>
     </g>
    </g>
    <g id="xtick_15">
     <g id="line2d_15">
      <g>
       <use style="stroke:#000000;stroke-width:0.8;" x="533.917739" xlink:href="#m3078ffa417" y="172.061773"/>
      </g>
     </g>
     <g id="text_15">
      <!-- 경북 -->
      <g transform="translate(524.517739 186.582085)scale(0.1 -0.1)">
       <use xlink:href="#NanumGothic-44221"/>
       <use x="93.999985" xlink:href="#NanumGothic-48513"/>
      </g>
     </g>
    </g>
    <g id="xtick_16">
     <g id="line2d_16">
      <g>
       <use style="stroke:#000000;stroke-width:0.8;" x="566.741268" xlink:href="#m3078ffa417" y="172.061773"/>
      </g>
     </g>
     <g id="text_16">
      <!-- 경남 -->
      <g transform="translate(557.341268 186.582085)scale(0.1 -0.1)">
       <use xlink:href="#NanumGothic-44221"/>
       <use x="93.999985" xlink:href="#NanumGothic-45224"/>
      </g>
     </g>
    </g>
    <g id="xtick_17">
     <g id="line2d_17">
      <g>
       <use style="stroke:#000000;stroke-width:0.8;" x="599.564798" xlink:href="#m3078ffa417" y="172.061773"/>
      </g>
     </g>
     <g id="text_17">
      <!-- 제주 -->
      <g transform="translate(590.164798 186.582085)scale(0.1 -0.1)">
       <defs>
        <path d="M 44 62.09375 
Q 42.5 56.296875 40.296875 50.75 
Q 38.09375 45.203125 35.203125 39.796875 
Q 36.703125 36.796875 38.75 33.640625 
Q 40.796875 30.5 43.1875 27.5 
Q 45.59375 24.5 48.140625 21.84375 
Q 50.703125 19.203125 53.203125 17.203125 
Q 53.703125 16.703125 53.640625 16.203125 
Q 53.59375 15.703125 53.203125 15.296875 
L 50.796875 12.59375 
Q 50.40625 12.203125 50 12.09375 
Q 49.59375 12 48.796875 12.703125 
Q 46.59375 14.59375 44.1875 17.09375 
Q 41.796875 19.59375 39.5 22.390625 
Q 37.203125 25.203125 35.09375 28.046875 
Q 33 30.90625 31.40625 33.59375 
Q 26.90625 26.703125 21.09375 20.5 
Q 15.296875 14.296875 8.40625 9.09375 
Q 7.90625 8.796875 7.34375 8.640625 
Q 6.796875 8.5 6.5 8.90625 
L 3.90625 12 
Q 3.5 12.5 3.640625 13 
Q 3.796875 13.5 4.296875 13.796875 
Q 16.796875 23.59375 24.6875 35.1875 
Q 32.59375 46.796875 36.40625 61.59375 
Q 36.796875 63 36.4375 63.59375 
Q 36.09375 64.203125 34.703125 64.203125 
L 9.296875 64.203125 
Q 8.09375 64.203125 8.09375 65.5 
L 8.09375 69 
Q 8.09375 70.203125 9.5 70.203125 
L 37.40625 70.203125 
Q 42.59375 70.203125 43.890625 68.5 
Q 45.203125 66.796875 44 62.09375 
z
M 59.5 44.796875 
L 59.5 75.09375 
Q 59.5 76.5 60.90625 76.5 
L 64.703125 76.5 
Q 66.09375 76.5 66.09375 75.09375 
L 66.09375 -8.796875 
Q 66.09375 -10.203125 64.703125 -10.203125 
L 60.90625 -10.203125 
Q 59.5 -10.203125 59.5 -8.796875 
L 59.5 38.796875 
L 45.09375 38.796875 
Q 44.5 38.796875 44.046875 39.1875 
Q 43.59375 39.59375 43.59375 40.09375 
L 43.59375 43.5 
Q 43.59375 44.09375 44.046875 44.4375 
Q 44.5 44.796875 45.09375 44.796875 
z
M 83.796875 -12.59375 
Q 83.796875 -14 82.40625 -14 
L 78.59375 -14 
Q 77.203125 -14 77.203125 -12.59375 
L 77.203125 76.796875 
Q 77.203125 78.203125 78.59375 78.203125 
L 82.40625 78.203125 
Q 83.796875 78.203125 83.796875 76.796875 
z
" id="NanumGothic-51228"/>
       </defs>
       <use xlink:href="#NanumGothic-51228"/>
       <use x="93.999985" xlink:href="#NanumGothic-51452"/>
      </g>
     </g>
    </g>
    <g id="text_18">
     <!-- 지역명 -->
     <g transform="translate(322.876562 200.061773)scale(0.1 -0.1)">
      <defs>
       <path d="M 59.796875 13.40625 
Q 59.5 12.90625 59.046875 12.796875 
Q 58.59375 12.703125 57.796875 13.296875 
Q 55.40625 15.09375 52.703125 17.4375 
Q 50 19.796875 47.390625 22.4375 
Q 44.796875 25.09375 42.296875 27.9375 
Q 39.796875 30.796875 37.703125 33.59375 
Q 32.703125 27.296875 26.296875 21.546875 
Q 19.90625 15.796875 11.703125 10.09375 
Q 11.203125 9.796875 10.703125 9.640625 
Q 10.203125 9.5 9.90625 9.90625 
L 7.5 13 
Q 7.09375 13.5 7.1875 14.046875 
Q 7.296875 14.59375 7.703125 14.90625 
Q 23.703125 26.203125 32.640625 37.796875 
Q 41.59375 49.40625 45.09375 62 
Q 45.5 63.40625 45.140625 64.046875 
Q 44.796875 64.703125 43.40625 64.703125 
L 13.09375 64.703125 
Q 11.90625 64.703125 11.90625 66 
L 11.90625 69.5 
Q 11.90625 70.703125 13.296875 70.703125 
L 46.09375 70.703125 
Q 51.296875 70.703125 52.6875 68.890625 
Q 54.09375 67.09375 52.703125 62.5 
Q 48.796875 49.703125 41.703125 39 
Q 44 35.796875 46.59375 32.6875 
Q 49.203125 29.59375 51.796875 26.84375 
Q 54.40625 24.09375 57 21.84375 
Q 59.59375 19.59375 61.90625 18.09375 
Q 62.40625 17.703125 62.40625 17.203125 
Q 62.40625 16.703125 62.09375 16.296875 
z
M 80.5 -12.59375 
Q 80.5 -14 79.09375 -14 
L 75 -14 
Q 73.59375 -14 73.59375 -12.59375 
L 73.59375 76.796875 
Q 73.59375 78.203125 75 78.203125 
L 79.09375 78.203125 
Q 80.5 78.203125 80.5 76.796875 
L 80.5 -12.59375 
z
" id="NanumGothic-51648"/>
       <path d="M 80.5 25.90625 
Q 80.5 24.5 79.09375 24.5 
L 75 24.5 
Q 73.59375 24.5 73.59375 25.90625 
L 73.59375 38.09375 
L 52.09375 38.09375 
Q 48.90625 33.90625 43.796875 31.59375 
Q 38.703125 29.296875 32.59375 29.296875 
Q 27.703125 29.296875 23.390625 30.890625 
Q 19.09375 32.5 15.890625 35.453125 
Q 12.703125 38.40625 10.84375 42.453125 
Q 9 46.5 9 51.5 
Q 9 56.703125 10.84375 60.84375 
Q 12.703125 65 15.890625 67.84375 
Q 19.09375 70.703125 23.390625 72.25 
Q 27.703125 73.796875 32.59375 73.796875 
Q 38.796875 73.796875 44.390625 71.09375 
Q 50 68.40625 53.203125 63.40625 
L 73.59375 63.40625 
L 73.59375 76.796875 
Q 73.59375 78.203125 75 78.203125 
L 79.09375 78.203125 
Q 80.5 78.203125 80.5 76.796875 
L 80.5 25.90625 
z
M 49.59375 51.59375 
Q 49.59375 55.5 48.1875 58.5 
Q 46.796875 61.5 44.4375 63.5 
Q 42.09375 65.5 39.046875 66.5 
Q 36 67.5 32.59375 67.5 
Q 29.09375 67.5 26.09375 66.5 
Q 23.09375 65.5 20.84375 63.5 
Q 18.59375 61.5 17.296875 58.5 
Q 16 55.5 16 51.59375 
Q 16 47.90625 17.25 44.953125 
Q 18.5 42 20.703125 39.890625 
Q 22.90625 37.796875 25.953125 36.6875 
Q 29 35.59375 32.59375 35.59375 
Q 36 35.59375 39.046875 36.6875 
Q 42.09375 37.796875 44.4375 39.890625 
Q 46.796875 42 48.1875 44.953125 
Q 49.59375 47.90625 49.59375 51.59375 
z
M 22.203125 18.203125 
Q 22.203125 18.796875 22.703125 19.09375 
Q 23.203125 19.40625 23.703125 19.40625 
L 72.90625 19.40625 
Q 77.59375 19.40625 79.046875 17.65625 
Q 80.5 15.90625 80.5 11.796875 
L 80.5 -13 
Q 80.5 -14.40625 79.09375 -14.40625 
L 75 -14.40625 
Q 73.59375 -14.40625 73.59375 -13 
L 73.59375 11.296875 
Q 73.59375 12.703125 73.140625 13.046875 
Q 72.703125 13.40625 71.296875 13.40625 
L 23.703125 13.40625 
Q 23.203125 13.40625 22.703125 13.75 
Q 22.203125 14.09375 22.203125 14.59375 
L 22.203125 18.203125 
z
M 56.59375 51.5 
Q 56.59375 47.703125 55.296875 44 
L 73.59375 44 
L 73.59375 57.5 
L 55.796875 57.5 
Q 56.59375 54.5 56.59375 51.5 
z
" id="NanumGothic-50669"/>
       <path d="M 80.5 23.59375 
Q 80.5 22.203125 79.09375 22.203125 
L 75 22.203125 
Q 73.59375 22.203125 73.59375 23.59375 
L 73.59375 39.5 
L 53.796875 39.5 
L 53.796875 36.296875 
Q 53.796875 32.09375 52.1875 30.640625 
Q 50.59375 29.203125 46.203125 29.203125 
L 18.703125 29.203125 
Q 16.296875 29.203125 14.84375 29.5 
Q 13.40625 29.796875 12.546875 30.640625 
Q 11.703125 31.5 11.390625 32.84375 
Q 11.09375 34.203125 11.09375 36.296875 
L 11.09375 66.796875 
Q 11.09375 71 12.6875 72.453125 
Q 14.296875 73.90625 18.703125 73.90625 
L 46.203125 73.90625 
Q 48.59375 73.90625 50.046875 73.59375 
Q 51.5 73.296875 52.34375 72.5 
Q 53.203125 71.703125 53.5 70.296875 
Q 53.796875 68.90625 53.796875 66.796875 
L 53.796875 63.09375 
L 73.59375 63.09375 
L 73.59375 76.796875 
Q 73.59375 78.203125 75 78.203125 
L 79.09375 78.203125 
Q 80.5 78.203125 80.5 76.796875 
L 80.5 23.59375 
z
M 81.296875 3.90625 
Q 81.296875 -0.40625 79 -3.796875 
Q 76.703125 -7.203125 72.75 -9.546875 
Q 68.796875 -11.90625 63.546875 -13.15625 
Q 58.296875 -14.40625 52.296875 -14.40625 
Q 45.796875 -14.40625 40.5 -13.15625 
Q 35.203125 -11.90625 31.390625 -9.546875 
Q 27.59375 -7.203125 25.5 -3.796875 
Q 23.40625 -0.40625 23.40625 3.90625 
Q 23.40625 8.09375 25.5 11.4375 
Q 27.59375 14.796875 31.390625 17.140625 
Q 35.203125 19.5 40.5 20.75 
Q 45.796875 22 52.296875 22 
Q 58.296875 22 63.546875 20.75 
Q 68.796875 19.5 72.75 17.203125 
Q 76.703125 14.90625 79 11.546875 
Q 81.296875 8.203125 81.296875 3.90625 
z
M 20.40625 67.90625 
Q 19 67.90625 18.5 67.34375 
Q 18 66.796875 18 65.296875 
L 18 37.796875 
Q 18 36.296875 18.5 35.75 
Q 19 35.203125 20.40625 35.203125 
L 44.5 35.203125 
Q 45.90625 35.203125 46.40625 35.75 
Q 46.90625 36.296875 46.90625 37.796875 
L 46.90625 65.296875 
Q 46.90625 66.796875 46.40625 67.34375 
Q 45.90625 67.90625 44.5 67.90625 
z
M 74.203125 3.59375 
Q 74.203125 6.59375 72.390625 8.890625 
Q 70.59375 11.203125 67.546875 12.75 
Q 64.5 14.296875 60.5 15.140625 
Q 56.5 16 52.203125 16 
Q 47.40625 16 43.40625 15.140625 
Q 39.40625 14.296875 36.546875 12.75 
Q 33.703125 11.203125 32.09375 8.890625 
Q 30.5 6.59375 30.5 3.59375 
Q 30.5 0.703125 32.09375 -1.546875 
Q 33.703125 -3.796875 36.546875 -5.296875 
Q 39.40625 -6.796875 43.40625 -7.59375 
Q 47.40625 -8.40625 52.203125 -8.40625 
Q 56.5 -8.40625 60.5 -7.59375 
Q 64.5 -6.796875 67.546875 -5.296875 
Q 70.59375 -3.796875 72.390625 -1.546875 
Q 74.203125 0.703125 74.203125 3.59375 
z
M 53.796875 45.40625 
L 73.59375 45.40625 
L 73.59375 57.203125 
L 53.796875 57.203125 
z
" id="NanumGothic-47749"/>
      </defs>
      <use xlink:href="#NanumGothic-51648"/>
      <use x="93.999985" xlink:href="#NanumGothic-50669"/>
      <use x="187.999969" xlink:href="#NanumGothic-47749"/>
     </g>
    </g>
   </g>
   <g id="matplotlib.axis_2">
    <g id="ytick_1">
     <g id="line2d_18">
      <defs>
       <path d="M 0 0 
L -3.5 0 
" id="md14aa8e2f0" style="stroke:#000000;stroke-width:0.8;"/>
      </defs>
      <g>
       <use style="stroke:#000000;stroke-width:0.8;" x="57.976563" xlink:href="#md14aa8e2f0" y="172.061773"/>
      </g>
     </g>
     <g id="text_19">
      <!-- 0 -->
      <g transform="translate(44.917188 175.821929)scale(0.1 -0.1)">
       <defs>
        <path d="M 47.90625 32.703125 
Q 47.90625 64.09375 30.703125 64.09375 
Q 13.5 64.09375 13.5 32.703125 
Q 13.5 1.203125 30.703125 1.203125 
Q 47.90625 1.203125 47.90625 32.703125 
z
M 55.09375 32.703125 
Q 55.09375 -5.09375 30.703125 -5.09375 
Q 6.09375 -5.09375 6.09375 32.703125 
Q 6.09375 48.40625 10.90625 58.203125 
Q 17 70.5 30.703125 70.5 
Q 44.203125 70.5 50.40625 58.203125 
Q 52.703125 53.296875 53.890625 47 
Q 55.09375 40.703125 55.09375 32.703125 
z
" id="NanumGothic-48"/>
       </defs>
       <use xlink:href="#NanumGothic-48"/>
      </g>
     </g>
    </g>
    <g id="ytick_2">
     <g id="line2d_19">
      <g>
       <use style="stroke:#000000;stroke-width:0.8;" x="57.976563" xlink:href="#md14aa8e2f0" y="139.841449"/>
      </g>
     </g>
     <g id="text_20">
      <!-- 5000 -->
      <g transform="translate(26.739063 143.601606)scale(0.1 -0.1)">
       <defs>
        <path d="M 11.5 -3.203125 
Q 10.09375 -2.703125 10.09375 -1.40625 
L 10.09375 2.796875 
Q 10.09375 4.5 11.5 3.796875 
Q 15.09375 2.09375 18.546875 1.390625 
Q 22 0.703125 26.09375 0.703125 
Q 34.90625 0.703125 40.40625 5 
Q 46.40625 9.59375 46.40625 18.203125 
Q 46.40625 35.09375 27.09375 35.09375 
Q 23.296875 35.09375 20.25 34.6875 
Q 17.203125 34.296875 13.5 33.296875 
Q 12.40625 33 11.703125 33.546875 
Q 11 34.09375 11 35.203125 
L 11.59375 67.09375 
Q 11.59375 69.203125 11.9375 69.546875 
Q 12.296875 69.90625 14.40625 69.90625 
L 48.59375 69.90625 
Q 50 69.90625 50 68.5 
L 50 65.203125 
Q 50 63.796875 48.59375 63.796875 
L 18.40625 63.796875 
Q 18.296875 57.5 18.140625 51.5 
Q 18 45.5 17.90625 39.203125 
Q 22.796875 41.09375 29.796875 41.09375 
Q 40.296875 41.09375 46.796875 35.40625 
Q 53.296875 29.5 53.296875 19.59375 
Q 53.296875 7.5 45.796875 0.90625 
Q 38.59375 -5.40625 26.09375 -5.40625 
Q 21.59375 -5.40625 18.296875 -4.90625 
Q 15 -4.40625 11.5 -3.203125 
z
" id="NanumGothic-53"/>
       </defs>
       <use xlink:href="#NanumGothic-53"/>
       <use x="60.599991" xlink:href="#NanumGothic-48"/>
       <use x="121.199982" xlink:href="#NanumGothic-48"/>
       <use x="181.799973" xlink:href="#NanumGothic-48"/>
      </g>
     </g>
    </g>
    <g id="ytick_3">
     <g id="line2d_20">
      <g>
       <use style="stroke:#000000;stroke-width:0.8;" x="57.976563" xlink:href="#md14aa8e2f0" y="107.621126"/>
      </g>
     </g>
     <g id="text_21">
      <!-- 10000 -->
      <g transform="translate(20.679688 111.381282)scale(0.1 -0.1)">
       <defs>
        <path d="M 36.90625 -3.296875 
Q 36.90625 -4.703125 35.5 -4.703125 
L 31.40625 -4.703125 
Q 30 -4.703125 30 -3.296875 
L 30 61.703125 
Q 26.90625 59.09375 24.203125 56.796875 
Q 21.5 54.5 18.5 51.90625 
Q 17.40625 51 16.5 52.09375 
L 14.5 54.5 
Q 14.203125 55 14.203125 55.546875 
Q 14.203125 56.09375 14.703125 56.5 
L 30.203125 69.5 
Q 30.59375 69.90625 31.40625 69.90625 
L 34.09375 69.90625 
Q 36.203125 69.90625 36.546875 69.546875 
Q 36.90625 69.203125 36.90625 67.09375 
z
" id="NanumGothic-49"/>
       </defs>
       <use xlink:href="#NanumGothic-49"/>
       <use x="60.599991" xlink:href="#NanumGothic-48"/>
       <use x="121.199982" xlink:href="#NanumGothic-48"/>
       <use x="181.799973" xlink:href="#NanumGothic-48"/>
       <use x="242.399963" xlink:href="#NanumGothic-48"/>
      </g>
     </g>
    </g>
    <g id="ytick_4">
     <g id="line2d_21">
      <g>
       <use style="stroke:#000000;stroke-width:0.8;" x="57.976563" xlink:href="#md14aa8e2f0" y="75.400803"/>
      </g>
     </g>
     <g id="text_22">
      <!-- 15000 -->
      <g transform="translate(20.679688 79.160959)scale(0.1 -0.1)">
       <use xlink:href="#NanumGothic-49"/>
       <use x="60.599991" xlink:href="#NanumGothic-53"/>
       <use x="121.199982" xlink:href="#NanumGothic-48"/>
       <use x="181.799973" xlink:href="#NanumGothic-48"/>
       <use x="242.399963" xlink:href="#NanumGothic-48"/>
      </g>
     </g>
    </g>
    <g id="ytick_5">
     <g id="line2d_22">
      <g>
       <use style="stroke:#000000;stroke-width:0.8;" x="57.976563" xlink:href="#md14aa8e2f0" y="43.18048"/>
      </g>
     </g>
     <g id="text_23">
      <!-- 20000 -->
      <g transform="translate(20.679688 46.940636)scale(0.1 -0.1)">
       <defs>
        <path d="M 9 -4.703125 
Q 7.90625 -4.703125 7.34375 -4.640625 
Q 6.796875 -4.59375 6.546875 -4.34375 
Q 6.296875 -4.09375 6.25 -3.546875 
Q 6.203125 -3 6.203125 -1.90625 
L 6.296875 0.296875 
Q 6.296875 1.59375 7.09375 2.40625 
L 23.59375 20.59375 
Q 42 40.5 42 50.796875 
Q 42 56.796875 38 60.796875 
Q 34.09375 64.703125 28.296875 64.703125 
Q 20.203125 64.703125 11.40625 60.203125 
Q 10 59.5 9.796875 60.796875 
L 9.203125 64.09375 
Q 8.90625 65.796875 10.203125 66.203125 
Q 15.296875 68.5 19.390625 69.59375 
Q 23.5 70.703125 27.796875 70.703125 
Q 37.40625 70.703125 43.09375 65.90625 
Q 49.5 60.703125 49.5 51.09375 
Q 49.5 47.40625 47.703125 43 
Q 45.90625 38.59375 42.703125 33.796875 
Q 40.703125 31 37.046875 26.5 
Q 33.40625 22 28.703125 16.90625 
Q 25.203125 13.09375 21.75 9.1875 
Q 18.296875 5.296875 14.796875 1.5 
L 49.796875 1.5 
Q 51.203125 1.5 51.203125 0.09375 
L 51.203125 -3.296875 
Q 51.203125 -4.703125 49.796875 -4.703125 
z
" id="NanumGothic-50"/>
       </defs>
       <use xlink:href="#NanumGothic-50"/>
       <use x="60.599991" xlink:href="#NanumGothic-48"/>
       <use x="121.199982" xlink:href="#NanumGothic-48"/>
       <use x="181.799973" xlink:href="#NanumGothic-48"/>
       <use x="242.399963" xlink:href="#NanumGothic-48"/>
      </g>
     </g>
    </g>
    <g id="ytick_6">
     <g id="line2d_23">
      <g>
       <use style="stroke:#000000;stroke-width:0.8;" x="57.976563" xlink:href="#md14aa8e2f0" y="10.960156"/>
      </g>
     </g>
     <g id="text_24">
      <!-- 25000 -->
      <g transform="translate(20.679688 14.720313)scale(0.1 -0.1)">
       <use xlink:href="#NanumGothic-50"/>
       <use x="60.599991" xlink:href="#NanumGothic-53"/>
       <use x="121.199982" xlink:href="#NanumGothic-48"/>
       <use x="181.799973" xlink:href="#NanumGothic-48"/>
       <use x="242.399963" xlink:href="#NanumGothic-48"/>
      </g>
     </g>
    </g>
    <g id="text_25">
     <!-- 평당분양가격 -->
     <g transform="translate(14.720313 118.721773)rotate(-90)scale(0.1 -0.1)">
      <defs>
       <path d="M 81.296875 3.90625 
Q 81.296875 -0.40625 79 -3.796875 
Q 76.703125 -7.203125 72.75 -9.546875 
Q 68.796875 -11.90625 63.546875 -13.15625 
Q 58.296875 -14.40625 52.296875 -14.40625 
Q 45.796875 -14.40625 40.5 -13.15625 
Q 35.203125 -11.90625 31.390625 -9.546875 
Q 27.59375 -7.203125 25.5 -3.796875 
Q 23.40625 -0.40625 23.40625 3.90625 
Q 23.40625 8.09375 25.5 11.4375 
Q 27.59375 14.796875 31.390625 17.140625 
Q 35.203125 19.5 40.5 20.75 
Q 45.796875 22 52.296875 22 
Q 58.296875 22 63.546875 20.75 
Q 68.796875 19.5 72.75 17.203125 
Q 76.703125 14.90625 79 11.546875 
Q 81.296875 8.203125 81.296875 3.90625 
z
M 58.203125 69.203125 
Q 58.203125 67.90625 56.703125 67.90625 
L 48.40625 67.90625 
L 48.40625 36.203125 
Q 51.59375 36.40625 54.6875 36.75 
Q 57.796875 37.09375 60.703125 37.59375 
Q 61.59375 37.796875 61.890625 37.640625 
Q 62.203125 37.5 62.40625 36.796875 
L 63 33.5 
Q 63.09375 32.90625 62.890625 32.59375 
Q 62.703125 32.296875 61.703125 32.09375 
Q 56 31.09375 49 30.640625 
Q 42 30.203125 34.703125 29.796875 
Q 31.90625 29.59375 28.296875 29.546875 
Q 24.703125 29.5 20.890625 29.453125 
Q 17.09375 29.40625 13.390625 29.40625 
Q 9.703125 29.40625 6.796875 29.5 
Q 6.203125 29.5 5.75 29.890625 
Q 5.296875 30.296875 5.296875 30.796875 
L 5.296875 34 
Q 5.296875 34.59375 5.75 34.9375 
Q 6.203125 35.296875 6.796875 35.296875 
L 18.296875 35.296875 
L 18.296875 67.90625 
L 7.5 67.90625 
Q 7 67.90625 6.546875 68.296875 
Q 6.09375 68.703125 6.09375 69.296875 
L 6.09375 72.40625 
Q 6.09375 73 6.546875 73.390625 
Q 7 73.796875 7.5 73.796875 
L 56.703125 73.796875 
Q 58.203125 73.796875 58.203125 72.5 
L 58.203125 69.203125 
z
M 74.203125 3.59375 
Q 74.203125 6.59375 72.390625 8.890625 
Q 70.59375 11.203125 67.546875 12.75 
Q 64.5 14.296875 60.5 15.140625 
Q 56.5 16 52.203125 16 
Q 47.40625 16 43.40625 15.140625 
Q 39.40625 14.296875 36.546875 12.75 
Q 33.703125 11.203125 32.09375 8.890625 
Q 30.5 6.59375 30.5 3.59375 
Q 30.5 0.703125 32.09375 -1.546875 
Q 33.703125 -3.796875 36.546875 -5.296875 
Q 39.40625 -6.796875 43.40625 -7.59375 
Q 47.40625 -8.40625 52.203125 -8.40625 
Q 56.5 -8.40625 60.5 -7.59375 
Q 64.5 -6.796875 67.546875 -5.296875 
Q 70.59375 -3.796875 72.390625 -1.546875 
Q 74.203125 0.703125 74.203125 3.59375 
z
M 73.59375 64 
L 73.59375 76.796875 
Q 73.59375 78.203125 75 78.203125 
L 79.09375 78.203125 
Q 80.5 78.203125 80.5 76.796875 
L 80.5 24.296875 
Q 80.5 22.90625 79.09375 22.90625 
L 75 22.90625 
Q 73.59375 22.90625 73.59375 24.296875 
L 73.59375 42 
L 58.296875 42 
Q 57 42 57 43.203125 
L 57 46.703125 
Q 57 47.90625 58.296875 47.90625 
L 73.59375 47.90625 
L 73.59375 58.09375 
L 58.296875 58.09375 
Q 57 58.09375 57 59.296875 
L 57 62.796875 
Q 57 64 58.296875 64 
z
M 34.5 35.59375 
Q 36.296875 35.59375 38.09375 35.640625 
Q 39.90625 35.703125 41.59375 35.796875 
L 41.59375 67.90625 
L 25.09375 67.90625 
L 25.09375 35.40625 
Q 27.703125 35.5 30.09375 35.5 
Q 32.5 35.5 34.5 35.59375 
z
" id="NanumGothic-54217"/>
       <path d="M 78.203125 3.90625 
Q 78.203125 -0.40625 75.890625 -3.796875 
Q 73.59375 -7.203125 69.640625 -9.546875 
Q 65.703125 -11.90625 60.453125 -13.15625 
Q 55.203125 -14.40625 49.203125 -14.40625 
Q 42.703125 -14.40625 37.390625 -13.15625 
Q 32.09375 -11.90625 28.296875 -9.546875 
Q 24.5 -7.203125 22.390625 -3.796875 
Q 20.296875 -0.40625 20.296875 3.90625 
Q 20.296875 8.09375 22.390625 11.4375 
Q 24.5 14.796875 28.296875 17.140625 
Q 32.09375 19.5 37.390625 20.75 
Q 42.703125 22 49.203125 22 
Q 55.203125 22 60.453125 20.75 
Q 65.703125 19.5 69.640625 17.203125 
Q 73.59375 14.90625 75.890625 11.546875 
Q 78.203125 8.203125 78.203125 3.90625 
z
M 71.09375 3.59375 
Q 71.09375 6.59375 69.296875 8.890625 
Q 67.5 11.203125 64.453125 12.75 
Q 61.40625 14.296875 57.40625 15.140625 
Q 53.40625 16 49.09375 16 
Q 44.296875 16 40.296875 15.140625 
Q 36.296875 14.296875 33.4375 12.75 
Q 30.59375 11.203125 29 8.890625 
Q 27.40625 6.59375 27.40625 3.59375 
Q 27.40625 0.703125 29 -1.546875 
Q 30.59375 -3.796875 33.4375 -5.296875 
Q 36.296875 -6.796875 40.296875 -7.59375 
Q 44.296875 -8.40625 49.09375 -8.40625 
Q 53.40625 -8.40625 57.40625 -7.59375 
Q 61.40625 -6.796875 64.453125 -5.296875 
Q 67.5 -3.796875 69.296875 -1.546875 
Q 71.09375 0.703125 71.09375 3.59375 
z
M 63.59375 36.40625 
Q 63.90625 35.09375 62.40625 34.703125 
Q 59.09375 33.90625 53.640625 33.09375 
Q 48.203125 32.296875 42 31.6875 
Q 35.796875 31.09375 29.546875 30.75 
Q 23.296875 30.40625 18.40625 30.5 
Q 13.90625 30.59375 12.25 32.59375 
Q 10.59375 34.59375 10.59375 38.796875 
L 10.59375 66.90625 
Q 10.59375 71.09375 12.1875 72.5 
Q 13.796875 73.90625 18.203125 73.90625 
L 52.296875 73.90625 
Q 53.59375 73.90625 53.59375 72.703125 
L 53.59375 69.09375 
Q 53.59375 67.90625 52.296875 67.90625 
L 19.5 67.90625 
Q 18.09375 67.90625 17.796875 67.546875 
Q 17.5 67.203125 17.5 65.703125 
L 17.5 39.296875 
Q 17.5 37.796875 18 37.25 
Q 18.5 36.703125 19.90625 36.703125 
Q 25 36.703125 30.390625 36.953125 
Q 35.796875 37.203125 41.09375 37.703125 
Q 46.40625 38.203125 51.5 38.890625 
Q 56.59375 39.59375 61.09375 40.5 
Q 62.09375 40.703125 62.4375 40.390625 
Q 62.796875 40.09375 63 39.5 
z
M 77 24.296875 
Q 77 22.90625 75.59375 22.90625 
L 71.5 22.90625 
Q 70.09375 22.90625 70.09375 24.296875 
L 70.09375 76.796875 
Q 70.09375 78.203125 71.5 78.203125 
L 75.59375 78.203125 
Q 77 78.203125 77 76.796875 
L 77 53 
L 90.796875 53 
Q 91.40625 53 91.84375 52.640625 
Q 92.296875 52.296875 92.296875 51.703125 
L 92.296875 48.296875 
Q 92.296875 47.796875 91.84375 47.390625 
Q 91.40625 47 90.796875 47 
L 77 47 
L 77 24.296875 
z
" id="NanumGothic-45817"/>
       <path d="M 25 41.203125 
Q 22.59375 41.203125 21.140625 41.5 
Q 19.703125 41.796875 18.890625 42.640625 
Q 18.09375 43.5 17.796875 44.84375 
Q 17.5 46.203125 17.5 48.296875 
L 17.5 75.59375 
Q 17.5 76.09375 17.890625 76.4375 
Q 18.296875 76.796875 18.796875 76.796875 
L 23.09375 76.796875 
Q 23.59375 76.796875 23.9375 76.390625 
Q 24.296875 76 24.296875 75.59375 
L 24.296875 65.296875 
L 69.703125 65.296875 
L 69.703125 75.5 
Q 69.703125 76 70.046875 76.390625 
Q 70.40625 76.796875 70.90625 76.796875 
L 75.203125 76.796875 
Q 75.703125 76.796875 76.09375 76.4375 
Q 76.5 76.09375 76.5 75.59375 
L 76.5 47.59375 
Q 76.5 43.796875 74.890625 42.5 
Q 73.296875 41.203125 68.90625 41.203125 
z
M 45.5 4.09375 
Q 45 4.09375 44.59375 4.546875 
Q 44.203125 5 44.203125 5.59375 
L 44.203125 25.40625 
L 4.5 25.40625 
Q 3.90625 25.40625 3.453125 25.796875 
Q 3 26.203125 3 26.703125 
L 3 30.09375 
Q 3 30.703125 3.453125 31.046875 
Q 3.90625 31.40625 4.5 31.40625 
L 89.5 31.40625 
Q 90 31.40625 90.5 31.046875 
Q 91 30.703125 91 30.09375 
L 91 26.703125 
Q 91 26.203125 90.5 25.796875 
Q 90 25.40625 89.5 25.40625 
L 51.09375 25.40625 
L 51.09375 5.59375 
Q 51.09375 5 50.75 4.546875 
Q 50.40625 4.09375 49.796875 4.09375 
z
M 24.296875 59.40625 
L 24.296875 49.5 
Q 24.296875 48 24.796875 47.546875 
Q 25.296875 47.09375 26.703125 47.09375 
L 67.296875 47.09375 
Q 68.703125 47.09375 69.203125 47.546875 
Q 69.703125 48 69.703125 49.5 
L 69.703125 59.40625 
z
M 80.203125 -11 
Q 80.203125 -11.59375 79.703125 -11.890625 
Q 79.203125 -12.203125 78.703125 -12.203125 
L 23.59375 -12.203125 
Q 18.90625 -12.203125 17.453125 -10.25 
Q 16 -8.296875 16 -4.203125 
L 16 14.296875 
Q 16 15.703125 17.40625 15.703125 
L 21.5 15.703125 
Q 22.90625 15.703125 22.90625 14.296875 
L 22.90625 -4.09375 
Q 22.90625 -5.5 23.34375 -5.84375 
Q 23.796875 -6.203125 25.203125 -6.203125 
L 78.703125 -6.203125 
Q 79.203125 -6.203125 79.703125 -6.546875 
Q 80.203125 -6.90625 80.203125 -7.40625 
L 80.203125 -11 
z
" id="NanumGothic-48516"/>
       <path d="M 55.5 52 
Q 55.5 47 53.703125 42.84375 
Q 51.90625 38.703125 48.75 35.703125 
Q 45.59375 32.703125 41.25 31 
Q 36.90625 29.296875 31.703125 29.296875 
Q 26.703125 29.296875 22.390625 30.9375 
Q 18.09375 32.59375 14.9375 35.59375 
Q 11.796875 38.59375 10.046875 42.796875 
Q 8.296875 47 8.296875 52 
Q 8.296875 57.296875 10.046875 61.546875 
Q 11.796875 65.796875 14.9375 68.75 
Q 18.09375 71.703125 22.390625 73.25 
Q 26.703125 74.796875 31.703125 74.796875 
Q 36.5 74.796875 40.796875 73.25 
Q 45.09375 71.703125 48.34375 68.796875 
Q 51.59375 65.90625 53.546875 61.65625 
Q 55.5 57.40625 55.5 52 
z
M 78.203125 3.90625 
Q 78.203125 -0.40625 75.890625 -3.796875 
Q 73.59375 -7.203125 69.640625 -9.546875 
Q 65.703125 -11.90625 60.453125 -13.15625 
Q 55.203125 -14.40625 49.203125 -14.40625 
Q 42.703125 -14.40625 37.390625 -13.15625 
Q 32.09375 -11.90625 28.296875 -9.546875 
Q 24.5 -7.203125 22.390625 -3.796875 
Q 20.296875 -0.40625 20.296875 3.90625 
Q 20.296875 8.09375 22.390625 11.4375 
Q 24.5 14.796875 28.296875 17.140625 
Q 32.09375 19.5 37.390625 20.75 
Q 42.703125 22 49.203125 22 
Q 55.203125 22 60.453125 20.75 
Q 65.703125 19.5 69.640625 17.203125 
Q 73.59375 14.90625 75.890625 11.546875 
Q 78.203125 8.203125 78.203125 3.90625 
z
M 48.5 52.09375 
Q 48.5 56.09375 47.140625 59.140625 
Q 45.796875 62.203125 43.5 64.25 
Q 41.203125 66.296875 38.140625 67.34375 
Q 35.09375 68.40625 31.703125 68.40625 
Q 28.203125 68.40625 25.203125 67.34375 
Q 22.203125 66.296875 20 64.25 
Q 17.796875 62.203125 16.546875 59.140625 
Q 15.296875 56.09375 15.296875 52.09375 
Q 15.296875 48.296875 16.5 45.296875 
Q 17.703125 42.296875 19.84375 40.09375 
Q 22 37.90625 25 36.75 
Q 28 35.59375 31.703125 35.59375 
Q 35.09375 35.59375 38.140625 36.75 
Q 41.203125 37.90625 43.5 40.09375 
Q 45.796875 42.296875 47.140625 45.296875 
Q 48.5 48.296875 48.5 52.09375 
z
M 71.09375 3.59375 
Q 71.09375 6.59375 69.296875 8.890625 
Q 67.5 11.203125 64.453125 12.75 
Q 61.40625 14.296875 57.40625 15.140625 
Q 53.40625 16 49.09375 16 
Q 44.296875 16 40.296875 15.140625 
Q 36.296875 14.296875 33.4375 12.75 
Q 30.59375 11.203125 29 8.890625 
Q 27.40625 6.59375 27.40625 3.59375 
Q 27.40625 0.703125 29 -1.546875 
Q 30.59375 -3.796875 33.4375 -5.296875 
Q 36.296875 -6.796875 40.296875 -7.59375 
Q 44.296875 -8.40625 49.09375 -8.40625 
Q 53.40625 -8.40625 57.40625 -7.59375 
Q 61.40625 -6.796875 64.453125 -5.296875 
Q 67.5 -3.796875 69.296875 -1.546875 
Q 71.09375 0.703125 71.09375 3.59375 
z
M 77 24.59375 
Q 77 23.203125 75.59375 23.203125 
L 71.5 23.203125 
Q 70.09375 23.203125 70.09375 24.59375 
L 70.09375 76.796875 
Q 70.09375 78.203125 71.5 78.203125 
L 75.59375 78.203125 
Q 77 78.203125 77 76.796875 
L 77 60.59375 
L 90.796875 60.59375 
Q 91.40625 60.59375 91.84375 60.25 
Q 92.296875 59.90625 92.296875 59.296875 
L 92.296875 56 
Q 92.296875 55.5 91.84375 55.09375 
Q 91.40625 54.703125 90.796875 54.703125 
L 77 54.703125 
L 77 42.703125 
L 90.796875 42.703125 
Q 91.40625 42.703125 91.84375 42.34375 
Q 92.296875 42 92.296875 41.40625 
L 92.296875 38.09375 
Q 92.296875 37.59375 91.84375 37.1875 
Q 91.40625 36.796875 90.796875 36.796875 
L 77 36.796875 
L 77 24.59375 
z
" id="NanumGothic-50577"/>
       <path d="M 50.703125 63.5 
Q 50.203125 54.90625 47.296875 46.59375 
Q 44.40625 38.296875 39.25 30.75 
Q 34.09375 23.203125 26.84375 16.75 
Q 19.59375 10.296875 10.40625 5.40625 
Q 9.09375 4.703125 8.5 5.703125 
L 6.296875 9.203125 
Q 5.59375 10.40625 6.703125 10.90625 
Q 15.203125 15.296875 21.75 20.9375 
Q 28.296875 26.59375 32.9375 33.1875 
Q 37.59375 39.796875 40.296875 47.09375 
Q 43 54.40625 43.703125 62.09375 
Q 43.90625 63.59375 43.296875 64.140625 
Q 42.703125 64.703125 41.296875 64.703125 
L 10.296875 64.703125 
Q 9.09375 64.703125 9.09375 66 
L 9.09375 69.5 
Q 9.09375 70.703125 10.296875 70.703125 
L 43.203125 70.703125 
Q 47.90625 70.703125 49.40625 68.953125 
Q 50.90625 67.203125 50.703125 63.5 
z
M 77 -12.59375 
Q 77 -14 75.59375 -14 
L 71.5 -14 
Q 70.09375 -14 70.09375 -12.59375 
L 70.09375 76.796875 
Q 70.09375 78.203125 71.5 78.203125 
L 75.59375 78.203125 
Q 77 78.203125 77 76.796875 
L 77 41.40625 
L 90.796875 41.40625 
Q 91.40625 41.40625 91.84375 41.046875 
Q 92.296875 40.703125 92.296875 40.09375 
L 92.296875 36.703125 
Q 92.296875 36.203125 91.84375 35.796875 
Q 91.40625 35.40625 90.796875 35.40625 
L 77 35.40625 
L 77 -12.59375 
z
" id="NanumGothic-44032"/>
       <path d="M 53.5 65.796875 
Q 53 62.90625 52.296875 60.40625 
L 73.59375 60.40625 
L 73.59375 76.796875 
Q 73.59375 78.203125 75 78.203125 
L 79.09375 78.203125 
Q 80.5 78.203125 80.5 76.796875 
L 80.5 25.59375 
Q 80.5 24.203125 79.09375 24.203125 
L 75 24.203125 
Q 73.59375 24.203125 73.59375 25.59375 
L 73.59375 36.5 
L 48.203125 36.5 
Q 46.90625 36.5 46.90625 37.703125 
L 46.90625 41.203125 
Q 46.90625 42.40625 48.203125 42.40625 
L 73.59375 42.40625 
L 73.59375 54.5 
L 50.203125 54.5 
Q 46 44.703125 37.09375 36.84375 
Q 28.203125 29 13.59375 22.90625 
Q 12 22.203125 11.40625 23.5 
L 9.90625 26.796875 
Q 9.5 27.59375 9.84375 28.09375 
Q 10.203125 28.59375 10.703125 28.796875 
Q 26.59375 35.40625 35.34375 44.5 
Q 44.09375 53.59375 46 64.09375 
Q 46.59375 66.90625 43.59375 66.90625 
L 13.40625 66.90625 
Q 12.203125 66.90625 12.203125 68.203125 
L 12.203125 71.703125 
Q 12.203125 72.90625 13.40625 72.90625 
L 45.90625 72.90625 
Q 50.703125 72.90625 52.390625 71.203125 
Q 54.09375 69.5 53.5 65.796875 
z
M 22.203125 18.203125 
Q 22.203125 18.796875 22.703125 19.09375 
Q 23.203125 19.40625 23.703125 19.40625 
L 72.90625 19.40625 
Q 77.59375 19.40625 79.046875 17.65625 
Q 80.5 15.90625 80.5 11.796875 
L 80.5 -13 
Q 80.5 -14.40625 79.09375 -14.40625 
L 75 -14.40625 
Q 73.59375 -14.40625 73.59375 -13 
L 73.59375 11.296875 
Q 73.59375 12.703125 73.140625 13.046875 
Q 72.703125 13.40625 71.296875 13.40625 
L 23.703125 13.40625 
Q 23.203125 13.40625 22.703125 13.75 
Q 22.203125 14.09375 22.203125 14.59375 
L 22.203125 18.203125 
z
" id="NanumGothic-44201"/>
      </defs>
      <use xlink:href="#NanumGothic-54217"/>
      <use x="93.999985" xlink:href="#NanumGothic-45817"/>
      <use x="187.999969" xlink:href="#NanumGothic-48516"/>
      <use x="281.999954" xlink:href="#NanumGothic-50577"/>
      <use x="375.999939" xlink:href="#NanumGothic-44032"/>
      <use x="469.999924" xlink:href="#NanumGothic-44201"/>
     </g>
    </g>
   </g>
   <g id="line2d_24">
    <path clip-path="url(#p9677351c32)" d="M 74.388327 22.888098 
L 74.388327 16.747487 
" style="fill:none;stroke:#424242;stroke-linecap:square;stroke-width:2.7;"/>
   </g>
   <g id="line2d_25">
    <path clip-path="url(#p9677351c32)" d="M 107.211857 96.65254 
L 107.211857 93.864324 
" style="fill:none;stroke:#424242;stroke-linecap:square;stroke-width:2.7;"/>
   </g>
   <g id="line2d_26">
    <path clip-path="url(#p9677351c32)" d="M 140.035386 87.590626 
L 140.035386 84.474924 
" style="fill:none;stroke:#424242;stroke-linecap:square;stroke-width:2.7;"/>
   </g>
   <g id="line2d_27">
    <path clip-path="url(#p9677351c32)" d="M 172.858915 95.320825 
L 172.858915 93.046603 
" style="fill:none;stroke:#424242;stroke-linecap:square;stroke-width:2.7;"/>
   </g>
   <g id="line2d_28">
    <path clip-path="url(#p9677351c32)" d="M 205.682445 96.507655 
L 205.682445 93.304567 
" style="fill:none;stroke:#424242;stroke-linecap:square;stroke-width:2.7;"/>
   </g>
   <g id="line2d_29">
    <path clip-path="url(#p9677351c32)" d="M 238.505974 109.223243 
L 238.505974 106.624073 
" style="fill:none;stroke:#424242;stroke-linecap:square;stroke-width:2.7;"/>
   </g>
   <g id="line2d_30">
    <path clip-path="url(#p9677351c32)" d="M 271.329504 108.048768 
L 271.329504 103.897622 
" style="fill:none;stroke:#424242;stroke-linecap:square;stroke-width:2.7;"/>
   </g>
   <g id="line2d_31">
    <path clip-path="url(#p9677351c32)" d="M 304.153033 108.409245 
L 304.153033 106.515011 
" style="fill:none;stroke:#424242;stroke-linecap:square;stroke-width:2.7;"/>
   </g>
   <g id="line2d_32">
    <path clip-path="url(#p9677351c32)" d="M 336.976562 109.868023 
L 336.976562 107.985444 
" style="fill:none;stroke:#424242;stroke-linecap:square;stroke-width:2.7;"/>
   </g>
   <g id="line2d_33">
    <path clip-path="url(#p9677351c32)" d="M 369.800092 122.033233 
L 369.800092 120.383319 
" style="fill:none;stroke:#424242;stroke-linecap:square;stroke-width:2.7;"/>
   </g>
   <g id="line2d_34">
    <path clip-path="url(#p9677351c32)" d="M 402.623621 123.546042 
L 402.623621 122.1985 
" style="fill:none;stroke:#424242;stroke-linecap:square;stroke-width:2.7;"/>
   </g>
   <g id="line2d_35">
    <path clip-path="url(#p9677351c32)" d="M 435.447151 119.619515 
L 435.447151 118.439149 
" style="fill:none;stroke:#424242;stroke-linecap:square;stroke-width:2.7;"/>
   </g>
   <g id="line2d_36">
    <path clip-path="url(#p9677351c32)" d="M 468.27068 123.002651 
L 468.27068 121.590303 
" style="fill:none;stroke:#424242;stroke-linecap:square;stroke-width:2.7;"/>
   </g>
   <g id="line2d_37">
    <path clip-path="url(#p9677351c32)" d="M 501.09421 123.923149 
L 501.09421 122.692756 
" style="fill:none;stroke:#424242;stroke-linecap:square;stroke-width:2.7;"/>
   </g>
   <g id="line2d_38">
    <path clip-path="url(#p9677351c32)" d="M 533.917739 118.75005 
L 533.917739 117.388664 
" style="fill:none;stroke:#424242;stroke-linecap:square;stroke-width:2.7;"/>
   </g>
   <g id="line2d_39">
    <path clip-path="url(#p9677351c32)" d="M 566.741268 113.423185 
L 566.741268 111.200835 
" style="fill:none;stroke:#424242;stroke-linecap:square;stroke-width:2.7;"/>
   </g>
   <g id="line2d_40">
    <path clip-path="url(#p9677351c32)" d="M 599.564798 101.589254 
L 599.564798 97.60547 
" style="fill:none;stroke:#424242;stroke-linecap:square;stroke-width:2.7;"/>
   </g>
   <g id="patch_20">
    <path d="M 57.976563 172.061773 
L 57.976563 8.981773 
" style="fill:none;stroke:#000000;stroke-linecap:square;stroke-linejoin:miter;stroke-width:0.8;"/>
   </g>
   <g id="patch_21">
    <path d="M 615.976562 172.061773 
L 615.976562 8.981773 
" style="fill:none;stroke:#000000;stroke-linecap:square;stroke-linejoin:miter;stroke-width:0.8;"/>
   </g>
   <g id="patch_22">
    <path d="M 57.976563 172.061773 
L 615.976562 172.061773 
" style="fill:none;stroke:#000000;stroke-linecap:square;stroke-linejoin:miter;stroke-width:0.8;"/>
   </g>
   <g id="patch_23">
    <path d="M 57.976563 8.981773 
L 615.976562 8.981773 
" style="fill:none;stroke:#000000;stroke-linecap:square;stroke-linejoin:miter;stroke-width:0.8;"/>
   </g>
  </g>
 </g>
 <defs>
  <clipPath id="p9677351c32">
   <rect height="163.08" width="558" x="57.976563" y="8.981773"/>
  </clipPath>
 </defs>
</svg>
