<?xml version="1.0" encoding="utf-8" standalone="no"?>
<!DOCTYPE svg PUBLIC "-//W3C//DTD SVG 1.1//EN"
  "http://www.w3.org/Graphics/SVG/1.1/DTD/svg11.dtd">
<!-- Created with matplotlib (https://matplotlib.org/) -->
<svg height="261.799375pt" version="1.1" viewBox="0 0 399.976562 261.799375" width="399.976562pt" xmlns="http://www.w3.org/2000/svg" xmlns:xlink="http://www.w3.org/1999/xlink">
 <metadata>
  <rdf:RDF xmlns:cc="http://creativecommons.org/ns#" xmlns:dc="http://purl.org/dc/elements/1.1/" xmlns:rdf="http://www.w3.org/1999/02/22-rdf-syntax-ns#">
   <cc:Work>
    <dc:type rdf:resource="http://purl.org/dc/dcmitype/StillImage"/>
    <dc:date>2020-11-13T00:20:04.465002</dc:date>
    <dc:format>image/svg+xml</dc:format>
    <dc:creator>
     <cc:Agent>
      <dc:title>Matplotlib v3.3.2, https://matplotlib.org/</dc:title>
     </cc:Agent>
    </dc:creator>
   </cc:Work>
  </rdf:RDF>
 </metadata>
 <defs>
  <style type="text/css">*{stroke-linecap:butt;stroke-linejoin:round;}</style>
 </defs>
 <g id="figure_1">
  <g id="patch_1">
   <path d="M 0 261.799375 
L 399.976562 261.799375 
L 399.976562 0 
L 0 0 
z
" style="fill:none;"/>
  </g>
  <g id="axes_1">
   <g id="patch_2">
    <path d="M 57.976562 224.64 
L 392.776563 224.64 
L 392.776563 7.2 
L 57.976562 7.2 
z
" style="fill:#ffffff;"/>
   </g>
   <g id="PathCollection_1">
    <defs>
     <path d="M -0 4.242641 
L 2.545584 0 
L 0 -4.242641 
L -2.545584 -0 
z
" id="m79b172c677" style="stroke:#3d3d3d;"/>
    </defs>
    <g clip-path="url(#p0a6998a4d3)">
     <use style="fill:#3d3d3d;stroke:#3d3d3d;" x="81.890848" xlink:href="#m79b172c677" y="210.179783"/>
     <use style="fill:#3d3d3d;stroke:#3d3d3d;" x="81.890848" xlink:href="#m79b172c677" y="208.944387"/>
     <use style="fill:#3d3d3d;stroke:#3d3d3d;" x="81.890848" xlink:href="#m79b172c677" y="214.110588"/>
     <use style="fill:#3d3d3d;stroke:#3d3d3d;" x="81.890848" xlink:href="#m79b172c677" y="209.524649"/>
     <use style="fill:#3d3d3d;stroke:#3d3d3d;" x="81.890848" xlink:href="#m79b172c677" y="97.019376"/>
     <use style="fill:#3d3d3d;stroke:#3d3d3d;" x="81.890848" xlink:href="#m79b172c677" y="171.751478"/>
     <use style="fill:#3d3d3d;stroke:#3d3d3d;" x="81.890848" xlink:href="#m79b172c677" y="189.37459"/>
     <use style="fill:#3d3d3d;stroke:#3d3d3d;" x="81.890848" xlink:href="#m79b172c677" y="165.65873"/>
    </g>
   </g>
   <g id="PatchCollection_1">
    <defs>
     <path d="M 62.75942 -53.341659 
L 101.022277 -53.341659 
L 101.022277 -70.459382 
L 62.75942 -70.459382 
z
" id="m6c1d8c305f" style="stroke:#3d3d3d;"/>
    </defs>
    <g clip-path="url(#p0a6998a4d3)">
     <use style="fill:#3274a1;stroke:#3d3d3d;" x="0" xlink:href="#m6c1d8c305f" y="261.799375"/>
    </g>
   </g>
   <g id="PathCollection_2">
    <g clip-path="url(#p0a6998a4d3)">
     <use style="fill:#3d3d3d;stroke:#3d3d3d;" x="129.71942" xlink:href="#m79b172c677" y="214.110588"/>
     <use style="fill:#3d3d3d;stroke:#3d3d3d;" x="129.71942" xlink:href="#m79b172c677" y="214.110588"/>
     <use style="fill:#3d3d3d;stroke:#3d3d3d;" x="129.71942" xlink:href="#m79b172c677" y="213.942125"/>
     <use style="fill:#3d3d3d;stroke:#3d3d3d;" x="129.71942" xlink:href="#m79b172c677" y="213.567763"/>
     <use style="fill:#3d3d3d;stroke:#3d3d3d;" x="129.71942" xlink:href="#m79b172c677" y="214.316488"/>
     <use style="fill:#3d3d3d;stroke:#3d3d3d;" x="129.71942" xlink:href="#m79b172c677" y="214.756364"/>
     <use style="fill:#3d3d3d;stroke:#3d3d3d;" x="129.71942" xlink:href="#m79b172c677" y="214.045075"/>
     <use style="fill:#3d3d3d;stroke:#3d3d3d;" x="129.71942" xlink:href="#m79b172c677" y="85.255037"/>
     <use style="fill:#3d3d3d;stroke:#3d3d3d;" x="129.71942" xlink:href="#m79b172c677" y="90.673933"/>
     <use style="fill:#3d3d3d;stroke:#3d3d3d;" x="129.71942" xlink:href="#m79b172c677" y="86.864795"/>
     <use style="fill:#3d3d3d;stroke:#3d3d3d;" x="129.71942" xlink:href="#m79b172c677" y="85.648117"/>
     <use style="fill:#3d3d3d;stroke:#3d3d3d;" x="129.71942" xlink:href="#m79b172c677" y="82.325651"/>
     <use style="fill:#3d3d3d;stroke:#3d3d3d;" x="129.71942" xlink:href="#m79b172c677" y="77.805224"/>
     <use style="fill:#3d3d3d;stroke:#3d3d3d;" x="129.71942" xlink:href="#m79b172c677" y="77.552529"/>
    </g>
   </g>
   <g id="PatchCollection_2">
    <path clip-path="url(#p0a6998a4d3)" d="M 127.327991 213.513071 
L 132.110848 213.513071 
L 132.110848 91.07608 
L 127.327991 91.07608 
z
" style="fill:#fbece0;stroke:#3d3d3d;"/>
    <path clip-path="url(#p0a6998a4d3)" d="M 124.936563 211.473673 
L 134.502277 211.473673 
L 134.502277 165.597311 
L 124.936563 165.597311 
z
" style="fill:#f2c8a4;stroke:#3d3d3d;"/>
    <path clip-path="url(#p0a6998a4d3)" d="M 120.153705 208.123129 
L 139.285134 208.123129 
L 139.285134 172.441709 
L 120.153705 172.441709 
z
" style="fill:#eaa568;stroke:#3d3d3d;"/>
    <path clip-path="url(#p0a6998a4d3)" d="M 110.587991 205.617241 
L 148.850848 205.617241 
L 148.850848 187.062902 
L 110.587991 187.062902 
z
" style="fill:#e1812c;stroke:#3d3d3d;"/>
   </g>
   <g id="PathCollection_3">
    <g clip-path="url(#p0a6998a4d3)">
     <use style="fill:#3d3d3d;stroke:#3d3d3d;" x="177.547991" xlink:href="#m79b172c677" y="213.118528"/>
     <use style="fill:#3d3d3d;stroke:#3d3d3d;" x="177.547991" xlink:href="#m79b172c677" y="212.659934"/>
     <use style="fill:#3d3d3d;stroke:#3d3d3d;" x="177.547991" xlink:href="#m79b172c677" y="209.393622"/>
     <use style="fill:#3d3d3d;stroke:#3d3d3d;" x="177.547991" xlink:href="#m79b172c677" y="212.734806"/>
     <use style="fill:#3d3d3d;stroke:#3d3d3d;" x="177.547991" xlink:href="#m79b172c677" y="211.658514"/>
     <use style="fill:#3d3d3d;stroke:#3d3d3d;" x="177.547991" xlink:href="#m79b172c677" y="210.629018"/>
     <use style="fill:#3d3d3d;stroke:#3d3d3d;" x="177.547991" xlink:href="#m79b172c677" y="73.799546"/>
     <use style="fill:#3d3d3d;stroke:#3d3d3d;" x="177.547991" xlink:href="#m79b172c677" y="73.799546"/>
     <use style="fill:#3d3d3d;stroke:#3d3d3d;" x="177.547991" xlink:href="#m79b172c677" y="85.545168"/>
     <use style="fill:#3d3d3d;stroke:#3d3d3d;" x="177.547991" xlink:href="#m79b172c677" y="86.852628"/>
     <use style="fill:#3d3d3d;stroke:#3d3d3d;" x="177.547991" xlink:href="#m79b172c677" y="80.397684"/>
     <use style="fill:#3d3d3d;stroke:#3d3d3d;" x="177.547991" xlink:href="#m79b172c677" y="80.675648"/>
    </g>
   </g>
   <g id="PatchCollection_3">
    <path clip-path="url(#p0a6998a4d3)" d="M 175.156563 208.929763 
L 179.93942 208.929763 
L 179.93942 90.147544 
L 175.156563 90.147544 
z
" style="fill:#e2efe2;stroke:#3d3d3d;"/>
    <path clip-path="url(#p0a6998a4d3)" d="M 172.765134 207.828319 
L 182.330848 207.828319 
L 182.330848 167.255619 
L 172.765134 167.255619 
z
" style="fill:#aad0aa;stroke:#3d3d3d;"/>
    <path clip-path="url(#p0a6998a4d3)" d="M 167.982277 205.429591 
L 187.113705 205.429591 
L 187.113705 169.526596 
L 167.982277 169.526596 
z
" style="fill:#72b172;stroke:#3d3d3d;"/>
    <path clip-path="url(#p0a6998a4d3)" d="M 158.416562 201.967207 
L 196.67942 201.967207 
L 196.67942 180.614509 
L 158.416562 180.614509 
z
" style="fill:#3a923a;stroke:#3d3d3d;"/>
   </g>
   <g id="PathCollection_4">
    <g clip-path="url(#p0a6998a4d3)">
     <use style="fill:#3d3d3d;stroke:#3d3d3d;" x="225.376563" xlink:href="#m79b172c677" y="208.29206"/>
     <use style="fill:#3d3d3d;stroke:#3d3d3d;" x="225.376563" xlink:href="#m79b172c677" y="207.859672"/>
     <use style="fill:#3d3d3d;stroke:#3d3d3d;" x="225.376563" xlink:href="#m79b172c677" y="207.921441"/>
     <use style="fill:#3d3d3d;stroke:#3d3d3d;" x="225.376563" xlink:href="#m79b172c677" y="208.29206"/>
     <use style="fill:#3d3d3d;stroke:#3d3d3d;" x="225.376563" xlink:href="#m79b172c677" y="207.797902"/>
     <use style="fill:#3d3d3d;stroke:#3d3d3d;" x="225.376563" xlink:href="#m79b172c677" y="207.797902"/>
     <use style="fill:#3d3d3d;stroke:#3d3d3d;" x="225.376563" xlink:href="#m79b172c677" y="73.788315"/>
     <use style="fill:#3d3d3d;stroke:#3d3d3d;" x="225.376563" xlink:href="#m79b172c677" y="74.097164"/>
     <use style="fill:#3d3d3d;stroke:#3d3d3d;" x="225.376563" xlink:href="#m79b172c677" y="73.139732"/>
     <use style="fill:#3d3d3d;stroke:#3d3d3d;" x="225.376563" xlink:href="#m79b172c677" y="73.201502"/>
     <use style="fill:#3d3d3d;stroke:#3d3d3d;" x="225.376563" xlink:href="#m79b172c677" y="69.587969"/>
     <use style="fill:#3d3d3d;stroke:#3d3d3d;" x="225.376563" xlink:href="#m79b172c677" y="70.514516"/>
     <use style="fill:#3d3d3d;stroke:#3d3d3d;" x="225.376563" xlink:href="#m79b172c677" y="68.259918"/>
    </g>
   </g>
   <g id="PatchCollection_4">
    <path clip-path="url(#p0a6998a4d3)" d="M 222.985134 207.736132 
L 227.767991 207.736132 
L 227.767991 74.235181 
L 222.985134 74.235181 
z
" style="fill:#f6e2e2;stroke:#3d3d3d;"/>
    <path clip-path="url(#p0a6998a4d3)" d="M 220.593705 207.052804 
L 230.15942 207.052804 
L 230.15942 157.397604 
L 220.593705 157.397604 
z
" style="fill:#e4abab;stroke:#3d3d3d;"/>
    <path clip-path="url(#p0a6998a4d3)" d="M 215.810848 205.234455 
L 234.942277 205.234455 
L 234.942277 167.77493 
L 215.810848 167.77493 
z
" style="fill:#d27475;stroke:#3d3d3d;"/>
    <path clip-path="url(#p0a6998a4d3)" d="M 206.245134 200.022628 
L 244.507991 200.022628 
L 244.507991 170.126043 
L 206.245134 170.126043 
z
" style="fill:#c03d3e;stroke:#3d3d3d;"/>
   </g>
   <g id="PathCollection_5">
    <g clip-path="url(#p0a6998a4d3)">
     <use style="fill:#3d3d3d;stroke:#3d3d3d;" x="273.205134" xlink:href="#m79b172c677" y="205.296225"/>
     <use style="fill:#3d3d3d;stroke:#3d3d3d;" x="273.205134" xlink:href="#m79b172c677" y="205.20357"/>
     <use style="fill:#3d3d3d;stroke:#3d3d3d;" x="273.205134" xlink:href="#m79b172c677" y="206.222772"/>
     <use style="fill:#3d3d3d;stroke:#3d3d3d;" x="273.205134" xlink:href="#m79b172c677" y="204.246138"/>
     <use style="fill:#3d3d3d;stroke:#3d3d3d;" x="273.205134" xlink:href="#m79b172c677" y="204.153483"/>
     <use style="fill:#3d3d3d;stroke:#3d3d3d;" x="273.205134" xlink:href="#m79b172c677" y="204.153483"/>
     <use style="fill:#3d3d3d;stroke:#3d3d3d;" x="273.205134" xlink:href="#m79b172c677" y="67.611335"/>
     <use style="fill:#3d3d3d;stroke:#3d3d3d;" x="273.205134" xlink:href="#m79b172c677" y="61.3417"/>
     <use style="fill:#3d3d3d;stroke:#3d3d3d;" x="273.205134" xlink:href="#m79b172c677" y="64.244881"/>
     <use style="fill:#3d3d3d;stroke:#3d3d3d;" x="273.205134" xlink:href="#m79b172c677" y="66.283284"/>
     <use style="fill:#3d3d3d;stroke:#3d3d3d;" x="273.205134" xlink:href="#m79b172c677" y="64.090456"/>
     <use style="fill:#3d3d3d;stroke:#3d3d3d;" x="273.205134" xlink:href="#m79b172c677" y="60.137189"/>
    </g>
   </g>
   <g id="PatchCollection_5">
    <path clip-path="url(#p0a6998a4d3)" d="M 270.813705 204.128389 
L 275.596563 204.128389 
L 275.596563 67.962651 
L 270.813705 67.962651 
z
" style="fill:#efeaf4;stroke:#3d3d3d;"/>
    <path clip-path="url(#p0a6998a4d3)" d="M 268.422277 203.474016 
L 277.987991 203.474016 
L 277.987991 146.290621 
L 268.422277 146.290621 
z
" style="fill:#d0c2de;stroke:#3d3d3d;"/>
    <path clip-path="url(#p0a6998a4d3)" d="M 263.63942 202.022425 
L 282.770848 202.022425 
L 282.770848 155.586976 
L 263.63942 155.586976 
z
" style="fill:#b29ac8;stroke:#3d3d3d;"/>
    <path clip-path="url(#p0a6998a4d3)" d="M 254.073705 197.111726 
L 292.336563 197.111726 
L 292.336563 164.636252 
L 254.073705 164.636252 
z
" style="fill:#9372b2;stroke:#3d3d3d;"/>
   </g>
   <g id="PathCollection_6">
    <g clip-path="url(#p0a6998a4d3)">
     <use style="fill:#3d3d3d;stroke:#3d3d3d;" x="321.033705" xlink:href="#m79b172c677" y="203.103397"/>
     <use style="fill:#3d3d3d;stroke:#3d3d3d;" x="321.033705" xlink:href="#m79b172c677" y="198.501547"/>
     <use style="fill:#3d3d3d;stroke:#3d3d3d;" x="321.033705" xlink:href="#m79b172c677" y="200.354641"/>
     <use style="fill:#3d3d3d;stroke:#3d3d3d;" x="321.033705" xlink:href="#m79b172c677" y="197.049956"/>
     <use style="fill:#3d3d3d;stroke:#3d3d3d;" x="321.033705" xlink:href="#m79b172c677" y="197.358805"/>
     <use style="fill:#3d3d3d;stroke:#3d3d3d;" x="321.033705" xlink:href="#m79b172c677" y="196.926417"/>
     <use style="fill:#3d3d3d;stroke:#3d3d3d;" x="321.033705" xlink:href="#m79b172c677" y="196.555798"/>
     <use style="fill:#3d3d3d;stroke:#3d3d3d;" x="321.033705" xlink:href="#m79b172c677" y="56.122152"/>
     <use style="fill:#3d3d3d;stroke:#3d3d3d;" x="321.033705" xlink:href="#m79b172c677" y="55.967727"/>
     <use style="fill:#3d3d3d;stroke:#3d3d3d;" x="321.033705" xlink:href="#m79b172c677" y="53.558705"/>
     <use style="fill:#3d3d3d;stroke:#3d3d3d;" x="321.033705" xlink:href="#m79b172c677" y="51.242337"/>
     <use style="fill:#3d3d3d;stroke:#3d3d3d;" x="321.033705" xlink:href="#m79b172c677" y="39.382535"/>
     <use style="fill:#3d3d3d;stroke:#3d3d3d;" x="321.033705" xlink:href="#m79b172c677" y="39.660499"/>
     <use style="fill:#3d3d3d;stroke:#3d3d3d;" x="321.033705" xlink:href="#m79b172c677" y="38.764837"/>
    </g>
   </g>
   <g id="PatchCollection_6">
    <path clip-path="url(#p0a6998a4d3)" d="M 318.642277 196.526843 
L 323.425134 196.526843 
L 323.425134 56.276576 
L 318.642277 56.276576 
z
" style="fill:#ede7e5;stroke:#3d3d3d;"/>
    <path clip-path="url(#p0a6998a4d3)" d="M 316.250848 195.528875 
L 325.816563 195.528875 
L 325.816563 138.770147 
L 316.250848 138.770147 
z
" style="fill:#cab8b5;stroke:#3d3d3d;"/>
    <path clip-path="url(#p0a6998a4d3)" d="M 311.467991 194.509673 
L 330.59942 194.509673 
L 330.59942 145.981772 
L 311.467991 145.981772 
z
" style="fill:#a78a84;stroke:#3d3d3d;"/>
    <path clip-path="url(#p0a6998a4d3)" d="M 301.902277 192.185584 
L 340.165134 192.185584 
L 340.165134 155.741401 
L 301.902277 155.741401 
z
" style="fill:#845b53;stroke:#3d3d3d;"/>
   </g>
   <g id="PathCollection_7">
    <g clip-path="url(#p0a6998a4d3)">
     <use style="fill:#3d3d3d;stroke:#3d3d3d;" x="368.862277" xlink:href="#m79b172c677" y="196.586683"/>
     <use style="fill:#3d3d3d;stroke:#3d3d3d;" x="368.862277" xlink:href="#m79b172c677" y="196.494028"/>
     <use style="fill:#3d3d3d;stroke:#3d3d3d;" x="368.862277" xlink:href="#m79b172c677" y="197.204381"/>
     <use style="fill:#3d3d3d;stroke:#3d3d3d;" x="368.862277" xlink:href="#m79b172c677" y="196.524913"/>
     <use style="fill:#3d3d3d;stroke:#3d3d3d;" x="368.862277" xlink:href="#m79b172c677" y="198.100043"/>
     <use style="fill:#3d3d3d;stroke:#3d3d3d;" x="368.862277" xlink:href="#m79b172c677" y="197.358805"/>
     <use style="fill:#3d3d3d;stroke:#3d3d3d;" x="368.862277" xlink:href="#m79b172c677" y="197.080841"/>
     <use style="fill:#3d3d3d;stroke:#3d3d3d;" x="368.862277" xlink:href="#m79b172c677" y="17.083636"/>
     <use style="fill:#3d3d3d;stroke:#3d3d3d;" x="368.862277" xlink:href="#m79b172c677" y="18.102838"/>
     <use style="fill:#3d3d3d;stroke:#3d3d3d;" x="368.862277" xlink:href="#m79b172c677" y="17.299831"/>
     <use style="fill:#3d3d3d;stroke:#3d3d3d;" x="368.862277" xlink:href="#m79b172c677" y="17.54691"/>
     <use style="fill:#3d3d3d;stroke:#3d3d3d;" x="368.862277" xlink:href="#m79b172c677" y="17.3616"/>
     <use style="fill:#3d3d3d;stroke:#3d3d3d;" x="368.862277" xlink:href="#m79b172c677" y="18.257263"/>
     <use style="fill:#3d3d3d;stroke:#3d3d3d;" x="368.862277" xlink:href="#m79b172c677" y="21.561947"/>
    </g>
   </g>
   <g id="PatchCollection_7">
    <path clip-path="url(#p0a6998a4d3)" d="M 366.470848 196.476655 
L 371.253705 196.476655 
L 371.253705 22.05128 
L 366.470848 22.05128 
z
" style="fill:#f9edf5;stroke:#3d3d3d;"/>
    <path clip-path="url(#p0a6998a4d3)" d="M 364.07942 195.557829 
L 373.645134 195.557829 
L 373.645134 127.531904 
L 364.07942 127.531904 
z
" style="fill:#edcae2;stroke:#3d3d3d;"/>
    <path clip-path="url(#p0a6998a4d3)" d="M 359.296562 192.733791 
L 378.427991 192.733791 
L 378.427991 133.442502 
L 359.296562 133.442502 
z
" style="fill:#e2a7d0;stroke:#3d3d3d;"/>
    <path clip-path="url(#p0a6998a4d3)" d="M 349.730848 188.44079 
L 387.993705 188.44079 
L 387.993705 146.105311 
L 349.730848 146.105311 
z
" style="fill:#d684bd;stroke:#3d3d3d;"/>
   </g>
   <g id="matplotlib.axis_1">
    <g id="xtick_1">
     <g id="line2d_1">
      <defs>
       <path d="M 0 0 
L 0 3.5 
" id="m34c51327e2" style="stroke:#000000;stroke-width:0.8;"/>
      </defs>
      <g>
       <use style="stroke:#000000;stroke-width:0.8;" x="81.890848" xlink:href="#m34c51327e2" y="224.64"/>
      </g>
     </g>
     <g id="text_1">
      <!-- 2013 -->
      <g transform="translate(69.772098 239.160313)scale(0.1 -0.1)">
       <defs>
        <path d="M 9 -4.703125 
Q 7.90625 -4.703125 7.34375 -4.640625 
Q 6.796875 -4.59375 6.546875 -4.34375 
Q 6.296875 -4.09375 6.25 -3.546875 
Q 6.203125 -3 6.203125 -1.90625 
L 6.296875 0.296875 
Q 6.296875 1.59375 7.09375 2.40625 
L 23.59375 20.59375 
Q 42 40.5 42 50.796875 
Q 42 56.796875 38 60.796875 
Q 34.09375 64.703125 28.296875 64.703125 
Q 20.203125 64.703125 11.40625 60.203125 
Q 10 59.5 9.796875 60.796875 
L 9.203125 64.09375 
Q 8.90625 65.796875 10.203125 66.203125 
Q 15.296875 68.5 19.390625 69.59375 
Q 23.5 70.703125 27.796875 70.703125 
Q 37.40625 70.703125 43.09375 65.90625 
Q 49.5 60.703125 49.5 51.09375 
Q 49.5 47.40625 47.703125 43 
Q 45.90625 38.59375 42.703125 33.796875 
Q 40.703125 31 37.046875 26.5 
Q 33.40625 22 28.703125 16.90625 
Q 25.203125 13.09375 21.75 9.1875 
Q 18.296875 5.296875 14.796875 1.5 
L 49.796875 1.5 
Q 51.203125 1.5 51.203125 0.09375 
L 51.203125 -3.296875 
Q 51.203125 -4.703125 49.796875 -4.703125 
z
" id="NanumGothic-50"/>
        <path d="M 47.90625 32.703125 
Q 47.90625 64.09375 30.703125 64.09375 
Q 13.5 64.09375 13.5 32.703125 
Q 13.5 1.203125 30.703125 1.203125 
Q 47.90625 1.203125 47.90625 32.703125 
z
M 55.09375 32.703125 
Q 55.09375 -5.09375 30.703125 -5.09375 
Q 6.09375 -5.09375 6.09375 32.703125 
Q 6.09375 48.40625 10.90625 58.203125 
Q 17 70.5 30.703125 70.5 
Q 44.203125 70.5 50.40625 58.203125 
Q 52.703125 53.296875 53.890625 47 
Q 55.09375 40.703125 55.09375 32.703125 
z
" id="NanumGothic-48"/>
        <path d="M 36.90625 -3.296875 
Q 36.90625 -4.703125 35.5 -4.703125 
L 31.40625 -4.703125 
Q 30 -4.703125 30 -3.296875 
L 30 61.703125 
Q 26.90625 59.09375 24.203125 56.796875 
Q 21.5 54.5 18.5 51.90625 
Q 17.40625 51 16.5 52.09375 
L 14.5 54.5 
Q 14.203125 55 14.203125 55.546875 
Q 14.203125 56.09375 14.703125 56.5 
L 30.203125 69.5 
Q 30.59375 69.90625 31.40625 69.90625 
L 34.09375 69.90625 
Q 36.203125 69.90625 36.546875 69.546875 
Q 36.90625 69.203125 36.90625 67.09375 
z
" id="NanumGothic-49"/>
        <path d="M 7.703125 -3 
Q 6.203125 -2.59375 6.40625 -0.703125 
L 6.796875 3.203125 
Q 7 4.40625 8.40625 3.796875 
Q 12.59375 2.09375 16.34375 1.390625 
Q 20.09375 0.703125 25.09375 0.59375 
Q 33 0.5 38.40625 4.59375 
Q 44.703125 8.796875 44.703125 16.90625 
Q 44.703125 31.09375 23.40625 31.09375 
L 18.203125 31.09375 
Q 16.90625 31.09375 16.90625 32.203125 
L 16.90625 35.90625 
Q 16.90625 37.203125 18.203125 37.203125 
L 18.703125 37.203125 
Q 29.40625 37.203125 35.40625 39.5 
Q 44.5 43 44.5 52.09375 
Q 44.5 55 42.953125 57.453125 
Q 41.40625 59.90625 38.796875 61.59375 
Q 36.40625 63 33.40625 63.796875 
Q 30.40625 64.59375 27.09375 64.59375 
Q 23.703125 64.59375 19.59375 63.6875 
Q 15.5 62.796875 11.703125 61.296875 
Q 10.40625 60.796875 10.203125 62.09375 
L 9.796875 65.796875 
Q 9.5 67.203125 11.09375 67.796875 
Q 15.59375 69.296875 19.5 70 
Q 23.40625 70.703125 27.796875 70.703125 
Q 37.90625 70.703125 44.296875 66.40625 
Q 51.59375 61.5 51.59375 52.09375 
Q 51.59375 45.40625 46.796875 40.5 
Q 42.796875 36.203125 36.40625 34.203125 
Q 39.59375 33.796875 42.34375 32.5 
Q 45.09375 31.203125 47.09375 28.90625 
Q 49.40625 26.40625 50.59375 23.25 
Q 51.796875 20.09375 51.796875 16.296875 
Q 51.796875 11.296875 49.75 7.25 
Q 47.703125 3.203125 43.90625 0.296875 
Q 40.203125 -2.40625 35.390625 -3.953125 
Q 30.59375 -5.5 24.703125 -5.40625 
Q 19.40625 -5.296875 15.546875 -4.796875 
Q 11.703125 -4.296875 7.703125 -3 
z
" id="NanumGothic-51"/>
       </defs>
       <use xlink:href="#NanumGothic-50"/>
       <use x="60.599991" xlink:href="#NanumGothic-48"/>
       <use x="121.199982" xlink:href="#NanumGothic-49"/>
       <use x="181.799973" xlink:href="#NanumGothic-51"/>
      </g>
     </g>
    </g>
    <g id="xtick_2">
     <g id="line2d_2">
      <g>
       <use style="stroke:#000000;stroke-width:0.8;" x="129.71942" xlink:href="#m34c51327e2" y="224.64"/>
      </g>
     </g>
     <g id="text_2">
      <!-- 2014 -->
      <g transform="translate(117.60067 239.160313)scale(0.1 -0.1)">
       <defs>
        <path d="M 39.203125 19 
L 39.203125 63.59375 
Q 31.796875 52.40625 24.5 41.296875 
Q 17.203125 30.203125 9.703125 19 
z
M 46 -3.296875 
Q 46 -4.703125 44.59375 -4.703125 
L 40.59375 -4.703125 
Q 39.203125 -4.703125 39.203125 -3.296875 
L 39.203125 12.90625 
L 6.203125 12.90625 
Q 4.09375 12.90625 3.75 13.25 
Q 3.40625 13.59375 3.40625 15.703125 
L 3.40625 18.796875 
Q 3.40625 19.703125 3.5 20 
Q 3.59375 20.296875 4.09375 21.09375 
L 36 68.703125 
Q 36.59375 69.59375 36.84375 69.75 
Q 37.09375 69.90625 38.203125 69.90625 
L 43.203125 69.90625 
Q 45.296875 69.90625 45.640625 69.546875 
Q 46 69.203125 46 67.09375 
L 46 19 
L 55.90625 19 
Q 57.296875 19 57.296875 17.59375 
L 57.296875 14.296875 
Q 57.296875 12.90625 55.90625 12.90625 
L 46 12.90625 
z
" id="NanumGothic-52"/>
       </defs>
       <use xlink:href="#NanumGothic-50"/>
       <use x="60.599991" xlink:href="#NanumGothic-48"/>
       <use x="121.199982" xlink:href="#NanumGothic-49"/>
       <use x="181.799973" xlink:href="#NanumGothic-52"/>
      </g>
     </g>
    </g>
    <g id="xtick_3">
     <g id="line2d_3">
      <g>
       <use style="stroke:#000000;stroke-width:0.8;" x="177.547991" xlink:href="#m34c51327e2" y="224.64"/>
      </g>
     </g>
     <g id="text_3">
      <!-- 2015 -->
      <g transform="translate(165.429241 239.160313)scale(0.1 -0.1)">
       <defs>
        <path d="M 11.5 -3.203125 
Q 10.09375 -2.703125 10.09375 -1.40625 
L 10.09375 2.796875 
Q 10.09375 4.5 11.5 3.796875 
Q 15.09375 2.09375 18.546875 1.390625 
Q 22 0.703125 26.09375 0.703125 
Q 34.90625 0.703125 40.40625 5 
Q 46.40625 9.59375 46.40625 18.203125 
Q 46.40625 35.09375 27.09375 35.09375 
Q 23.296875 35.09375 20.25 34.6875 
Q 17.203125 34.296875 13.5 33.296875 
Q 12.40625 33 11.703125 33.546875 
Q 11 34.09375 11 35.203125 
L 11.59375 67.09375 
Q 11.59375 69.203125 11.9375 69.546875 
Q 12.296875 69.90625 14.40625 69.90625 
L 48.59375 69.90625 
Q 50 69.90625 50 68.5 
L 50 65.203125 
Q 50 63.796875 48.59375 63.796875 
L 18.40625 63.796875 
Q 18.296875 57.5 18.140625 51.5 
Q 18 45.5 17.90625 39.203125 
Q 22.796875 41.09375 29.796875 41.09375 
Q 40.296875 41.09375 46.796875 35.40625 
Q 53.296875 29.5 53.296875 19.59375 
Q 53.296875 7.5 45.796875 0.90625 
Q 38.59375 -5.40625 26.09375 -5.40625 
Q 21.59375 -5.40625 18.296875 -4.90625 
Q 15 -4.40625 11.5 -3.203125 
z
" id="NanumGothic-53"/>
       </defs>
       <use xlink:href="#NanumGothic-50"/>
       <use x="60.599991" xlink:href="#NanumGothic-48"/>
       <use x="121.199982" xlink:href="#NanumGothic-49"/>
       <use x="181.799973" xlink:href="#NanumGothic-53"/>
      </g>
     </g>
    </g>
    <g id="xtick_4">
     <g id="line2d_4">
      <g>
       <use style="stroke:#000000;stroke-width:0.8;" x="225.376563" xlink:href="#m34c51327e2" y="224.64"/>
      </g>
     </g>
     <g id="text_4">
      <!-- 2016 -->
      <g transform="translate(213.257812 239.160313)scale(0.1 -0.1)">
       <defs>
        <path d="M 48.09375 18.796875 
Q 48.09375 26.90625 43.90625 31.59375 
Q 39.703125 36.40625 31.90625 36.40625 
Q 27.90625 36.40625 24.703125 35.15625 
Q 21.5 33.90625 19.25 31.703125 
Q 17 29.5 15.75 26.390625 
Q 14.5 23.296875 14.5 19.59375 
Q 14.5 12 18.703125 6.796875 
Q 23.296875 0.703125 31 0.703125 
Q 38.90625 0.703125 43.703125 6 
Q 48.09375 11 48.09375 18.796875 
z
M 50.703125 62.703125 
Q 48.40625 63.5 45.453125 64 
Q 42.5 64.5 39.59375 64.5 
Q 26 64.5 19.5 54.703125 
Q 14 46.5 13.796875 32.203125 
Q 16 36.203125 20.203125 39 
Q 25.40625 42.703125 31.90625 42.703125 
Q 41 42.703125 47.203125 37.90625 
Q 55.09375 31.796875 55.09375 19.296875 
Q 55.09375 8.703125 48.59375 1.703125 
Q 42 -5.40625 30.796875 -5.40625 
Q 6.796875 -5.40625 6.796875 30 
Q 6.796875 48.5 14.203125 58.90625 
Q 22.90625 70.703125 40.40625 70.703125 
Q 43 70.703125 45.84375 70.296875 
Q 48.703125 69.90625 51.09375 69.203125 
Q 52.59375 68.90625 52.40625 67.40625 
L 52.203125 63.703125 
Q 52.203125 63 51.703125 62.75 
Q 51.203125 62.5 50.703125 62.703125 
z
" id="NanumGothic-54"/>
       </defs>
       <use xlink:href="#NanumGothic-50"/>
       <use x="60.599991" xlink:href="#NanumGothic-48"/>
       <use x="121.199982" xlink:href="#NanumGothic-49"/>
       <use x="181.799973" xlink:href="#NanumGothic-54"/>
      </g>
     </g>
    </g>
    <g id="xtick_5">
     <g id="line2d_5">
      <g>
       <use style="stroke:#000000;stroke-width:0.8;" x="273.205134" xlink:href="#m34c51327e2" y="224.64"/>
      </g>
     </g>
     <g id="text_5">
      <!-- 2017 -->
      <g transform="translate(261.086384 239.160313)scale(0.1 -0.1)">
       <defs>
        <path d="M 24.203125 -3.296875 
Q 23.5 -4.703125 22.203125 -4.703125 
L 17.203125 -4.703125 
Q 16.59375 -4.703125 16.34375 -4.296875 
Q 16.09375 -3.90625 16.40625 -3.296875 
L 45.5 63.796875 
L 8.40625 63.796875 
Q 7 63.796875 7 65.203125 
L 7 68.5 
Q 7 69.90625 8.40625 69.90625 
L 49.90625 69.90625 
Q 52 69.90625 52.34375 69.546875 
Q 52.703125 69.203125 52.703125 67.09375 
L 52.703125 64.59375 
Q 52.703125 63.796875 52.40625 63.203125 
z
" id="NanumGothic-55"/>
       </defs>
       <use xlink:href="#NanumGothic-50"/>
       <use x="60.599991" xlink:href="#NanumGothic-48"/>
       <use x="121.199982" xlink:href="#NanumGothic-49"/>
       <use x="181.799973" xlink:href="#NanumGothic-55"/>
      </g>
     </g>
    </g>
    <g id="xtick_6">
     <g id="line2d_6">
      <g>
       <use style="stroke:#000000;stroke-width:0.8;" x="321.033705" xlink:href="#m34c51327e2" y="224.64"/>
      </g>
     </g>
     <g id="text_6">
      <!-- 2018 -->
      <g transform="translate(308.914955 239.160313)scale(0.1 -0.1)">
       <defs>
        <path d="M 46 52.5 
Q 46 58.203125 41 61.5 
Q 36.59375 64.59375 30.703125 64.59375 
Q 24.296875 64.59375 19.90625 61.40625 
Q 15.09375 58.203125 15.09375 52.5 
Q 15.09375 47.296875 20.09375 43.09375 
Q 21.5 41.796875 23.84375 40.296875 
Q 26.203125 38.796875 29.40625 37.296875 
Q 30.203125 36.90625 30.703125 36.953125 
Q 31.203125 37 32.203125 37.5 
Q 38.59375 41 42.296875 44.84375 
Q 46 48.703125 46 52.5 
z
M 48.5 15 
Q 48.5 20.5 43.5 24.59375 
Q 41.90625 25.90625 39 27.5 
Q 36.09375 29.09375 31.90625 31 
Q 30.59375 31.703125 29 31 
Q 25.09375 29.5 22.09375 27.84375 
Q 19.09375 26.203125 17.296875 24.796875 
Q 15.296875 22.796875 14.046875 20.140625 
Q 12.796875 17.5 12.796875 14.5 
Q 12.796875 8.40625 18.5 4.5 
Q 23.703125 0.59375 30.703125 0.59375 
Q 37.90625 0.59375 42.796875 4 
Q 48.5 7.90625 48.5 15 
z
M 55.5 14.5 
Q 55.5 9.59375 53.453125 5.6875 
Q 51.40625 1.796875 47.59375 -0.796875 
Q 44.296875 -3 40 -4.203125 
Q 35.703125 -5.40625 30.703125 -5.40625 
Q 25.796875 -5.40625 21.546875 -4.09375 
Q 17.296875 -2.796875 13.796875 -0.5 
Q 10 2.203125 7.890625 6.046875 
Q 5.796875 9.90625 5.796875 14.5 
Q 5.796875 22.296875 11 27.203125 
Q 15 31 23.296875 34.09375 
Q 8.09375 41.59375 8.09375 53.296875 
Q 8.09375 57.5 10.1875 60.75 
Q 12.296875 64 16.09375 66.59375 
Q 19.296875 68.59375 22.9375 69.640625 
Q 26.59375 70.703125 30.703125 70.703125 
Q 35.5 70.703125 39.296875 69.640625 
Q 43.09375 68.59375 46.203125 66.5 
Q 53.09375 61.703125 53.09375 53.296875 
Q 53.09375 42.90625 37.5 34.09375 
Q 41.59375 32.59375 44.84375 30.796875 
Q 48.09375 29 50.09375 27.203125 
Q 55.5 22.40625 55.5 14.5 
z
" id="NanumGothic-56"/>
       </defs>
       <use xlink:href="#NanumGothic-50"/>
       <use x="60.599991" xlink:href="#NanumGothic-48"/>
       <use x="121.199982" xlink:href="#NanumGothic-49"/>
       <use x="181.799973" xlink:href="#NanumGothic-56"/>
      </g>
     </g>
    </g>
    <g id="xtick_7">
     <g id="line2d_7">
      <g>
       <use style="stroke:#000000;stroke-width:0.8;" x="368.862277" xlink:href="#m34c51327e2" y="224.64"/>
      </g>
     </g>
     <g id="text_7">
      <!-- 2019 -->
      <g transform="translate(356.743527 239.160313)scale(0.1 -0.1)">
       <defs>
        <path d="M 46.796875 45.703125 
Q 46.796875 53.5 42.59375 58.796875 
Q 38 64.5 30.40625 64.5 
Q 22.296875 64.5 17.703125 59.40625 
Q 13.203125 54.59375 13.203125 46.59375 
Q 13.203125 38.09375 17.296875 33.40625 
L 17.203125 33.40625 
Q 21.5 28.796875 29.40625 28.796875 
Q 37.59375 28.796875 42.203125 33.40625 
Q 46.796875 38.203125 46.796875 45.703125 
z
M 10.203125 -4 
Q 8.703125 -3.703125 8.90625 -1.703125 
L 9.203125 1.796875 
Q 9.40625 3 10.796875 2.40625 
Q 13.296875 1.40625 15.84375 1 
Q 18.40625 0.59375 21.59375 0.59375 
Q 28.59375 0.59375 33.796875 3.34375 
Q 39 6.09375 42.296875 11.203125 
Q 47.296875 19.59375 47.5 32.5 
Q 41.40625 22.703125 29.40625 22.703125 
Q 20.203125 22.703125 14 27.40625 
Q 6.09375 33.5 6.09375 46.09375 
Q 6.09375 57.203125 12.59375 63.796875 
Q 19.203125 70.703125 30.59375 70.703125 
Q 54.59375 70.703125 54.59375 35.296875 
Q 54.59375 -5.40625 20.90625 -5.40625 
Q 16.296875 -5.40625 10.203125 -4 
z
" id="NanumGothic-57"/>
       </defs>
       <use xlink:href="#NanumGothic-50"/>
       <use x="60.599991" xlink:href="#NanumGothic-48"/>
       <use x="121.199982" xlink:href="#NanumGothic-49"/>
       <use x="181.799973" xlink:href="#NanumGothic-57"/>
      </g>
     </g>
    </g>
    <g id="text_8">
     <!-- 연도 -->
     <g transform="translate(215.976562 252.64)scale(0.1 -0.1)">
      <defs>
       <path d="M 80.5 13.5 
Q 80.5 12.09375 79.09375 12.09375 
L 75 12.09375 
Q 73.59375 12.09375 73.59375 13.5 
L 73.59375 34.90625 
L 51.09375 34.90625 
Q 47.796875 30.90625 42.9375 28.65625 
Q 38.09375 26.40625 32.296875 26.40625 
Q 27.296875 26.40625 23 28.09375 
Q 18.703125 29.796875 15.546875 32.9375 
Q 12.40625 36.09375 10.546875 40.390625 
Q 8.703125 44.703125 8.703125 50 
Q 8.703125 55.5 10.546875 59.890625 
Q 12.40625 64.296875 15.546875 67.390625 
Q 18.703125 70.5 23 72.09375 
Q 27.296875 73.703125 32.296875 73.703125 
Q 38.40625 73.703125 43.75 71.046875 
Q 49.09375 68.40625 52.40625 63.40625 
L 73.59375 63.40625 
L 73.59375 76.796875 
Q 73.59375 78.203125 75 78.203125 
L 79.09375 78.203125 
Q 80.5 78.203125 80.5 76.796875 
L 80.5 13.5 
z
M 49.296875 50.09375 
Q 49.296875 54.296875 47.890625 57.546875 
Q 46.5 60.796875 44.140625 62.9375 
Q 41.796875 65.09375 38.75 66.1875 
Q 35.703125 67.296875 32.296875 67.296875 
Q 28.796875 67.296875 25.796875 66.1875 
Q 22.796875 65.09375 20.546875 62.9375 
Q 18.296875 60.796875 17 57.546875 
Q 15.703125 54.296875 15.703125 50.09375 
Q 15.703125 46.09375 16.953125 42.890625 
Q 18.203125 39.703125 20.390625 37.453125 
Q 22.59375 35.203125 25.640625 33.953125 
Q 28.703125 32.703125 32.296875 32.703125 
Q 35.703125 32.703125 38.75 33.953125 
Q 41.796875 35.203125 44.140625 37.453125 
Q 46.5 39.703125 47.890625 42.890625 
Q 49.296875 46.09375 49.296875 50.09375 
z
M 83.5 -11 
Q 83.5 -11.59375 83 -11.890625 
Q 82.5 -12.203125 82 -12.203125 
L 31.90625 -12.203125 
Q 27.203125 -12.203125 25.75 -10.453125 
Q 24.296875 -8.703125 24.296875 -4.59375 
L 24.296875 15 
Q 24.296875 16.40625 25.703125 16.40625 
L 29.796875 16.40625 
Q 31.203125 16.40625 31.203125 15 
L 31.203125 -4.09375 
Q 31.203125 -5.5 31.640625 -5.84375 
Q 32.09375 -6.203125 33.5 -6.203125 
L 82 -6.203125 
Q 82.5 -6.203125 83 -6.546875 
Q 83.5 -6.90625 83.5 -7.40625 
L 83.5 -11 
z
M 56.296875 50 
Q 56.296875 45 54.59375 40.796875 
L 73.59375 40.796875 
L 73.59375 57.5 
L 55.203125 57.5 
Q 56.296875 53.90625 56.296875 50 
z
" id="NanumGothic-50672"/>
       <path d="M 78.59375 31 
Q 78.59375 29.59375 77.296875 29.59375 
L 50.203125 29.59375 
L 50.203125 7.796875 
L 89.5 7.796875 
Q 90 7.796875 90.5 7.4375 
Q 91 7.09375 91 6.5 
L 91 3.09375 
Q 91 2.59375 90.5 2.1875 
Q 90 1.796875 89.5 1.796875 
L 4.5 1.796875 
Q 3.90625 1.796875 3.453125 2.1875 
Q 3 2.59375 3 3.09375 
L 3 6.5 
Q 3 7.09375 3.453125 7.4375 
Q 3.90625 7.796875 4.5 7.796875 
L 43.296875 7.796875 
L 43.296875 29.59375 
L 23.296875 29.59375 
Q 18.90625 29.59375 17.296875 31.046875 
Q 15.703125 32.5 15.703125 36.703125 
L 15.703125 64.59375 
Q 15.703125 68.796875 17.296875 70.25 
Q 18.90625 71.703125 23.296875 71.703125 
L 76.59375 71.703125 
Q 77.90625 71.703125 77.90625 70.40625 
L 77.90625 67.09375 
Q 77.90625 65.703125 76.59375 65.703125 
L 25 65.703125 
Q 23.59375 65.703125 23.09375 65.09375 
Q 22.59375 64.5 22.59375 63 
L 22.59375 38.203125 
Q 22.59375 36.796875 23.09375 36.1875 
Q 23.59375 35.59375 25 35.59375 
L 77.296875 35.59375 
Q 78.59375 35.59375 78.59375 34.296875 
z
" id="NanumGothic-46020"/>
      </defs>
      <use xlink:href="#NanumGothic-50672"/>
      <use x="93.999985" xlink:href="#NanumGothic-46020"/>
     </g>
    </g>
   </g>
   <g id="matplotlib.axis_2">
    <g id="ytick_1">
     <g id="line2d_8">
      <defs>
       <path d="M 0 0 
L -3.5 0 
" id="m40622f3426" style="stroke:#000000;stroke-width:0.8;"/>
      </defs>
      <g>
       <use style="stroke:#000000;stroke-width:0.8;" x="57.976562" xlink:href="#m40622f3426" y="220.456032"/>
      </g>
     </g>
     <g id="text_9">
      <!-- 5000 -->
      <g transform="translate(26.739062 224.216188)scale(0.1 -0.1)">
       <use xlink:href="#NanumGothic-53"/>
       <use x="60.599991" xlink:href="#NanumGothic-48"/>
       <use x="121.199982" xlink:href="#NanumGothic-48"/>
       <use x="181.799973" xlink:href="#NanumGothic-48"/>
      </g>
     </g>
    </g>
    <g id="ytick_2">
     <g id="line2d_9">
      <g>
       <use style="stroke:#000000;stroke-width:0.8;" x="57.976562" xlink:href="#m40622f3426" y="173.660727"/>
      </g>
     </g>
     <g id="text_10">
      <!-- 10000 -->
      <g transform="translate(20.679688 177.420883)scale(0.1 -0.1)">
       <use xlink:href="#NanumGothic-49"/>
       <use x="60.599991" xlink:href="#NanumGothic-48"/>
       <use x="121.199982" xlink:href="#NanumGothic-48"/>
       <use x="181.799973" xlink:href="#NanumGothic-48"/>
       <use x="242.399963" xlink:href="#NanumGothic-48"/>
      </g>
     </g>
    </g>
    <g id="ytick_3">
     <g id="line2d_10">
      <g>
       <use style="stroke:#000000;stroke-width:0.8;" x="57.976562" xlink:href="#m40622f3426" y="126.865422"/>
      </g>
     </g>
     <g id="text_11">
      <!-- 15000 -->
      <g transform="translate(20.679688 130.625578)scale(0.1 -0.1)">
       <use xlink:href="#NanumGothic-49"/>
       <use x="60.599991" xlink:href="#NanumGothic-53"/>
       <use x="121.199982" xlink:href="#NanumGothic-48"/>
       <use x="181.799973" xlink:href="#NanumGothic-48"/>
       <use x="242.399963" xlink:href="#NanumGothic-48"/>
      </g>
     </g>
    </g>
    <g id="ytick_4">
     <g id="line2d_11">
      <g>
       <use style="stroke:#000000;stroke-width:0.8;" x="57.976562" xlink:href="#m40622f3426" y="80.070117"/>
      </g>
     </g>
     <g id="text_12">
      <!-- 20000 -->
      <g transform="translate(20.679688 83.830273)scale(0.1 -0.1)">
       <use xlink:href="#NanumGothic-50"/>
       <use x="60.599991" xlink:href="#NanumGothic-48"/>
       <use x="121.199982" xlink:href="#NanumGothic-48"/>
       <use x="181.799973" xlink:href="#NanumGothic-48"/>
       <use x="242.399963" xlink:href="#NanumGothic-48"/>
      </g>
     </g>
    </g>
    <g id="ytick_5">
     <g id="line2d_12">
      <g>
       <use style="stroke:#000000;stroke-width:0.8;" x="57.976562" xlink:href="#m40622f3426" y="33.274812"/>
      </g>
     </g>
     <g id="text_13">
      <!-- 25000 -->
      <g transform="translate(20.679688 37.034968)scale(0.1 -0.1)">
       <use xlink:href="#NanumGothic-50"/>
       <use x="60.599991" xlink:href="#NanumGothic-53"/>
       <use x="121.199982" xlink:href="#NanumGothic-48"/>
       <use x="181.799973" xlink:href="#NanumGothic-48"/>
       <use x="242.399963" xlink:href="#NanumGothic-48"/>
      </g>
     </g>
    </g>
    <g id="text_14">
     <!-- 평당분양가격 -->
     <g transform="translate(14.720312 144.12)rotate(-90)scale(0.1 -0.1)">
      <defs>
       <path d="M 81.296875 3.90625 
Q 81.296875 -0.40625 79 -3.796875 
Q 76.703125 -7.203125 72.75 -9.546875 
Q 68.796875 -11.90625 63.546875 -13.15625 
Q 58.296875 -14.40625 52.296875 -14.40625 
Q 45.796875 -14.40625 40.5 -13.15625 
Q 35.203125 -11.90625 31.390625 -9.546875 
Q 27.59375 -7.203125 25.5 -3.796875 
Q 23.40625 -0.40625 23.40625 3.90625 
Q 23.40625 8.09375 25.5 11.4375 
Q 27.59375 14.796875 31.390625 17.140625 
Q 35.203125 19.5 40.5 20.75 
Q 45.796875 22 52.296875 22 
Q 58.296875 22 63.546875 20.75 
Q 68.796875 19.5 72.75 17.203125 
Q 76.703125 14.90625 79 11.546875 
Q 81.296875 8.203125 81.296875 3.90625 
z
M 58.203125 69.203125 
Q 58.203125 67.90625 56.703125 67.90625 
L 48.40625 67.90625 
L 48.40625 36.203125 
Q 51.59375 36.40625 54.6875 36.75 
Q 57.796875 37.09375 60.703125 37.59375 
Q 61.59375 37.796875 61.890625 37.640625 
Q 62.203125 37.5 62.40625 36.796875 
L 63 33.5 
Q 63.09375 32.90625 62.890625 32.59375 
Q 62.703125 32.296875 61.703125 32.09375 
Q 56 31.09375 49 30.640625 
Q 42 30.203125 34.703125 29.796875 
Q 31.90625 29.59375 28.296875 29.546875 
Q 24.703125 29.5 20.890625 29.453125 
Q 17.09375 29.40625 13.390625 29.40625 
Q 9.703125 29.40625 6.796875 29.5 
Q 6.203125 29.5 5.75 29.890625 
Q 5.296875 30.296875 5.296875 30.796875 
L 5.296875 34 
Q 5.296875 34.59375 5.75 34.9375 
Q 6.203125 35.296875 6.796875 35.296875 
L 18.296875 35.296875 
L 18.296875 67.90625 
L 7.5 67.90625 
Q 7 67.90625 6.546875 68.296875 
Q 6.09375 68.703125 6.09375 69.296875 
L 6.09375 72.40625 
Q 6.09375 73 6.546875 73.390625 
Q 7 73.796875 7.5 73.796875 
L 56.703125 73.796875 
Q 58.203125 73.796875 58.203125 72.5 
L 58.203125 69.203125 
z
M 74.203125 3.59375 
Q 74.203125 6.59375 72.390625 8.890625 
Q 70.59375 11.203125 67.546875 12.75 
Q 64.5 14.296875 60.5 15.140625 
Q 56.5 16 52.203125 16 
Q 47.40625 16 43.40625 15.140625 
Q 39.40625 14.296875 36.546875 12.75 
Q 33.703125 11.203125 32.09375 8.890625 
Q 30.5 6.59375 30.5 3.59375 
Q 30.5 0.703125 32.09375 -1.546875 
Q 33.703125 -3.796875 36.546875 -5.296875 
Q 39.40625 -6.796875 43.40625 -7.59375 
Q 47.40625 -8.40625 52.203125 -8.40625 
Q 56.5 -8.40625 60.5 -7.59375 
Q 64.5 -6.796875 67.546875 -5.296875 
Q 70.59375 -3.796875 72.390625 -1.546875 
Q 74.203125 0.703125 74.203125 3.59375 
z
M 73.59375 64 
L 73.59375 76.796875 
Q 73.59375 78.203125 75 78.203125 
L 79.09375 78.203125 
Q 80.5 78.203125 80.5 76.796875 
L 80.5 24.296875 
Q 80.5 22.90625 79.09375 22.90625 
L 75 22.90625 
Q 73.59375 22.90625 73.59375 24.296875 
L 73.59375 42 
L 58.296875 42 
Q 57 42 57 43.203125 
L 57 46.703125 
Q 57 47.90625 58.296875 47.90625 
L 73.59375 47.90625 
L 73.59375 58.09375 
L 58.296875 58.09375 
Q 57 58.09375 57 59.296875 
L 57 62.796875 
Q 57 64 58.296875 64 
z
M 34.5 35.59375 
Q 36.296875 35.59375 38.09375 35.640625 
Q 39.90625 35.703125 41.59375 35.796875 
L 41.59375 67.90625 
L 25.09375 67.90625 
L 25.09375 35.40625 
Q 27.703125 35.5 30.09375 35.5 
Q 32.5 35.5 34.5 35.59375 
z
" id="NanumGothic-54217"/>
       <path d="M 78.203125 3.90625 
Q 78.203125 -0.40625 75.890625 -3.796875 
Q 73.59375 -7.203125 69.640625 -9.546875 
Q 65.703125 -11.90625 60.453125 -13.15625 
Q 55.203125 -14.40625 49.203125 -14.40625 
Q 42.703125 -14.40625 37.390625 -13.15625 
Q 32.09375 -11.90625 28.296875 -9.546875 
Q 24.5 -7.203125 22.390625 -3.796875 
Q 20.296875 -0.40625 20.296875 3.90625 
Q 20.296875 8.09375 22.390625 11.4375 
Q 24.5 14.796875 28.296875 17.140625 
Q 32.09375 19.5 37.390625 20.75 
Q 42.703125 22 49.203125 22 
Q 55.203125 22 60.453125 20.75 
Q 65.703125 19.5 69.640625 17.203125 
Q 73.59375 14.90625 75.890625 11.546875 
Q 78.203125 8.203125 78.203125 3.90625 
z
M 71.09375 3.59375 
Q 71.09375 6.59375 69.296875 8.890625 
Q 67.5 11.203125 64.453125 12.75 
Q 61.40625 14.296875 57.40625 15.140625 
Q 53.40625 16 49.09375 16 
Q 44.296875 16 40.296875 15.140625 
Q 36.296875 14.296875 33.4375 12.75 
Q 30.59375 11.203125 29 8.890625 
Q 27.40625 6.59375 27.40625 3.59375 
Q 27.40625 0.703125 29 -1.546875 
Q 30.59375 -3.796875 33.4375 -5.296875 
Q 36.296875 -6.796875 40.296875 -7.59375 
Q 44.296875 -8.40625 49.09375 -8.40625 
Q 53.40625 -8.40625 57.40625 -7.59375 
Q 61.40625 -6.796875 64.453125 -5.296875 
Q 67.5 -3.796875 69.296875 -1.546875 
Q 71.09375 0.703125 71.09375 3.59375 
z
M 63.59375 36.40625 
Q 63.90625 35.09375 62.40625 34.703125 
Q 59.09375 33.90625 53.640625 33.09375 
Q 48.203125 32.296875 42 31.6875 
Q 35.796875 31.09375 29.546875 30.75 
Q 23.296875 30.40625 18.40625 30.5 
Q 13.90625 30.59375 12.25 32.59375 
Q 10.59375 34.59375 10.59375 38.796875 
L 10.59375 66.90625 
Q 10.59375 71.09375 12.1875 72.5 
Q 13.796875 73.90625 18.203125 73.90625 
L 52.296875 73.90625 
Q 53.59375 73.90625 53.59375 72.703125 
L 53.59375 69.09375 
Q 53.59375 67.90625 52.296875 67.90625 
L 19.5 67.90625 
Q 18.09375 67.90625 17.796875 67.546875 
Q 17.5 67.203125 17.5 65.703125 
L 17.5 39.296875 
Q 17.5 37.796875 18 37.25 
Q 18.5 36.703125 19.90625 36.703125 
Q 25 36.703125 30.390625 36.953125 
Q 35.796875 37.203125 41.09375 37.703125 
Q 46.40625 38.203125 51.5 38.890625 
Q 56.59375 39.59375 61.09375 40.5 
Q 62.09375 40.703125 62.4375 40.390625 
Q 62.796875 40.09375 63 39.5 
z
M 77 24.296875 
Q 77 22.90625 75.59375 22.90625 
L 71.5 22.90625 
Q 70.09375 22.90625 70.09375 24.296875 
L 70.09375 76.796875 
Q 70.09375 78.203125 71.5 78.203125 
L 75.59375 78.203125 
Q 77 78.203125 77 76.796875 
L 77 53 
L 90.796875 53 
Q 91.40625 53 91.84375 52.640625 
Q 92.296875 52.296875 92.296875 51.703125 
L 92.296875 48.296875 
Q 92.296875 47.796875 91.84375 47.390625 
Q 91.40625 47 90.796875 47 
L 77 47 
L 77 24.296875 
z
" id="NanumGothic-45817"/>
       <path d="M 25 41.203125 
Q 22.59375 41.203125 21.140625 41.5 
Q 19.703125 41.796875 18.890625 42.640625 
Q 18.09375 43.5 17.796875 44.84375 
Q 17.5 46.203125 17.5 48.296875 
L 17.5 75.59375 
Q 17.5 76.09375 17.890625 76.4375 
Q 18.296875 76.796875 18.796875 76.796875 
L 23.09375 76.796875 
Q 23.59375 76.796875 23.9375 76.390625 
Q 24.296875 76 24.296875 75.59375 
L 24.296875 65.296875 
L 69.703125 65.296875 
L 69.703125 75.5 
Q 69.703125 76 70.046875 76.390625 
Q 70.40625 76.796875 70.90625 76.796875 
L 75.203125 76.796875 
Q 75.703125 76.796875 76.09375 76.4375 
Q 76.5 76.09375 76.5 75.59375 
L 76.5 47.59375 
Q 76.5 43.796875 74.890625 42.5 
Q 73.296875 41.203125 68.90625 41.203125 
z
M 45.5 4.09375 
Q 45 4.09375 44.59375 4.546875 
Q 44.203125 5 44.203125 5.59375 
L 44.203125 25.40625 
L 4.5 25.40625 
Q 3.90625 25.40625 3.453125 25.796875 
Q 3 26.203125 3 26.703125 
L 3 30.09375 
Q 3 30.703125 3.453125 31.046875 
Q 3.90625 31.40625 4.5 31.40625 
L 89.5 31.40625 
Q 90 31.40625 90.5 31.046875 
Q 91 30.703125 91 30.09375 
L 91 26.703125 
Q 91 26.203125 90.5 25.796875 
Q 90 25.40625 89.5 25.40625 
L 51.09375 25.40625 
L 51.09375 5.59375 
Q 51.09375 5 50.75 4.546875 
Q 50.40625 4.09375 49.796875 4.09375 
z
M 24.296875 59.40625 
L 24.296875 49.5 
Q 24.296875 48 24.796875 47.546875 
Q 25.296875 47.09375 26.703125 47.09375 
L 67.296875 47.09375 
Q 68.703125 47.09375 69.203125 47.546875 
Q 69.703125 48 69.703125 49.5 
L 69.703125 59.40625 
z
M 80.203125 -11 
Q 80.203125 -11.59375 79.703125 -11.890625 
Q 79.203125 -12.203125 78.703125 -12.203125 
L 23.59375 -12.203125 
Q 18.90625 -12.203125 17.453125 -10.25 
Q 16 -8.296875 16 -4.203125 
L 16 14.296875 
Q 16 15.703125 17.40625 15.703125 
L 21.5 15.703125 
Q 22.90625 15.703125 22.90625 14.296875 
L 22.90625 -4.09375 
Q 22.90625 -5.5 23.34375 -5.84375 
Q 23.796875 -6.203125 25.203125 -6.203125 
L 78.703125 -6.203125 
Q 79.203125 -6.203125 79.703125 -6.546875 
Q 80.203125 -6.90625 80.203125 -7.40625 
L 80.203125 -11 
z
" id="NanumGothic-48516"/>
       <path d="M 55.5 52 
Q 55.5 47 53.703125 42.84375 
Q 51.90625 38.703125 48.75 35.703125 
Q 45.59375 32.703125 41.25 31 
Q 36.90625 29.296875 31.703125 29.296875 
Q 26.703125 29.296875 22.390625 30.9375 
Q 18.09375 32.59375 14.9375 35.59375 
Q 11.796875 38.59375 10.046875 42.796875 
Q 8.296875 47 8.296875 52 
Q 8.296875 57.296875 10.046875 61.546875 
Q 11.796875 65.796875 14.9375 68.75 
Q 18.09375 71.703125 22.390625 73.25 
Q 26.703125 74.796875 31.703125 74.796875 
Q 36.5 74.796875 40.796875 73.25 
Q 45.09375 71.703125 48.34375 68.796875 
Q 51.59375 65.90625 53.546875 61.65625 
Q 55.5 57.40625 55.5 52 
z
M 78.203125 3.90625 
Q 78.203125 -0.40625 75.890625 -3.796875 
Q 73.59375 -7.203125 69.640625 -9.546875 
Q 65.703125 -11.90625 60.453125 -13.15625 
Q 55.203125 -14.40625 49.203125 -14.40625 
Q 42.703125 -14.40625 37.390625 -13.15625 
Q 32.09375 -11.90625 28.296875 -9.546875 
Q 24.5 -7.203125 22.390625 -3.796875 
Q 20.296875 -0.40625 20.296875 3.90625 
Q 20.296875 8.09375 22.390625 11.4375 
Q 24.5 14.796875 28.296875 17.140625 
Q 32.09375 19.5 37.390625 20.75 
Q 42.703125 22 49.203125 22 
Q 55.203125 22 60.453125 20.75 
Q 65.703125 19.5 69.640625 17.203125 
Q 73.59375 14.90625 75.890625 11.546875 
Q 78.203125 8.203125 78.203125 3.90625 
z
M 48.5 52.09375 
Q 48.5 56.09375 47.140625 59.140625 
Q 45.796875 62.203125 43.5 64.25 
Q 41.203125 66.296875 38.140625 67.34375 
Q 35.09375 68.40625 31.703125 68.40625 
Q 28.203125 68.40625 25.203125 67.34375 
Q 22.203125 66.296875 20 64.25 
Q 17.796875 62.203125 16.546875 59.140625 
Q 15.296875 56.09375 15.296875 52.09375 
Q 15.296875 48.296875 16.5 45.296875 
Q 17.703125 42.296875 19.84375 40.09375 
Q 22 37.90625 25 36.75 
Q 28 35.59375 31.703125 35.59375 
Q 35.09375 35.59375 38.140625 36.75 
Q 41.203125 37.90625 43.5 40.09375 
Q 45.796875 42.296875 47.140625 45.296875 
Q 48.5 48.296875 48.5 52.09375 
z
M 71.09375 3.59375 
Q 71.09375 6.59375 69.296875 8.890625 
Q 67.5 11.203125 64.453125 12.75 
Q 61.40625 14.296875 57.40625 15.140625 
Q 53.40625 16 49.09375 16 
Q 44.296875 16 40.296875 15.140625 
Q 36.296875 14.296875 33.4375 12.75 
Q 30.59375 11.203125 29 8.890625 
Q 27.40625 6.59375 27.40625 3.59375 
Q 27.40625 0.703125 29 -1.546875 
Q 30.59375 -3.796875 33.4375 -5.296875 
Q 36.296875 -6.796875 40.296875 -7.59375 
Q 44.296875 -8.40625 49.09375 -8.40625 
Q 53.40625 -8.40625 57.40625 -7.59375 
Q 61.40625 -6.796875 64.453125 -5.296875 
Q 67.5 -3.796875 69.296875 -1.546875 
Q 71.09375 0.703125 71.09375 3.59375 
z
M 77 24.59375 
Q 77 23.203125 75.59375 23.203125 
L 71.5 23.203125 
Q 70.09375 23.203125 70.09375 24.59375 
L 70.09375 76.796875 
Q 70.09375 78.203125 71.5 78.203125 
L 75.59375 78.203125 
Q 77 78.203125 77 76.796875 
L 77 60.59375 
L 90.796875 60.59375 
Q 91.40625 60.59375 91.84375 60.25 
Q 92.296875 59.90625 92.296875 59.296875 
L 92.296875 56 
Q 92.296875 55.5 91.84375 55.09375 
Q 91.40625 54.703125 90.796875 54.703125 
L 77 54.703125 
L 77 42.703125 
L 90.796875 42.703125 
Q 91.40625 42.703125 91.84375 42.34375 
Q 92.296875 42 92.296875 41.40625 
L 92.296875 38.09375 
Q 92.296875 37.59375 91.84375 37.1875 
Q 91.40625 36.796875 90.796875 36.796875 
L 77 36.796875 
L 77 24.59375 
z
" id="NanumGothic-50577"/>
       <path d="M 50.703125 63.5 
Q 50.203125 54.90625 47.296875 46.59375 
Q 44.40625 38.296875 39.25 30.75 
Q 34.09375 23.203125 26.84375 16.75 
Q 19.59375 10.296875 10.40625 5.40625 
Q 9.09375 4.703125 8.5 5.703125 
L 6.296875 9.203125 
Q 5.59375 10.40625 6.703125 10.90625 
Q 15.203125 15.296875 21.75 20.9375 
Q 28.296875 26.59375 32.9375 33.1875 
Q 37.59375 39.796875 40.296875 47.09375 
Q 43 54.40625 43.703125 62.09375 
Q 43.90625 63.59375 43.296875 64.140625 
Q 42.703125 64.703125 41.296875 64.703125 
L 10.296875 64.703125 
Q 9.09375 64.703125 9.09375 66 
L 9.09375 69.5 
Q 9.09375 70.703125 10.296875 70.703125 
L 43.203125 70.703125 
Q 47.90625 70.703125 49.40625 68.953125 
Q 50.90625 67.203125 50.703125 63.5 
z
M 77 -12.59375 
Q 77 -14 75.59375 -14 
L 71.5 -14 
Q 70.09375 -14 70.09375 -12.59375 
L 70.09375 76.796875 
Q 70.09375 78.203125 71.5 78.203125 
L 75.59375 78.203125 
Q 77 78.203125 77 76.796875 
L 77 41.40625 
L 90.796875 41.40625 
Q 91.40625 41.40625 91.84375 41.046875 
Q 92.296875 40.703125 92.296875 40.09375 
L 92.296875 36.703125 
Q 92.296875 36.203125 91.84375 35.796875 
Q 91.40625 35.40625 90.796875 35.40625 
L 77 35.40625 
L 77 -12.59375 
z
" id="NanumGothic-44032"/>
       <path d="M 53.5 65.796875 
Q 53 62.90625 52.296875 60.40625 
L 73.59375 60.40625 
L 73.59375 76.796875 
Q 73.59375 78.203125 75 78.203125 
L 79.09375 78.203125 
Q 80.5 78.203125 80.5 76.796875 
L 80.5 25.59375 
Q 80.5 24.203125 79.09375 24.203125 
L 75 24.203125 
Q 73.59375 24.203125 73.59375 25.59375 
L 73.59375 36.5 
L 48.203125 36.5 
Q 46.90625 36.5 46.90625 37.703125 
L 46.90625 41.203125 
Q 46.90625 42.40625 48.203125 42.40625 
L 73.59375 42.40625 
L 73.59375 54.5 
L 50.203125 54.5 
Q 46 44.703125 37.09375 36.84375 
Q 28.203125 29 13.59375 22.90625 
Q 12 22.203125 11.40625 23.5 
L 9.90625 26.796875 
Q 9.5 27.59375 9.84375 28.09375 
Q 10.203125 28.59375 10.703125 28.796875 
Q 26.59375 35.40625 35.34375 44.5 
Q 44.09375 53.59375 46 64.09375 
Q 46.59375 66.90625 43.59375 66.90625 
L 13.40625 66.90625 
Q 12.203125 66.90625 12.203125 68.203125 
L 12.203125 71.703125 
Q 12.203125 72.90625 13.40625 72.90625 
L 45.90625 72.90625 
Q 50.703125 72.90625 52.390625 71.203125 
Q 54.09375 69.5 53.5 65.796875 
z
M 22.203125 18.203125 
Q 22.203125 18.796875 22.703125 19.09375 
Q 23.203125 19.40625 23.703125 19.40625 
L 72.90625 19.40625 
Q 77.59375 19.40625 79.046875 17.65625 
Q 80.5 15.90625 80.5 11.796875 
L 80.5 -13 
Q 80.5 -14.40625 79.09375 -14.40625 
L 75 -14.40625 
Q 73.59375 -14.40625 73.59375 -13 
L 73.59375 11.296875 
Q 73.59375 12.703125 73.140625 13.046875 
Q 72.703125 13.40625 71.296875 13.40625 
L 23.703125 13.40625 
Q 23.203125 13.40625 22.703125 13.75 
Q 22.203125 14.09375 22.203125 14.59375 
L 22.203125 18.203125 
z
" id="NanumGothic-44201"/>
      </defs>
      <use xlink:href="#NanumGothic-54217"/>
      <use x="93.999985" xlink:href="#NanumGothic-45817"/>
      <use x="187.999969" xlink:href="#NanumGothic-48516"/>
      <use x="281.999954" xlink:href="#NanumGothic-50577"/>
      <use x="375.999939" xlink:href="#NanumGothic-44032"/>
      <use x="469.999924" xlink:href="#NanumGothic-44201"/>
     </g>
    </g>
   </g>
   <g id="line2d_13">
    <path clip-path="url(#p0a6998a4d3)" d="M 62.75942 196.113114 
L 101.022277 196.113114 
" style="fill:none;stroke:#262626;stroke-opacity:0.45;stroke-width:1.5;"/>
   </g>
   <g id="line2d_14">
    <path clip-path="url(#p0a6998a4d3)" d="M 110.587991 194.030723 
L 148.850848 194.030723 
" style="fill:none;stroke:#262626;stroke-opacity:0.45;stroke-width:1.5;"/>
   </g>
   <g id="line2d_15">
    <path clip-path="url(#p0a6998a4d3)" d="M 158.416562 193.183728 
L 196.67942 193.183728 
" style="fill:none;stroke:#262626;stroke-opacity:0.45;stroke-width:1.5;"/>
   </g>
   <g id="line2d_16">
    <path clip-path="url(#p0a6998a4d3)" d="M 206.245134 184.634226 
L 244.507991 184.634226 
" style="fill:none;stroke:#262626;stroke-opacity:0.45;stroke-width:1.5;"/>
   </g>
   <g id="line2d_17">
    <path clip-path="url(#p0a6998a4d3)" d="M 254.073705 182.657592 
L 292.336563 182.657592 
" style="fill:none;stroke:#262626;stroke-opacity:0.45;stroke-width:1.5;"/>
   </g>
   <g id="line2d_18">
    <path clip-path="url(#p0a6998a4d3)" d="M 301.902277 175.46141 
L 340.165134 175.46141 
" style="fill:none;stroke:#262626;stroke-opacity:0.45;stroke-width:1.5;"/>
   </g>
   <g id="line2d_19">
    <path clip-path="url(#p0a6998a4d3)" d="M 349.730848 161.501435 
L 387.993705 161.501435 
" style="fill:none;stroke:#262626;stroke-opacity:0.45;stroke-width:1.5;"/>
   </g>
   <g id="patch_3">
    <path d="M 57.976562 224.64 
L 57.976562 7.2 
" style="fill:none;stroke:#000000;stroke-linecap:square;stroke-linejoin:miter;stroke-width:0.8;"/>
   </g>
   <g id="patch_4">
    <path d="M 392.776563 224.64 
L 392.776563 7.2 
" style="fill:none;stroke:#000000;stroke-linecap:square;stroke-linejoin:miter;stroke-width:0.8;"/>
   </g>
   <g id="patch_5">
    <path d="M 57.976562 224.64 
L 392.776563 224.64 
" style="fill:none;stroke:#000000;stroke-linecap:square;stroke-linejoin:miter;stroke-width:0.8;"/>
   </g>
   <g id="patch_6">
    <path d="M 57.976562 7.2 
L 392.776563 7.2 
" style="fill:none;stroke:#000000;stroke-linecap:square;stroke-linejoin:miter;stroke-width:0.8;"/>
   </g>
  </g>
 </g>
 <defs>
  <clipPath id="p0a6998a4d3">
   <rect height="217.44" width="334.8" x="57.976562" y="7.2"/>
  </clipPath>
 </defs>
</svg>
