<?xml version="1.0" encoding="utf-8" standalone="no"?>
<!DOCTYPE svg PUBLIC "-//W3C//DTD SVG 1.1//EN"
  "http://www.w3.org/Graphics/SVG/1.1/DTD/svg11.dtd">
<!-- Created with matplotlib (https://matplotlib.org/) -->
<svg height="261.799375pt" version="1.1" viewBox="0 0 399.976562 261.799375" width="399.976562pt" xmlns="http://www.w3.org/2000/svg" xmlns:xlink="http://www.w3.org/1999/xlink">
 <metadata>
  <rdf:RDF xmlns:cc="http://creativecommons.org/ns#" xmlns:dc="http://purl.org/dc/elements/1.1/" xmlns:rdf="http://www.w3.org/1999/02/22-rdf-syntax-ns#">
   <cc:Work>
    <dc:type rdf:resource="http://purl.org/dc/dcmitype/StillImage"/>
    <dc:date>2020-11-12T23:33:19.035333</dc:date>
    <dc:format>image/svg+xml</dc:format>
    <dc:creator>
     <cc:Agent>
      <dc:title>Matplotlib v3.3.2, https://matplotlib.org/</dc:title>
     </cc:Agent>
    </dc:creator>
   </cc:Work>
  </rdf:RDF>
 </metadata>
 <defs>
  <style type="text/css">*{stroke-linecap:butt;stroke-linejoin:round;}</style>
 </defs>
 <g id="figure_1">
  <g id="patch_1">
   <path d="M 0 261.799375 
L 399.976562 261.799375 
L 399.976562 0 
L 0 0 
z
" style="fill:none;"/>
  </g>
  <g id="axes_1">
   <g id="patch_2">
    <path d="M 57.976562 224.64 
L 392.776563 224.64 
L 392.776563 7.2 
L 57.976562 7.2 
z
" style="fill:#ffffff;"/>
   </g>
   <g id="PolyCollection_1">
    <defs>
     <path d="M 91.9727 -47.043011 
L 90.940425 -47.043011 
L 90.621289 -48.101513 
L 90.150749 -49.160015 
L 89.483415 -50.218517 
L 88.573093 -51.277019 
L 87.378869 -52.335521 
L 85.872654 -53.394023 
L 84.047153 -54.452525 
L 81.92279 -55.511026 
L 79.551933 -56.569528 
L 77.019031 -57.62803 
L 74.435836 -58.686532 
L 71.931879 -59.745034 
L 69.641333 -60.803536 
L 67.688254 -61.862038 
L 66.172609 -62.92054 
L 65.159397 -63.979042 
L 64.672562 -65.037543 
L 64.694543 -66.096045 
L 65.171245 -67.154547 
L 66.02144 -68.213049 
L 67.148917 -69.271551 
L 68.455427 -70.330053 
L 69.85243 -71.388555 
L 71.269896 -72.447057 
L 72.660972 -73.505558 
L 74.002095 -74.56406 
L 75.289062 -75.622562 
L 76.530369 -76.681064 
L 77.739644 -77.739566 
L 78.929007 -78.798068 
L 80.104667 -79.85657 
L 81.265297 -80.915072 
L 82.402859 -81.973574 
L 83.504969 -83.032075 
L 84.557728 -84.090577 
L 85.548119 -85.149079 
L 86.46551 -86.207581 
L 87.302235 -87.266083 
L 88.053514 -88.324585 
L 88.717102 -89.383087 
L 89.292935 -90.441589 
L 89.78293 -91.500091 
L 90.190899 -92.558592 
L 90.522477 -93.617094 
L 90.784931 -94.675596 
L 90.986807 -95.734098 
L 91.1374 -96.7926 
L 91.246136 -97.851102 
L 91.321962 -98.909604 
L 91.372841 -99.968106 
L 91.405407 -101.026608 
L 91.424784 -102.085109 
L 91.434551 -103.143611 
L 91.436793 -104.202113 
L 91.432195 -105.260615 
L 91.420156 -106.319117 
L 91.398904 -107.377619 
L 91.365672 -108.436121 
L 91.316952 -109.494623 
L 91.248905 -110.553124 
L 91.157939 -111.611626 
L 91.041441 -112.670128 
L 90.89859 -113.72863 
L 90.731097 -114.787132 
L 90.543701 -115.845634 
L 90.344218 -116.904136 
L 90.143041 -117.962638 
L 89.952071 -119.02114 
L 89.783217 -120.079641 
L 89.646754 -121.138143 
L 89.549897 -122.196645 
L 89.49592 -123.255147 
L 89.484047 -124.313649 
L 89.510122 -125.372151 
L 89.567837 -126.430653 
L 89.650164 -127.489155 
L 89.750584 -128.547657 
L 89.863813 -129.606158 
L 89.985909 -130.66466 
L 90.113896 -131.723162 
L 90.245154 -132.781664 
L 90.376905 -133.840166 
L 90.50601 -134.898668 
L 90.62916 -135.95717 
L 90.743331 -137.015672 
L 90.846312 -138.074174 
L 90.937076 -139.132675 
L 91.015841 -140.191177 
L 91.083825 -141.249679 
L 91.142784 -142.308181 
L 91.194502 -143.366683 
L 91.240403 -144.425185 
L 91.28135 -145.483687 
L 91.317681 -146.542189 
L 91.349377 -147.60069 
L 91.376307 -148.659192 
L 91.398427 -149.717694 
L 91.41591 -150.776196 
L 91.429164 -151.834698 
L 91.483961 -151.834698 
L 91.483961 -151.834698 
L 91.497215 -150.776196 
L 91.514698 -149.717694 
L 91.536818 -148.659192 
L 91.563748 -147.60069 
L 91.595444 -146.542189 
L 91.631775 -145.483687 
L 91.672722 -144.425185 
L 91.718623 -143.366683 
L 91.770341 -142.308181 
L 91.8293 -141.249679 
L 91.897284 -140.191177 
L 91.976049 -139.132675 
L 92.066813 -138.074174 
L 92.169794 -137.015672 
L 92.283965 -135.95717 
L 92.407115 -134.898668 
L 92.53622 -133.840166 
L 92.667971 -132.781664 
L 92.799229 -131.723162 
L 92.927216 -130.66466 
L 93.049312 -129.606158 
L 93.162541 -128.547657 
L 93.262961 -127.489155 
L 93.345288 -126.430653 
L 93.403003 -125.372151 
L 93.429078 -124.313649 
L 93.417205 -123.255147 
L 93.363228 -122.196645 
L 93.266371 -121.138143 
L 93.129908 -120.079641 
L 92.961054 -119.02114 
L 92.770084 -117.962638 
L 92.568907 -116.904136 
L 92.369424 -115.845634 
L 92.182028 -114.787132 
L 92.014535 -113.72863 
L 91.871684 -112.670128 
L 91.755186 -111.611626 
L 91.66422 -110.553124 
L 91.596173 -109.494623 
L 91.547453 -108.436121 
L 91.514221 -107.377619 
L 91.492969 -106.319117 
L 91.48093 -105.260615 
L 91.476332 -104.202113 
L 91.478574 -103.143611 
L 91.488341 -102.085109 
L 91.507718 -101.026608 
L 91.540284 -99.968106 
L 91.591163 -98.909604 
L 91.666989 -97.851102 
L 91.775725 -96.7926 
L 91.926318 -95.734098 
L 92.128194 -94.675596 
L 92.390648 -93.617094 
L 92.722226 -92.558592 
L 93.130195 -91.500091 
L 93.62019 -90.441589 
L 94.196023 -89.383087 
L 94.859611 -88.324585 
L 95.61089 -87.266083 
L 96.447615 -86.207581 
L 97.365006 -85.149079 
L 98.355397 -84.090577 
L 99.408156 -83.032075 
L 100.510266 -81.973574 
L 101.647828 -80.915072 
L 102.808458 -79.85657 
L 103.984118 -78.798068 
L 105.173481 -77.739566 
L 106.382756 -76.681064 
L 107.624063 -75.622562 
L 108.91103 -74.56406 
L 110.252153 -73.505558 
L 111.643229 -72.447057 
L 113.060695 -71.388555 
L 114.457698 -70.330053 
L 115.764208 -69.271551 
L 116.891685 -68.213049 
L 117.74188 -67.154547 
L 118.218582 -66.096045 
L 118.240563 -65.037543 
L 117.753728 -63.979042 
L 116.740516 -62.92054 
L 115.224871 -61.862038 
L 113.271792 -60.803536 
L 110.981246 -59.745034 
L 108.477289 -58.686532 
L 105.894094 -57.62803 
L 103.361192 -56.569528 
L 100.990335 -55.511026 
L 98.865972 -54.452525 
L 97.040471 -53.394023 
L 95.534256 -52.335521 
L 94.340032 -51.277019 
L 93.42971 -50.218517 
L 92.762376 -49.160015 
L 92.291836 -48.101513 
L 91.9727 -47.043011 
z
" id="m9d223d6f59" style="stroke:#3d3d3d;stroke-width:1.5;"/>
    </defs>
    <g clip-path="url(#pade363eff3)">
     <use style="fill:#3274a1;stroke:#3d3d3d;stroke-width:1.5;" x="0" xlink:href="#m9d223d6f59" y="261.799375"/>
    </g>
   </g>
   <g id="PolyCollection_2">
    <defs>
     <path d="M 158.983163 -49.342826 
L 157.849962 -49.342826 
L 157.378481 -50.522892 
L 156.630798 -51.702957 
L 155.526536 -52.883022 
L 154.006526 -54.063088 
L 152.05511 -55.243153 
L 149.717107 -56.423218 
L 147.102104 -57.603284 
L 144.37215 -58.783349 
L 141.714693 -59.963415 
L 139.308166 -61.14348 
L 137.290682 -62.323545 
L 135.741527 -63.503611 
L 134.680464 -64.683676 
L 134.082563 -65.863741 
L 133.899462 -67.043807 
L 134.075705 -68.223872 
L 134.553422 -69.403937 
L 135.268074 -70.584003 
L 136.145602 -71.764068 
L 137.110645 -72.944133 
L 138.106144 -74.124199 
L 139.113478 -75.304264 
L 140.158647 -76.484329 
L 141.297273 -77.664395 
L 142.584349 -78.84446 
L 144.043914 -80.024525 
L 145.653198 -81.204591 
L 147.346643 -82.384656 
L 149.03481 -83.564721 
L 150.627716 -84.744787 
L 152.05345 -85.924852 
L 153.26792 -87.104917 
L 154.256388 -88.284983 
L 155.029644 -89.465048 
L 155.61751 -90.645113 
L 156.061211 -91.825179 
L 156.405336 -93.005244 
L 156.690154 -94.18531 
L 156.945423 -95.365375 
L 157.187097 -96.54544 
L 157.41776 -97.725506 
L 157.630493 -98.905571 
L 157.814685 -100.085636 
L 157.961674 -101.265702 
L 158.068442 -102.445767 
L 158.138562 -103.625832 
L 158.180718 -104.805898 
L 158.20583 -105.985963 
L 158.224039 -107.166028 
L 158.242506 -108.346094 
L 158.264485 -109.526159 
L 158.289615 -110.706224 
L 158.314963 -111.88629 
L 158.33619 -113.066355 
L 158.34833 -114.24642 
L 158.345926 -115.426486 
L 158.322716 -116.606551 
L 158.2713 -117.786616 
L 158.183355 -118.966682 
L 158.050786 -120.146747 
L 157.867824 -121.326812 
L 157.633667 -122.506878 
L 157.354915 -123.686943 
L 157.046953 -124.867008 
L 156.733602 -126.047074 
L 156.444749 -127.227139 
L 156.212142 -128.407205 
L 156.064008 -129.58727 
L 156.019541 -130.767335 
L 156.084567 -131.947401 
L 156.249612 -133.127466 
L 156.491224 -134.307531 
L 156.776482 -135.487597 
L 157.069697 -136.667662 
L 157.339472 -137.847727 
L 157.564177 -139.027793 
L 157.734401 -140.207858 
L 157.852067 -141.387923 
L 157.926983 -142.567989 
L 157.972307 -143.748054 
L 158.000545 -144.928119 
L 158.021119 -146.108185 
L 158.039789 -147.28825 
L 158.059427 -148.468315 
L 158.081262 -149.648381 
L 158.105844 -150.828446 
L 158.133395 -152.008511 
L 158.163718 -153.188577 
L 158.196052 -154.368642 
L 158.229149 -155.548707 
L 158.261573 -156.728773 
L 158.292039 -157.908838 
L 158.319602 -159.088903 
L 158.343665 -160.268969 
L 158.363907 -161.449034 
L 158.380227 -162.6291 
L 158.392746 -163.809165 
L 158.401812 -164.98923 
L 158.407967 -166.169296 
L 158.425158 -166.169296 
L 158.425158 -166.169296 
L 158.431313 -164.98923 
L 158.440379 -163.809165 
L 158.452898 -162.6291 
L 158.469218 -161.449034 
L 158.48946 -160.268969 
L 158.513523 -159.088903 
L 158.541086 -157.908838 
L 158.571552 -156.728773 
L 158.603976 -155.548707 
L 158.637073 -154.368642 
L 158.669407 -153.188577 
L 158.69973 -152.008511 
L 158.727281 -150.828446 
L 158.751863 -149.648381 
L 158.773698 -148.468315 
L 158.793336 -147.28825 
L 158.812006 -146.108185 
L 158.83258 -144.928119 
L 158.860818 -143.748054 
L 158.906142 -142.567989 
L 158.981058 -141.387923 
L 159.098724 -140.207858 
L 159.268948 -139.027793 
L 159.493653 -137.847727 
L 159.763428 -136.667662 
L 160.056643 -135.487597 
L 160.341901 -134.307531 
L 160.583513 -133.127466 
L 160.748558 -131.947401 
L 160.813584 -130.767335 
L 160.769117 -129.58727 
L 160.620983 -128.407205 
L 160.388376 -127.227139 
L 160.099523 -126.047074 
L 159.786172 -124.867008 
L 159.47821 -123.686943 
L 159.199458 -122.506878 
L 158.965301 -121.326812 
L 158.782339 -120.146747 
L 158.64977 -118.966682 
L 158.561825 -117.786616 
L 158.510409 -116.606551 
L 158.487199 -115.426486 
L 158.484795 -114.24642 
L 158.496935 -113.066355 
L 158.518162 -111.88629 
L 158.54351 -110.706224 
L 158.56864 -109.526159 
L 158.590619 -108.346094 
L 158.609086 -107.166028 
L 158.627295 -105.985963 
L 158.652407 -104.805898 
L 158.694563 -103.625832 
L 158.764683 -102.445767 
L 158.871451 -101.265702 
L 159.01844 -100.085636 
L 159.202632 -98.905571 
L 159.415365 -97.725506 
L 159.646028 -96.54544 
L 159.887702 -95.365375 
L 160.142971 -94.18531 
L 160.427789 -93.005244 
L 160.771914 -91.825179 
L 161.215615 -90.645113 
L 161.803481 -89.465048 
L 162.576737 -88.284983 
L 163.565205 -87.104917 
L 164.779675 -85.924852 
L 166.205409 -84.744787 
L 167.798315 -83.564721 
L 169.486482 -82.384656 
L 171.179927 -81.204591 
L 172.789211 -80.024525 
L 174.248776 -78.84446 
L 175.535852 -77.664395 
L 176.674478 -76.484329 
L 177.719647 -75.304264 
L 178.726981 -74.124199 
L 179.72248 -72.944133 
L 180.687523 -71.764068 
L 181.565051 -70.584003 
L 182.279703 -69.403937 
L 182.75742 -68.223872 
L 182.933663 -67.043807 
L 182.750562 -65.863741 
L 182.152661 -64.683676 
L 181.091598 -63.503611 
L 179.542443 -62.323545 
L 177.524959 -61.14348 
L 175.118432 -59.963415 
L 172.460975 -58.783349 
L 169.731021 -57.603284 
L 167.116018 -56.423218 
L 164.778015 -55.243153 
L 162.826599 -54.063088 
L 161.306589 -52.883022 
L 160.202327 -51.702957 
L 159.454644 -50.522892 
L 158.983163 -49.342826 
z
" id="mb3849a256a" style="stroke:#3d3d3d;stroke-width:1.5;"/>
    </defs>
    <g clip-path="url(#pade363eff3)">
     <use style="fill:#e1812c;stroke:#3d3d3d;stroke-width:1.5;" x="0" xlink:href="#mb3849a256a" y="261.799375"/>
    </g>
   </g>
   <g id="PolyCollection_3">
    <defs>
     <path d="M 225.792848 -50.107203 
L 224.960277 -50.107203 
L 224.619118 -51.250256 
L 224.071419 -52.393308 
L 223.245077 -53.536361 
L 222.074108 -54.679414 
L 220.517052 -55.822467 
L 218.576776 -56.965519 
L 216.315278 -58.108572 
L 213.856522 -59.251625 
L 211.372855 -60.394677 
L 209.055787 -61.53773 
L 207.078241 -62.680783 
L 205.559769 -63.823835 
L 204.546325 -64.966888 
L 204.011151 -66.109941 
L 203.875155 -67.252993 
L 204.037514 -68.396046 
L 204.404073 -69.539099 
L 204.903837 -70.682152 
L 205.49089 -71.825204 
L 206.136376 -72.968257 
L 206.81872 -74.11131 
L 207.518726 -75.254362 
L 208.221196 -76.397415 
L 208.919962 -77.540468 
L 209.62141 -78.68352 
L 210.343285 -79.826573 
L 211.108842 -80.969626 
L 211.938928 -82.112679 
L 212.845033 -83.255731 
L 213.825214 -84.398784 
L 214.863324 -85.541837 
L 215.931192 -86.684889 
L 216.993114 -87.827942 
L 218.0119 -88.970995 
L 218.955293 -90.114047 
L 219.801133 -91.2571 
L 220.539726 -92.400153 
L 221.172752 -93.543206 
L 221.709356 -94.686258 
L 222.161195 -95.829311 
L 222.538557 -96.972364 
L 222.848977 -98.115416 
L 223.098454 -99.258469 
L 223.294081 -100.401522 
L 223.446279 -101.544574 
L 223.569157 -102.687627 
L 223.678647 -103.83068 
L 223.789218 -104.973732 
L 223.910682 -106.116785 
L 224.046469 -107.259838 
L 224.193917 -108.402891 
L 224.34621 -109.545943 
L 224.494948 -110.688996 
L 224.63234 -111.832049 
L 224.752388 -112.975101 
L 224.851066 -114.118154 
L 224.925875 -115.261207 
L 224.975255 -116.404259 
L 224.998122 -117.547312 
L 224.993515 -118.690365 
L 224.960215 -119.833418 
L 224.896307 -120.97647 
L 224.798936 -122.119523 
L 224.664764 -123.262576 
L 224.49146 -124.405628 
L 224.280146 -125.548681 
L 224.038028 -126.691734 
L 223.78001 -127.834786 
L 223.528182 -128.977839 
L 223.308761 -130.120892 
L 223.147109 -131.263945 
L 223.062304 -132.406997 
L 223.063048 -133.55005 
L 223.146196 -134.693103 
L 223.298262 -135.836155 
L 223.499164 -136.979208 
L 223.726848 -138.122261 
L 223.961338 -139.265313 
L 224.187253 -140.408366 
L 224.39456 -141.551419 
L 224.577954 -142.694471 
L 224.735568 -143.837524 
L 224.867668 -144.980577 
L 224.975702 -146.12363 
L 225.061792 -147.266682 
L 225.128522 -148.409735 
L 225.178863 -149.552788 
L 225.216073 -150.69584 
L 225.243502 -151.838893 
L 225.264319 -152.981946 
L 225.281197 -154.124998 
L 225.296061 -155.268051 
L 225.309982 -156.411104 
L 225.323248 -157.554157 
L 225.335611 -158.697209 
L 225.346589 -159.840262 
L 225.355755 -160.983315 
L 225.362906 -162.126367 
L 225.368106 -163.26942 
L 225.385019 -163.26942 
L 225.385019 -163.26942 
L 225.390219 -162.126367 
L 225.39737 -160.983315 
L 225.406536 -159.840262 
L 225.417514 -158.697209 
L 225.429877 -157.554157 
L 225.443143 -156.411104 
L 225.457064 -155.268051 
L 225.471928 -154.124998 
L 225.488806 -152.981946 
L 225.509623 -151.838893 
L 225.537052 -150.69584 
L 225.574262 -149.552788 
L 225.624603 -148.409735 
L 225.691333 -147.266682 
L 225.777423 -146.12363 
L 225.885457 -144.980577 
L 226.017557 -143.837524 
L 226.175171 -142.694471 
L 226.358565 -141.551419 
L 226.565872 -140.408366 
L 226.791787 -139.265313 
L 227.026277 -138.122261 
L 227.253961 -136.979208 
L 227.454863 -135.836155 
L 227.606929 -134.693103 
L 227.690077 -133.55005 
L 227.690821 -132.406997 
L 227.606016 -131.263945 
L 227.444364 -130.120892 
L 227.224943 -128.977839 
L 226.973115 -127.834786 
L 226.715097 -126.691734 
L 226.472979 -125.548681 
L 226.261665 -124.405628 
L 226.088361 -123.262576 
L 225.954189 -122.119523 
L 225.856818 -120.97647 
L 225.79291 -119.833418 
L 225.75961 -118.690365 
L 225.755003 -117.547312 
L 225.77787 -116.404259 
L 225.82725 -115.261207 
L 225.902059 -114.118154 
L 226.000737 -112.975101 
L 226.120785 -111.832049 
L 226.258177 -110.688996 
L 226.406915 -109.545943 
L 226.559208 -108.402891 
L 226.706656 -107.259838 
L 226.842443 -106.116785 
L 226.963907 -104.973732 
L 227.074478 -103.83068 
L 227.183968 -102.687627 
L 227.306846 -101.544574 
L 227.459044 -100.401522 
L 227.654671 -99.258469 
L 227.904148 -98.115416 
L 228.214568 -96.972364 
L 228.59193 -95.829311 
L 229.043769 -94.686258 
L 229.580373 -93.543206 
L 230.213399 -92.400153 
L 230.951992 -91.2571 
L 231.797832 -90.114047 
L 232.741225 -88.970995 
L 233.760011 -87.827942 
L 234.821933 -86.684889 
L 235.889801 -85.541837 
L 236.927911 -84.398784 
L 237.908092 -83.255731 
L 238.814197 -82.112679 
L 239.644283 -80.969626 
L 240.40984 -79.826573 
L 241.131715 -78.68352 
L 241.833163 -77.540468 
L 242.531929 -76.397415 
L 243.234399 -75.254362 
L 243.934405 -74.11131 
L 244.616749 -72.968257 
L 245.262235 -71.825204 
L 245.849288 -70.682152 
L 246.349052 -69.539099 
L 246.715611 -68.396046 
L 246.87797 -67.252993 
L 246.741974 -66.109941 
L 246.2068 -64.966888 
L 245.193356 -63.823835 
L 243.674884 -62.680783 
L 241.697338 -61.53773 
L 239.38027 -60.394677 
L 236.896603 -59.251625 
L 234.437847 -58.108572 
L 232.176349 -56.965519 
L 230.236073 -55.822467 
L 228.679017 -54.679414 
L 227.508048 -53.536361 
L 226.681706 -52.393308 
L 226.134007 -51.250256 
L 225.792848 -50.107203 
z
" id="m0c6bb050fd" style="stroke:#3d3d3d;stroke-width:1.5;"/>
    </defs>
    <g clip-path="url(#pade363eff3)">
     <use style="fill:#3a923a;stroke:#3d3d3d;stroke-width:1.5;" x="0" xlink:href="#m0c6bb050fd" y="261.799375"/>
    </g>
   </g>
   <g id="PolyCollection_4">
    <defs>
     <path d="M 292.565637 -51.108869 
L 292.107488 -51.108869 
L 291.90727 -52.282125 
L 291.571702 -53.455382 
L 291.04045 -54.628639 
L 290.246472 -55.801896 
L 289.127007 -56.975152 
L 287.639176 -58.148409 
L 285.777088 -59.321666 
L 283.585372 -60.494923 
L 281.16361 -61.66818 
L 278.658001 -62.841436 
L 276.24051 -64.014693 
L 274.080305 -65.18795 
L 272.315415 -66.361207 
L 271.032584 -67.534463 
L 270.260263 -68.70772 
L 269.974864 -69.880977 
L 270.116096 -71.054234 
L 270.605122 -72.227491 
L 271.359907 -73.400747 
L 272.304579 -74.574004 
L 273.372582 -75.747261 
L 274.505636 -76.920518 
L 275.651433 -78.093774 
L 276.762711 -79.267031 
L 277.799088 -80.440288 
L 278.731418 -81.613545 
L 279.546939 -82.786802 
L 280.252698 -83.960058 
L 280.874999 -85.133315 
L 281.453897 -86.306572 
L 282.033642 -87.479829 
L 282.651607 -88.653085 
L 283.329044 -89.826342 
L 284.066467 -90.999599 
L 284.844892 -92.172856 
L 285.632174 -93.346113 
L 286.392079 -94.519369 
L 287.093131 -95.692626 
L 287.714812 -96.865883 
L 288.249941 -98.03914 
L 288.70346 -99.212396 
L 289.088805 -100.385653 
L 289.423363 -101.55891 
L 289.724216 -102.732167 
L 290.004929 -103.905424 
L 290.273667 -105.07868 
L 290.532715 -106.251937 
L 290.779324 -107.425194 
L 291.007653 -108.598451 
L 291.211311 -109.771707 
L 291.385809 -110.944964 
L 291.530158 -112.118221 
L 291.647143 -113.291478 
L 291.74228 -114.464735 
L 291.821948 -115.637991 
L 291.891462 -116.811248 
L 291.953734 -117.984505 
L 292.008827 -119.157762 
L 292.054287 -120.331018 
L 292.085897 -121.504275 
L 292.098494 -122.677532 
L 292.086678 -123.850789 
L 292.045444 -125.024046 
L 291.97088 -126.197302 
L 291.861017 -127.370559 
L 291.716783 -128.543816 
L 291.542809 -129.717073 
L 291.347765 -130.890329 
L 291.14393 -132.063586 
L 290.94585 -133.236843 
L 290.768243 -134.4101 
L 290.623558 -135.583357 
L 290.519868 -136.756613 
L 290.459734 -137.92987 
L 290.44046 -139.103127 
L 290.455689 -140.276384 
L 290.497779 -141.44964 
L 290.560089 -142.622897 
L 290.638373 -143.796154 
L 290.73088 -144.969411 
L 290.837343 -146.142668 
L 290.957467 -147.315924 
L 291.089659 -148.489181 
L 291.230493 -149.662438 
L 291.375026 -150.835695 
L 291.517686 -152.008951 
L 291.653286 -153.182208 
L 291.777797 -154.355465 
L 291.888682 -155.528722 
L 291.984826 -156.701979 
L 292.066218 -157.875235 
L 292.133577 -159.048492 
L 292.188043 -160.221749 
L 292.230976 -161.395006 
L 292.263854 -162.568262 
L 292.288219 -163.741519 
L 292.30562 -164.914776 
L 292.31755 -166.088033 
L 292.325377 -167.26129 
L 292.347748 -167.26129 
L 292.347748 -167.26129 
L 292.355575 -166.088033 
L 292.367505 -164.914776 
L 292.384906 -163.741519 
L 292.409271 -162.568262 
L 292.442149 -161.395006 
L 292.485082 -160.221749 
L 292.539548 -159.048492 
L 292.606907 -157.875235 
L 292.688299 -156.701979 
L 292.784443 -155.528722 
L 292.895328 -154.355465 
L 293.019839 -153.182208 
L 293.155439 -152.008951 
L 293.298099 -150.835695 
L 293.442632 -149.662438 
L 293.583466 -148.489181 
L 293.715658 -147.315924 
L 293.835782 -146.142668 
L 293.942245 -144.969411 
L 294.034752 -143.796154 
L 294.113036 -142.622897 
L 294.175346 -141.44964 
L 294.217436 -140.276384 
L 294.232665 -139.103127 
L 294.213391 -137.92987 
L 294.153257 -136.756613 
L 294.049567 -135.583357 
L 293.904882 -134.4101 
L 293.727275 -133.236843 
L 293.529195 -132.063586 
L 293.32536 -130.890329 
L 293.130316 -129.717073 
L 292.956342 -128.543816 
L 292.812108 -127.370559 
L 292.702245 -126.197302 
L 292.627681 -125.024046 
L 292.586447 -123.850789 
L 292.574631 -122.677532 
L 292.587228 -121.504275 
L 292.618838 -120.331018 
L 292.664298 -119.157762 
L 292.719391 -117.984505 
L 292.781663 -116.811248 
L 292.851177 -115.637991 
L 292.930845 -114.464735 
L 293.025982 -113.291478 
L 293.142967 -112.118221 
L 293.287316 -110.944964 
L 293.461814 -109.771707 
L 293.665472 -108.598451 
L 293.893801 -107.425194 
L 294.14041 -106.251937 
L 294.399458 -105.07868 
L 294.668196 -103.905424 
L 294.948909 -102.732167 
L 295.249762 -101.55891 
L 295.58432 -100.385653 
L 295.969665 -99.212396 
L 296.423184 -98.03914 
L 296.958313 -96.865883 
L 297.579994 -95.692626 
L 298.281046 -94.519369 
L 299.040951 -93.346113 
L 299.828233 -92.172856 
L 300.606658 -90.999599 
L 301.344081 -89.826342 
L 302.021518 -88.653085 
L 302.639483 -87.479829 
L 303.219228 -86.306572 
L 303.798126 -85.133315 
L 304.420427 -83.960058 
L 305.126186 -82.786802 
L 305.941707 -81.613545 
L 306.874037 -80.440288 
L 307.910414 -79.267031 
L 309.021692 -78.093774 
L 310.167489 -76.920518 
L 311.300543 -75.747261 
L 312.368546 -74.574004 
L 313.313218 -73.400747 
L 314.068003 -72.227491 
L 314.557029 -71.054234 
L 314.698261 -69.880977 
L 314.412862 -68.70772 
L 313.640541 -67.534463 
L 312.35771 -66.361207 
L 310.59282 -65.18795 
L 308.432615 -64.014693 
L 306.015124 -62.841436 
L 303.509515 -61.66818 
L 301.087753 -60.494923 
L 298.896037 -59.321666 
L 297.033949 -58.148409 
L 295.546118 -56.975152 
L 294.426653 -55.801896 
L 293.632675 -54.628639 
L 293.101423 -53.455382 
L 292.765855 -52.282125 
L 292.565637 -51.108869 
z
" id="me17815aae8" style="stroke:#3d3d3d;stroke-width:1.5;"/>
    </defs>
    <g clip-path="url(#pade363eff3)">
     <use style="fill:#c03d3e;stroke:#3d3d3d;stroke-width:1.5;" x="0" xlink:href="#me17815aae8" y="261.799375"/>
    </g>
   </g>
   <g id="PolyCollection_5">
    <defs>
     <path d="M 359.571541 -48.766178 
L 359.021584 -48.766178 
L 358.714114 -50.745467 
L 358.160503 -52.724755 
L 357.253884 -54.704044 
L 355.906515 -56.683332 
L 354.095592 -58.662621 
L 351.906118 -60.641909 
L 349.545492 -62.621198 
L 347.309913 -64.600486 
L 345.504307 -66.579775 
L 344.344976 -68.559063 
L 343.889273 -70.538352 
L 344.026304 -72.51764 
L 344.531275 -74.496929 
L 345.153918 -76.476217 
L 345.698895 -78.455506 
L 346.068565 -80.434794 
L 346.263364 -82.414083 
L 346.354226 -84.393371 
L 346.445922 -86.37266 
L 346.643963 -88.351948 
L 347.030262 -90.331237 
L 347.648917 -92.310525 
L 348.502112 -94.289814 
L 349.554387 -96.269102 
L 350.74209 -98.248391 
L 351.985302 -100.227679 
L 353.201314 -102.206967 
L 354.319062 -104.186256 
L 355.291764 -106.165544 
L 356.103179 -108.144833 
L 356.764391 -110.124121 
L 357.302566 -112.10341 
L 357.747235 -114.082698 
L 358.120228 -116.061987 
L 358.432426 -118.041275 
L 358.686403 -120.020564 
L 358.881558 -121.999852 
L 359.018467 -123.979141 
L 359.100929 -125.958429 
L 359.136077 -127.937718 
L 359.133579 -129.917006 
L 359.104564 -131.896295 
L 359.060157 -133.875583 
L 359.009366 -135.854872 
L 358.956709 -137.83416 
L 358.900715 -139.813449 
L 358.834488 -141.792737 
L 358.748646 -143.772026 
L 358.6357 -145.751314 
L 358.49425 -147.730603 
L 358.331551 -149.709891 
L 358.163675 -151.68918 
L 358.0131 -153.668468 
L 357.903975 -155.647757 
L 357.85599 -157.627045 
L 357.87864 -159.606334 
L 357.968248 -161.585622 
L 358.109359 -163.564911 
L 358.28008 -165.544199 
L 358.458848 -167.523488 
L 358.629464 -169.502776 
L 358.782645 -171.482065 
L 358.914551 -173.461353 
L 359.024259 -175.440642 
L 359.111991 -177.41993 
L 359.178663 -179.399219 
L 359.22617 -181.378507 
L 359.257548 -183.357796 
L 359.276595 -185.337084 
L 359.287164 -187.316372 
L 359.292506 -189.295661 
L 359.29496 -191.274949 
L 359.295984 -193.254238 
L 359.296372 -195.233526 
L 359.296505 -197.212815 
L 359.296546 -199.192103 
L 359.296555 -201.171392 
L 359.296548 -203.15068 
L 359.296511 -205.129969 
L 359.296385 -207.109257 
L 359.296008 -209.088546 
L 359.294985 -211.067834 
L 359.292479 -213.047123 
L 359.286951 -215.026411 
L 359.27599 -217.0057 
L 359.256519 -218.984988 
L 359.225686 -220.964277 
L 359.182478 -222.943565 
L 359.129571 -224.922854 
L 359.07428 -226.902142 
L 359.027493 -228.881431 
L 359.000374 -230.860719 
L 359.000068 -232.840008 
L 359.026657 -234.819296 
L 359.073128 -236.798585 
L 359.128359 -238.777873 
L 359.181412 -240.757162 
L 359.224875 -242.73645 
L 359.255978 -244.715739 
L 359.337147 -244.715739 
L 359.337147 -244.715739 
L 359.36825 -242.73645 
L 359.411713 -240.757162 
L 359.464766 -238.777873 
L 359.519997 -236.798585 
L 359.566468 -234.819296 
L 359.593057 -232.840008 
L 359.592751 -230.860719 
L 359.565632 -228.881431 
L 359.518845 -226.902142 
L 359.463554 -224.922854 
L 359.410647 -222.943565 
L 359.367439 -220.964277 
L 359.336606 -218.984988 
L 359.317135 -217.0057 
L 359.306174 -215.026411 
L 359.300646 -213.047123 
L 359.29814 -211.067834 
L 359.297117 -209.088546 
L 359.29674 -207.109257 
L 359.296614 -205.129969 
L 359.296577 -203.15068 
L 359.29657 -201.171392 
L 359.296579 -199.192103 
L 359.29662 -197.212815 
L 359.296753 -195.233526 
L 359.297141 -193.254238 
L 359.298165 -191.274949 
L 359.300619 -189.295661 
L 359.305961 -187.316372 
L 359.31653 -185.337084 
L 359.335577 -183.357796 
L 359.366955 -181.378507 
L 359.414462 -179.399219 
L 359.481134 -177.41993 
L 359.568866 -175.440642 
L 359.678574 -173.461353 
L 359.81048 -171.482065 
L 359.963661 -169.502776 
L 360.134277 -167.523488 
L 360.313045 -165.544199 
L 360.483766 -163.564911 
L 360.624877 -161.585622 
L 360.714485 -159.606334 
L 360.737135 -157.627045 
L 360.68915 -155.647757 
L 360.580025 -153.668468 
L 360.42945 -151.68918 
L 360.261574 -149.709891 
L 360.098875 -147.730603 
L 359.957425 -145.751314 
L 359.844479 -143.772026 
L 359.758637 -141.792737 
L 359.69241 -139.813449 
L 359.636416 -137.83416 
L 359.583759 -135.854872 
L 359.532968 -133.875583 
L 359.488561 -131.896295 
L 359.459546 -129.917006 
L 359.457048 -127.937718 
L 359.492196 -125.958429 
L 359.574658 -123.979141 
L 359.711567 -121.999852 
L 359.906722 -120.020564 
L 360.160699 -118.041275 
L 360.472897 -116.061987 
L 360.84589 -114.082698 
L 361.290559 -112.10341 
L 361.828734 -110.124121 
L 362.489946 -108.144833 
L 363.301361 -106.165544 
L 364.274063 -104.186256 
L 365.391811 -102.206967 
L 366.607823 -100.227679 
L 367.851035 -98.248391 
L 369.038738 -96.269102 
L 370.091013 -94.289814 
L 370.944208 -92.310525 
L 371.562863 -90.331237 
L 371.949162 -88.351948 
L 372.147203 -86.37266 
L 372.238899 -84.393371 
L 372.329761 -82.414083 
L 372.52456 -80.434794 
L 372.89423 -78.455506 
L 373.439207 -76.476217 
L 374.06185 -74.496929 
L 374.566821 -72.51764 
L 374.703852 -70.538352 
L 374.248149 -68.559063 
L 373.088818 -66.579775 
L 371.283212 -64.600486 
L 369.047633 -62.621198 
L 366.687007 -60.641909 
L 364.497533 -58.662621 
L 362.68661 -56.683332 
L 361.339241 -54.704044 
L 360.432622 -52.724755 
L 359.879011 -50.745467 
L 359.571541 -48.766178 
z
" id="mbc0259e0f1" style="stroke:#3d3d3d;stroke-width:1.5;"/>
    </defs>
    <g clip-path="url(#pade363eff3)">
     <use style="fill:#9372b2;stroke:#3d3d3d;stroke-width:1.5;" x="0" xlink:href="#mbc0259e0f1" y="261.799375"/>
    </g>
   </g>
   <g id="matplotlib.axis_1">
    <g id="xtick_1">
     <g id="line2d_1">
      <defs>
       <path d="M 0 0 
L 0 3.5 
" id="m9b42454410" style="stroke:#000000;stroke-width:0.8;"/>
      </defs>
      <g>
       <use style="stroke:#000000;stroke-width:0.8;" x="91.456563" xlink:href="#m9b42454410" y="224.64"/>
      </g>
     </g>
     <g id="text_1">
      <!-- 2015 -->
      <g transform="translate(79.337812 239.160313)scale(0.1 -0.1)">
       <defs>
        <path d="M 9 -4.703125 
Q 7.90625 -4.703125 7.34375 -4.640625 
Q 6.796875 -4.59375 6.546875 -4.34375 
Q 6.296875 -4.09375 6.25 -3.546875 
Q 6.203125 -3 6.203125 -1.90625 
L 6.296875 0.296875 
Q 6.296875 1.59375 7.09375 2.40625 
L 23.59375 20.59375 
Q 42 40.5 42 50.796875 
Q 42 56.796875 38 60.796875 
Q 34.09375 64.703125 28.296875 64.703125 
Q 20.203125 64.703125 11.40625 60.203125 
Q 10 59.5 9.796875 60.796875 
L 9.203125 64.09375 
Q 8.90625 65.796875 10.203125 66.203125 
Q 15.296875 68.5 19.390625 69.59375 
Q 23.5 70.703125 27.796875 70.703125 
Q 37.40625 70.703125 43.09375 65.90625 
Q 49.5 60.703125 49.5 51.09375 
Q 49.5 47.40625 47.703125 43 
Q 45.90625 38.59375 42.703125 33.796875 
Q 40.703125 31 37.046875 26.5 
Q 33.40625 22 28.703125 16.90625 
Q 25.203125 13.09375 21.75 9.1875 
Q 18.296875 5.296875 14.796875 1.5 
L 49.796875 1.5 
Q 51.203125 1.5 51.203125 0.09375 
L 51.203125 -3.296875 
Q 51.203125 -4.703125 49.796875 -4.703125 
z
" id="NanumGothic-50"/>
        <path d="M 47.90625 32.703125 
Q 47.90625 64.09375 30.703125 64.09375 
Q 13.5 64.09375 13.5 32.703125 
Q 13.5 1.203125 30.703125 1.203125 
Q 47.90625 1.203125 47.90625 32.703125 
z
M 55.09375 32.703125 
Q 55.09375 -5.09375 30.703125 -5.09375 
Q 6.09375 -5.09375 6.09375 32.703125 
Q 6.09375 48.40625 10.90625 58.203125 
Q 17 70.5 30.703125 70.5 
Q 44.203125 70.5 50.40625 58.203125 
Q 52.703125 53.296875 53.890625 47 
Q 55.09375 40.703125 55.09375 32.703125 
z
" id="NanumGothic-48"/>
        <path d="M 36.90625 -3.296875 
Q 36.90625 -4.703125 35.5 -4.703125 
L 31.40625 -4.703125 
Q 30 -4.703125 30 -3.296875 
L 30 61.703125 
Q 26.90625 59.09375 24.203125 56.796875 
Q 21.5 54.5 18.5 51.90625 
Q 17.40625 51 16.5 52.09375 
L 14.5 54.5 
Q 14.203125 55 14.203125 55.546875 
Q 14.203125 56.09375 14.703125 56.5 
L 30.203125 69.5 
Q 30.59375 69.90625 31.40625 69.90625 
L 34.09375 69.90625 
Q 36.203125 69.90625 36.546875 69.546875 
Q 36.90625 69.203125 36.90625 67.09375 
z
" id="NanumGothic-49"/>
        <path d="M 11.5 -3.203125 
Q 10.09375 -2.703125 10.09375 -1.40625 
L 10.09375 2.796875 
Q 10.09375 4.5 11.5 3.796875 
Q 15.09375 2.09375 18.546875 1.390625 
Q 22 0.703125 26.09375 0.703125 
Q 34.90625 0.703125 40.40625 5 
Q 46.40625 9.59375 46.40625 18.203125 
Q 46.40625 35.09375 27.09375 35.09375 
Q 23.296875 35.09375 20.25 34.6875 
Q 17.203125 34.296875 13.5 33.296875 
Q 12.40625 33 11.703125 33.546875 
Q 11 34.09375 11 35.203125 
L 11.59375 67.09375 
Q 11.59375 69.203125 11.9375 69.546875 
Q 12.296875 69.90625 14.40625 69.90625 
L 48.59375 69.90625 
Q 50 69.90625 50 68.5 
L 50 65.203125 
Q 50 63.796875 48.59375 63.796875 
L 18.40625 63.796875 
Q 18.296875 57.5 18.140625 51.5 
Q 18 45.5 17.90625 39.203125 
Q 22.796875 41.09375 29.796875 41.09375 
Q 40.296875 41.09375 46.796875 35.40625 
Q 53.296875 29.5 53.296875 19.59375 
Q 53.296875 7.5 45.796875 0.90625 
Q 38.59375 -5.40625 26.09375 -5.40625 
Q 21.59375 -5.40625 18.296875 -4.90625 
Q 15 -4.40625 11.5 -3.203125 
z
" id="NanumGothic-53"/>
       </defs>
       <use xlink:href="#NanumGothic-50"/>
       <use x="60.599991" xlink:href="#NanumGothic-48"/>
       <use x="121.199982" xlink:href="#NanumGothic-49"/>
       <use x="181.799973" xlink:href="#NanumGothic-53"/>
      </g>
     </g>
    </g>
    <g id="xtick_2">
     <g id="line2d_2">
      <g>
       <use style="stroke:#000000;stroke-width:0.8;" x="158.416562" xlink:href="#m9b42454410" y="224.64"/>
      </g>
     </g>
     <g id="text_2">
      <!-- 2016 -->
      <g transform="translate(146.297812 239.160313)scale(0.1 -0.1)">
       <defs>
        <path d="M 48.09375 18.796875 
Q 48.09375 26.90625 43.90625 31.59375 
Q 39.703125 36.40625 31.90625 36.40625 
Q 27.90625 36.40625 24.703125 35.15625 
Q 21.5 33.90625 19.25 31.703125 
Q 17 29.5 15.75 26.390625 
Q 14.5 23.296875 14.5 19.59375 
Q 14.5 12 18.703125 6.796875 
Q 23.296875 0.703125 31 0.703125 
Q 38.90625 0.703125 43.703125 6 
Q 48.09375 11 48.09375 18.796875 
z
M 50.703125 62.703125 
Q 48.40625 63.5 45.453125 64 
Q 42.5 64.5 39.59375 64.5 
Q 26 64.5 19.5 54.703125 
Q 14 46.5 13.796875 32.203125 
Q 16 36.203125 20.203125 39 
Q 25.40625 42.703125 31.90625 42.703125 
Q 41 42.703125 47.203125 37.90625 
Q 55.09375 31.796875 55.09375 19.296875 
Q 55.09375 8.703125 48.59375 1.703125 
Q 42 -5.40625 30.796875 -5.40625 
Q 6.796875 -5.40625 6.796875 30 
Q 6.796875 48.5 14.203125 58.90625 
Q 22.90625 70.703125 40.40625 70.703125 
Q 43 70.703125 45.84375 70.296875 
Q 48.703125 69.90625 51.09375 69.203125 
Q 52.59375 68.90625 52.40625 67.40625 
L 52.203125 63.703125 
Q 52.203125 63 51.703125 62.75 
Q 51.203125 62.5 50.703125 62.703125 
z
" id="NanumGothic-54"/>
       </defs>
       <use xlink:href="#NanumGothic-50"/>
       <use x="60.599991" xlink:href="#NanumGothic-48"/>
       <use x="121.199982" xlink:href="#NanumGothic-49"/>
       <use x="181.799973" xlink:href="#NanumGothic-54"/>
      </g>
     </g>
    </g>
    <g id="xtick_3">
     <g id="line2d_3">
      <g>
       <use style="stroke:#000000;stroke-width:0.8;" x="225.376563" xlink:href="#m9b42454410" y="224.64"/>
      </g>
     </g>
     <g id="text_3">
      <!-- 2017 -->
      <g transform="translate(213.257813 239.160313)scale(0.1 -0.1)">
       <defs>
        <path d="M 24.203125 -3.296875 
Q 23.5 -4.703125 22.203125 -4.703125 
L 17.203125 -4.703125 
Q 16.59375 -4.703125 16.34375 -4.296875 
Q 16.09375 -3.90625 16.40625 -3.296875 
L 45.5 63.796875 
L 8.40625 63.796875 
Q 7 63.796875 7 65.203125 
L 7 68.5 
Q 7 69.90625 8.40625 69.90625 
L 49.90625 69.90625 
Q 52 69.90625 52.34375 69.546875 
Q 52.703125 69.203125 52.703125 67.09375 
L 52.703125 64.59375 
Q 52.703125 63.796875 52.40625 63.203125 
z
" id="NanumGothic-55"/>
       </defs>
       <use xlink:href="#NanumGothic-50"/>
       <use x="60.599991" xlink:href="#NanumGothic-48"/>
       <use x="121.199982" xlink:href="#NanumGothic-49"/>
       <use x="181.799973" xlink:href="#NanumGothic-55"/>
      </g>
     </g>
    </g>
    <g id="xtick_4">
     <g id="line2d_4">
      <g>
       <use style="stroke:#000000;stroke-width:0.8;" x="292.336563" xlink:href="#m9b42454410" y="224.64"/>
      </g>
     </g>
     <g id="text_4">
      <!-- 2018 -->
      <g transform="translate(280.217813 239.160313)scale(0.1 -0.1)">
       <defs>
        <path d="M 46 52.5 
Q 46 58.203125 41 61.5 
Q 36.59375 64.59375 30.703125 64.59375 
Q 24.296875 64.59375 19.90625 61.40625 
Q 15.09375 58.203125 15.09375 52.5 
Q 15.09375 47.296875 20.09375 43.09375 
Q 21.5 41.796875 23.84375 40.296875 
Q 26.203125 38.796875 29.40625 37.296875 
Q 30.203125 36.90625 30.703125 36.953125 
Q 31.203125 37 32.203125 37.5 
Q 38.59375 41 42.296875 44.84375 
Q 46 48.703125 46 52.5 
z
M 48.5 15 
Q 48.5 20.5 43.5 24.59375 
Q 41.90625 25.90625 39 27.5 
Q 36.09375 29.09375 31.90625 31 
Q 30.59375 31.703125 29 31 
Q 25.09375 29.5 22.09375 27.84375 
Q 19.09375 26.203125 17.296875 24.796875 
Q 15.296875 22.796875 14.046875 20.140625 
Q 12.796875 17.5 12.796875 14.5 
Q 12.796875 8.40625 18.5 4.5 
Q 23.703125 0.59375 30.703125 0.59375 
Q 37.90625 0.59375 42.796875 4 
Q 48.5 7.90625 48.5 15 
z
M 55.5 14.5 
Q 55.5 9.59375 53.453125 5.6875 
Q 51.40625 1.796875 47.59375 -0.796875 
Q 44.296875 -3 40 -4.203125 
Q 35.703125 -5.40625 30.703125 -5.40625 
Q 25.796875 -5.40625 21.546875 -4.09375 
Q 17.296875 -2.796875 13.796875 -0.5 
Q 10 2.203125 7.890625 6.046875 
Q 5.796875 9.90625 5.796875 14.5 
Q 5.796875 22.296875 11 27.203125 
Q 15 31 23.296875 34.09375 
Q 8.09375 41.59375 8.09375 53.296875 
Q 8.09375 57.5 10.1875 60.75 
Q 12.296875 64 16.09375 66.59375 
Q 19.296875 68.59375 22.9375 69.640625 
Q 26.59375 70.703125 30.703125 70.703125 
Q 35.5 70.703125 39.296875 69.640625 
Q 43.09375 68.59375 46.203125 66.5 
Q 53.09375 61.703125 53.09375 53.296875 
Q 53.09375 42.90625 37.5 34.09375 
Q 41.59375 32.59375 44.84375 30.796875 
Q 48.09375 29 50.09375 27.203125 
Q 55.5 22.40625 55.5 14.5 
z
" id="NanumGothic-56"/>
       </defs>
       <use xlink:href="#NanumGothic-50"/>
       <use x="60.599991" xlink:href="#NanumGothic-48"/>
       <use x="121.199982" xlink:href="#NanumGothic-49"/>
       <use x="181.799973" xlink:href="#NanumGothic-56"/>
      </g>
     </g>
    </g>
    <g id="xtick_5">
     <g id="line2d_5">
      <g>
       <use style="stroke:#000000;stroke-width:0.8;" x="359.296563" xlink:href="#m9b42454410" y="224.64"/>
      </g>
     </g>
     <g id="text_5">
      <!-- 2019 -->
      <g transform="translate(347.177813 239.160313)scale(0.1 -0.1)">
       <defs>
        <path d="M 46.796875 45.703125 
Q 46.796875 53.5 42.59375 58.796875 
Q 38 64.5 30.40625 64.5 
Q 22.296875 64.5 17.703125 59.40625 
Q 13.203125 54.59375 13.203125 46.59375 
Q 13.203125 38.09375 17.296875 33.40625 
L 17.203125 33.40625 
Q 21.5 28.796875 29.40625 28.796875 
Q 37.59375 28.796875 42.203125 33.40625 
Q 46.796875 38.203125 46.796875 45.703125 
z
M 10.203125 -4 
Q 8.703125 -3.703125 8.90625 -1.703125 
L 9.203125 1.796875 
Q 9.40625 3 10.796875 2.40625 
Q 13.296875 1.40625 15.84375 1 
Q 18.40625 0.59375 21.59375 0.59375 
Q 28.59375 0.59375 33.796875 3.34375 
Q 39 6.09375 42.296875 11.203125 
Q 47.296875 19.59375 47.5 32.5 
Q 41.40625 22.703125 29.40625 22.703125 
Q 20.203125 22.703125 14 27.40625 
Q 6.09375 33.5 6.09375 46.09375 
Q 6.09375 57.203125 12.59375 63.796875 
Q 19.203125 70.703125 30.59375 70.703125 
Q 54.59375 70.703125 54.59375 35.296875 
Q 54.59375 -5.40625 20.90625 -5.40625 
Q 16.296875 -5.40625 10.203125 -4 
z
" id="NanumGothic-57"/>
       </defs>
       <use xlink:href="#NanumGothic-50"/>
       <use x="60.599991" xlink:href="#NanumGothic-48"/>
       <use x="121.199982" xlink:href="#NanumGothic-49"/>
       <use x="181.799973" xlink:href="#NanumGothic-57"/>
      </g>
     </g>
    </g>
    <g id="text_6">
     <!-- 연도 -->
     <g transform="translate(215.976562 252.64)scale(0.1 -0.1)">
      <defs>
       <path d="M 80.5 13.5 
Q 80.5 12.09375 79.09375 12.09375 
L 75 12.09375 
Q 73.59375 12.09375 73.59375 13.5 
L 73.59375 34.90625 
L 51.09375 34.90625 
Q 47.796875 30.90625 42.9375 28.65625 
Q 38.09375 26.40625 32.296875 26.40625 
Q 27.296875 26.40625 23 28.09375 
Q 18.703125 29.796875 15.546875 32.9375 
Q 12.40625 36.09375 10.546875 40.390625 
Q 8.703125 44.703125 8.703125 50 
Q 8.703125 55.5 10.546875 59.890625 
Q 12.40625 64.296875 15.546875 67.390625 
Q 18.703125 70.5 23 72.09375 
Q 27.296875 73.703125 32.296875 73.703125 
Q 38.40625 73.703125 43.75 71.046875 
Q 49.09375 68.40625 52.40625 63.40625 
L 73.59375 63.40625 
L 73.59375 76.796875 
Q 73.59375 78.203125 75 78.203125 
L 79.09375 78.203125 
Q 80.5 78.203125 80.5 76.796875 
L 80.5 13.5 
z
M 49.296875 50.09375 
Q 49.296875 54.296875 47.890625 57.546875 
Q 46.5 60.796875 44.140625 62.9375 
Q 41.796875 65.09375 38.75 66.1875 
Q 35.703125 67.296875 32.296875 67.296875 
Q 28.796875 67.296875 25.796875 66.1875 
Q 22.796875 65.09375 20.546875 62.9375 
Q 18.296875 60.796875 17 57.546875 
Q 15.703125 54.296875 15.703125 50.09375 
Q 15.703125 46.09375 16.953125 42.890625 
Q 18.203125 39.703125 20.390625 37.453125 
Q 22.59375 35.203125 25.640625 33.953125 
Q 28.703125 32.703125 32.296875 32.703125 
Q 35.703125 32.703125 38.75 33.953125 
Q 41.796875 35.203125 44.140625 37.453125 
Q 46.5 39.703125 47.890625 42.890625 
Q 49.296875 46.09375 49.296875 50.09375 
z
M 83.5 -11 
Q 83.5 -11.59375 83 -11.890625 
Q 82.5 -12.203125 82 -12.203125 
L 31.90625 -12.203125 
Q 27.203125 -12.203125 25.75 -10.453125 
Q 24.296875 -8.703125 24.296875 -4.59375 
L 24.296875 15 
Q 24.296875 16.40625 25.703125 16.40625 
L 29.796875 16.40625 
Q 31.203125 16.40625 31.203125 15 
L 31.203125 -4.09375 
Q 31.203125 -5.5 31.640625 -5.84375 
Q 32.09375 -6.203125 33.5 -6.203125 
L 82 -6.203125 
Q 82.5 -6.203125 83 -6.546875 
Q 83.5 -6.90625 83.5 -7.40625 
L 83.5 -11 
z
M 56.296875 50 
Q 56.296875 45 54.59375 40.796875 
L 73.59375 40.796875 
L 73.59375 57.5 
L 55.203125 57.5 
Q 56.296875 53.90625 56.296875 50 
z
" id="NanumGothic-50672"/>
       <path d="M 78.59375 31 
Q 78.59375 29.59375 77.296875 29.59375 
L 50.203125 29.59375 
L 50.203125 7.796875 
L 89.5 7.796875 
Q 90 7.796875 90.5 7.4375 
Q 91 7.09375 91 6.5 
L 91 3.09375 
Q 91 2.59375 90.5 2.1875 
Q 90 1.796875 89.5 1.796875 
L 4.5 1.796875 
Q 3.90625 1.796875 3.453125 2.1875 
Q 3 2.59375 3 3.09375 
L 3 6.5 
Q 3 7.09375 3.453125 7.4375 
Q 3.90625 7.796875 4.5 7.796875 
L 43.296875 7.796875 
L 43.296875 29.59375 
L 23.296875 29.59375 
Q 18.90625 29.59375 17.296875 31.046875 
Q 15.703125 32.5 15.703125 36.703125 
L 15.703125 64.59375 
Q 15.703125 68.796875 17.296875 70.25 
Q 18.90625 71.703125 23.296875 71.703125 
L 76.59375 71.703125 
Q 77.90625 71.703125 77.90625 70.40625 
L 77.90625 67.09375 
Q 77.90625 65.703125 76.59375 65.703125 
L 25 65.703125 
Q 23.59375 65.703125 23.09375 65.09375 
Q 22.59375 64.5 22.59375 63 
L 22.59375 38.203125 
Q 22.59375 36.796875 23.09375 36.1875 
Q 23.59375 35.59375 25 35.59375 
L 77.296875 35.59375 
Q 78.59375 35.59375 78.59375 34.296875 
z
" id="NanumGothic-46020"/>
      </defs>
      <use xlink:href="#NanumGothic-50672"/>
      <use x="93.999985" xlink:href="#NanumGothic-46020"/>
     </g>
    </g>
   </g>
   <g id="matplotlib.axis_2">
    <g id="ytick_1">
     <g id="line2d_6">
      <defs>
       <path d="M 0 0 
L -3.5 0 
" id="md84513f4cf" style="stroke:#000000;stroke-width:0.8;"/>
      </defs>
      <g>
       <use style="stroke:#000000;stroke-width:0.8;" x="57.976562" xlink:href="#md84513f4cf" y="209.965263"/>
      </g>
     </g>
     <g id="text_7">
      <!-- 5000 -->
      <g transform="translate(26.739062 213.725419)scale(0.1 -0.1)">
       <use xlink:href="#NanumGothic-53"/>
       <use x="60.599991" xlink:href="#NanumGothic-48"/>
       <use x="121.199982" xlink:href="#NanumGothic-48"/>
       <use x="181.799973" xlink:href="#NanumGothic-48"/>
      </g>
     </g>
    </g>
    <g id="ytick_2">
     <g id="line2d_7">
      <g>
       <use style="stroke:#000000;stroke-width:0.8;" x="57.976562" xlink:href="#md84513f4cf" y="185.63741"/>
      </g>
     </g>
     <g id="text_8">
      <!-- 10000 -->
      <g transform="translate(20.679688 189.397566)scale(0.1 -0.1)">
       <use xlink:href="#NanumGothic-49"/>
       <use x="60.599991" xlink:href="#NanumGothic-48"/>
       <use x="121.199982" xlink:href="#NanumGothic-48"/>
       <use x="181.799973" xlink:href="#NanumGothic-48"/>
       <use x="242.399963" xlink:href="#NanumGothic-48"/>
      </g>
     </g>
    </g>
    <g id="ytick_3">
     <g id="line2d_8">
      <g>
       <use style="stroke:#000000;stroke-width:0.8;" x="57.976562" xlink:href="#md84513f4cf" y="161.309557"/>
      </g>
     </g>
     <g id="text_9">
      <!-- 15000 -->
      <g transform="translate(20.679688 165.069713)scale(0.1 -0.1)">
       <use xlink:href="#NanumGothic-49"/>
       <use x="60.599991" xlink:href="#NanumGothic-53"/>
       <use x="121.199982" xlink:href="#NanumGothic-48"/>
       <use x="181.799973" xlink:href="#NanumGothic-48"/>
       <use x="242.399963" xlink:href="#NanumGothic-48"/>
      </g>
     </g>
    </g>
    <g id="ytick_4">
     <g id="line2d_9">
      <g>
       <use style="stroke:#000000;stroke-width:0.8;" x="57.976562" xlink:href="#md84513f4cf" y="136.981704"/>
      </g>
     </g>
     <g id="text_10">
      <!-- 20000 -->
      <g transform="translate(20.679688 140.741861)scale(0.1 -0.1)">
       <use xlink:href="#NanumGothic-50"/>
       <use x="60.599991" xlink:href="#NanumGothic-48"/>
       <use x="121.199982" xlink:href="#NanumGothic-48"/>
       <use x="181.799973" xlink:href="#NanumGothic-48"/>
       <use x="242.399963" xlink:href="#NanumGothic-48"/>
      </g>
     </g>
    </g>
    <g id="ytick_5">
     <g id="line2d_10">
      <g>
       <use style="stroke:#000000;stroke-width:0.8;" x="57.976562" xlink:href="#md84513f4cf" y="112.653852"/>
      </g>
     </g>
     <g id="text_11">
      <!-- 25000 -->
      <g transform="translate(20.679688 116.414008)scale(0.1 -0.1)">
       <use xlink:href="#NanumGothic-50"/>
       <use x="60.599991" xlink:href="#NanumGothic-53"/>
       <use x="121.199982" xlink:href="#NanumGothic-48"/>
       <use x="181.799973" xlink:href="#NanumGothic-48"/>
       <use x="242.399963" xlink:href="#NanumGothic-48"/>
      </g>
     </g>
    </g>
    <g id="ytick_6">
     <g id="line2d_11">
      <g>
       <use style="stroke:#000000;stroke-width:0.8;" x="57.976562" xlink:href="#md84513f4cf" y="88.325999"/>
      </g>
     </g>
     <g id="text_12">
      <!-- 30000 -->
      <g transform="translate(20.679688 92.086155)scale(0.1 -0.1)">
       <defs>
        <path d="M 7.703125 -3 
Q 6.203125 -2.59375 6.40625 -0.703125 
L 6.796875 3.203125 
Q 7 4.40625 8.40625 3.796875 
Q 12.59375 2.09375 16.34375 1.390625 
Q 20.09375 0.703125 25.09375 0.59375 
Q 33 0.5 38.40625 4.59375 
Q 44.703125 8.796875 44.703125 16.90625 
Q 44.703125 31.09375 23.40625 31.09375 
L 18.203125 31.09375 
Q 16.90625 31.09375 16.90625 32.203125 
L 16.90625 35.90625 
Q 16.90625 37.203125 18.203125 37.203125 
L 18.703125 37.203125 
Q 29.40625 37.203125 35.40625 39.5 
Q 44.5 43 44.5 52.09375 
Q 44.5 55 42.953125 57.453125 
Q 41.40625 59.90625 38.796875 61.59375 
Q 36.40625 63 33.40625 63.796875 
Q 30.40625 64.59375 27.09375 64.59375 
Q 23.703125 64.59375 19.59375 63.6875 
Q 15.5 62.796875 11.703125 61.296875 
Q 10.40625 60.796875 10.203125 62.09375 
L 9.796875 65.796875 
Q 9.5 67.203125 11.09375 67.796875 
Q 15.59375 69.296875 19.5 70 
Q 23.40625 70.703125 27.796875 70.703125 
Q 37.90625 70.703125 44.296875 66.40625 
Q 51.59375 61.5 51.59375 52.09375 
Q 51.59375 45.40625 46.796875 40.5 
Q 42.796875 36.203125 36.40625 34.203125 
Q 39.59375 33.796875 42.34375 32.5 
Q 45.09375 31.203125 47.09375 28.90625 
Q 49.40625 26.40625 50.59375 23.25 
Q 51.796875 20.09375 51.796875 16.296875 
Q 51.796875 11.296875 49.75 7.25 
Q 47.703125 3.203125 43.90625 0.296875 
Q 40.203125 -2.40625 35.390625 -3.953125 
Q 30.59375 -5.5 24.703125 -5.40625 
Q 19.40625 -5.296875 15.546875 -4.796875 
Q 11.703125 -4.296875 7.703125 -3 
z
" id="NanumGothic-51"/>
       </defs>
       <use xlink:href="#NanumGothic-51"/>
       <use x="60.599991" xlink:href="#NanumGothic-48"/>
       <use x="121.199982" xlink:href="#NanumGothic-48"/>
       <use x="181.799973" xlink:href="#NanumGothic-48"/>
       <use x="242.399963" xlink:href="#NanumGothic-48"/>
      </g>
     </g>
    </g>
    <g id="ytick_7">
     <g id="line2d_12">
      <g>
       <use style="stroke:#000000;stroke-width:0.8;" x="57.976562" xlink:href="#md84513f4cf" y="63.998146"/>
      </g>
     </g>
     <g id="text_13">
      <!-- 35000 -->
      <g transform="translate(20.679688 67.758302)scale(0.1 -0.1)">
       <use xlink:href="#NanumGothic-51"/>
       <use x="60.599991" xlink:href="#NanumGothic-53"/>
       <use x="121.199982" xlink:href="#NanumGothic-48"/>
       <use x="181.799973" xlink:href="#NanumGothic-48"/>
       <use x="242.399963" xlink:href="#NanumGothic-48"/>
      </g>
     </g>
    </g>
    <g id="ytick_8">
     <g id="line2d_13">
      <g>
       <use style="stroke:#000000;stroke-width:0.8;" x="57.976562" xlink:href="#md84513f4cf" y="39.670293"/>
      </g>
     </g>
     <g id="text_14">
      <!-- 40000 -->
      <g transform="translate(20.679688 43.43045)scale(0.1 -0.1)">
       <defs>
        <path d="M 39.203125 19 
L 39.203125 63.59375 
Q 31.796875 52.40625 24.5 41.296875 
Q 17.203125 30.203125 9.703125 19 
z
M 46 -3.296875 
Q 46 -4.703125 44.59375 -4.703125 
L 40.59375 -4.703125 
Q 39.203125 -4.703125 39.203125 -3.296875 
L 39.203125 12.90625 
L 6.203125 12.90625 
Q 4.09375 12.90625 3.75 13.25 
Q 3.40625 13.59375 3.40625 15.703125 
L 3.40625 18.796875 
Q 3.40625 19.703125 3.5 20 
Q 3.59375 20.296875 4.09375 21.09375 
L 36 68.703125 
Q 36.59375 69.59375 36.84375 69.75 
Q 37.09375 69.90625 38.203125 69.90625 
L 43.203125 69.90625 
Q 45.296875 69.90625 45.640625 69.546875 
Q 46 69.203125 46 67.09375 
L 46 19 
L 55.90625 19 
Q 57.296875 19 57.296875 17.59375 
L 57.296875 14.296875 
Q 57.296875 12.90625 55.90625 12.90625 
L 46 12.90625 
z
" id="NanumGothic-52"/>
       </defs>
       <use xlink:href="#NanumGothic-52"/>
       <use x="60.599991" xlink:href="#NanumGothic-48"/>
       <use x="121.199982" xlink:href="#NanumGothic-48"/>
       <use x="181.799973" xlink:href="#NanumGothic-48"/>
       <use x="242.399963" xlink:href="#NanumGothic-48"/>
      </g>
     </g>
    </g>
    <g id="ytick_9">
     <g id="line2d_14">
      <g>
       <use style="stroke:#000000;stroke-width:0.8;" x="57.976562" xlink:href="#md84513f4cf" y="15.342441"/>
      </g>
     </g>
     <g id="text_15">
      <!-- 45000 -->
      <g transform="translate(20.679688 19.102597)scale(0.1 -0.1)">
       <use xlink:href="#NanumGothic-52"/>
       <use x="60.599991" xlink:href="#NanumGothic-53"/>
       <use x="121.199982" xlink:href="#NanumGothic-48"/>
       <use x="181.799973" xlink:href="#NanumGothic-48"/>
       <use x="242.399963" xlink:href="#NanumGothic-48"/>
      </g>
     </g>
    </g>
    <g id="text_16">
     <!-- 평당분양가격 -->
     <g transform="translate(14.720312 144.12)rotate(-90)scale(0.1 -0.1)">
      <defs>
       <path d="M 81.296875 3.90625 
Q 81.296875 -0.40625 79 -3.796875 
Q 76.703125 -7.203125 72.75 -9.546875 
Q 68.796875 -11.90625 63.546875 -13.15625 
Q 58.296875 -14.40625 52.296875 -14.40625 
Q 45.796875 -14.40625 40.5 -13.15625 
Q 35.203125 -11.90625 31.390625 -9.546875 
Q 27.59375 -7.203125 25.5 -3.796875 
Q 23.40625 -0.40625 23.40625 3.90625 
Q 23.40625 8.09375 25.5 11.4375 
Q 27.59375 14.796875 31.390625 17.140625 
Q 35.203125 19.5 40.5 20.75 
Q 45.796875 22 52.296875 22 
Q 58.296875 22 63.546875 20.75 
Q 68.796875 19.5 72.75 17.203125 
Q 76.703125 14.90625 79 11.546875 
Q 81.296875 8.203125 81.296875 3.90625 
z
M 58.203125 69.203125 
Q 58.203125 67.90625 56.703125 67.90625 
L 48.40625 67.90625 
L 48.40625 36.203125 
Q 51.59375 36.40625 54.6875 36.75 
Q 57.796875 37.09375 60.703125 37.59375 
Q 61.59375 37.796875 61.890625 37.640625 
Q 62.203125 37.5 62.40625 36.796875 
L 63 33.5 
Q 63.09375 32.90625 62.890625 32.59375 
Q 62.703125 32.296875 61.703125 32.09375 
Q 56 31.09375 49 30.640625 
Q 42 30.203125 34.703125 29.796875 
Q 31.90625 29.59375 28.296875 29.546875 
Q 24.703125 29.5 20.890625 29.453125 
Q 17.09375 29.40625 13.390625 29.40625 
Q 9.703125 29.40625 6.796875 29.5 
Q 6.203125 29.5 5.75 29.890625 
Q 5.296875 30.296875 5.296875 30.796875 
L 5.296875 34 
Q 5.296875 34.59375 5.75 34.9375 
Q 6.203125 35.296875 6.796875 35.296875 
L 18.296875 35.296875 
L 18.296875 67.90625 
L 7.5 67.90625 
Q 7 67.90625 6.546875 68.296875 
Q 6.09375 68.703125 6.09375 69.296875 
L 6.09375 72.40625 
Q 6.09375 73 6.546875 73.390625 
Q 7 73.796875 7.5 73.796875 
L 56.703125 73.796875 
Q 58.203125 73.796875 58.203125 72.5 
L 58.203125 69.203125 
z
M 74.203125 3.59375 
Q 74.203125 6.59375 72.390625 8.890625 
Q 70.59375 11.203125 67.546875 12.75 
Q 64.5 14.296875 60.5 15.140625 
Q 56.5 16 52.203125 16 
Q 47.40625 16 43.40625 15.140625 
Q 39.40625 14.296875 36.546875 12.75 
Q 33.703125 11.203125 32.09375 8.890625 
Q 30.5 6.59375 30.5 3.59375 
Q 30.5 0.703125 32.09375 -1.546875 
Q 33.703125 -3.796875 36.546875 -5.296875 
Q 39.40625 -6.796875 43.40625 -7.59375 
Q 47.40625 -8.40625 52.203125 -8.40625 
Q 56.5 -8.40625 60.5 -7.59375 
Q 64.5 -6.796875 67.546875 -5.296875 
Q 70.59375 -3.796875 72.390625 -1.546875 
Q 74.203125 0.703125 74.203125 3.59375 
z
M 73.59375 64 
L 73.59375 76.796875 
Q 73.59375 78.203125 75 78.203125 
L 79.09375 78.203125 
Q 80.5 78.203125 80.5 76.796875 
L 80.5 24.296875 
Q 80.5 22.90625 79.09375 22.90625 
L 75 22.90625 
Q 73.59375 22.90625 73.59375 24.296875 
L 73.59375 42 
L 58.296875 42 
Q 57 42 57 43.203125 
L 57 46.703125 
Q 57 47.90625 58.296875 47.90625 
L 73.59375 47.90625 
L 73.59375 58.09375 
L 58.296875 58.09375 
Q 57 58.09375 57 59.296875 
L 57 62.796875 
Q 57 64 58.296875 64 
z
M 34.5 35.59375 
Q 36.296875 35.59375 38.09375 35.640625 
Q 39.90625 35.703125 41.59375 35.796875 
L 41.59375 67.90625 
L 25.09375 67.90625 
L 25.09375 35.40625 
Q 27.703125 35.5 30.09375 35.5 
Q 32.5 35.5 34.5 35.59375 
z
" id="NanumGothic-54217"/>
       <path d="M 78.203125 3.90625 
Q 78.203125 -0.40625 75.890625 -3.796875 
Q 73.59375 -7.203125 69.640625 -9.546875 
Q 65.703125 -11.90625 60.453125 -13.15625 
Q 55.203125 -14.40625 49.203125 -14.40625 
Q 42.703125 -14.40625 37.390625 -13.15625 
Q 32.09375 -11.90625 28.296875 -9.546875 
Q 24.5 -7.203125 22.390625 -3.796875 
Q 20.296875 -0.40625 20.296875 3.90625 
Q 20.296875 8.09375 22.390625 11.4375 
Q 24.5 14.796875 28.296875 17.140625 
Q 32.09375 19.5 37.390625 20.75 
Q 42.703125 22 49.203125 22 
Q 55.203125 22 60.453125 20.75 
Q 65.703125 19.5 69.640625 17.203125 
Q 73.59375 14.90625 75.890625 11.546875 
Q 78.203125 8.203125 78.203125 3.90625 
z
M 71.09375 3.59375 
Q 71.09375 6.59375 69.296875 8.890625 
Q 67.5 11.203125 64.453125 12.75 
Q 61.40625 14.296875 57.40625 15.140625 
Q 53.40625 16 49.09375 16 
Q 44.296875 16 40.296875 15.140625 
Q 36.296875 14.296875 33.4375 12.75 
Q 30.59375 11.203125 29 8.890625 
Q 27.40625 6.59375 27.40625 3.59375 
Q 27.40625 0.703125 29 -1.546875 
Q 30.59375 -3.796875 33.4375 -5.296875 
Q 36.296875 -6.796875 40.296875 -7.59375 
Q 44.296875 -8.40625 49.09375 -8.40625 
Q 53.40625 -8.40625 57.40625 -7.59375 
Q 61.40625 -6.796875 64.453125 -5.296875 
Q 67.5 -3.796875 69.296875 -1.546875 
Q 71.09375 0.703125 71.09375 3.59375 
z
M 63.59375 36.40625 
Q 63.90625 35.09375 62.40625 34.703125 
Q 59.09375 33.90625 53.640625 33.09375 
Q 48.203125 32.296875 42 31.6875 
Q 35.796875 31.09375 29.546875 30.75 
Q 23.296875 30.40625 18.40625 30.5 
Q 13.90625 30.59375 12.25 32.59375 
Q 10.59375 34.59375 10.59375 38.796875 
L 10.59375 66.90625 
Q 10.59375 71.09375 12.1875 72.5 
Q 13.796875 73.90625 18.203125 73.90625 
L 52.296875 73.90625 
Q 53.59375 73.90625 53.59375 72.703125 
L 53.59375 69.09375 
Q 53.59375 67.90625 52.296875 67.90625 
L 19.5 67.90625 
Q 18.09375 67.90625 17.796875 67.546875 
Q 17.5 67.203125 17.5 65.703125 
L 17.5 39.296875 
Q 17.5 37.796875 18 37.25 
Q 18.5 36.703125 19.90625 36.703125 
Q 25 36.703125 30.390625 36.953125 
Q 35.796875 37.203125 41.09375 37.703125 
Q 46.40625 38.203125 51.5 38.890625 
Q 56.59375 39.59375 61.09375 40.5 
Q 62.09375 40.703125 62.4375 40.390625 
Q 62.796875 40.09375 63 39.5 
z
M 77 24.296875 
Q 77 22.90625 75.59375 22.90625 
L 71.5 22.90625 
Q 70.09375 22.90625 70.09375 24.296875 
L 70.09375 76.796875 
Q 70.09375 78.203125 71.5 78.203125 
L 75.59375 78.203125 
Q 77 78.203125 77 76.796875 
L 77 53 
L 90.796875 53 
Q 91.40625 53 91.84375 52.640625 
Q 92.296875 52.296875 92.296875 51.703125 
L 92.296875 48.296875 
Q 92.296875 47.796875 91.84375 47.390625 
Q 91.40625 47 90.796875 47 
L 77 47 
L 77 24.296875 
z
" id="NanumGothic-45817"/>
       <path d="M 25 41.203125 
Q 22.59375 41.203125 21.140625 41.5 
Q 19.703125 41.796875 18.890625 42.640625 
Q 18.09375 43.5 17.796875 44.84375 
Q 17.5 46.203125 17.5 48.296875 
L 17.5 75.59375 
Q 17.5 76.09375 17.890625 76.4375 
Q 18.296875 76.796875 18.796875 76.796875 
L 23.09375 76.796875 
Q 23.59375 76.796875 23.9375 76.390625 
Q 24.296875 76 24.296875 75.59375 
L 24.296875 65.296875 
L 69.703125 65.296875 
L 69.703125 75.5 
Q 69.703125 76 70.046875 76.390625 
Q 70.40625 76.796875 70.90625 76.796875 
L 75.203125 76.796875 
Q 75.703125 76.796875 76.09375 76.4375 
Q 76.5 76.09375 76.5 75.59375 
L 76.5 47.59375 
Q 76.5 43.796875 74.890625 42.5 
Q 73.296875 41.203125 68.90625 41.203125 
z
M 45.5 4.09375 
Q 45 4.09375 44.59375 4.546875 
Q 44.203125 5 44.203125 5.59375 
L 44.203125 25.40625 
L 4.5 25.40625 
Q 3.90625 25.40625 3.453125 25.796875 
Q 3 26.203125 3 26.703125 
L 3 30.09375 
Q 3 30.703125 3.453125 31.046875 
Q 3.90625 31.40625 4.5 31.40625 
L 89.5 31.40625 
Q 90 31.40625 90.5 31.046875 
Q 91 30.703125 91 30.09375 
L 91 26.703125 
Q 91 26.203125 90.5 25.796875 
Q 90 25.40625 89.5 25.40625 
L 51.09375 25.40625 
L 51.09375 5.59375 
Q 51.09375 5 50.75 4.546875 
Q 50.40625 4.09375 49.796875 4.09375 
z
M 24.296875 59.40625 
L 24.296875 49.5 
Q 24.296875 48 24.796875 47.546875 
Q 25.296875 47.09375 26.703125 47.09375 
L 67.296875 47.09375 
Q 68.703125 47.09375 69.203125 47.546875 
Q 69.703125 48 69.703125 49.5 
L 69.703125 59.40625 
z
M 80.203125 -11 
Q 80.203125 -11.59375 79.703125 -11.890625 
Q 79.203125 -12.203125 78.703125 -12.203125 
L 23.59375 -12.203125 
Q 18.90625 -12.203125 17.453125 -10.25 
Q 16 -8.296875 16 -4.203125 
L 16 14.296875 
Q 16 15.703125 17.40625 15.703125 
L 21.5 15.703125 
Q 22.90625 15.703125 22.90625 14.296875 
L 22.90625 -4.09375 
Q 22.90625 -5.5 23.34375 -5.84375 
Q 23.796875 -6.203125 25.203125 -6.203125 
L 78.703125 -6.203125 
Q 79.203125 -6.203125 79.703125 -6.546875 
Q 80.203125 -6.90625 80.203125 -7.40625 
L 80.203125 -11 
z
" id="NanumGothic-48516"/>
       <path d="M 55.5 52 
Q 55.5 47 53.703125 42.84375 
Q 51.90625 38.703125 48.75 35.703125 
Q 45.59375 32.703125 41.25 31 
Q 36.90625 29.296875 31.703125 29.296875 
Q 26.703125 29.296875 22.390625 30.9375 
Q 18.09375 32.59375 14.9375 35.59375 
Q 11.796875 38.59375 10.046875 42.796875 
Q 8.296875 47 8.296875 52 
Q 8.296875 57.296875 10.046875 61.546875 
Q 11.796875 65.796875 14.9375 68.75 
Q 18.09375 71.703125 22.390625 73.25 
Q 26.703125 74.796875 31.703125 74.796875 
Q 36.5 74.796875 40.796875 73.25 
Q 45.09375 71.703125 48.34375 68.796875 
Q 51.59375 65.90625 53.546875 61.65625 
Q 55.5 57.40625 55.5 52 
z
M 78.203125 3.90625 
Q 78.203125 -0.40625 75.890625 -3.796875 
Q 73.59375 -7.203125 69.640625 -9.546875 
Q 65.703125 -11.90625 60.453125 -13.15625 
Q 55.203125 -14.40625 49.203125 -14.40625 
Q 42.703125 -14.40625 37.390625 -13.15625 
Q 32.09375 -11.90625 28.296875 -9.546875 
Q 24.5 -7.203125 22.390625 -3.796875 
Q 20.296875 -0.40625 20.296875 3.90625 
Q 20.296875 8.09375 22.390625 11.4375 
Q 24.5 14.796875 28.296875 17.140625 
Q 32.09375 19.5 37.390625 20.75 
Q 42.703125 22 49.203125 22 
Q 55.203125 22 60.453125 20.75 
Q 65.703125 19.5 69.640625 17.203125 
Q 73.59375 14.90625 75.890625 11.546875 
Q 78.203125 8.203125 78.203125 3.90625 
z
M 48.5 52.09375 
Q 48.5 56.09375 47.140625 59.140625 
Q 45.796875 62.203125 43.5 64.25 
Q 41.203125 66.296875 38.140625 67.34375 
Q 35.09375 68.40625 31.703125 68.40625 
Q 28.203125 68.40625 25.203125 67.34375 
Q 22.203125 66.296875 20 64.25 
Q 17.796875 62.203125 16.546875 59.140625 
Q 15.296875 56.09375 15.296875 52.09375 
Q 15.296875 48.296875 16.5 45.296875 
Q 17.703125 42.296875 19.84375 40.09375 
Q 22 37.90625 25 36.75 
Q 28 35.59375 31.703125 35.59375 
Q 35.09375 35.59375 38.140625 36.75 
Q 41.203125 37.90625 43.5 40.09375 
Q 45.796875 42.296875 47.140625 45.296875 
Q 48.5 48.296875 48.5 52.09375 
z
M 71.09375 3.59375 
Q 71.09375 6.59375 69.296875 8.890625 
Q 67.5 11.203125 64.453125 12.75 
Q 61.40625 14.296875 57.40625 15.140625 
Q 53.40625 16 49.09375 16 
Q 44.296875 16 40.296875 15.140625 
Q 36.296875 14.296875 33.4375 12.75 
Q 30.59375 11.203125 29 8.890625 
Q 27.40625 6.59375 27.40625 3.59375 
Q 27.40625 0.703125 29 -1.546875 
Q 30.59375 -3.796875 33.4375 -5.296875 
Q 36.296875 -6.796875 40.296875 -7.59375 
Q 44.296875 -8.40625 49.09375 -8.40625 
Q 53.40625 -8.40625 57.40625 -7.59375 
Q 61.40625 -6.796875 64.453125 -5.296875 
Q 67.5 -3.796875 69.296875 -1.546875 
Q 71.09375 0.703125 71.09375 3.59375 
z
M 77 24.59375 
Q 77 23.203125 75.59375 23.203125 
L 71.5 23.203125 
Q 70.09375 23.203125 70.09375 24.59375 
L 70.09375 76.796875 
Q 70.09375 78.203125 71.5 78.203125 
L 75.59375 78.203125 
Q 77 78.203125 77 76.796875 
L 77 60.59375 
L 90.796875 60.59375 
Q 91.40625 60.59375 91.84375 60.25 
Q 92.296875 59.90625 92.296875 59.296875 
L 92.296875 56 
Q 92.296875 55.5 91.84375 55.09375 
Q 91.40625 54.703125 90.796875 54.703125 
L 77 54.703125 
L 77 42.703125 
L 90.796875 42.703125 
Q 91.40625 42.703125 91.84375 42.34375 
Q 92.296875 42 92.296875 41.40625 
L 92.296875 38.09375 
Q 92.296875 37.59375 91.84375 37.1875 
Q 91.40625 36.796875 90.796875 36.796875 
L 77 36.796875 
L 77 24.59375 
z
" id="NanumGothic-50577"/>
       <path d="M 50.703125 63.5 
Q 50.203125 54.90625 47.296875 46.59375 
Q 44.40625 38.296875 39.25 30.75 
Q 34.09375 23.203125 26.84375 16.75 
Q 19.59375 10.296875 10.40625 5.40625 
Q 9.09375 4.703125 8.5 5.703125 
L 6.296875 9.203125 
Q 5.59375 10.40625 6.703125 10.90625 
Q 15.203125 15.296875 21.75 20.9375 
Q 28.296875 26.59375 32.9375 33.1875 
Q 37.59375 39.796875 40.296875 47.09375 
Q 43 54.40625 43.703125 62.09375 
Q 43.90625 63.59375 43.296875 64.140625 
Q 42.703125 64.703125 41.296875 64.703125 
L 10.296875 64.703125 
Q 9.09375 64.703125 9.09375 66 
L 9.09375 69.5 
Q 9.09375 70.703125 10.296875 70.703125 
L 43.203125 70.703125 
Q 47.90625 70.703125 49.40625 68.953125 
Q 50.90625 67.203125 50.703125 63.5 
z
M 77 -12.59375 
Q 77 -14 75.59375 -14 
L 71.5 -14 
Q 70.09375 -14 70.09375 -12.59375 
L 70.09375 76.796875 
Q 70.09375 78.203125 71.5 78.203125 
L 75.59375 78.203125 
Q 77 78.203125 77 76.796875 
L 77 41.40625 
L 90.796875 41.40625 
Q 91.40625 41.40625 91.84375 41.046875 
Q 92.296875 40.703125 92.296875 40.09375 
L 92.296875 36.703125 
Q 92.296875 36.203125 91.84375 35.796875 
Q 91.40625 35.40625 90.796875 35.40625 
L 77 35.40625 
L 77 -12.59375 
z
" id="NanumGothic-44032"/>
       <path d="M 53.5 65.796875 
Q 53 62.90625 52.296875 60.40625 
L 73.59375 60.40625 
L 73.59375 76.796875 
Q 73.59375 78.203125 75 78.203125 
L 79.09375 78.203125 
Q 80.5 78.203125 80.5 76.796875 
L 80.5 25.59375 
Q 80.5 24.203125 79.09375 24.203125 
L 75 24.203125 
Q 73.59375 24.203125 73.59375 25.59375 
L 73.59375 36.5 
L 48.203125 36.5 
Q 46.90625 36.5 46.90625 37.703125 
L 46.90625 41.203125 
Q 46.90625 42.40625 48.203125 42.40625 
L 73.59375 42.40625 
L 73.59375 54.5 
L 50.203125 54.5 
Q 46 44.703125 37.09375 36.84375 
Q 28.203125 29 13.59375 22.90625 
Q 12 22.203125 11.40625 23.5 
L 9.90625 26.796875 
Q 9.5 27.59375 9.84375 28.09375 
Q 10.203125 28.59375 10.703125 28.796875 
Q 26.59375 35.40625 35.34375 44.5 
Q 44.09375 53.59375 46 64.09375 
Q 46.59375 66.90625 43.59375 66.90625 
L 13.40625 66.90625 
Q 12.203125 66.90625 12.203125 68.203125 
L 12.203125 71.703125 
Q 12.203125 72.90625 13.40625 72.90625 
L 45.90625 72.90625 
Q 50.703125 72.90625 52.390625 71.203125 
Q 54.09375 69.5 53.5 65.796875 
z
M 22.203125 18.203125 
Q 22.203125 18.796875 22.703125 19.09375 
Q 23.203125 19.40625 23.703125 19.40625 
L 72.90625 19.40625 
Q 77.59375 19.40625 79.046875 17.65625 
Q 80.5 15.90625 80.5 11.796875 
L 80.5 -13 
Q 80.5 -14.40625 79.09375 -14.40625 
L 75 -14.40625 
Q 73.59375 -14.40625 73.59375 -13 
L 73.59375 11.296875 
Q 73.59375 12.703125 73.140625 13.046875 
Q 72.703125 13.40625 71.296875 13.40625 
L 23.703125 13.40625 
Q 23.203125 13.40625 22.703125 13.75 
Q 22.203125 14.09375 22.203125 14.59375 
L 22.203125 18.203125 
z
" id="NanumGothic-44201"/>
      </defs>
      <use xlink:href="#NanumGothic-54217"/>
      <use x="93.999985" xlink:href="#NanumGothic-45817"/>
      <use x="187.999969" xlink:href="#NanumGothic-48516"/>
      <use x="281.999954" xlink:href="#NanumGothic-50577"/>
      <use x="375.999939" xlink:href="#NanumGothic-44032"/>
      <use x="469.999924" xlink:href="#NanumGothic-44201"/>
     </g>
    </g>
   </g>
   <g id="line2d_15">
    <path clip-path="url(#pade363eff3)" d="M 91.456563 204.299792 
L 91.456563 172.476041 
" style="fill:none;stroke:#3d3d3d;stroke-linecap:square;stroke-width:1.5;"/>
   </g>
   <g id="line2d_16">
    <path clip-path="url(#pade363eff3)" d="M 91.456563 198.567664 
L 91.456563 185.714529 
" style="fill:none;stroke:#3d3d3d;stroke-linecap:square;stroke-width:4.5;"/>
   </g>
   <g id="line2d_17">
    <path clip-path="url(#pade363eff3)" d="M 158.416562 203.785988 
L 158.416562 164.801091 
" style="fill:none;stroke:#3d3d3d;stroke-linecap:square;stroke-width:1.5;"/>
   </g>
   <g id="line2d_18">
    <path clip-path="url(#pade363eff3)" d="M 158.416562 197.65245 
L 158.416562 183.739594 
" style="fill:none;stroke:#3d3d3d;stroke-linecap:square;stroke-width:4.5;"/>
   </g>
   <g id="line2d_19">
    <path clip-path="url(#pade363eff3)" d="M 225.376563 202.565703 
L 225.376563 153.786412 
" style="fill:none;stroke:#3d3d3d;stroke-linecap:square;stroke-width:1.5;"/>
   </g>
   <g id="line2d_20">
    <path clip-path="url(#pade363eff3)" d="M 225.376563 196.31977 
L 225.376563 178.802256 
" style="fill:none;stroke:#3d3d3d;stroke-linecap:square;stroke-width:4.5;"/>
   </g>
   <g id="line2d_21">
    <path clip-path="url(#pade363eff3)" d="M 292.336563 200.960065 
L 292.336563 147.909776 
" style="fill:none;stroke:#3d3d3d;stroke-linecap:square;stroke-width:1.5;"/>
   </g>
   <g id="line2d_22">
    <path clip-path="url(#pade363eff3)" d="M 292.336563 193.750749 
L 292.336563 174.916612 
" style="fill:none;stroke:#3d3d3d;stroke-linecap:square;stroke-width:4.5;"/>
   </g>
   <g id="line2d_23">
    <path clip-path="url(#pade363eff3)" d="M 359.296563 200.189358 
L 359.296563 143.253425 
" style="fill:none;stroke:#3d3d3d;stroke-linecap:square;stroke-width:1.5;"/>
   </g>
   <g id="line2d_24">
    <path clip-path="url(#pade363eff3)" d="M 359.296563 191.976518 
L 359.296563 169.003849 
" style="fill:none;stroke:#3d3d3d;stroke-linecap:square;stroke-width:4.5;"/>
   </g>
   <g id="patch_3">
    <path d="M 57.976562 224.64 
L 57.976562 7.2 
" style="fill:none;stroke:#000000;stroke-linecap:square;stroke-linejoin:miter;stroke-width:0.8;"/>
   </g>
   <g id="patch_4">
    <path d="M 392.776563 224.64 
L 392.776563 7.2 
" style="fill:none;stroke:#000000;stroke-linecap:square;stroke-linejoin:miter;stroke-width:0.8;"/>
   </g>
   <g id="patch_5">
    <path d="M 57.976562 224.64 
L 392.776563 224.64 
" style="fill:none;stroke:#000000;stroke-linecap:square;stroke-linejoin:miter;stroke-width:0.8;"/>
   </g>
   <g id="patch_6">
    <path d="M 57.976562 7.2 
L 392.776563 7.2 
" style="fill:none;stroke:#000000;stroke-linecap:square;stroke-linejoin:miter;stroke-width:0.8;"/>
   </g>
   <g id="PathCollection_1">
    <defs>
     <path d="M 0 1.5 
C 0.397805 1.5 0.77937 1.341951 1.06066 1.06066 
C 1.341951 0.77937 1.5 0.397805 1.5 0 
C 1.5 -0.397805 1.341951 -0.77937 1.06066 -1.06066 
C 0.77937 -1.341951 0.397805 -1.5 0 -1.5 
C -0.397805 -1.5 -0.77937 -1.341951 -1.06066 -1.06066 
C -1.341951 -0.77937 -1.5 -0.397805 -1.5 0 
C -1.5 0.397805 -1.341951 0.77937 -1.06066 1.06066 
C -0.77937 1.341951 -0.397805 1.5 0 1.5 
z
" id="m06f65de656" style="stroke:#3d3d3d;"/>
    </defs>
    <g clip-path="url(#pade363eff3)">
     <use style="fill:#ffffff;stroke:#3d3d3d;" x="91.456563" xlink:href="#m06f65de656" y="193.895256"/>
    </g>
   </g>
   <g id="PathCollection_2">
    <g clip-path="url(#pade363eff3)">
     <use style="fill:#ffffff;stroke:#3d3d3d;" x="158.416562" xlink:href="#m06f65de656" y="191.39046"/>
    </g>
   </g>
   <g id="PathCollection_3">
    <g clip-path="url(#pade363eff3)">
     <use style="fill:#ffffff;stroke:#3d3d3d;" x="225.376563" xlink:href="#m06f65de656" y="188.548481"/>
    </g>
   </g>
   <g id="PathCollection_4">
    <g clip-path="url(#pade363eff3)">
     <use style="fill:#ffffff;stroke:#3d3d3d;" x="292.336563" xlink:href="#m06f65de656" y="186.894673"/>
    </g>
   </g>
   <g id="PathCollection_5">
    <g clip-path="url(#pade363eff3)">
     <use style="fill:#ffffff;stroke:#3d3d3d;" x="359.296563" xlink:href="#m06f65de656" y="179.781696"/>
    </g>
   </g>
  </g>
 </g>
 <defs>
  <clipPath id="pade363eff3">
   <rect height="217.44" width="334.8" x="57.976562" y="7.2"/>
  </clipPath>
 </defs>
</svg>
