<?xml version="1.0" encoding="utf-8" standalone="no"?>
<!DOCTYPE svg PUBLIC "-//W3C//DTD SVG 1.1//EN"
  "http://www.w3.org/Graphics/SVG/1.1/DTD/svg11.dtd">
<!-- Created with matplotlib (https://matplotlib.org/) -->
<svg height="310.0346pt" version="1.1" viewBox="0 0 386.496875 310.0346" width="386.496875pt" xmlns="http://www.w3.org/2000/svg" xmlns:xlink="http://www.w3.org/1999/xlink">
 <metadata>
  <rdf:RDF xmlns:cc="http://creativecommons.org/ns#" xmlns:dc="http://purl.org/dc/elements/1.1/" xmlns:rdf="http://www.w3.org/1999/02/22-rdf-syntax-ns#">
   <cc:Work>
    <dc:type rdf:resource="http://purl.org/dc/dcmitype/StillImage"/>
    <dc:date>2020-11-12T23:32:39.027860</dc:date>
    <dc:format>image/svg+xml</dc:format>
    <dc:creator>
     <cc:Agent>
      <dc:title>Matplotlib v3.3.2, https://matplotlib.org/</dc:title>
     </cc:Agent>
    </dc:creator>
   </cc:Work>
  </rdf:RDF>
 </metadata>
 <defs>
  <style type="text/css">*{stroke-linecap:butt;stroke-linejoin:round;}</style>
 </defs>
 <g id="figure_1">
  <g id="patch_1">
   <path d="M 0 310.0346 
L 386.496875 310.0346 
L 386.496875 0 
L 0 0 
z
" style="fill:none;"/>
  </g>
  <g id="axes_1">
   <g id="patch_2">
    <path d="M 44.496875 226.717413 
L 379.296875 226.717413 
L 379.296875 9.277413 
L 44.496875 9.277413 
z
" style="fill:#ffffff;"/>
   </g>
   <g id="patch_3">
    <path clip-path="url(#p25dfd42cdb)" d="M 61.236875 226.717413 
L 94.716875 226.717413 
L 94.716875 19.631699 
L 61.236875 19.631699 
z
" style="fill:#1f77b4;"/>
   </g>
   <g id="patch_4">
    <path clip-path="url(#p25dfd42cdb)" d="M 128.196875 226.717413 
L 161.676875 226.717413 
L 161.676875 40.174814 
L 128.196875 40.174814 
z
" style="fill:#1f77b4;"/>
   </g>
   <g id="patch_5">
    <path clip-path="url(#p25dfd42cdb)" d="M 195.156875 226.717413 
L 228.636875 226.717413 
L 228.636875 42.046461 
L 195.156875 42.046461 
z
" style="fill:#1f77b4;"/>
   </g>
   <g id="patch_6">
    <path clip-path="url(#p25dfd42cdb)" d="M 262.116875 226.717413 
L 295.596875 226.717413 
L 295.596875 27.18511 
L 262.116875 27.18511 
z
" style="fill:#1f77b4;"/>
   </g>
   <g id="patch_7">
    <path clip-path="url(#p25dfd42cdb)" d="M 329.076875 226.717413 
L 362.556875 226.717413 
L 362.556875 41.955732 
L 329.076875 41.955732 
z
" style="fill:#1f77b4;"/>
   </g>
   <g id="matplotlib.axis_1">
    <g id="xtick_1">
     <g id="line2d_1">
      <defs>
       <path d="M 0 0 
L 0 3.5 
" id="mb1162e0170" style="stroke:#000000;stroke-width:0.8;"/>
      </defs>
      <g>
       <use style="stroke:#000000;stroke-width:0.8;" x="77.976875" xlink:href="#mb1162e0170" y="226.717413"/>
      </g>
     </g>
     <g id="text_1">
      <!-- 102㎡~ -->
      <g transform="translate(80.757344 267.836163)rotate(-90)scale(0.1 -0.1)">
       <defs>
        <path d="M 36.90625 -3.296875 
Q 36.90625 -4.703125 35.5 -4.703125 
L 31.40625 -4.703125 
Q 30 -4.703125 30 -3.296875 
L 30 61.703125 
Q 26.90625 59.09375 24.203125 56.796875 
Q 21.5 54.5 18.5 51.90625 
Q 17.40625 51 16.5 52.09375 
L 14.5 54.5 
Q 14.203125 55 14.203125 55.546875 
Q 14.203125 56.09375 14.703125 56.5 
L 30.203125 69.5 
Q 30.59375 69.90625 31.40625 69.90625 
L 34.09375 69.90625 
Q 36.203125 69.90625 36.546875 69.546875 
Q 36.90625 69.203125 36.90625 67.09375 
z
" id="NanumGothic-49"/>
        <path d="M 47.90625 32.703125 
Q 47.90625 64.09375 30.703125 64.09375 
Q 13.5 64.09375 13.5 32.703125 
Q 13.5 1.203125 30.703125 1.203125 
Q 47.90625 1.203125 47.90625 32.703125 
z
M 55.09375 32.703125 
Q 55.09375 -5.09375 30.703125 -5.09375 
Q 6.09375 -5.09375 6.09375 32.703125 
Q 6.09375 48.40625 10.90625 58.203125 
Q 17 70.5 30.703125 70.5 
Q 44.203125 70.5 50.40625 58.203125 
Q 52.703125 53.296875 53.890625 47 
Q 55.09375 40.703125 55.09375 32.703125 
z
" id="NanumGothic-48"/>
        <path d="M 9 -4.703125 
Q 7.90625 -4.703125 7.34375 -4.640625 
Q 6.796875 -4.59375 6.546875 -4.34375 
Q 6.296875 -4.09375 6.25 -3.546875 
Q 6.203125 -3 6.203125 -1.90625 
L 6.296875 0.296875 
Q 6.296875 1.59375 7.09375 2.40625 
L 23.59375 20.59375 
Q 42 40.5 42 50.796875 
Q 42 56.796875 38 60.796875 
Q 34.09375 64.703125 28.296875 64.703125 
Q 20.203125 64.703125 11.40625 60.203125 
Q 10 59.5 9.796875 60.796875 
L 9.203125 64.09375 
Q 8.90625 65.796875 10.203125 66.203125 
Q 15.296875 68.5 19.390625 69.59375 
Q 23.5 70.703125 27.796875 70.703125 
Q 37.40625 70.703125 43.09375 65.90625 
Q 49.5 60.703125 49.5 51.09375 
Q 49.5 47.40625 47.703125 43 
Q 45.90625 38.59375 42.703125 33.796875 
Q 40.703125 31 37.046875 26.5 
Q 33.40625 22 28.703125 16.90625 
Q 25.203125 13.09375 21.75 9.1875 
Q 18.296875 5.296875 14.796875 1.5 
L 49.796875 1.5 
Q 51.203125 1.5 51.203125 0.09375 
L 51.203125 -3.296875 
Q 51.203125 -4.703125 49.796875 -4.703125 
z
" id="NanumGothic-50"/>
        <path d="M 74.203125 -4 
L 68.40625 -4 
L 68.40625 30.703125 
Q 68.40625 33.703125 68 36.140625 
Q 67.59375 38.59375 66.4375 40.296875 
Q 65.296875 42 63.390625 42.890625 
Q 61.5 43.796875 58.5 43.796875 
Q 55.5 43.796875 53.296875 42.34375 
Q 51.09375 40.90625 49.75 38.40625 
Q 48.40625 35.90625 47.75 32.5 
Q 47.09375 29.09375 47.09375 25.203125 
L 47.09375 -4 
L 41.203125 -4 
L 41.203125 30.5 
Q 41.203125 33.09375 40.84375 35.5 
Q 40.5 37.90625 39.546875 39.75 
Q 38.59375 41.59375 36.890625 42.6875 
Q 35.203125 43.796875 32.5 43.796875 
Q 29 43.796875 26.640625 42.390625 
Q 24.296875 41 22.796875 38.5 
Q 21.296875 36 20.640625 32.546875 
Q 20 29.09375 20 25.09375 
L 20 -4 
L 14.203125 -4 
L 14.203125 47.59375 
L 20 47.59375 
L 20 38.90625 
Q 21.09375 43.09375 24.59375 46.09375 
Q 28.09375 49.09375 33.59375 49.09375 
Q 38.90625 49.09375 42.203125 46.296875 
Q 45.5 43.5 46.203125 39 
Q 47.5 43.09375 50.84375 46.09375 
Q 54.203125 49.09375 59.796875 49.09375 
Q 67.203125 49.09375 70.703125 44.59375 
Q 74.203125 40.09375 74.203125 31 
z
M 79.796875 52.90625 
L 66.703125 52.90625 
Q 66.703125 54.703125 67.140625 56.046875 
Q 67.59375 57.40625 68.390625 58.5 
Q 69.203125 59.59375 70.34375 60.546875 
Q 71.5 61.5 72.90625 62.5 
Q 74.296875 63.5 75.390625 64.640625 
Q 76.5 65.796875 76.5 67.5 
Q 76.5 69 75.59375 69.75 
Q 74.703125 70.5 73.296875 70.5 
Q 70.09375 70.5 70.40625 65.203125 
L 67.09375 65.203125 
Q 66.796875 69.203125 68.5 71.453125 
Q 70.203125 73.703125 73.296875 73.703125 
Q 76 73.703125 77.890625 72.203125 
Q 79.796875 70.703125 79.796875 67.5 
Q 79.796875 64.40625 77.390625 62.203125 
Q 75 60 72 57.90625 
Q 71.5 57.59375 71.25 57.140625 
Q 71 56.703125 70.796875 56.203125 
L 79.796875 56.203125 
z
" id="NanumGothic-13217"/>
        <path d="M 56.796875 36.09375 
Q 57.59375 35 57.59375 34.640625 
Q 57.59375 34.296875 56.796875 33 
Q 52 25 44.40625 25 
Q 40.59375 25 32.09375 28.796875 
Q 23.703125 32.796875 21.5 32.796875 
Q 17.796875 32.796875 13.203125 26.703125 
Q 12.296875 25.40625 12 25.40625 
Q 11.703125 25.40625 10.796875 26.703125 
L 9.296875 28.796875 
Q 8.5 30 8.546875 30.546875 
Q 8.59375 31.09375 9.40625 32.5 
Q 14.203125 40 21.59375 40 
Q 25.796875 40 33.90625 36.203125 
Q 42 32.203125 44.5 32.203125 
Q 46.5 32.203125 48.640625 33.84375 
Q 50.796875 35.5 53 38.5 
Q 53.796875 39.59375 54 39.640625 
Q 54.203125 39.703125 55 38.59375 
z
" id="NanumGothic-126"/>
       </defs>
       <use xlink:href="#NanumGothic-49"/>
       <use x="60.599991" xlink:href="#NanumGothic-48"/>
       <use x="121.199982" xlink:href="#NanumGothic-50"/>
       <use x="181.799973" xlink:href="#NanumGothic-13217"/>
       <use x="275.799957" xlink:href="#NanumGothic-126"/>
      </g>
     </g>
    </g>
    <g id="xtick_2">
     <g id="line2d_2">
      <g>
       <use style="stroke:#000000;stroke-width:0.8;" x="144.936875" xlink:href="#mb1162e0170" y="226.717413"/>
      </g>
     </g>
     <g id="text_2">
      <!-- 60㎡ -->
      <g transform="translate(147.717344 255.236163)rotate(-90)scale(0.1 -0.1)">
       <defs>
        <path d="M 48.09375 18.796875 
Q 48.09375 26.90625 43.90625 31.59375 
Q 39.703125 36.40625 31.90625 36.40625 
Q 27.90625 36.40625 24.703125 35.15625 
Q 21.5 33.90625 19.25 31.703125 
Q 17 29.5 15.75 26.390625 
Q 14.5 23.296875 14.5 19.59375 
Q 14.5 12 18.703125 6.796875 
Q 23.296875 0.703125 31 0.703125 
Q 38.90625 0.703125 43.703125 6 
Q 48.09375 11 48.09375 18.796875 
z
M 50.703125 62.703125 
Q 48.40625 63.5 45.453125 64 
Q 42.5 64.5 39.59375 64.5 
Q 26 64.5 19.5 54.703125 
Q 14 46.5 13.796875 32.203125 
Q 16 36.203125 20.203125 39 
Q 25.40625 42.703125 31.90625 42.703125 
Q 41 42.703125 47.203125 37.90625 
Q 55.09375 31.796875 55.09375 19.296875 
Q 55.09375 8.703125 48.59375 1.703125 
Q 42 -5.40625 30.796875 -5.40625 
Q 6.796875 -5.40625 6.796875 30 
Q 6.796875 48.5 14.203125 58.90625 
Q 22.90625 70.703125 40.40625 70.703125 
Q 43 70.703125 45.84375 70.296875 
Q 48.703125 69.90625 51.09375 69.203125 
Q 52.59375 68.90625 52.40625 67.40625 
L 52.203125 63.703125 
Q 52.203125 63 51.703125 62.75 
Q 51.203125 62.5 50.703125 62.703125 
z
" id="NanumGothic-54"/>
       </defs>
       <use xlink:href="#NanumGothic-54"/>
       <use x="60.599991" xlink:href="#NanumGothic-48"/>
       <use x="121.199982" xlink:href="#NanumGothic-13217"/>
      </g>
     </g>
    </g>
    <g id="xtick_3">
     <g id="line2d_3">
      <g>
       <use style="stroke:#000000;stroke-width:0.8;" x="211.896875" xlink:href="#mb1162e0170" y="226.717413"/>
      </g>
     </g>
     <g id="text_3">
      <!-- 60㎡~85㎡ -->
      <g transform="translate(214.677344 283.295538)rotate(-90)scale(0.1 -0.1)">
       <defs>
        <path d="M 46 52.5 
Q 46 58.203125 41 61.5 
Q 36.59375 64.59375 30.703125 64.59375 
Q 24.296875 64.59375 19.90625 61.40625 
Q 15.09375 58.203125 15.09375 52.5 
Q 15.09375 47.296875 20.09375 43.09375 
Q 21.5 41.796875 23.84375 40.296875 
Q 26.203125 38.796875 29.40625 37.296875 
Q 30.203125 36.90625 30.703125 36.953125 
Q 31.203125 37 32.203125 37.5 
Q 38.59375 41 42.296875 44.84375 
Q 46 48.703125 46 52.5 
z
M 48.5 15 
Q 48.5 20.5 43.5 24.59375 
Q 41.90625 25.90625 39 27.5 
Q 36.09375 29.09375 31.90625 31 
Q 30.59375 31.703125 29 31 
Q 25.09375 29.5 22.09375 27.84375 
Q 19.09375 26.203125 17.296875 24.796875 
Q 15.296875 22.796875 14.046875 20.140625 
Q 12.796875 17.5 12.796875 14.5 
Q 12.796875 8.40625 18.5 4.5 
Q 23.703125 0.59375 30.703125 0.59375 
Q 37.90625 0.59375 42.796875 4 
Q 48.5 7.90625 48.5 15 
z
M 55.5 14.5 
Q 55.5 9.59375 53.453125 5.6875 
Q 51.40625 1.796875 47.59375 -0.796875 
Q 44.296875 -3 40 -4.203125 
Q 35.703125 -5.40625 30.703125 -5.40625 
Q 25.796875 -5.40625 21.546875 -4.09375 
Q 17.296875 -2.796875 13.796875 -0.5 
Q 10 2.203125 7.890625 6.046875 
Q 5.796875 9.90625 5.796875 14.5 
Q 5.796875 22.296875 11 27.203125 
Q 15 31 23.296875 34.09375 
Q 8.09375 41.59375 8.09375 53.296875 
Q 8.09375 57.5 10.1875 60.75 
Q 12.296875 64 16.09375 66.59375 
Q 19.296875 68.59375 22.9375 69.640625 
Q 26.59375 70.703125 30.703125 70.703125 
Q 35.5 70.703125 39.296875 69.640625 
Q 43.09375 68.59375 46.203125 66.5 
Q 53.09375 61.703125 53.09375 53.296875 
Q 53.09375 42.90625 37.5 34.09375 
Q 41.59375 32.59375 44.84375 30.796875 
Q 48.09375 29 50.09375 27.203125 
Q 55.5 22.40625 55.5 14.5 
z
" id="NanumGothic-56"/>
        <path d="M 11.5 -3.203125 
Q 10.09375 -2.703125 10.09375 -1.40625 
L 10.09375 2.796875 
Q 10.09375 4.5 11.5 3.796875 
Q 15.09375 2.09375 18.546875 1.390625 
Q 22 0.703125 26.09375 0.703125 
Q 34.90625 0.703125 40.40625 5 
Q 46.40625 9.59375 46.40625 18.203125 
Q 46.40625 35.09375 27.09375 35.09375 
Q 23.296875 35.09375 20.25 34.6875 
Q 17.203125 34.296875 13.5 33.296875 
Q 12.40625 33 11.703125 33.546875 
Q 11 34.09375 11 35.203125 
L 11.59375 67.09375 
Q 11.59375 69.203125 11.9375 69.546875 
Q 12.296875 69.90625 14.40625 69.90625 
L 48.59375 69.90625 
Q 50 69.90625 50 68.5 
L 50 65.203125 
Q 50 63.796875 48.59375 63.796875 
L 18.40625 63.796875 
Q 18.296875 57.5 18.140625 51.5 
Q 18 45.5 17.90625 39.203125 
Q 22.796875 41.09375 29.796875 41.09375 
Q 40.296875 41.09375 46.796875 35.40625 
Q 53.296875 29.5 53.296875 19.59375 
Q 53.296875 7.5 45.796875 0.90625 
Q 38.59375 -5.40625 26.09375 -5.40625 
Q 21.59375 -5.40625 18.296875 -4.90625 
Q 15 -4.40625 11.5 -3.203125 
z
" id="NanumGothic-53"/>
       </defs>
       <use xlink:href="#NanumGothic-54"/>
       <use x="60.599991" xlink:href="#NanumGothic-48"/>
       <use x="121.199982" xlink:href="#NanumGothic-13217"/>
       <use x="215.199966" xlink:href="#NanumGothic-126"/>
       <use x="280.59996" xlink:href="#NanumGothic-56"/>
       <use x="341.199951" xlink:href="#NanumGothic-53"/>
       <use x="401.799942" xlink:href="#NanumGothic-13217"/>
      </g>
     </g>
    </g>
    <g id="xtick_4">
     <g id="line2d_4">
      <g>
       <use style="stroke:#000000;stroke-width:0.8;" x="278.856875" xlink:href="#mb1162e0170" y="226.717413"/>
      </g>
     </g>
     <g id="text_4">
      <!-- 85㎡~102㎡ -->
      <g transform="translate(281.637344 289.354913)rotate(-90)scale(0.1 -0.1)">
       <use xlink:href="#NanumGothic-56"/>
       <use x="60.599991" xlink:href="#NanumGothic-53"/>
       <use x="121.199982" xlink:href="#NanumGothic-13217"/>
       <use x="215.199966" xlink:href="#NanumGothic-126"/>
       <use x="280.59996" xlink:href="#NanumGothic-49"/>
       <use x="341.199951" xlink:href="#NanumGothic-48"/>
       <use x="401.799942" xlink:href="#NanumGothic-50"/>
       <use x="462.399933" xlink:href="#NanumGothic-13217"/>
      </g>
     </g>
    </g>
    <g id="xtick_5">
     <g id="line2d_5">
      <g>
       <use style="stroke:#000000;stroke-width:0.8;" x="345.816875" xlink:href="#mb1162e0170" y="226.717413"/>
      </g>
     </g>
     <g id="text_5">
      <!-- 전체 -->
      <g transform="translate(348.597344 252.517413)rotate(-90)scale(0.1 -0.1)">
       <defs>
        <path d="M 51.703125 63.09375 
Q 50.296875 58.90625 47.6875 54.59375 
Q 45.09375 50.296875 41.59375 46.09375 
Q 45.59375 41.40625 50.84375 37.25 
Q 56.09375 33.09375 61.203125 30.40625 
Q 62.5 29.796875 61.796875 28.5 
L 59.5 25.09375 
Q 59.203125 24.59375 58.59375 24.546875 
Q 58 24.5 57.5 24.796875 
Q 52.40625 27.59375 47.15625 32 
Q 41.90625 36.40625 37.40625 41.296875 
Q 31.703125 35.296875 24.890625 30.296875 
Q 18.09375 25.296875 11.203125 22.09375 
Q 10.703125 21.90625 10.203125 21.75 
Q 9.703125 21.59375 9.40625 22.09375 
L 7.40625 25.59375 
Q 7.09375 26.09375 7.296875 26.640625 
Q 7.5 27.203125 8 27.40625 
Q 19.796875 33.40625 29.140625 42.296875 
Q 38.5 51.203125 44.09375 62.703125 
Q 44.796875 64.09375 44.296875 64.6875 
Q 43.796875 65.296875 42.40625 65.296875 
L 13.09375 65.296875 
Q 11.90625 65.296875 11.90625 66.59375 
L 11.90625 70.09375 
Q 11.90625 71.296875 13.09375 71.296875 
L 45.09375 71.296875 
Q 50.296875 71.296875 51.796875 69.4375 
Q 53.296875 67.59375 51.703125 63.09375 
z
M 73.59375 51.5 
L 73.59375 76.796875 
Q 73.59375 78.203125 75 78.203125 
L 79.09375 78.203125 
Q 80.5 78.203125 80.5 76.796875 
L 80.5 12.203125 
Q 80.5 10.796875 79.09375 10.796875 
L 75 10.796875 
Q 73.59375 10.796875 73.59375 12.203125 
L 73.59375 45.703125 
L 54.703125 45.703125 
Q 53.40625 45.703125 53.40625 46.90625 
L 53.40625 50.296875 
Q 53.40625 51.5 54.703125 51.5 
z
M 83.59375 -11 
Q 83.59375 -11.59375 83.09375 -11.890625 
Q 82.59375 -12.203125 82.09375 -12.203125 
L 31.5 -12.203125 
Q 26.796875 -12.203125 25.34375 -10.453125 
Q 23.90625 -8.703125 23.90625 -4.59375 
L 23.90625 14.40625 
Q 23.90625 15.796875 25.296875 15.796875 
L 29.40625 15.796875 
Q 30.796875 15.796875 30.796875 14.40625 
L 30.796875 -4.09375 
Q 30.796875 -5.5 31.25 -5.84375 
Q 31.703125 -6.203125 33.09375 -6.203125 
L 82.09375 -6.203125 
Q 82.59375 -6.203125 83.09375 -6.546875 
Q 83.59375 -6.90625 83.59375 -7.40625 
L 83.59375 -11 
z
" id="NanumGothic-51204"/>
        <path d="M 44.296875 50.203125 
Q 42.59375 45.703125 40.34375 41.453125 
Q 38.09375 37.203125 35.296875 33.203125 
Q 39.203125 28.09375 43.75 23.75 
Q 48.296875 19.40625 52.796875 16.5 
Q 53.90625 15.703125 52.90625 14.59375 
L 50.40625 11.40625 
Q 49.90625 10.796875 49.5 10.796875 
Q 49.09375 10.796875 48.296875 11.40625 
Q 46.296875 12.90625 44.09375 14.796875 
Q 41.90625 16.703125 39.703125 18.890625 
Q 37.5 21.09375 35.34375 23.4375 
Q 33.203125 25.796875 31.296875 28.09375 
Q 26.796875 22.703125 21.5 18.09375 
Q 16.203125 13.5 10.40625 9.90625 
Q 10 9.59375 9.453125 9.59375 
Q 8.90625 9.59375 8.703125 9.796875 
L 6.203125 13 
Q 5.90625 13.5 6.09375 14.046875 
Q 6.296875 14.59375 6.703125 14.90625 
Q 12.09375 18.296875 16.84375 22.546875 
Q 21.59375 26.796875 25.5 31.34375 
Q 29.40625 35.90625 32.25 40.59375 
Q 35.09375 45.296875 36.703125 49.796875 
Q 37.703125 52.40625 35 52.40625 
L 10.703125 52.40625 
Q 9.5 52.40625 9.5 53.703125 
L 9.5 57.203125 
Q 9.5 58.40625 10.90625 58.40625 
L 37.703125 58.40625 
Q 42.90625 58.40625 44.453125 56.546875 
Q 46 54.703125 44.296875 50.203125 
z
M 59.5 39.09375 
L 59.5 75.09375 
Q 59.5 76.5 60.90625 76.5 
L 64.703125 76.5 
Q 66.09375 76.5 66.09375 75.09375 
L 66.09375 -8.796875 
Q 66.09375 -10.203125 64.703125 -10.203125 
L 60.90625 -10.203125 
Q 59.5 -10.203125 59.5 -8.796875 
L 59.5 33.09375 
L 47.203125 33.09375 
Q 46.59375 33.09375 46.140625 33.5 
Q 45.703125 33.90625 45.703125 34.40625 
L 45.703125 37.796875 
Q 45.703125 38.40625 46.140625 38.75 
Q 46.59375 39.09375 47.203125 39.09375 
z
M 83.796875 -12.59375 
Q 83.796875 -14 82.40625 -14 
L 78.59375 -14 
Q 77.203125 -14 77.203125 -12.59375 
L 77.203125 76.796875 
Q 77.203125 78.203125 78.59375 78.203125 
L 82.40625 78.203125 
Q 83.796875 78.203125 83.796875 76.796875 
z
M 37.203125 72.796875 
Q 38.703125 72.796875 38.703125 71.40625 
L 38.703125 68.203125 
Q 38.703125 66.703125 37.203125 66.703125 
L 18.5 66.703125 
Q 17 66.703125 17 68.203125 
L 17 71.40625 
Q 17 72.796875 18.5 72.796875 
L 37.203125 72.796875 
z
" id="NanumGothic-52404"/>
       </defs>
       <use xlink:href="#NanumGothic-51204"/>
       <use x="93.999985" xlink:href="#NanumGothic-52404"/>
      </g>
     </g>
    </g>
    <g id="text_6">
     <!-- 전용면적 -->
     <g transform="translate(193.096875 300.875225)scale(0.1 -0.1)">
      <defs>
       <path d="M 89.5 30.90625 
Q 90 30.90625 90.5 30.546875 
Q 91 30.203125 91 29.59375 
L 91 26.203125 
Q 91 25.703125 90.5 25.296875 
Q 90 24.90625 89.5 24.90625 
L 4.5 24.90625 
Q 3.90625 24.90625 3.453125 25.296875 
Q 3 25.703125 3 26.203125 
L 3 29.59375 
Q 3 30.203125 3.453125 30.546875 
Q 3.90625 30.90625 4.5 30.90625 
L 27.203125 30.90625 
L 27.203125 47 
Q 22.40625 49 19.15625 52.296875 
Q 15.90625 55.59375 15.90625 60.703125 
Q 15.90625 65.59375 19.046875 68.890625 
Q 22.203125 72.203125 26.84375 74.09375 
Q 31.5 76 36.953125 76.796875 
Q 42.40625 77.59375 47 77.59375 
Q 51.703125 77.59375 57.140625 76.6875 
Q 62.59375 75.796875 67.25 73.796875 
Q 71.90625 71.796875 75 68.546875 
Q 78.09375 65.296875 78.09375 60.703125 
Q 78.09375 55.796875 74.84375 52.5 
Q 71.59375 49.203125 66.703125 47.203125 
L 66.703125 30.90625 
L 89.5 30.90625 
z
M 78 1.703125 
Q 78 -3.40625 74.796875 -6.59375 
Q 71.59375 -9.796875 66.890625 -11.59375 
Q 62.203125 -13.40625 56.75 -14.046875 
Q 51.296875 -14.703125 46.796875 -14.703125 
Q 43.796875 -14.703125 40.34375 -14.390625 
Q 36.90625 -14.09375 33.453125 -13.4375 
Q 30 -12.796875 26.796875 -11.59375 
Q 23.59375 -10.40625 21.140625 -8.546875 
Q 18.703125 -6.703125 17.203125 -4.203125 
Q 15.703125 -1.703125 15.703125 1.703125 
Q 15.703125 6.703125 18.890625 9.84375 
Q 22.09375 13 26.796875 14.796875 
Q 31.5 16.59375 36.953125 17.296875 
Q 42.40625 18 46.796875 18 
Q 51.296875 18 56.75 17.34375 
Q 62.203125 16.703125 66.953125 14.890625 
Q 71.703125 13.09375 74.84375 9.890625 
Q 78 6.703125 78 1.703125 
z
M 47 71.296875 
Q 43.796875 71.296875 39.6875 70.890625 
Q 35.59375 70.5 31.9375 69.296875 
Q 28.296875 68.09375 25.75 66 
Q 23.203125 63.90625 23.203125 60.59375 
Q 23.203125 57.296875 25.75 55.1875 
Q 28.296875 53.09375 31.9375 51.890625 
Q 35.59375 50.703125 39.6875 50.296875 
Q 43.796875 49.90625 47 49.90625 
Q 50.09375 49.90625 54.1875 50.296875 
Q 58.296875 50.703125 62 51.890625 
Q 65.703125 53.09375 68.25 55.1875 
Q 70.796875 57.296875 70.796875 60.59375 
Q 70.796875 63.90625 68.25 66 
Q 65.703125 68.09375 62 69.296875 
Q 58.296875 70.5 54.1875 70.890625 
Q 50.09375 71.296875 47 71.296875 
z
M 70.703125 1.59375 
Q 70.703125 4.90625 68 6.84375 
Q 65.296875 8.796875 61.5 9.890625 
Q 57.703125 11 53.640625 11.34375 
Q 49.59375 11.703125 46.796875 11.703125 
Q 43.90625 11.703125 39.84375 11.34375 
Q 35.796875 11 32.046875 9.890625 
Q 28.296875 8.796875 25.640625 6.84375 
Q 23 4.90625 23 1.59375 
Q 23 -1.59375 25.640625 -3.59375 
Q 28.296875 -5.59375 32.046875 -6.640625 
Q 35.796875 -7.703125 39.84375 -8.046875 
Q 43.90625 -8.40625 46.796875 -8.40625 
Q 49.59375 -8.40625 53.6875 -8.046875 
Q 57.796875 -7.703125 61.546875 -6.640625 
Q 65.296875 -5.59375 68 -3.59375 
Q 70.703125 -1.59375 70.703125 1.59375 
z
M 47 43.703125 
Q 44.09375 43.703125 40.75 43.953125 
Q 37.40625 44.203125 34.09375 45 
L 34.09375 30.90625 
L 59.796875 30.90625 
L 59.796875 45.09375 
Q 56.5 44.296875 53.203125 44 
Q 49.90625 43.703125 47 43.703125 
z
" id="NanumGothic-50857"/>
       <path d="M 80.5 13.703125 
Q 80.5 12.296875 79.09375 12.296875 
L 75 12.296875 
Q 73.59375 12.296875 73.59375 13.703125 
L 73.59375 37.203125 
L 53.796875 37.203125 
L 53.796875 34.796875 
Q 53.796875 30.59375 52.1875 29.140625 
Q 50.59375 27.703125 46.203125 27.703125 
L 18.703125 27.703125 
Q 16.296875 27.703125 14.84375 28 
Q 13.40625 28.296875 12.546875 29.140625 
Q 11.703125 30 11.390625 31.34375 
Q 11.09375 32.703125 11.09375 34.796875 
L 11.09375 65.703125 
Q 11.09375 69.90625 12.6875 71.34375 
Q 14.296875 72.796875 18.703125 72.796875 
L 46.203125 72.796875 
Q 48.59375 72.796875 50.046875 72.5 
Q 51.5 72.203125 52.34375 71.390625 
Q 53.203125 70.59375 53.5 69.1875 
Q 53.796875 67.796875 53.796875 65.703125 
L 53.796875 62.09375 
L 73.59375 62.09375 
L 73.59375 76.796875 
Q 73.59375 78.203125 75 78.203125 
L 79.09375 78.203125 
Q 80.5 78.203125 80.5 76.796875 
L 80.5 13.703125 
z
M 20.40625 66.796875 
Q 19 66.796875 18.5 66.25 
Q 18 65.703125 18 64.203125 
L 18 36.296875 
Q 18 34.796875 18.5 34.25 
Q 19 33.703125 20.40625 33.703125 
L 44.5 33.703125 
Q 45.90625 33.703125 46.40625 34.25 
Q 46.90625 34.796875 46.90625 36.296875 
L 46.90625 64.203125 
Q 46.90625 65.703125 46.40625 66.25 
Q 45.90625 66.796875 44.5 66.796875 
z
M 83.59375 -11 
Q 83.59375 -11.59375 83.09375 -11.890625 
Q 82.59375 -12.203125 82.09375 -12.203125 
L 32 -12.203125 
Q 27.296875 -12.203125 25.84375 -10.453125 
Q 24.40625 -8.703125 24.40625 -4.59375 
L 24.40625 15.703125 
Q 24.40625 17.09375 25.796875 17.09375 
L 29.90625 17.09375 
Q 31.296875 17.09375 31.296875 15.703125 
L 31.296875 -4.09375 
Q 31.296875 -5.5 31.75 -5.84375 
Q 32.203125 -6.203125 33.59375 -6.203125 
L 82.09375 -6.203125 
Q 82.59375 -6.203125 83.09375 -6.546875 
Q 83.59375 -6.90625 83.59375 -7.40625 
L 83.59375 -11 
z
M 53.796875 43.09375 
L 73.59375 43.09375 
L 73.59375 56.203125 
L 53.796875 56.203125 
z
" id="NanumGothic-47732"/>
       <path d="M 51.703125 65.09375 
Q 50.296875 61 47.75 57 
Q 45.203125 53 41.703125 49.09375 
Q 45.09375 45.5 50.09375 42.25 
Q 55.09375 39 61 36.5 
Q 61.796875 36.203125 61.890625 35.640625 
Q 62 35.09375 61.703125 34.59375 
L 59.703125 31 
Q 59.40625 30.5 58.796875 30.453125 
Q 58.203125 30.40625 57.703125 30.59375 
Q 55.5 31.59375 52.953125 33 
Q 50.40625 34.40625 47.703125 36.203125 
Q 45 38 42.34375 40.09375 
Q 39.703125 42.203125 37.40625 44.5 
Q 31.703125 38.90625 24.84375 34.296875 
Q 18 29.703125 11 26.59375 
Q 10.5 26.40625 10 26.296875 
Q 9.5 26.203125 9.203125 26.703125 
L 7.203125 30.203125 
Q 6.90625 30.703125 7.15625 31.25 
Q 7.40625 31.796875 7.90625 32 
Q 20.796875 38.203125 29.890625 46.203125 
Q 39 54.203125 44.09375 64.703125 
Q 44.796875 66.09375 44.296875 66.6875 
Q 43.796875 67.296875 42.40625 67.296875 
L 13.09375 67.296875 
Q 11.90625 67.296875 11.90625 68.59375 
L 11.90625 72.09375 
Q 11.90625 73.296875 13.09375 73.296875 
L 45.09375 73.296875 
Q 50.296875 73.296875 51.796875 71.4375 
Q 53.296875 69.59375 51.703125 65.09375 
z
M 22.203125 17.703125 
Q 22.203125 18.296875 22.703125 18.59375 
Q 23.203125 18.90625 23.703125 18.90625 
L 72.90625 18.90625 
Q 77.59375 18.90625 79.046875 17.15625 
Q 80.5 15.40625 80.5 11.296875 
L 80.5 -13 
Q 80.5 -14.40625 79.09375 -14.40625 
L 75 -14.40625 
Q 73.59375 -14.40625 73.59375 -13 
L 73.59375 10.796875 
Q 73.59375 12.203125 73.140625 12.546875 
Q 72.703125 12.90625 71.296875 12.90625 
L 23.703125 12.90625 
Q 23.203125 12.90625 22.703125 13.25 
Q 22.203125 13.59375 22.203125 14.09375 
L 22.203125 17.703125 
z
M 73.59375 54.09375 
L 73.59375 76.796875 
Q 73.59375 78.203125 75 78.203125 
L 79.09375 78.203125 
Q 80.5 78.203125 80.5 76.796875 
L 80.5 25.796875 
Q 80.5 24.40625 79.09375 24.40625 
L 75 24.40625 
Q 73.59375 24.40625 73.59375 25.796875 
L 73.59375 48.09375 
L 54.703125 48.09375 
Q 53.40625 48.09375 53.40625 49.296875 
L 53.40625 52.90625 
Q 53.40625 54.09375 54.703125 54.09375 
z
" id="NanumGothic-51201"/>
      </defs>
      <use xlink:href="#NanumGothic-51204"/>
      <use x="93.999985" xlink:href="#NanumGothic-50857"/>
      <use x="187.999969" xlink:href="#NanumGothic-47732"/>
      <use x="281.999954" xlink:href="#NanumGothic-51201"/>
     </g>
    </g>
   </g>
   <g id="matplotlib.axis_2">
    <g id="ytick_1">
     <g id="line2d_6">
      <defs>
       <path d="M 0 0 
L -3.5 0 
" id="m3b8a5e244b" style="stroke:#000000;stroke-width:0.8;"/>
      </defs>
      <g>
       <use style="stroke:#000000;stroke-width:0.8;" x="44.496875" xlink:href="#m3b8a5e244b" y="226.717413"/>
      </g>
     </g>
     <g id="text_7">
      <!-- 0 -->
      <g transform="translate(31.4375 230.477569)scale(0.1 -0.1)">
       <use xlink:href="#NanumGothic-48"/>
      </g>
     </g>
    </g>
    <g id="ytick_2">
     <g id="line2d_7">
      <g>
       <use style="stroke:#000000;stroke-width:0.8;" x="44.496875" xlink:href="#m3b8a5e244b" y="190.75787"/>
      </g>
     </g>
     <g id="text_8">
      <!-- 2000 -->
      <g transform="translate(13.259375 194.518026)scale(0.1 -0.1)">
       <use xlink:href="#NanumGothic-50"/>
       <use x="60.599991" xlink:href="#NanumGothic-48"/>
       <use x="121.199982" xlink:href="#NanumGothic-48"/>
       <use x="181.799973" xlink:href="#NanumGothic-48"/>
      </g>
     </g>
    </g>
    <g id="ytick_3">
     <g id="line2d_8">
      <g>
       <use style="stroke:#000000;stroke-width:0.8;" x="44.496875" xlink:href="#m3b8a5e244b" y="154.798327"/>
      </g>
     </g>
     <g id="text_9">
      <!-- 4000 -->
      <g transform="translate(13.259375 158.558484)scale(0.1 -0.1)">
       <defs>
        <path d="M 39.203125 19 
L 39.203125 63.59375 
Q 31.796875 52.40625 24.5 41.296875 
Q 17.203125 30.203125 9.703125 19 
z
M 46 -3.296875 
Q 46 -4.703125 44.59375 -4.703125 
L 40.59375 -4.703125 
Q 39.203125 -4.703125 39.203125 -3.296875 
L 39.203125 12.90625 
L 6.203125 12.90625 
Q 4.09375 12.90625 3.75 13.25 
Q 3.40625 13.59375 3.40625 15.703125 
L 3.40625 18.796875 
Q 3.40625 19.703125 3.5 20 
Q 3.59375 20.296875 4.09375 21.09375 
L 36 68.703125 
Q 36.59375 69.59375 36.84375 69.75 
Q 37.09375 69.90625 38.203125 69.90625 
L 43.203125 69.90625 
Q 45.296875 69.90625 45.640625 69.546875 
Q 46 69.203125 46 67.09375 
L 46 19 
L 55.90625 19 
Q 57.296875 19 57.296875 17.59375 
L 57.296875 14.296875 
Q 57.296875 12.90625 55.90625 12.90625 
L 46 12.90625 
z
" id="NanumGothic-52"/>
       </defs>
       <use xlink:href="#NanumGothic-52"/>
       <use x="60.599991" xlink:href="#NanumGothic-48"/>
       <use x="121.199982" xlink:href="#NanumGothic-48"/>
       <use x="181.799973" xlink:href="#NanumGothic-48"/>
      </g>
     </g>
    </g>
    <g id="ytick_4">
     <g id="line2d_9">
      <g>
       <use style="stroke:#000000;stroke-width:0.8;" x="44.496875" xlink:href="#m3b8a5e244b" y="118.838785"/>
      </g>
     </g>
     <g id="text_10">
      <!-- 6000 -->
      <g transform="translate(13.259375 122.598941)scale(0.1 -0.1)">
       <use xlink:href="#NanumGothic-54"/>
       <use x="60.599991" xlink:href="#NanumGothic-48"/>
       <use x="121.199982" xlink:href="#NanumGothic-48"/>
       <use x="181.799973" xlink:href="#NanumGothic-48"/>
      </g>
     </g>
    </g>
    <g id="ytick_5">
     <g id="line2d_10">
      <g>
       <use style="stroke:#000000;stroke-width:0.8;" x="44.496875" xlink:href="#m3b8a5e244b" y="82.879242"/>
      </g>
     </g>
     <g id="text_11">
      <!-- 8000 -->
      <g transform="translate(13.259375 86.639398)scale(0.1 -0.1)">
       <use xlink:href="#NanumGothic-56"/>
       <use x="60.599991" xlink:href="#NanumGothic-48"/>
       <use x="121.199982" xlink:href="#NanumGothic-48"/>
       <use x="181.799973" xlink:href="#NanumGothic-48"/>
      </g>
     </g>
    </g>
    <g id="ytick_6">
     <g id="line2d_11">
      <g>
       <use style="stroke:#000000;stroke-width:0.8;" x="44.496875" xlink:href="#m3b8a5e244b" y="46.919699"/>
      </g>
     </g>
     <g id="text_12">
      <!-- 10000 -->
      <g transform="translate(7.2 50.679855)scale(0.1 -0.1)">
       <use xlink:href="#NanumGothic-49"/>
       <use x="60.599991" xlink:href="#NanumGothic-48"/>
       <use x="121.199982" xlink:href="#NanumGothic-48"/>
       <use x="181.799973" xlink:href="#NanumGothic-48"/>
       <use x="242.399963" xlink:href="#NanumGothic-48"/>
      </g>
     </g>
    </g>
    <g id="ytick_7">
     <g id="line2d_12">
      <g>
       <use style="stroke:#000000;stroke-width:0.8;" x="44.496875" xlink:href="#m3b8a5e244b" y="10.960156"/>
      </g>
     </g>
     <g id="text_13">
      <!-- 12000 -->
      <g transform="translate(7.2 14.720312)scale(0.1 -0.1)">
       <use xlink:href="#NanumGothic-49"/>
       <use x="60.599991" xlink:href="#NanumGothic-50"/>
       <use x="121.199982" xlink:href="#NanumGothic-48"/>
       <use x="181.799973" xlink:href="#NanumGothic-48"/>
       <use x="242.399963" xlink:href="#NanumGothic-48"/>
      </g>
     </g>
    </g>
   </g>
   <g id="patch_8">
    <path d="M 44.496875 226.717413 
L 44.496875 9.277413 
" style="fill:none;stroke:#000000;stroke-linecap:square;stroke-linejoin:miter;stroke-width:0.8;"/>
   </g>
   <g id="patch_9">
    <path d="M 379.296875 226.717413 
L 379.296875 9.277413 
" style="fill:none;stroke:#000000;stroke-linecap:square;stroke-linejoin:miter;stroke-width:0.8;"/>
   </g>
   <g id="patch_10">
    <path d="M 44.496875 226.717413 
L 379.296875 226.717413 
" style="fill:none;stroke:#000000;stroke-linecap:square;stroke-linejoin:miter;stroke-width:0.8;"/>
   </g>
   <g id="patch_11">
    <path d="M 44.496875 9.277413 
L 379.296875 9.277413 
" style="fill:none;stroke:#000000;stroke-linecap:square;stroke-linejoin:miter;stroke-width:0.8;"/>
   </g>
  </g>
 </g>
 <defs>
  <clipPath id="p25dfd42cdb">
   <rect height="217.44" width="334.8" x="44.496875" y="9.277413"/>
  </clipPath>
 </defs>
</svg>
