<?xml version="1.0" encoding="utf-8" standalone="no"?>
<!DOCTYPE svg PUBLIC "-//W3C//DTD SVG 1.1//EN"
  "http://www.w3.org/Graphics/SVG/1.1/DTD/svg11.dtd">
<!-- Created with matplotlib (https://matplotlib.org/) -->
<svg height="261.799375pt" version="1.1" viewBox="0 0 419.62443 261.799375" width="419.62443pt" xmlns="http://www.w3.org/2000/svg" xmlns:xlink="http://www.w3.org/1999/xlink">
 <metadata>
  <rdf:RDF xmlns:cc="http://creativecommons.org/ns#" xmlns:dc="http://purl.org/dc/elements/1.1/" xmlns:rdf="http://www.w3.org/1999/02/22-rdf-syntax-ns#">
   <cc:Work>
    <dc:type rdf:resource="http://purl.org/dc/dcmitype/StillImage"/>
    <dc:date>2020-11-12T23:34:05.329033</dc:date>
    <dc:format>image/svg+xml</dc:format>
    <dc:creator>
     <cc:Agent>
      <dc:title>Matplotlib v3.3.2, https://matplotlib.org/</dc:title>
     </cc:Agent>
    </dc:creator>
   </cc:Work>
  </rdf:RDF>
 </metadata>
 <defs>
  <style type="text/css">*{stroke-linecap:butt;stroke-linejoin:round;}</style>
 </defs>
 <g id="figure_1">
  <g id="patch_1">
   <path d="M 0 261.799375 
L 419.62443 261.799375 
L 419.62443 0 
L 0 0 
z
" style="fill:none;"/>
  </g>
  <g id="axes_1">
   <g id="patch_2">
    <path d="M 73.125 224.64 
L 407.925 224.64 
L 407.925 7.2 
L 73.125 7.2 
z
" style="fill:#ffffff;"/>
   </g>
   <g id="patch_3">
    <path clip-path="url(#pdf676fc93a)" d="M 106.238307 224.64 
L 111.609775 224.64 
L 111.609775 160.457613 
L 106.238307 160.457613 
z
" style="fill:#1f77b4;opacity:0.4;"/>
   </g>
   <g id="patch_4">
    <path clip-path="url(#pdf676fc93a)" d="M 111.609775 224.64 
L 116.981243 224.64 
L 116.981243 69.680313 
L 111.609775 69.680313 
z
" style="fill:#1f77b4;opacity:0.4;"/>
   </g>
   <g id="patch_5">
    <path clip-path="url(#pdf676fc93a)" d="M 116.981243 224.64 
L 122.35271 224.64 
L 122.35271 30.319843 
L 116.981243 30.319843 
z
" style="fill:#1f77b4;opacity:0.4;"/>
   </g>
   <g id="patch_6">
    <path clip-path="url(#pdf676fc93a)" d="M 122.35271 224.64 
L 127.724178 224.64 
L 127.724178 17.554286 
L 122.35271 17.554286 
z
" style="fill:#1f77b4;opacity:0.4;"/>
   </g>
   <g id="patch_7">
    <path clip-path="url(#pdf676fc93a)" d="M 127.724178 224.64 
L 133.095646 224.64 
L 133.095646 102.303405 
L 127.724178 102.303405 
z
" style="fill:#1f77b4;opacity:0.4;"/>
   </g>
   <g id="patch_8">
    <path clip-path="url(#pdf676fc93a)" d="M 133.095646 224.64 
L 138.467113 224.64 
L 138.467113 88.82865 
L 133.095646 88.82865 
z
" style="fill:#1f77b4;opacity:0.4;"/>
   </g>
   <g id="patch_9">
    <path clip-path="url(#pdf676fc93a)" d="M 138.467113 224.64 
L 143.838581 224.64 
L 143.838581 118.260352 
L 138.467113 118.260352 
z
" style="fill:#1f77b4;opacity:0.4;"/>
   </g>
   <g id="patch_10">
    <path clip-path="url(#pdf676fc93a)" d="M 143.838581 224.64 
L 149.210049 224.64 
L 149.210049 138.117886 
L 143.838581 138.117886 
z
" style="fill:#1f77b4;opacity:0.4;"/>
   </g>
   <g id="patch_11">
    <path clip-path="url(#pdf676fc93a)" d="M 149.210049 224.64 
L 154.581517 224.64 
L 154.581517 162.939804 
L 149.210049 162.939804 
z
" style="fill:#1f77b4;opacity:0.4;"/>
   </g>
   <g id="patch_12">
    <path clip-path="url(#pdf676fc93a)" d="M 154.581517 224.64 
L 159.952984 224.64 
L 159.952984 163.294403 
L 154.581517 163.294403 
z
" style="fill:#1f77b4;opacity:0.4;"/>
   </g>
   <g id="patch_13">
    <path clip-path="url(#pdf676fc93a)" d="M 159.952984 224.64 
L 165.324452 224.64 
L 165.324452 190.953112 
L 159.952984 190.953112 
z
" style="fill:#1f77b4;opacity:0.4;"/>
   </g>
   <g id="patch_14">
    <path clip-path="url(#pdf676fc93a)" d="M 165.324452 224.64 
L 170.69592 224.64 
L 170.69592 187.052524 
L 165.324452 187.052524 
z
" style="fill:#1f77b4;opacity:0.4;"/>
   </g>
   <g id="patch_15">
    <path clip-path="url(#pdf676fc93a)" d="M 170.69592 224.64 
L 176.067387 224.64 
L 176.067387 210.101448 
L 170.69592 210.101448 
z
" style="fill:#1f77b4;opacity:0.4;"/>
   </g>
   <g id="patch_16">
    <path clip-path="url(#pdf676fc93a)" d="M 176.067387 224.64 
L 181.438855 224.64 
L 181.438855 207.264658 
L 176.067387 207.264658 
z
" style="fill:#1f77b4;opacity:0.4;"/>
   </g>
   <g id="patch_17">
    <path clip-path="url(#pdf676fc93a)" d="M 181.438855 224.64 
L 186.810323 224.64 
L 186.810323 219.321018 
L 181.438855 219.321018 
z
" style="fill:#1f77b4;opacity:0.4;"/>
   </g>
   <g id="patch_18">
    <path clip-path="url(#pdf676fc93a)" d="M 186.810323 224.64 
L 192.181791 224.64 
L 192.181791 218.257221 
L 186.810323 218.257221 
z
" style="fill:#1f77b4;opacity:0.4;"/>
   </g>
   <g id="patch_19">
    <path clip-path="url(#pdf676fc93a)" d="M 192.181791 224.64 
L 197.553258 224.64 
L 197.553258 220.030215 
L 192.181791 220.030215 
z
" style="fill:#1f77b4;opacity:0.4;"/>
   </g>
   <g id="patch_20">
    <path clip-path="url(#pdf676fc93a)" d="M 197.553258 224.64 
L 202.924726 224.64 
L 202.924726 223.221605 
L 197.553258 223.221605 
z
" style="fill:#1f77b4;opacity:0.4;"/>
   </g>
   <g id="patch_21">
    <path clip-path="url(#pdf676fc93a)" d="M 202.924726 224.64 
L 208.296194 224.64 
L 208.296194 221.094012 
L 202.924726 221.094012 
z
" style="fill:#1f77b4;opacity:0.4;"/>
   </g>
   <g id="patch_22">
    <path clip-path="url(#pdf676fc93a)" d="M 208.296194 224.64 
L 213.667661 224.64 
L 213.667661 220.384814 
L 208.296194 220.384814 
z
" style="fill:#1f77b4;opacity:0.4;"/>
   </g>
   <g id="patch_23">
    <path clip-path="url(#pdf676fc93a)" d="M 213.667661 224.64 
L 219.039129 224.64 
L 219.039129 214.002035 
L 213.667661 214.002035 
z
" style="fill:#1f77b4;opacity:0.4;"/>
   </g>
   <g id="patch_24">
    <path clip-path="url(#pdf676fc93a)" d="M 219.039129 224.64 
L 224.410597 224.64 
L 224.410597 208.328454 
L 219.039129 208.328454 
z
" style="fill:#1f77b4;opacity:0.4;"/>
   </g>
   <g id="patch_25">
    <path clip-path="url(#pdf676fc93a)" d="M 224.410597 224.64 
L 229.782065 224.64 
L 229.782065 212.229041 
L 224.410597 212.229041 
z
" style="fill:#1f77b4;opacity:0.4;"/>
   </g>
   <g id="patch_26">
    <path clip-path="url(#pdf676fc93a)" d="M 229.782065 224.64 
L 235.153532 224.64 
L 235.153532 218.61182 
L 229.782065 218.61182 
z
" style="fill:#1f77b4;opacity:0.4;"/>
   </g>
   <g id="patch_27">
    <path clip-path="url(#pdf676fc93a)" d="M 235.153532 224.64 
L 240.525 224.64 
L 240.525 218.966419 
L 235.153532 218.966419 
z
" style="fill:#1f77b4;opacity:0.4;"/>
   </g>
   <g id="patch_28">
    <path clip-path="url(#pdf676fc93a)" d="M 240.525 224.64 
L 245.896468 224.64 
L 245.896468 219.321018 
L 240.525 219.321018 
z
" style="fill:#1f77b4;opacity:0.4;"/>
   </g>
   <g id="patch_29">
    <path clip-path="url(#pdf676fc93a)" d="M 245.896468 224.64 
L 251.267935 224.64 
L 251.267935 220.384814 
L 245.896468 220.384814 
z
" style="fill:#1f77b4;opacity:0.4;"/>
   </g>
   <g id="patch_30">
    <path clip-path="url(#pdf676fc93a)" d="M 251.267935 224.64 
L 256.639403 224.64 
L 256.639403 220.739413 
L 251.267935 220.739413 
z
" style="fill:#1f77b4;opacity:0.4;"/>
   </g>
   <g id="patch_31">
    <path clip-path="url(#pdf676fc93a)" d="M 256.639403 224.64 
L 262.010871 224.64 
L 262.010871 220.030215 
L 256.639403 220.030215 
z
" style="fill:#1f77b4;opacity:0.4;"/>
   </g>
   <g id="patch_32">
    <path clip-path="url(#pdf676fc93a)" d="M 262.010871 224.64 
L 267.382339 224.64 
L 267.382339 220.739413 
L 262.010871 220.739413 
z
" style="fill:#1f77b4;opacity:0.4;"/>
   </g>
   <g id="patch_33">
    <path clip-path="url(#pdf676fc93a)" d="M 267.382339 224.64 
L 272.753806 224.64 
L 272.753806 222.157808 
L 267.382339 222.157808 
z
" style="fill:#1f77b4;opacity:0.4;"/>
   </g>
   <g id="patch_34">
    <path clip-path="url(#pdf676fc93a)" d="M 272.753806 224.64 
L 278.125274 224.64 
L 278.125274 224.64 
L 272.753806 224.64 
z
" style="fill:#1f77b4;opacity:0.4;"/>
   </g>
   <g id="patch_35">
    <path clip-path="url(#pdf676fc93a)" d="M 278.125274 224.64 
L 283.496742 224.64 
L 283.496742 222.867006 
L 278.125274 222.867006 
z
" style="fill:#1f77b4;opacity:0.4;"/>
   </g>
   <g id="patch_36">
    <path clip-path="url(#pdf676fc93a)" d="M 283.496742 224.64 
L 288.868209 224.64 
L 288.868209 224.64 
L 283.496742 224.64 
z
" style="fill:#1f77b4;opacity:0.4;"/>
   </g>
   <g id="patch_37">
    <path clip-path="url(#pdf676fc93a)" d="M 288.868209 224.64 
L 294.239677 224.64 
L 294.239677 224.64 
L 288.868209 224.64 
z
" style="fill:#1f77b4;opacity:0.4;"/>
   </g>
   <g id="patch_38">
    <path clip-path="url(#pdf676fc93a)" d="M 294.239677 224.64 
L 299.611145 224.64 
L 299.611145 224.64 
L 294.239677 224.64 
z
" style="fill:#1f77b4;opacity:0.4;"/>
   </g>
   <g id="patch_39">
    <path clip-path="url(#pdf676fc93a)" d="M 299.611145 224.64 
L 304.982613 224.64 
L 304.982613 224.64 
L 299.611145 224.64 
z
" style="fill:#1f77b4;opacity:0.4;"/>
   </g>
   <g id="patch_40">
    <path clip-path="url(#pdf676fc93a)" d="M 304.982613 224.64 
L 310.35408 224.64 
L 310.35408 224.64 
L 304.982613 224.64 
z
" style="fill:#1f77b4;opacity:0.4;"/>
   </g>
   <g id="patch_41">
    <path clip-path="url(#pdf676fc93a)" d="M 310.35408 224.64 
L 315.725548 224.64 
L 315.725548 224.64 
L 310.35408 224.64 
z
" style="fill:#1f77b4;opacity:0.4;"/>
   </g>
   <g id="patch_42">
    <path clip-path="url(#pdf676fc93a)" d="M 315.725548 224.64 
L 321.097016 224.64 
L 321.097016 224.64 
L 315.725548 224.64 
z
" style="fill:#1f77b4;opacity:0.4;"/>
   </g>
   <g id="patch_43">
    <path clip-path="url(#pdf676fc93a)" d="M 321.097016 224.64 
L 326.468483 224.64 
L 326.468483 224.64 
L 321.097016 224.64 
z
" style="fill:#1f77b4;opacity:0.4;"/>
   </g>
   <g id="patch_44">
    <path clip-path="url(#pdf676fc93a)" d="M 326.468483 224.64 
L 331.839951 224.64 
L 331.839951 224.64 
L 326.468483 224.64 
z
" style="fill:#1f77b4;opacity:0.4;"/>
   </g>
   <g id="patch_45">
    <path clip-path="url(#pdf676fc93a)" d="M 331.839951 224.64 
L 337.211419 224.64 
L 337.211419 224.64 
L 331.839951 224.64 
z
" style="fill:#1f77b4;opacity:0.4;"/>
   </g>
   <g id="patch_46">
    <path clip-path="url(#pdf676fc93a)" d="M 337.211419 224.64 
L 342.582887 224.64 
L 342.582887 224.64 
L 337.211419 224.64 
z
" style="fill:#1f77b4;opacity:0.4;"/>
   </g>
   <g id="patch_47">
    <path clip-path="url(#pdf676fc93a)" d="M 342.582887 224.64 
L 347.954354 224.64 
L 347.954354 224.64 
L 342.582887 224.64 
z
" style="fill:#1f77b4;opacity:0.4;"/>
   </g>
   <g id="patch_48">
    <path clip-path="url(#pdf676fc93a)" d="M 347.954354 224.64 
L 353.325822 224.64 
L 353.325822 224.64 
L 347.954354 224.64 
z
" style="fill:#1f77b4;opacity:0.4;"/>
   </g>
   <g id="patch_49">
    <path clip-path="url(#pdf676fc93a)" d="M 353.325822 224.64 
L 358.69729 224.64 
L 358.69729 224.64 
L 353.325822 224.64 
z
" style="fill:#1f77b4;opacity:0.4;"/>
   </g>
   <g id="patch_50">
    <path clip-path="url(#pdf676fc93a)" d="M 358.69729 224.64 
L 364.068757 224.64 
L 364.068757 224.64 
L 358.69729 224.64 
z
" style="fill:#1f77b4;opacity:0.4;"/>
   </g>
   <g id="patch_51">
    <path clip-path="url(#pdf676fc93a)" d="M 364.068757 224.64 
L 369.440225 224.64 
L 369.440225 224.64 
L 364.068757 224.64 
z
" style="fill:#1f77b4;opacity:0.4;"/>
   </g>
   <g id="patch_52">
    <path clip-path="url(#pdf676fc93a)" d="M 369.440225 224.64 
L 374.811693 224.64 
L 374.811693 222.157808 
L 369.440225 222.157808 
z
" style="fill:#1f77b4;opacity:0.4;"/>
   </g>
   <g id="matplotlib.axis_1">
    <g id="xtick_1">
     <g id="line2d_1">
      <defs>
       <path d="M 0 0 
L 0 3.5 
" id="m1858500aea" style="stroke:#000000;stroke-width:0.8;"/>
      </defs>
      <g>
       <use style="stroke:#000000;stroke-width:0.8;" x="97.512183" xlink:href="#m1858500aea" y="224.64"/>
      </g>
     </g>
     <g id="text_1">
      <!-- 5000 -->
      <g transform="translate(85.393433 239.160313)scale(0.1 -0.1)">
       <defs>
        <path d="M 11.5 -3.203125 
Q 10.09375 -2.703125 10.09375 -1.40625 
L 10.09375 2.796875 
Q 10.09375 4.5 11.5 3.796875 
Q 15.09375 2.09375 18.546875 1.390625 
Q 22 0.703125 26.09375 0.703125 
Q 34.90625 0.703125 40.40625 5 
Q 46.40625 9.59375 46.40625 18.203125 
Q 46.40625 35.09375 27.09375 35.09375 
Q 23.296875 35.09375 20.25 34.6875 
Q 17.203125 34.296875 13.5 33.296875 
Q 12.40625 33 11.703125 33.546875 
Q 11 34.09375 11 35.203125 
L 11.59375 67.09375 
Q 11.59375 69.203125 11.9375 69.546875 
Q 12.296875 69.90625 14.40625 69.90625 
L 48.59375 69.90625 
Q 50 69.90625 50 68.5 
L 50 65.203125 
Q 50 63.796875 48.59375 63.796875 
L 18.40625 63.796875 
Q 18.296875 57.5 18.140625 51.5 
Q 18 45.5 17.90625 39.203125 
Q 22.796875 41.09375 29.796875 41.09375 
Q 40.296875 41.09375 46.796875 35.40625 
Q 53.296875 29.5 53.296875 19.59375 
Q 53.296875 7.5 45.796875 0.90625 
Q 38.59375 -5.40625 26.09375 -5.40625 
Q 21.59375 -5.40625 18.296875 -4.90625 
Q 15 -4.40625 11.5 -3.203125 
z
" id="NanumGothic-53"/>
        <path d="M 47.90625 32.703125 
Q 47.90625 64.09375 30.703125 64.09375 
Q 13.5 64.09375 13.5 32.703125 
Q 13.5 1.203125 30.703125 1.203125 
Q 47.90625 1.203125 47.90625 32.703125 
z
M 55.09375 32.703125 
Q 55.09375 -5.09375 30.703125 -5.09375 
Q 6.09375 -5.09375 6.09375 32.703125 
Q 6.09375 48.40625 10.90625 58.203125 
Q 17 70.5 30.703125 70.5 
Q 44.203125 70.5 50.40625 58.203125 
Q 52.703125 53.296875 53.890625 47 
Q 55.09375 40.703125 55.09375 32.703125 
z
" id="NanumGothic-48"/>
       </defs>
       <use xlink:href="#NanumGothic-53"/>
       <use x="60.599991" xlink:href="#NanumGothic-48"/>
       <use x="121.199982" xlink:href="#NanumGothic-48"/>
       <use x="181.799973" xlink:href="#NanumGothic-48"/>
      </g>
     </g>
    </g>
    <g id="xtick_2">
     <g id="line2d_2">
      <g>
       <use style="stroke:#000000;stroke-width:0.8;" x="134.982659" xlink:href="#m1858500aea" y="224.64"/>
      </g>
     </g>
     <g id="text_2">
      <!-- 10000 -->
      <g transform="translate(119.834221 239.160313)scale(0.1 -0.1)">
       <defs>
        <path d="M 36.90625 -3.296875 
Q 36.90625 -4.703125 35.5 -4.703125 
L 31.40625 -4.703125 
Q 30 -4.703125 30 -3.296875 
L 30 61.703125 
Q 26.90625 59.09375 24.203125 56.796875 
Q 21.5 54.5 18.5 51.90625 
Q 17.40625 51 16.5 52.09375 
L 14.5 54.5 
Q 14.203125 55 14.203125 55.546875 
Q 14.203125 56.09375 14.703125 56.5 
L 30.203125 69.5 
Q 30.59375 69.90625 31.40625 69.90625 
L 34.09375 69.90625 
Q 36.203125 69.90625 36.546875 69.546875 
Q 36.90625 69.203125 36.90625 67.09375 
z
" id="NanumGothic-49"/>
       </defs>
       <use xlink:href="#NanumGothic-49"/>
       <use x="60.599991" xlink:href="#NanumGothic-48"/>
       <use x="121.199982" xlink:href="#NanumGothic-48"/>
       <use x="181.799973" xlink:href="#NanumGothic-48"/>
       <use x="242.399963" xlink:href="#NanumGothic-48"/>
      </g>
     </g>
    </g>
    <g id="xtick_3">
     <g id="line2d_3">
      <g>
       <use style="stroke:#000000;stroke-width:0.8;" x="172.453135" xlink:href="#m1858500aea" y="224.64"/>
      </g>
     </g>
     <g id="text_3">
      <!-- 15000 -->
      <g transform="translate(157.304698 239.160313)scale(0.1 -0.1)">
       <use xlink:href="#NanumGothic-49"/>
       <use x="60.599991" xlink:href="#NanumGothic-53"/>
       <use x="121.199982" xlink:href="#NanumGothic-48"/>
       <use x="181.799973" xlink:href="#NanumGothic-48"/>
       <use x="242.399963" xlink:href="#NanumGothic-48"/>
      </g>
     </g>
    </g>
    <g id="xtick_4">
     <g id="line2d_4">
      <g>
       <use style="stroke:#000000;stroke-width:0.8;" x="209.923611" xlink:href="#m1858500aea" y="224.64"/>
      </g>
     </g>
     <g id="text_4">
      <!-- 20000 -->
      <g transform="translate(194.775174 239.160313)scale(0.1 -0.1)">
       <defs>
        <path d="M 9 -4.703125 
Q 7.90625 -4.703125 7.34375 -4.640625 
Q 6.796875 -4.59375 6.546875 -4.34375 
Q 6.296875 -4.09375 6.25 -3.546875 
Q 6.203125 -3 6.203125 -1.90625 
L 6.296875 0.296875 
Q 6.296875 1.59375 7.09375 2.40625 
L 23.59375 20.59375 
Q 42 40.5 42 50.796875 
Q 42 56.796875 38 60.796875 
Q 34.09375 64.703125 28.296875 64.703125 
Q 20.203125 64.703125 11.40625 60.203125 
Q 10 59.5 9.796875 60.796875 
L 9.203125 64.09375 
Q 8.90625 65.796875 10.203125 66.203125 
Q 15.296875 68.5 19.390625 69.59375 
Q 23.5 70.703125 27.796875 70.703125 
Q 37.40625 70.703125 43.09375 65.90625 
Q 49.5 60.703125 49.5 51.09375 
Q 49.5 47.40625 47.703125 43 
Q 45.90625 38.59375 42.703125 33.796875 
Q 40.703125 31 37.046875 26.5 
Q 33.40625 22 28.703125 16.90625 
Q 25.203125 13.09375 21.75 9.1875 
Q 18.296875 5.296875 14.796875 1.5 
L 49.796875 1.5 
Q 51.203125 1.5 51.203125 0.09375 
L 51.203125 -3.296875 
Q 51.203125 -4.703125 49.796875 -4.703125 
z
" id="NanumGothic-50"/>
       </defs>
       <use xlink:href="#NanumGothic-50"/>
       <use x="60.599991" xlink:href="#NanumGothic-48"/>
       <use x="121.199982" xlink:href="#NanumGothic-48"/>
       <use x="181.799973" xlink:href="#NanumGothic-48"/>
       <use x="242.399963" xlink:href="#NanumGothic-48"/>
      </g>
     </g>
    </g>
    <g id="xtick_5">
     <g id="line2d_5">
      <g>
       <use style="stroke:#000000;stroke-width:0.8;" x="247.394088" xlink:href="#m1858500aea" y="224.64"/>
      </g>
     </g>
     <g id="text_5">
      <!-- 25000 -->
      <g transform="translate(232.24565 239.160313)scale(0.1 -0.1)">
       <use xlink:href="#NanumGothic-50"/>
       <use x="60.599991" xlink:href="#NanumGothic-53"/>
       <use x="121.199982" xlink:href="#NanumGothic-48"/>
       <use x="181.799973" xlink:href="#NanumGothic-48"/>
       <use x="242.399963" xlink:href="#NanumGothic-48"/>
      </g>
     </g>
    </g>
    <g id="xtick_6">
     <g id="line2d_6">
      <g>
       <use style="stroke:#000000;stroke-width:0.8;" x="284.864564" xlink:href="#m1858500aea" y="224.64"/>
      </g>
     </g>
     <g id="text_6">
      <!-- 30000 -->
      <g transform="translate(269.716126 239.160313)scale(0.1 -0.1)">
       <defs>
        <path d="M 7.703125 -3 
Q 6.203125 -2.59375 6.40625 -0.703125 
L 6.796875 3.203125 
Q 7 4.40625 8.40625 3.796875 
Q 12.59375 2.09375 16.34375 1.390625 
Q 20.09375 0.703125 25.09375 0.59375 
Q 33 0.5 38.40625 4.59375 
Q 44.703125 8.796875 44.703125 16.90625 
Q 44.703125 31.09375 23.40625 31.09375 
L 18.203125 31.09375 
Q 16.90625 31.09375 16.90625 32.203125 
L 16.90625 35.90625 
Q 16.90625 37.203125 18.203125 37.203125 
L 18.703125 37.203125 
Q 29.40625 37.203125 35.40625 39.5 
Q 44.5 43 44.5 52.09375 
Q 44.5 55 42.953125 57.453125 
Q 41.40625 59.90625 38.796875 61.59375 
Q 36.40625 63 33.40625 63.796875 
Q 30.40625 64.59375 27.09375 64.59375 
Q 23.703125 64.59375 19.59375 63.6875 
Q 15.5 62.796875 11.703125 61.296875 
Q 10.40625 60.796875 10.203125 62.09375 
L 9.796875 65.796875 
Q 9.5 67.203125 11.09375 67.796875 
Q 15.59375 69.296875 19.5 70 
Q 23.40625 70.703125 27.796875 70.703125 
Q 37.90625 70.703125 44.296875 66.40625 
Q 51.59375 61.5 51.59375 52.09375 
Q 51.59375 45.40625 46.796875 40.5 
Q 42.796875 36.203125 36.40625 34.203125 
Q 39.59375 33.796875 42.34375 32.5 
Q 45.09375 31.203125 47.09375 28.90625 
Q 49.40625 26.40625 50.59375 23.25 
Q 51.796875 20.09375 51.796875 16.296875 
Q 51.796875 11.296875 49.75 7.25 
Q 47.703125 3.203125 43.90625 0.296875 
Q 40.203125 -2.40625 35.390625 -3.953125 
Q 30.59375 -5.5 24.703125 -5.40625 
Q 19.40625 -5.296875 15.546875 -4.796875 
Q 11.703125 -4.296875 7.703125 -3 
z
" id="NanumGothic-51"/>
       </defs>
       <use xlink:href="#NanumGothic-51"/>
       <use x="60.599991" xlink:href="#NanumGothic-48"/>
       <use x="121.199982" xlink:href="#NanumGothic-48"/>
       <use x="181.799973" xlink:href="#NanumGothic-48"/>
       <use x="242.399963" xlink:href="#NanumGothic-48"/>
      </g>
     </g>
    </g>
    <g id="xtick_7">
     <g id="line2d_7">
      <g>
       <use style="stroke:#000000;stroke-width:0.8;" x="322.33504" xlink:href="#m1858500aea" y="224.64"/>
      </g>
     </g>
     <g id="text_7">
      <!-- 35000 -->
      <g transform="translate(307.186603 239.160313)scale(0.1 -0.1)">
       <use xlink:href="#NanumGothic-51"/>
       <use x="60.599991" xlink:href="#NanumGothic-53"/>
       <use x="121.199982" xlink:href="#NanumGothic-48"/>
       <use x="181.799973" xlink:href="#NanumGothic-48"/>
       <use x="242.399963" xlink:href="#NanumGothic-48"/>
      </g>
     </g>
    </g>
    <g id="xtick_8">
     <g id="line2d_8">
      <g>
       <use style="stroke:#000000;stroke-width:0.8;" x="359.805517" xlink:href="#m1858500aea" y="224.64"/>
      </g>
     </g>
     <g id="text_8">
      <!-- 40000 -->
      <g transform="translate(344.657079 239.160313)scale(0.1 -0.1)">
       <defs>
        <path d="M 39.203125 19 
L 39.203125 63.59375 
Q 31.796875 52.40625 24.5 41.296875 
Q 17.203125 30.203125 9.703125 19 
z
M 46 -3.296875 
Q 46 -4.703125 44.59375 -4.703125 
L 40.59375 -4.703125 
Q 39.203125 -4.703125 39.203125 -3.296875 
L 39.203125 12.90625 
L 6.203125 12.90625 
Q 4.09375 12.90625 3.75 13.25 
Q 3.40625 13.59375 3.40625 15.703125 
L 3.40625 18.796875 
Q 3.40625 19.703125 3.5 20 
Q 3.59375 20.296875 4.09375 21.09375 
L 36 68.703125 
Q 36.59375 69.59375 36.84375 69.75 
Q 37.09375 69.90625 38.203125 69.90625 
L 43.203125 69.90625 
Q 45.296875 69.90625 45.640625 69.546875 
Q 46 69.203125 46 67.09375 
L 46 19 
L 55.90625 19 
Q 57.296875 19 57.296875 17.59375 
L 57.296875 14.296875 
Q 57.296875 12.90625 55.90625 12.90625 
L 46 12.90625 
z
" id="NanumGothic-52"/>
       </defs>
       <use xlink:href="#NanumGothic-52"/>
       <use x="60.599991" xlink:href="#NanumGothic-48"/>
       <use x="121.199982" xlink:href="#NanumGothic-48"/>
       <use x="181.799973" xlink:href="#NanumGothic-48"/>
       <use x="242.399963" xlink:href="#NanumGothic-48"/>
      </g>
     </g>
    </g>
    <g id="xtick_9">
     <g id="line2d_9">
      <g>
       <use style="stroke:#000000;stroke-width:0.8;" x="397.275993" xlink:href="#m1858500aea" y="224.64"/>
      </g>
     </g>
     <g id="text_9">
      <!-- 45000 -->
      <g transform="translate(382.127555 239.160313)scale(0.1 -0.1)">
       <use xlink:href="#NanumGothic-52"/>
       <use x="60.599991" xlink:href="#NanumGothic-53"/>
       <use x="121.199982" xlink:href="#NanumGothic-48"/>
       <use x="181.799973" xlink:href="#NanumGothic-48"/>
       <use x="242.399963" xlink:href="#NanumGothic-48"/>
      </g>
     </g>
    </g>
    <g id="text_10">
     <!-- 평당분양가격 -->
     <g transform="translate(212.325 252.64)scale(0.1 -0.1)">
      <defs>
       <path d="M 81.296875 3.90625 
Q 81.296875 -0.40625 79 -3.796875 
Q 76.703125 -7.203125 72.75 -9.546875 
Q 68.796875 -11.90625 63.546875 -13.15625 
Q 58.296875 -14.40625 52.296875 -14.40625 
Q 45.796875 -14.40625 40.5 -13.15625 
Q 35.203125 -11.90625 31.390625 -9.546875 
Q 27.59375 -7.203125 25.5 -3.796875 
Q 23.40625 -0.40625 23.40625 3.90625 
Q 23.40625 8.09375 25.5 11.4375 
Q 27.59375 14.796875 31.390625 17.140625 
Q 35.203125 19.5 40.5 20.75 
Q 45.796875 22 52.296875 22 
Q 58.296875 22 63.546875 20.75 
Q 68.796875 19.5 72.75 17.203125 
Q 76.703125 14.90625 79 11.546875 
Q 81.296875 8.203125 81.296875 3.90625 
z
M 58.203125 69.203125 
Q 58.203125 67.90625 56.703125 67.90625 
L 48.40625 67.90625 
L 48.40625 36.203125 
Q 51.59375 36.40625 54.6875 36.75 
Q 57.796875 37.09375 60.703125 37.59375 
Q 61.59375 37.796875 61.890625 37.640625 
Q 62.203125 37.5 62.40625 36.796875 
L 63 33.5 
Q 63.09375 32.90625 62.890625 32.59375 
Q 62.703125 32.296875 61.703125 32.09375 
Q 56 31.09375 49 30.640625 
Q 42 30.203125 34.703125 29.796875 
Q 31.90625 29.59375 28.296875 29.546875 
Q 24.703125 29.5 20.890625 29.453125 
Q 17.09375 29.40625 13.390625 29.40625 
Q 9.703125 29.40625 6.796875 29.5 
Q 6.203125 29.5 5.75 29.890625 
Q 5.296875 30.296875 5.296875 30.796875 
L 5.296875 34 
Q 5.296875 34.59375 5.75 34.9375 
Q 6.203125 35.296875 6.796875 35.296875 
L 18.296875 35.296875 
L 18.296875 67.90625 
L 7.5 67.90625 
Q 7 67.90625 6.546875 68.296875 
Q 6.09375 68.703125 6.09375 69.296875 
L 6.09375 72.40625 
Q 6.09375 73 6.546875 73.390625 
Q 7 73.796875 7.5 73.796875 
L 56.703125 73.796875 
Q 58.203125 73.796875 58.203125 72.5 
L 58.203125 69.203125 
z
M 74.203125 3.59375 
Q 74.203125 6.59375 72.390625 8.890625 
Q 70.59375 11.203125 67.546875 12.75 
Q 64.5 14.296875 60.5 15.140625 
Q 56.5 16 52.203125 16 
Q 47.40625 16 43.40625 15.140625 
Q 39.40625 14.296875 36.546875 12.75 
Q 33.703125 11.203125 32.09375 8.890625 
Q 30.5 6.59375 30.5 3.59375 
Q 30.5 0.703125 32.09375 -1.546875 
Q 33.703125 -3.796875 36.546875 -5.296875 
Q 39.40625 -6.796875 43.40625 -7.59375 
Q 47.40625 -8.40625 52.203125 -8.40625 
Q 56.5 -8.40625 60.5 -7.59375 
Q 64.5 -6.796875 67.546875 -5.296875 
Q 70.59375 -3.796875 72.390625 -1.546875 
Q 74.203125 0.703125 74.203125 3.59375 
z
M 73.59375 64 
L 73.59375 76.796875 
Q 73.59375 78.203125 75 78.203125 
L 79.09375 78.203125 
Q 80.5 78.203125 80.5 76.796875 
L 80.5 24.296875 
Q 80.5 22.90625 79.09375 22.90625 
L 75 22.90625 
Q 73.59375 22.90625 73.59375 24.296875 
L 73.59375 42 
L 58.296875 42 
Q 57 42 57 43.203125 
L 57 46.703125 
Q 57 47.90625 58.296875 47.90625 
L 73.59375 47.90625 
L 73.59375 58.09375 
L 58.296875 58.09375 
Q 57 58.09375 57 59.296875 
L 57 62.796875 
Q 57 64 58.296875 64 
z
M 34.5 35.59375 
Q 36.296875 35.59375 38.09375 35.640625 
Q 39.90625 35.703125 41.59375 35.796875 
L 41.59375 67.90625 
L 25.09375 67.90625 
L 25.09375 35.40625 
Q 27.703125 35.5 30.09375 35.5 
Q 32.5 35.5 34.5 35.59375 
z
" id="NanumGothic-54217"/>
       <path d="M 78.203125 3.90625 
Q 78.203125 -0.40625 75.890625 -3.796875 
Q 73.59375 -7.203125 69.640625 -9.546875 
Q 65.703125 -11.90625 60.453125 -13.15625 
Q 55.203125 -14.40625 49.203125 -14.40625 
Q 42.703125 -14.40625 37.390625 -13.15625 
Q 32.09375 -11.90625 28.296875 -9.546875 
Q 24.5 -7.203125 22.390625 -3.796875 
Q 20.296875 -0.40625 20.296875 3.90625 
Q 20.296875 8.09375 22.390625 11.4375 
Q 24.5 14.796875 28.296875 17.140625 
Q 32.09375 19.5 37.390625 20.75 
Q 42.703125 22 49.203125 22 
Q 55.203125 22 60.453125 20.75 
Q 65.703125 19.5 69.640625 17.203125 
Q 73.59375 14.90625 75.890625 11.546875 
Q 78.203125 8.203125 78.203125 3.90625 
z
M 71.09375 3.59375 
Q 71.09375 6.59375 69.296875 8.890625 
Q 67.5 11.203125 64.453125 12.75 
Q 61.40625 14.296875 57.40625 15.140625 
Q 53.40625 16 49.09375 16 
Q 44.296875 16 40.296875 15.140625 
Q 36.296875 14.296875 33.4375 12.75 
Q 30.59375 11.203125 29 8.890625 
Q 27.40625 6.59375 27.40625 3.59375 
Q 27.40625 0.703125 29 -1.546875 
Q 30.59375 -3.796875 33.4375 -5.296875 
Q 36.296875 -6.796875 40.296875 -7.59375 
Q 44.296875 -8.40625 49.09375 -8.40625 
Q 53.40625 -8.40625 57.40625 -7.59375 
Q 61.40625 -6.796875 64.453125 -5.296875 
Q 67.5 -3.796875 69.296875 -1.546875 
Q 71.09375 0.703125 71.09375 3.59375 
z
M 63.59375 36.40625 
Q 63.90625 35.09375 62.40625 34.703125 
Q 59.09375 33.90625 53.640625 33.09375 
Q 48.203125 32.296875 42 31.6875 
Q 35.796875 31.09375 29.546875 30.75 
Q 23.296875 30.40625 18.40625 30.5 
Q 13.90625 30.59375 12.25 32.59375 
Q 10.59375 34.59375 10.59375 38.796875 
L 10.59375 66.90625 
Q 10.59375 71.09375 12.1875 72.5 
Q 13.796875 73.90625 18.203125 73.90625 
L 52.296875 73.90625 
Q 53.59375 73.90625 53.59375 72.703125 
L 53.59375 69.09375 
Q 53.59375 67.90625 52.296875 67.90625 
L 19.5 67.90625 
Q 18.09375 67.90625 17.796875 67.546875 
Q 17.5 67.203125 17.5 65.703125 
L 17.5 39.296875 
Q 17.5 37.796875 18 37.25 
Q 18.5 36.703125 19.90625 36.703125 
Q 25 36.703125 30.390625 36.953125 
Q 35.796875 37.203125 41.09375 37.703125 
Q 46.40625 38.203125 51.5 38.890625 
Q 56.59375 39.59375 61.09375 40.5 
Q 62.09375 40.703125 62.4375 40.390625 
Q 62.796875 40.09375 63 39.5 
z
M 77 24.296875 
Q 77 22.90625 75.59375 22.90625 
L 71.5 22.90625 
Q 70.09375 22.90625 70.09375 24.296875 
L 70.09375 76.796875 
Q 70.09375 78.203125 71.5 78.203125 
L 75.59375 78.203125 
Q 77 78.203125 77 76.796875 
L 77 53 
L 90.796875 53 
Q 91.40625 53 91.84375 52.640625 
Q 92.296875 52.296875 92.296875 51.703125 
L 92.296875 48.296875 
Q 92.296875 47.796875 91.84375 47.390625 
Q 91.40625 47 90.796875 47 
L 77 47 
L 77 24.296875 
z
" id="NanumGothic-45817"/>
       <path d="M 25 41.203125 
Q 22.59375 41.203125 21.140625 41.5 
Q 19.703125 41.796875 18.890625 42.640625 
Q 18.09375 43.5 17.796875 44.84375 
Q 17.5 46.203125 17.5 48.296875 
L 17.5 75.59375 
Q 17.5 76.09375 17.890625 76.4375 
Q 18.296875 76.796875 18.796875 76.796875 
L 23.09375 76.796875 
Q 23.59375 76.796875 23.9375 76.390625 
Q 24.296875 76 24.296875 75.59375 
L 24.296875 65.296875 
L 69.703125 65.296875 
L 69.703125 75.5 
Q 69.703125 76 70.046875 76.390625 
Q 70.40625 76.796875 70.90625 76.796875 
L 75.203125 76.796875 
Q 75.703125 76.796875 76.09375 76.4375 
Q 76.5 76.09375 76.5 75.59375 
L 76.5 47.59375 
Q 76.5 43.796875 74.890625 42.5 
Q 73.296875 41.203125 68.90625 41.203125 
z
M 45.5 4.09375 
Q 45 4.09375 44.59375 4.546875 
Q 44.203125 5 44.203125 5.59375 
L 44.203125 25.40625 
L 4.5 25.40625 
Q 3.90625 25.40625 3.453125 25.796875 
Q 3 26.203125 3 26.703125 
L 3 30.09375 
Q 3 30.703125 3.453125 31.046875 
Q 3.90625 31.40625 4.5 31.40625 
L 89.5 31.40625 
Q 90 31.40625 90.5 31.046875 
Q 91 30.703125 91 30.09375 
L 91 26.703125 
Q 91 26.203125 90.5 25.796875 
Q 90 25.40625 89.5 25.40625 
L 51.09375 25.40625 
L 51.09375 5.59375 
Q 51.09375 5 50.75 4.546875 
Q 50.40625 4.09375 49.796875 4.09375 
z
M 24.296875 59.40625 
L 24.296875 49.5 
Q 24.296875 48 24.796875 47.546875 
Q 25.296875 47.09375 26.703125 47.09375 
L 67.296875 47.09375 
Q 68.703125 47.09375 69.203125 47.546875 
Q 69.703125 48 69.703125 49.5 
L 69.703125 59.40625 
z
M 80.203125 -11 
Q 80.203125 -11.59375 79.703125 -11.890625 
Q 79.203125 -12.203125 78.703125 -12.203125 
L 23.59375 -12.203125 
Q 18.90625 -12.203125 17.453125 -10.25 
Q 16 -8.296875 16 -4.203125 
L 16 14.296875 
Q 16 15.703125 17.40625 15.703125 
L 21.5 15.703125 
Q 22.90625 15.703125 22.90625 14.296875 
L 22.90625 -4.09375 
Q 22.90625 -5.5 23.34375 -5.84375 
Q 23.796875 -6.203125 25.203125 -6.203125 
L 78.703125 -6.203125 
Q 79.203125 -6.203125 79.703125 -6.546875 
Q 80.203125 -6.90625 80.203125 -7.40625 
L 80.203125 -11 
z
" id="NanumGothic-48516"/>
       <path d="M 55.5 52 
Q 55.5 47 53.703125 42.84375 
Q 51.90625 38.703125 48.75 35.703125 
Q 45.59375 32.703125 41.25 31 
Q 36.90625 29.296875 31.703125 29.296875 
Q 26.703125 29.296875 22.390625 30.9375 
Q 18.09375 32.59375 14.9375 35.59375 
Q 11.796875 38.59375 10.046875 42.796875 
Q 8.296875 47 8.296875 52 
Q 8.296875 57.296875 10.046875 61.546875 
Q 11.796875 65.796875 14.9375 68.75 
Q 18.09375 71.703125 22.390625 73.25 
Q 26.703125 74.796875 31.703125 74.796875 
Q 36.5 74.796875 40.796875 73.25 
Q 45.09375 71.703125 48.34375 68.796875 
Q 51.59375 65.90625 53.546875 61.65625 
Q 55.5 57.40625 55.5 52 
z
M 78.203125 3.90625 
Q 78.203125 -0.40625 75.890625 -3.796875 
Q 73.59375 -7.203125 69.640625 -9.546875 
Q 65.703125 -11.90625 60.453125 -13.15625 
Q 55.203125 -14.40625 49.203125 -14.40625 
Q 42.703125 -14.40625 37.390625 -13.15625 
Q 32.09375 -11.90625 28.296875 -9.546875 
Q 24.5 -7.203125 22.390625 -3.796875 
Q 20.296875 -0.40625 20.296875 3.90625 
Q 20.296875 8.09375 22.390625 11.4375 
Q 24.5 14.796875 28.296875 17.140625 
Q 32.09375 19.5 37.390625 20.75 
Q 42.703125 22 49.203125 22 
Q 55.203125 22 60.453125 20.75 
Q 65.703125 19.5 69.640625 17.203125 
Q 73.59375 14.90625 75.890625 11.546875 
Q 78.203125 8.203125 78.203125 3.90625 
z
M 48.5 52.09375 
Q 48.5 56.09375 47.140625 59.140625 
Q 45.796875 62.203125 43.5 64.25 
Q 41.203125 66.296875 38.140625 67.34375 
Q 35.09375 68.40625 31.703125 68.40625 
Q 28.203125 68.40625 25.203125 67.34375 
Q 22.203125 66.296875 20 64.25 
Q 17.796875 62.203125 16.546875 59.140625 
Q 15.296875 56.09375 15.296875 52.09375 
Q 15.296875 48.296875 16.5 45.296875 
Q 17.703125 42.296875 19.84375 40.09375 
Q 22 37.90625 25 36.75 
Q 28 35.59375 31.703125 35.59375 
Q 35.09375 35.59375 38.140625 36.75 
Q 41.203125 37.90625 43.5 40.09375 
Q 45.796875 42.296875 47.140625 45.296875 
Q 48.5 48.296875 48.5 52.09375 
z
M 71.09375 3.59375 
Q 71.09375 6.59375 69.296875 8.890625 
Q 67.5 11.203125 64.453125 12.75 
Q 61.40625 14.296875 57.40625 15.140625 
Q 53.40625 16 49.09375 16 
Q 44.296875 16 40.296875 15.140625 
Q 36.296875 14.296875 33.4375 12.75 
Q 30.59375 11.203125 29 8.890625 
Q 27.40625 6.59375 27.40625 3.59375 
Q 27.40625 0.703125 29 -1.546875 
Q 30.59375 -3.796875 33.4375 -5.296875 
Q 36.296875 -6.796875 40.296875 -7.59375 
Q 44.296875 -8.40625 49.09375 -8.40625 
Q 53.40625 -8.40625 57.40625 -7.59375 
Q 61.40625 -6.796875 64.453125 -5.296875 
Q 67.5 -3.796875 69.296875 -1.546875 
Q 71.09375 0.703125 71.09375 3.59375 
z
M 77 24.59375 
Q 77 23.203125 75.59375 23.203125 
L 71.5 23.203125 
Q 70.09375 23.203125 70.09375 24.59375 
L 70.09375 76.796875 
Q 70.09375 78.203125 71.5 78.203125 
L 75.59375 78.203125 
Q 77 78.203125 77 76.796875 
L 77 60.59375 
L 90.796875 60.59375 
Q 91.40625 60.59375 91.84375 60.25 
Q 92.296875 59.90625 92.296875 59.296875 
L 92.296875 56 
Q 92.296875 55.5 91.84375 55.09375 
Q 91.40625 54.703125 90.796875 54.703125 
L 77 54.703125 
L 77 42.703125 
L 90.796875 42.703125 
Q 91.40625 42.703125 91.84375 42.34375 
Q 92.296875 42 92.296875 41.40625 
L 92.296875 38.09375 
Q 92.296875 37.59375 91.84375 37.1875 
Q 91.40625 36.796875 90.796875 36.796875 
L 77 36.796875 
L 77 24.59375 
z
" id="NanumGothic-50577"/>
       <path d="M 50.703125 63.5 
Q 50.203125 54.90625 47.296875 46.59375 
Q 44.40625 38.296875 39.25 30.75 
Q 34.09375 23.203125 26.84375 16.75 
Q 19.59375 10.296875 10.40625 5.40625 
Q 9.09375 4.703125 8.5 5.703125 
L 6.296875 9.203125 
Q 5.59375 10.40625 6.703125 10.90625 
Q 15.203125 15.296875 21.75 20.9375 
Q 28.296875 26.59375 32.9375 33.1875 
Q 37.59375 39.796875 40.296875 47.09375 
Q 43 54.40625 43.703125 62.09375 
Q 43.90625 63.59375 43.296875 64.140625 
Q 42.703125 64.703125 41.296875 64.703125 
L 10.296875 64.703125 
Q 9.09375 64.703125 9.09375 66 
L 9.09375 69.5 
Q 9.09375 70.703125 10.296875 70.703125 
L 43.203125 70.703125 
Q 47.90625 70.703125 49.40625 68.953125 
Q 50.90625 67.203125 50.703125 63.5 
z
M 77 -12.59375 
Q 77 -14 75.59375 -14 
L 71.5 -14 
Q 70.09375 -14 70.09375 -12.59375 
L 70.09375 76.796875 
Q 70.09375 78.203125 71.5 78.203125 
L 75.59375 78.203125 
Q 77 78.203125 77 76.796875 
L 77 41.40625 
L 90.796875 41.40625 
Q 91.40625 41.40625 91.84375 41.046875 
Q 92.296875 40.703125 92.296875 40.09375 
L 92.296875 36.703125 
Q 92.296875 36.203125 91.84375 35.796875 
Q 91.40625 35.40625 90.796875 35.40625 
L 77 35.40625 
L 77 -12.59375 
z
" id="NanumGothic-44032"/>
       <path d="M 53.5 65.796875 
Q 53 62.90625 52.296875 60.40625 
L 73.59375 60.40625 
L 73.59375 76.796875 
Q 73.59375 78.203125 75 78.203125 
L 79.09375 78.203125 
Q 80.5 78.203125 80.5 76.796875 
L 80.5 25.59375 
Q 80.5 24.203125 79.09375 24.203125 
L 75 24.203125 
Q 73.59375 24.203125 73.59375 25.59375 
L 73.59375 36.5 
L 48.203125 36.5 
Q 46.90625 36.5 46.90625 37.703125 
L 46.90625 41.203125 
Q 46.90625 42.40625 48.203125 42.40625 
L 73.59375 42.40625 
L 73.59375 54.5 
L 50.203125 54.5 
Q 46 44.703125 37.09375 36.84375 
Q 28.203125 29 13.59375 22.90625 
Q 12 22.203125 11.40625 23.5 
L 9.90625 26.796875 
Q 9.5 27.59375 9.84375 28.09375 
Q 10.203125 28.59375 10.703125 28.796875 
Q 26.59375 35.40625 35.34375 44.5 
Q 44.09375 53.59375 46 64.09375 
Q 46.59375 66.90625 43.59375 66.90625 
L 13.40625 66.90625 
Q 12.203125 66.90625 12.203125 68.203125 
L 12.203125 71.703125 
Q 12.203125 72.90625 13.40625 72.90625 
L 45.90625 72.90625 
Q 50.703125 72.90625 52.390625 71.203125 
Q 54.09375 69.5 53.5 65.796875 
z
M 22.203125 18.203125 
Q 22.203125 18.796875 22.703125 19.09375 
Q 23.203125 19.40625 23.703125 19.40625 
L 72.90625 19.40625 
Q 77.59375 19.40625 79.046875 17.65625 
Q 80.5 15.90625 80.5 11.796875 
L 80.5 -13 
Q 80.5 -14.40625 79.09375 -14.40625 
L 75 -14.40625 
Q 73.59375 -14.40625 73.59375 -13 
L 73.59375 11.296875 
Q 73.59375 12.703125 73.140625 13.046875 
Q 72.703125 13.40625 71.296875 13.40625 
L 23.703125 13.40625 
Q 23.203125 13.40625 22.703125 13.75 
Q 22.203125 14.09375 22.203125 14.59375 
L 22.203125 18.203125 
z
" id="NanumGothic-44201"/>
      </defs>
      <use xlink:href="#NanumGothic-54217"/>
      <use x="93.999985" xlink:href="#NanumGothic-45817"/>
      <use x="187.999969" xlink:href="#NanumGothic-48516"/>
      <use x="281.999954" xlink:href="#NanumGothic-50577"/>
      <use x="375.999939" xlink:href="#NanumGothic-44032"/>
      <use x="469.999924" xlink:href="#NanumGothic-44201"/>
     </g>
    </g>
   </g>
   <g id="matplotlib.axis_2">
    <g id="ytick_1">
     <g id="line2d_10">
      <defs>
       <path d="M 0 0 
L -3.5 0 
" id="m92676f0689" style="stroke:#000000;stroke-width:0.8;"/>
      </defs>
      <g>
       <use style="stroke:#000000;stroke-width:0.8;" x="73.125" xlink:href="#m92676f0689" y="224.64"/>
      </g>
     </g>
     <g id="text_11">
      <!-- 0.000000 -->
      <g transform="translate(20.679688 228.400156)scale(0.1 -0.1)">
       <defs>
        <path d="M 10.796875 -4 
Q 10.796875 -1.90625 12.25 -0.453125 
Q 13.703125 1 15.796875 1 
Q 17.90625 1 19.34375 -0.453125 
Q 20.796875 -1.90625 20.796875 -4 
Q 20.796875 -6.09375 19.34375 -7.546875 
Q 17.90625 -9 15.796875 -9 
Q 13.703125 -9 12.25 -7.546875 
Q 10.796875 -6.09375 10.796875 -4 
z
" id="NanumGothic-46"/>
       </defs>
       <use xlink:href="#NanumGothic-48"/>
       <use x="60.599991" xlink:href="#NanumGothic-46"/>
       <use x="90.899979" xlink:href="#NanumGothic-48"/>
       <use x="151.499969" xlink:href="#NanumGothic-48"/>
       <use x="212.09996" xlink:href="#NanumGothic-48"/>
       <use x="272.699951" xlink:href="#NanumGothic-48"/>
       <use x="333.299942" xlink:href="#NanumGothic-48"/>
       <use x="393.899933" xlink:href="#NanumGothic-48"/>
      </g>
     </g>
    </g>
    <g id="ytick_2">
     <g id="line2d_11">
      <g>
       <use style="stroke:#000000;stroke-width:0.8;" x="73.125" xlink:href="#m92676f0689" y="199.496999"/>
      </g>
     </g>
     <g id="text_12">
      <!-- 0.000025 -->
      <g transform="translate(20.679688 203.257155)scale(0.1 -0.1)">
       <use xlink:href="#NanumGothic-48"/>
       <use x="60.599991" xlink:href="#NanumGothic-46"/>
       <use x="90.899979" xlink:href="#NanumGothic-48"/>
       <use x="151.499969" xlink:href="#NanumGothic-48"/>
       <use x="212.09996" xlink:href="#NanumGothic-48"/>
       <use x="272.699951" xlink:href="#NanumGothic-48"/>
       <use x="333.299942" xlink:href="#NanumGothic-50"/>
       <use x="393.899933" xlink:href="#NanumGothic-53"/>
      </g>
     </g>
    </g>
    <g id="ytick_3">
     <g id="line2d_12">
      <g>
       <use style="stroke:#000000;stroke-width:0.8;" x="73.125" xlink:href="#m92676f0689" y="174.353998"/>
      </g>
     </g>
     <g id="text_13">
      <!-- 0.000050 -->
      <g transform="translate(20.679688 178.114154)scale(0.1 -0.1)">
       <use xlink:href="#NanumGothic-48"/>
       <use x="60.599991" xlink:href="#NanumGothic-46"/>
       <use x="90.899979" xlink:href="#NanumGothic-48"/>
       <use x="151.499969" xlink:href="#NanumGothic-48"/>
       <use x="212.09996" xlink:href="#NanumGothic-48"/>
       <use x="272.699951" xlink:href="#NanumGothic-48"/>
       <use x="333.299942" xlink:href="#NanumGothic-53"/>
       <use x="393.899933" xlink:href="#NanumGothic-48"/>
      </g>
     </g>
    </g>
    <g id="ytick_4">
     <g id="line2d_13">
      <g>
       <use style="stroke:#000000;stroke-width:0.8;" x="73.125" xlink:href="#m92676f0689" y="149.210997"/>
      </g>
     </g>
     <g id="text_14">
      <!-- 0.000075 -->
      <g transform="translate(20.679688 152.971153)scale(0.1 -0.1)">
       <defs>
        <path d="M 24.203125 -3.296875 
Q 23.5 -4.703125 22.203125 -4.703125 
L 17.203125 -4.703125 
Q 16.59375 -4.703125 16.34375 -4.296875 
Q 16.09375 -3.90625 16.40625 -3.296875 
L 45.5 63.796875 
L 8.40625 63.796875 
Q 7 63.796875 7 65.203125 
L 7 68.5 
Q 7 69.90625 8.40625 69.90625 
L 49.90625 69.90625 
Q 52 69.90625 52.34375 69.546875 
Q 52.703125 69.203125 52.703125 67.09375 
L 52.703125 64.59375 
Q 52.703125 63.796875 52.40625 63.203125 
z
" id="NanumGothic-55"/>
       </defs>
       <use xlink:href="#NanumGothic-48"/>
       <use x="60.599991" xlink:href="#NanumGothic-46"/>
       <use x="90.899979" xlink:href="#NanumGothic-48"/>
       <use x="151.499969" xlink:href="#NanumGothic-48"/>
       <use x="212.09996" xlink:href="#NanumGothic-48"/>
       <use x="272.699951" xlink:href="#NanumGothic-48"/>
       <use x="333.299942" xlink:href="#NanumGothic-55"/>
       <use x="393.899933" xlink:href="#NanumGothic-53"/>
      </g>
     </g>
    </g>
    <g id="ytick_5">
     <g id="line2d_14">
      <g>
       <use style="stroke:#000000;stroke-width:0.8;" x="73.125" xlink:href="#m92676f0689" y="124.067996"/>
      </g>
     </g>
     <g id="text_15">
      <!-- 0.000100 -->
      <g transform="translate(20.679688 127.828152)scale(0.1 -0.1)">
       <use xlink:href="#NanumGothic-48"/>
       <use x="60.599991" xlink:href="#NanumGothic-46"/>
       <use x="90.899979" xlink:href="#NanumGothic-48"/>
       <use x="151.499969" xlink:href="#NanumGothic-48"/>
       <use x="212.09996" xlink:href="#NanumGothic-48"/>
       <use x="272.699951" xlink:href="#NanumGothic-49"/>
       <use x="333.299942" xlink:href="#NanumGothic-48"/>
       <use x="393.899933" xlink:href="#NanumGothic-48"/>
      </g>
     </g>
    </g>
    <g id="ytick_6">
     <g id="line2d_15">
      <g>
       <use style="stroke:#000000;stroke-width:0.8;" x="73.125" xlink:href="#m92676f0689" y="98.924995"/>
      </g>
     </g>
     <g id="text_16">
      <!-- 0.000125 -->
      <g transform="translate(20.679688 102.685151)scale(0.1 -0.1)">
       <use xlink:href="#NanumGothic-48"/>
       <use x="60.599991" xlink:href="#NanumGothic-46"/>
       <use x="90.899979" xlink:href="#NanumGothic-48"/>
       <use x="151.499969" xlink:href="#NanumGothic-48"/>
       <use x="212.09996" xlink:href="#NanumGothic-48"/>
       <use x="272.699951" xlink:href="#NanumGothic-49"/>
       <use x="333.299942" xlink:href="#NanumGothic-50"/>
       <use x="393.899933" xlink:href="#NanumGothic-53"/>
      </g>
     </g>
    </g>
    <g id="ytick_7">
     <g id="line2d_16">
      <g>
       <use style="stroke:#000000;stroke-width:0.8;" x="73.125" xlink:href="#m92676f0689" y="73.781994"/>
      </g>
     </g>
     <g id="text_17">
      <!-- 0.000150 -->
      <g transform="translate(20.679688 77.54215)scale(0.1 -0.1)">
       <use xlink:href="#NanumGothic-48"/>
       <use x="60.599991" xlink:href="#NanumGothic-46"/>
       <use x="90.899979" xlink:href="#NanumGothic-48"/>
       <use x="151.499969" xlink:href="#NanumGothic-48"/>
       <use x="212.09996" xlink:href="#NanumGothic-48"/>
       <use x="272.699951" xlink:href="#NanumGothic-49"/>
       <use x="333.299942" xlink:href="#NanumGothic-53"/>
       <use x="393.899933" xlink:href="#NanumGothic-48"/>
      </g>
     </g>
    </g>
    <g id="ytick_8">
     <g id="line2d_17">
      <g>
       <use style="stroke:#000000;stroke-width:0.8;" x="73.125" xlink:href="#m92676f0689" y="48.638993"/>
      </g>
     </g>
     <g id="text_18">
      <!-- 0.000175 -->
      <g transform="translate(20.679688 52.399149)scale(0.1 -0.1)">
       <use xlink:href="#NanumGothic-48"/>
       <use x="60.599991" xlink:href="#NanumGothic-46"/>
       <use x="90.899979" xlink:href="#NanumGothic-48"/>
       <use x="151.499969" xlink:href="#NanumGothic-48"/>
       <use x="212.09996" xlink:href="#NanumGothic-48"/>
       <use x="272.699951" xlink:href="#NanumGothic-49"/>
       <use x="333.299942" xlink:href="#NanumGothic-55"/>
       <use x="393.899933" xlink:href="#NanumGothic-53"/>
      </g>
     </g>
    </g>
    <g id="ytick_9">
     <g id="line2d_18">
      <g>
       <use style="stroke:#000000;stroke-width:0.8;" x="73.125" xlink:href="#m92676f0689" y="23.495992"/>
      </g>
     </g>
     <g id="text_19">
      <!-- 0.000200 -->
      <g transform="translate(20.679688 27.256148)scale(0.1 -0.1)">
       <use xlink:href="#NanumGothic-48"/>
       <use x="60.599991" xlink:href="#NanumGothic-46"/>
       <use x="90.899979" xlink:href="#NanumGothic-48"/>
       <use x="151.499969" xlink:href="#NanumGothic-48"/>
       <use x="212.09996" xlink:href="#NanumGothic-48"/>
       <use x="272.699951" xlink:href="#NanumGothic-50"/>
       <use x="333.299942" xlink:href="#NanumGothic-48"/>
       <use x="393.899933" xlink:href="#NanumGothic-48"/>
      </g>
     </g>
    </g>
    <g id="text_20">
     <!-- Density -->
     <g transform="translate(14.709375 132.775469)rotate(-90)scale(0.1 -0.1)">
      <defs>
       <path d="M 57.90625 33.296875 
Q 57.90625 49.203125 49.09375 56.796875 
Q 41.296875 63.5 27.703125 63.5 
L 16.90625 63.5 
L 16.90625 2 
L 23 2 
Q 57.90625 2 57.90625 33.296875 
z
M 65.203125 32.90625 
Q 65.203125 23.59375 62 16.296875 
Q 58.796875 9 53.09375 4.203125 
Q 47.703125 0.09375 40 -2.09375 
Q 32.296875 -4.296875 22.59375 -4.296875 
L 12.296875 -4.296875 
Q 10.203125 -4.296875 9.84375 -3.9375 
Q 9.5 -3.59375 9.5 -1.5 
L 9.5 66.90625 
Q 9.5 69 9.84375 69.34375 
Q 10.203125 69.703125 12.296875 69.703125 
L 28 69.703125 
Q 47 69.703125 56.59375 59.40625 
Q 65.203125 49.90625 65.203125 32.90625 
z
" id="NanumGothic-68"/>
       <path d="M 42.703125 26.5 
Q 42.703125 30.59375 41.890625 33.796875 
Q 41.09375 37 39.40625 39.59375 
Q 35.703125 45.5 28.703125 45.5 
Q 21.5 45.5 17 39.5 
Q 15.203125 36.796875 14 33.296875 
Q 12.796875 29.796875 12.703125 26.5 
z
M 12.703125 20.796875 
Q 12.59375 15.796875 13.84375 11.9375 
Q 15.09375 8.09375 17.5 5.5 
Q 19.90625 2.90625 23.25 1.5 
Q 26.59375 0.09375 30.703125 0.09375 
Q 34.703125 0.09375 38.203125 0.84375 
Q 41.703125 1.59375 44.703125 3.296875 
Q 46 3.90625 46 2.59375 
L 46 -1.90625 
Q 46 -2.796875 44.90625 -3.296875 
Q 41.59375 -4.59375 38 -5.25 
Q 34.40625 -5.90625 30.203125 -5.90625 
Q 17.90625 -5.90625 11.59375 1.25 
Q 5.296875 8.40625 5.296875 22.796875 
Q 5.296875 35.5 11.59375 43.296875 
Q 18.203125 51.203125 28.296875 51.203125 
Q 33.90625 51.203125 38 49.203125 
Q 42.09375 47.203125 45 43.203125 
Q 50.09375 36.09375 50.09375 24.203125 
Q 50.09375 22.90625 50.046875 22.203125 
Q 50 21.5 49.703125 21.203125 
Q 49.40625 20.90625 48.65625 20.84375 
Q 47.90625 20.796875 46.5 20.796875 
z
" id="NanumGothic-101"/>
       <path d="M 52.09375 -2.90625 
Q 52.09375 -4.296875 50.703125 -4.296875 
L 46.703125 -4.296875 
Q 45.296875 -4.296875 45.296875 -2.90625 
L 45.296875 28.59375 
Q 45.296875 37.796875 42 41.640625 
Q 38.703125 45.5 32.703125 45.5 
Q 24.59375 45.5 20.34375 41 
Q 16.09375 36.5 16.09375 28.40625 
L 16.09375 -2.90625 
Q 16.09375 -4.296875 14.703125 -4.296875 
L 10.703125 -4.296875 
Q 9.296875 -4.296875 9.296875 -2.90625 
L 9.296875 37.09375 
Q 9.296875 41.40625 9.25 43.796875 
Q 9.203125 46.203125 9 48.40625 
Q 8.90625 49.09375 9.34375 49.4375 
Q 9.796875 49.796875 10.40625 49.796875 
L 14 49.796875 
Q 15.40625 49.796875 15.40625 48.40625 
L 15.40625 42.90625 
Q 18.203125 47.203125 22.140625 49.203125 
Q 26.09375 51.203125 33 51.203125 
Q 42.5 51.203125 47.296875 45.703125 
Q 52.09375 40.203125 52.09375 30.203125 
z
" id="NanumGothic-110"/>
       <path d="M 6.59375 2.296875 
Q 12.703125 -0.203125 19.203125 -0.203125 
Q 24.59375 -0.203125 28.09375 2.4375 
Q 31.59375 5.09375 31.59375 9.59375 
Q 31.59375 12.203125 29.640625 14.640625 
Q 27.703125 17.09375 24.90625 18.703125 
Q 21.796875 20.40625 18.546875 21.953125 
Q 15.296875 23.5 12.296875 25.203125 
Q 8.703125 27.203125 7 30.140625 
Q 5.296875 33.09375 5.296875 36.296875 
Q 5.296875 40 6.6875 42.796875 
Q 8.09375 45.59375 10.5 47.5 
Q 12.90625 49.40625 16.09375 50.296875 
Q 19.296875 51.203125 22.90625 51.203125 
Q 26.703125 51.203125 29.5 50.796875 
Q 32.296875 50.40625 35.09375 49.59375 
Q 35.703125 49.40625 36.140625 49 
Q 36.59375 48.59375 36.5 47.90625 
L 36.203125 44.90625 
Q 36.09375 44.09375 35.59375 43.890625 
Q 35.09375 43.703125 34.59375 43.90625 
Q 32.09375 44.796875 29.59375 45.140625 
Q 27.09375 45.5 23.59375 45.5 
Q 12 45.5 12 36.296875 
Q 12 34.296875 13.546875 32.5 
Q 15.09375 30.703125 18.796875 28.90625 
Q 22 27.296875 25.09375 25.84375 
Q 28.203125 24.40625 31.796875 22.40625 
Q 34.90625 20.703125 36.953125 17.203125 
Q 39 13.703125 39 9.59375 
Q 39 5.59375 37.390625 2.6875 
Q 35.796875 -0.203125 33.09375 -2.09375 
Q 30.40625 -4 26.90625 -4.953125 
Q 23.40625 -5.90625 19.703125 -5.90625 
Q 17.5 -5.90625 15.75 -5.796875 
Q 14 -5.703125 12.453125 -5.5 
Q 10.90625 -5.296875 9.296875 -5 
Q 7.703125 -4.703125 5.90625 -4.203125 
Q 4.5 -3.703125 4.59375 -2.40625 
L 5 1.296875 
Q 5.203125 2.90625 6.59375 2.296875 
z
" id="NanumGothic-115"/>
       <path d="M 16.40625 -2.90625 
Q 16.40625 -4.296875 15 -4.296875 
L 10.59375 -4.296875 
Q 9.203125 -4.296875 9.203125 -2.90625 
L 9.203125 48.40625 
Q 9.203125 49.796875 10.59375 49.796875 
L 15 49.796875 
Q 16.40625 49.796875 16.40625 48.40625 
L 16.40625 -2.90625 
z
M 7.90625 68.703125 
Q 7.90625 70.703125 9.296875 72.140625 
Q 10.703125 73.59375 12.703125 73.59375 
Q 14.703125 73.59375 16.140625 72.140625 
Q 17.59375 70.703125 17.59375 68.703125 
Q 17.59375 66.703125 16.140625 65.296875 
Q 14.703125 63.90625 12.703125 63.90625 
Q 10.703125 63.90625 9.296875 65.296875 
Q 7.90625 66.703125 7.90625 68.703125 
z
" id="NanumGothic-105"/>
       <path d="M 34.5 -4.40625 
Q 30.296875 -5.90625 26.203125 -5.90625 
Q 18.09375 -5.90625 15.5 -0.59375 
Q 13.796875 3 13.796875 12.09375 
L 13.796875 44 
L 4.40625 44 
Q 3 44 3 45.40625 
L 3 48.40625 
Q 3 49.796875 4.40625 49.796875 
L 13.796875 49.796875 
L 13.796875 63.296875 
Q 13.796875 64.796875 15.09375 64.796875 
L 19.296875 64.796875 
Q 20.59375 64.796875 20.59375 63.296875 
L 20.59375 49.796875 
L 31.703125 49.796875 
Q 33.09375 49.796875 33.09375 48.40625 
L 33.09375 45.40625 
Q 33.09375 44 31.703125 44 
L 20.59375 44 
L 20.59375 8.703125 
Q 20.59375 -0.203125 27.796875 -0.203125 
Q 30.59375 -0.203125 34.09375 1 
Q 34.59375 1.203125 35.046875 1 
Q 35.5 0.796875 35.5 0.203125 
L 35.703125 -2.40625 
Q 35.90625 -3.796875 34.5 -4.40625 
z
" id="NanumGothic-116"/>
       <path d="M 4.703125 -19.09375 
Q 3.5 -18.796875 3.703125 -17.59375 
L 4 -14.203125 
Q 4 -13 5.203125 -13.5 
Q 6.796875 -14.09375 8.90625 -14.09375 
Q 11 -14.09375 12.75 -13.4375 
Q 14.5 -12.796875 15.40625 -11.703125 
Q 16.5 -10.296875 17.84375 -7.09375 
Q 19.203125 -3.90625 20.5 0.203125 
Q 16 12.40625 11.59375 24.296875 
Q 7.203125 36.203125 2.703125 48.40625 
Q 2.5 48.90625 2.703125 49.34375 
Q 2.90625 49.796875 3.5 49.796875 
L 8.203125 49.796875 
Q 9.59375 49.796875 10.203125 48.40625 
L 23.703125 9.59375 
Q 27.40625 19.796875 30.75 29.046875 
Q 34.09375 38.296875 37.796875 48.40625 
Q 38.296875 49.796875 39.796875 49.796875 
L 44.09375 49.796875 
Q 44.703125 49.796875 44.890625 49.34375 
Q 45.09375 48.90625 44.90625 48.40625 
L 24.09375 -7.40625 
Q 23 -10.296875 21.640625 -12.59375 
Q 20.296875 -14.90625 18.90625 -16.296875 
Q 17.09375 -18 14.890625 -18.84375 
Q 12.703125 -19.703125 10.296875 -19.703125 
Q 8.796875 -19.703125 7.59375 -19.59375 
Q 6.40625 -19.5 4.703125 -19.09375 
z
" id="NanumGothic-121"/>
      </defs>
      <use xlink:href="#NanumGothic-68"/>
      <use x="72.699982" xlink:href="#NanumGothic-101"/>
      <use x="127.199966" xlink:href="#NanumGothic-110"/>
      <use x="187.799957" xlink:href="#NanumGothic-115"/>
      <use x="230.199951" xlink:href="#NanumGothic-105"/>
      <use x="254.399948" xlink:href="#NanumGothic-116"/>
      <use x="290.699936" xlink:href="#NanumGothic-121"/>
     </g>
    </g>
   </g>
   <g id="line2d_19">
    <path clip-path="url(#pdf676fc93a)" d="M 88.343182 224.575405 
L 91.402113 224.30794 
L 92.931578 223.949318 
L 94.461044 223.281312 
L 95.990509 222.108326 
L 97.519975 220.163905 
L 99.04944 217.116185 
L 100.578906 212.591207 
L 102.108371 206.215814 
L 103.637837 197.677011 
L 105.167302 186.790089 
L 106.696768 173.564436 
L 108.226233 158.254009 
L 111.285164 123.701977 
L 114.344095 89.753818 
L 115.873561 75.3907 
L 117.403026 63.77842 
L 118.932492 55.336508 
L 120.461958 50.185626 
L 121.991423 48.190325 
L 123.520889 49.026149 
L 125.050354 52.239621 
L 126.57982 57.289315 
L 128.109285 63.580445 
L 132.697682 84.352335 
L 135.756613 96.659334 
L 141.874475 119.766514 
L 144.933406 131.622405 
L 147.992337 142.505268 
L 151.051268 151.886142 
L 155.639664 164.440852 
L 161.757526 180.729419 
L 164.816457 187.854217 
L 167.875388 194.068085 
L 170.934319 199.630591 
L 173.99325 204.502202 
L 175.522716 206.602068 
L 177.052181 208.465941 
L 178.581647 210.119246 
L 181.640578 212.960169 
L 184.699509 215.366037 
L 187.75844 217.344925 
L 190.817371 218.874804 
L 193.876302 220.050824 
L 196.935233 220.931735 
L 198.464698 221.235579 
L 199.994164 221.422398 
L 201.52363 221.475459 
L 203.053095 221.384254 
L 204.582561 221.143562 
L 206.112026 220.750306 
L 207.641492 220.201074 
L 209.170957 219.493033 
L 210.700423 218.629261 
L 213.759354 216.525885 
L 216.818285 214.306698 
L 218.34775 213.369698 
L 219.877216 212.667203 
L 221.406681 212.263113 
L 222.936147 212.186077 
L 224.465612 212.425974 
L 225.995078 212.938331 
L 227.524543 213.654322 
L 233.642405 216.996418 
L 235.171871 217.65426 
L 238.230802 218.61681 
L 241.289733 219.226086 
L 245.878129 219.832864 
L 250.466526 220.22347 
L 255.054922 220.398567 
L 259.643319 220.550125 
L 262.70225 220.869755 
L 265.761181 221.438297 
L 271.879043 222.766846 
L 274.937974 223.232257 
L 279.52637 223.655626 
L 293.29156 224.557254 
L 300.938888 224.637127 
L 359.058577 224.612726 
L 363.646974 224.485294 
L 368.23537 224.154385 
L 372.823767 223.796456 
L 375.882698 223.762545 
L 380.471094 224.071461 
L 386.588956 224.513017 
L 392.706818 224.630094 
L 392.706818 224.630094 
" style="fill:none;stroke:#1f77b4;stroke-linecap:square;stroke-width:1.5;"/>
   </g>
   <g id="patch_53">
    <path d="M 73.125 224.64 
L 73.125 7.2 
" style="fill:none;stroke:#000000;stroke-linecap:square;stroke-linejoin:miter;stroke-width:0.8;"/>
   </g>
   <g id="patch_54">
    <path d="M 407.925 224.64 
L 407.925 7.2 
" style="fill:none;stroke:#000000;stroke-linecap:square;stroke-linejoin:miter;stroke-width:0.8;"/>
   </g>
   <g id="patch_55">
    <path d="M 73.125 224.64 
L 407.925 224.64 
" style="fill:none;stroke:#000000;stroke-linecap:square;stroke-linejoin:miter;stroke-width:0.8;"/>
   </g>
   <g id="patch_56">
    <path d="M 73.125 7.2 
L 407.925 7.2 
" style="fill:none;stroke:#000000;stroke-linecap:square;stroke-linejoin:miter;stroke-width:0.8;"/>
   </g>
  </g>
 </g>
 <defs>
  <clipPath id="pdf676fc93a">
   <rect height="217.44" width="334.8" x="73.125" y="7.2"/>
  </clipPath>
 </defs>
</svg>
