<?xml version="1.0" encoding="utf-8" standalone="no"?>
<!DOCTYPE svg PUBLIC "-//W3C//DTD SVG 1.1//EN"
  "http://www.w3.org/Graphics/SVG/1.1/DTD/svg11.dtd">
<!-- Created with matplotlib (https://matplotlib.org/) -->
<svg height="261.799375pt" version="1.1" viewBox="0 0 389.327555 261.799375" width="389.327555pt" xmlns="http://www.w3.org/2000/svg" xmlns:xlink="http://www.w3.org/1999/xlink">
 <metadata>
  <rdf:RDF xmlns:cc="http://creativecommons.org/ns#" xmlns:dc="http://purl.org/dc/elements/1.1/" xmlns:rdf="http://www.w3.org/1999/02/22-rdf-syntax-ns#">
   <cc:Work>
    <dc:type rdf:resource="http://purl.org/dc/dcmitype/StillImage"/>
    <dc:date>2020-11-12T23:34:06.072796</dc:date>
    <dc:format>image/svg+xml</dc:format>
    <dc:creator>
     <cc:Agent>
      <dc:title>Matplotlib v3.3.2, https://matplotlib.org/</dc:title>
     </cc:Agent>
    </dc:creator>
   </cc:Work>
  </rdf:RDF>
 </metadata>
 <defs>
  <style type="text/css">*{stroke-linecap:butt;stroke-linejoin:round;}</style>
 </defs>
 <g id="figure_1">
  <g id="patch_1">
   <path d="M 0 261.799375 
L 389.327555 261.799375 
L 389.327555 0 
L 0 0 
z
" style="fill:none;"/>
  </g>
  <g id="axes_1">
   <g id="patch_2">
    <path d="M 42.828125 224.64 
L 377.628125 224.64 
L 377.628125 7.2 
L 42.828125 7.2 
z
" style="fill:#ffffff;"/>
   </g>
   <g id="matplotlib.axis_1">
    <g id="xtick_1">
     <g id="line2d_1">
      <defs>
       <path d="M 0 0 
L 0 3.5 
" id="m9cd7319d41" style="stroke:#000000;stroke-width:0.8;"/>
      </defs>
      <g>
       <use style="stroke:#000000;stroke-width:0.8;" x="67.215308" xlink:href="#m9cd7319d41" y="224.64"/>
      </g>
     </g>
     <g id="text_1">
      <!-- 5000 -->
      <g transform="translate(55.096558 239.160313)scale(0.1 -0.1)">
       <defs>
        <path d="M 11.5 -3.203125 
Q 10.09375 -2.703125 10.09375 -1.40625 
L 10.09375 2.796875 
Q 10.09375 4.5 11.5 3.796875 
Q 15.09375 2.09375 18.546875 1.390625 
Q 22 0.703125 26.09375 0.703125 
Q 34.90625 0.703125 40.40625 5 
Q 46.40625 9.59375 46.40625 18.203125 
Q 46.40625 35.09375 27.09375 35.09375 
Q 23.296875 35.09375 20.25 34.6875 
Q 17.203125 34.296875 13.5 33.296875 
Q 12.40625 33 11.703125 33.546875 
Q 11 34.09375 11 35.203125 
L 11.59375 67.09375 
Q 11.59375 69.203125 11.9375 69.546875 
Q 12.296875 69.90625 14.40625 69.90625 
L 48.59375 69.90625 
Q 50 69.90625 50 68.5 
L 50 65.203125 
Q 50 63.796875 48.59375 63.796875 
L 18.40625 63.796875 
Q 18.296875 57.5 18.140625 51.5 
Q 18 45.5 17.90625 39.203125 
Q 22.796875 41.09375 29.796875 41.09375 
Q 40.296875 41.09375 46.796875 35.40625 
Q 53.296875 29.5 53.296875 19.59375 
Q 53.296875 7.5 45.796875 0.90625 
Q 38.59375 -5.40625 26.09375 -5.40625 
Q 21.59375 -5.40625 18.296875 -4.90625 
Q 15 -4.40625 11.5 -3.203125 
z
" id="NanumGothic-53"/>
        <path d="M 47.90625 32.703125 
Q 47.90625 64.09375 30.703125 64.09375 
Q 13.5 64.09375 13.5 32.703125 
Q 13.5 1.203125 30.703125 1.203125 
Q 47.90625 1.203125 47.90625 32.703125 
z
M 55.09375 32.703125 
Q 55.09375 -5.09375 30.703125 -5.09375 
Q 6.09375 -5.09375 6.09375 32.703125 
Q 6.09375 48.40625 10.90625 58.203125 
Q 17 70.5 30.703125 70.5 
Q 44.203125 70.5 50.40625 58.203125 
Q 52.703125 53.296875 53.890625 47 
Q 55.09375 40.703125 55.09375 32.703125 
z
" id="NanumGothic-48"/>
       </defs>
       <use xlink:href="#NanumGothic-53"/>
       <use x="60.599991" xlink:href="#NanumGothic-48"/>
       <use x="121.199982" xlink:href="#NanumGothic-48"/>
       <use x="181.799973" xlink:href="#NanumGothic-48"/>
      </g>
     </g>
    </g>
    <g id="xtick_2">
     <g id="line2d_2">
      <g>
       <use style="stroke:#000000;stroke-width:0.8;" x="104.685784" xlink:href="#m9cd7319d41" y="224.64"/>
      </g>
     </g>
     <g id="text_2">
      <!-- 10000 -->
      <g transform="translate(89.537346 239.160313)scale(0.1 -0.1)">
       <defs>
        <path d="M 36.90625 -3.296875 
Q 36.90625 -4.703125 35.5 -4.703125 
L 31.40625 -4.703125 
Q 30 -4.703125 30 -3.296875 
L 30 61.703125 
Q 26.90625 59.09375 24.203125 56.796875 
Q 21.5 54.5 18.5 51.90625 
Q 17.40625 51 16.5 52.09375 
L 14.5 54.5 
Q 14.203125 55 14.203125 55.546875 
Q 14.203125 56.09375 14.703125 56.5 
L 30.203125 69.5 
Q 30.59375 69.90625 31.40625 69.90625 
L 34.09375 69.90625 
Q 36.203125 69.90625 36.546875 69.546875 
Q 36.90625 69.203125 36.90625 67.09375 
z
" id="NanumGothic-49"/>
       </defs>
       <use xlink:href="#NanumGothic-49"/>
       <use x="60.599991" xlink:href="#NanumGothic-48"/>
       <use x="121.199982" xlink:href="#NanumGothic-48"/>
       <use x="181.799973" xlink:href="#NanumGothic-48"/>
       <use x="242.399963" xlink:href="#NanumGothic-48"/>
      </g>
     </g>
    </g>
    <g id="xtick_3">
     <g id="line2d_3">
      <g>
       <use style="stroke:#000000;stroke-width:0.8;" x="142.15626" xlink:href="#m9cd7319d41" y="224.64"/>
      </g>
     </g>
     <g id="text_3">
      <!-- 15000 -->
      <g transform="translate(127.007823 239.160313)scale(0.1 -0.1)">
       <use xlink:href="#NanumGothic-49"/>
       <use x="60.599991" xlink:href="#NanumGothic-53"/>
       <use x="121.199982" xlink:href="#NanumGothic-48"/>
       <use x="181.799973" xlink:href="#NanumGothic-48"/>
       <use x="242.399963" xlink:href="#NanumGothic-48"/>
      </g>
     </g>
    </g>
    <g id="xtick_4">
     <g id="line2d_4">
      <g>
       <use style="stroke:#000000;stroke-width:0.8;" x="179.626736" xlink:href="#m9cd7319d41" y="224.64"/>
      </g>
     </g>
     <g id="text_4">
      <!-- 20000 -->
      <g transform="translate(164.478299 239.160313)scale(0.1 -0.1)">
       <defs>
        <path d="M 9 -4.703125 
Q 7.90625 -4.703125 7.34375 -4.640625 
Q 6.796875 -4.59375 6.546875 -4.34375 
Q 6.296875 -4.09375 6.25 -3.546875 
Q 6.203125 -3 6.203125 -1.90625 
L 6.296875 0.296875 
Q 6.296875 1.59375 7.09375 2.40625 
L 23.59375 20.59375 
Q 42 40.5 42 50.796875 
Q 42 56.796875 38 60.796875 
Q 34.09375 64.703125 28.296875 64.703125 
Q 20.203125 64.703125 11.40625 60.203125 
Q 10 59.5 9.796875 60.796875 
L 9.203125 64.09375 
Q 8.90625 65.796875 10.203125 66.203125 
Q 15.296875 68.5 19.390625 69.59375 
Q 23.5 70.703125 27.796875 70.703125 
Q 37.40625 70.703125 43.09375 65.90625 
Q 49.5 60.703125 49.5 51.09375 
Q 49.5 47.40625 47.703125 43 
Q 45.90625 38.59375 42.703125 33.796875 
Q 40.703125 31 37.046875 26.5 
Q 33.40625 22 28.703125 16.90625 
Q 25.203125 13.09375 21.75 9.1875 
Q 18.296875 5.296875 14.796875 1.5 
L 49.796875 1.5 
Q 51.203125 1.5 51.203125 0.09375 
L 51.203125 -3.296875 
Q 51.203125 -4.703125 49.796875 -4.703125 
z
" id="NanumGothic-50"/>
       </defs>
       <use xlink:href="#NanumGothic-50"/>
       <use x="60.599991" xlink:href="#NanumGothic-48"/>
       <use x="121.199982" xlink:href="#NanumGothic-48"/>
       <use x="181.799973" xlink:href="#NanumGothic-48"/>
       <use x="242.399963" xlink:href="#NanumGothic-48"/>
      </g>
     </g>
    </g>
    <g id="xtick_5">
     <g id="line2d_5">
      <g>
       <use style="stroke:#000000;stroke-width:0.8;" x="217.097213" xlink:href="#m9cd7319d41" y="224.64"/>
      </g>
     </g>
     <g id="text_5">
      <!-- 25000 -->
      <g transform="translate(201.948775 239.160313)scale(0.1 -0.1)">
       <use xlink:href="#NanumGothic-50"/>
       <use x="60.599991" xlink:href="#NanumGothic-53"/>
       <use x="121.199982" xlink:href="#NanumGothic-48"/>
       <use x="181.799973" xlink:href="#NanumGothic-48"/>
       <use x="242.399963" xlink:href="#NanumGothic-48"/>
      </g>
     </g>
    </g>
    <g id="xtick_6">
     <g id="line2d_6">
      <g>
       <use style="stroke:#000000;stroke-width:0.8;" x="254.567689" xlink:href="#m9cd7319d41" y="224.64"/>
      </g>
     </g>
     <g id="text_6">
      <!-- 30000 -->
      <g transform="translate(239.419251 239.160313)scale(0.1 -0.1)">
       <defs>
        <path d="M 7.703125 -3 
Q 6.203125 -2.59375 6.40625 -0.703125 
L 6.796875 3.203125 
Q 7 4.40625 8.40625 3.796875 
Q 12.59375 2.09375 16.34375 1.390625 
Q 20.09375 0.703125 25.09375 0.59375 
Q 33 0.5 38.40625 4.59375 
Q 44.703125 8.796875 44.703125 16.90625 
Q 44.703125 31.09375 23.40625 31.09375 
L 18.203125 31.09375 
Q 16.90625 31.09375 16.90625 32.203125 
L 16.90625 35.90625 
Q 16.90625 37.203125 18.203125 37.203125 
L 18.703125 37.203125 
Q 29.40625 37.203125 35.40625 39.5 
Q 44.5 43 44.5 52.09375 
Q 44.5 55 42.953125 57.453125 
Q 41.40625 59.90625 38.796875 61.59375 
Q 36.40625 63 33.40625 63.796875 
Q 30.40625 64.59375 27.09375 64.59375 
Q 23.703125 64.59375 19.59375 63.6875 
Q 15.5 62.796875 11.703125 61.296875 
Q 10.40625 60.796875 10.203125 62.09375 
L 9.796875 65.796875 
Q 9.5 67.203125 11.09375 67.796875 
Q 15.59375 69.296875 19.5 70 
Q 23.40625 70.703125 27.796875 70.703125 
Q 37.90625 70.703125 44.296875 66.40625 
Q 51.59375 61.5 51.59375 52.09375 
Q 51.59375 45.40625 46.796875 40.5 
Q 42.796875 36.203125 36.40625 34.203125 
Q 39.59375 33.796875 42.34375 32.5 
Q 45.09375 31.203125 47.09375 28.90625 
Q 49.40625 26.40625 50.59375 23.25 
Q 51.796875 20.09375 51.796875 16.296875 
Q 51.796875 11.296875 49.75 7.25 
Q 47.703125 3.203125 43.90625 0.296875 
Q 40.203125 -2.40625 35.390625 -3.953125 
Q 30.59375 -5.5 24.703125 -5.40625 
Q 19.40625 -5.296875 15.546875 -4.796875 
Q 11.703125 -4.296875 7.703125 -3 
z
" id="NanumGothic-51"/>
       </defs>
       <use xlink:href="#NanumGothic-51"/>
       <use x="60.599991" xlink:href="#NanumGothic-48"/>
       <use x="121.199982" xlink:href="#NanumGothic-48"/>
       <use x="181.799973" xlink:href="#NanumGothic-48"/>
       <use x="242.399963" xlink:href="#NanumGothic-48"/>
      </g>
     </g>
    </g>
    <g id="xtick_7">
     <g id="line2d_7">
      <g>
       <use style="stroke:#000000;stroke-width:0.8;" x="292.038165" xlink:href="#m9cd7319d41" y="224.64"/>
      </g>
     </g>
     <g id="text_7">
      <!-- 35000 -->
      <g transform="translate(276.889728 239.160313)scale(0.1 -0.1)">
       <use xlink:href="#NanumGothic-51"/>
       <use x="60.599991" xlink:href="#NanumGothic-53"/>
       <use x="121.199982" xlink:href="#NanumGothic-48"/>
       <use x="181.799973" xlink:href="#NanumGothic-48"/>
       <use x="242.399963" xlink:href="#NanumGothic-48"/>
      </g>
     </g>
    </g>
    <g id="xtick_8">
     <g id="line2d_8">
      <g>
       <use style="stroke:#000000;stroke-width:0.8;" x="329.508642" xlink:href="#m9cd7319d41" y="224.64"/>
      </g>
     </g>
     <g id="text_8">
      <!-- 40000 -->
      <g transform="translate(314.360204 239.160313)scale(0.1 -0.1)">
       <defs>
        <path d="M 39.203125 19 
L 39.203125 63.59375 
Q 31.796875 52.40625 24.5 41.296875 
Q 17.203125 30.203125 9.703125 19 
z
M 46 -3.296875 
Q 46 -4.703125 44.59375 -4.703125 
L 40.59375 -4.703125 
Q 39.203125 -4.703125 39.203125 -3.296875 
L 39.203125 12.90625 
L 6.203125 12.90625 
Q 4.09375 12.90625 3.75 13.25 
Q 3.40625 13.59375 3.40625 15.703125 
L 3.40625 18.796875 
Q 3.40625 19.703125 3.5 20 
Q 3.59375 20.296875 4.09375 21.09375 
L 36 68.703125 
Q 36.59375 69.59375 36.84375 69.75 
Q 37.09375 69.90625 38.203125 69.90625 
L 43.203125 69.90625 
Q 45.296875 69.90625 45.640625 69.546875 
Q 46 69.203125 46 67.09375 
L 46 19 
L 55.90625 19 
Q 57.296875 19 57.296875 17.59375 
L 57.296875 14.296875 
Q 57.296875 12.90625 55.90625 12.90625 
L 46 12.90625 
z
" id="NanumGothic-52"/>
       </defs>
       <use xlink:href="#NanumGothic-52"/>
       <use x="60.599991" xlink:href="#NanumGothic-48"/>
       <use x="121.199982" xlink:href="#NanumGothic-48"/>
       <use x="181.799973" xlink:href="#NanumGothic-48"/>
       <use x="242.399963" xlink:href="#NanumGothic-48"/>
      </g>
     </g>
    </g>
    <g id="xtick_9">
     <g id="line2d_9">
      <g>
       <use style="stroke:#000000;stroke-width:0.8;" x="366.979118" xlink:href="#m9cd7319d41" y="224.64"/>
      </g>
     </g>
     <g id="text_9">
      <!-- 45000 -->
      <g transform="translate(351.83068 239.160313)scale(0.1 -0.1)">
       <use xlink:href="#NanumGothic-52"/>
       <use x="60.599991" xlink:href="#NanumGothic-53"/>
       <use x="121.199982" xlink:href="#NanumGothic-48"/>
       <use x="181.799973" xlink:href="#NanumGothic-48"/>
       <use x="242.399963" xlink:href="#NanumGothic-48"/>
      </g>
     </g>
    </g>
    <g id="text_10">
     <!-- 평당분양가격 -->
     <g transform="translate(182.028125 252.64)scale(0.1 -0.1)">
      <defs>
       <path d="M 81.296875 3.90625 
Q 81.296875 -0.40625 79 -3.796875 
Q 76.703125 -7.203125 72.75 -9.546875 
Q 68.796875 -11.90625 63.546875 -13.15625 
Q 58.296875 -14.40625 52.296875 -14.40625 
Q 45.796875 -14.40625 40.5 -13.15625 
Q 35.203125 -11.90625 31.390625 -9.546875 
Q 27.59375 -7.203125 25.5 -3.796875 
Q 23.40625 -0.40625 23.40625 3.90625 
Q 23.40625 8.09375 25.5 11.4375 
Q 27.59375 14.796875 31.390625 17.140625 
Q 35.203125 19.5 40.5 20.75 
Q 45.796875 22 52.296875 22 
Q 58.296875 22 63.546875 20.75 
Q 68.796875 19.5 72.75 17.203125 
Q 76.703125 14.90625 79 11.546875 
Q 81.296875 8.203125 81.296875 3.90625 
z
M 58.203125 69.203125 
Q 58.203125 67.90625 56.703125 67.90625 
L 48.40625 67.90625 
L 48.40625 36.203125 
Q 51.59375 36.40625 54.6875 36.75 
Q 57.796875 37.09375 60.703125 37.59375 
Q 61.59375 37.796875 61.890625 37.640625 
Q 62.203125 37.5 62.40625 36.796875 
L 63 33.5 
Q 63.09375 32.90625 62.890625 32.59375 
Q 62.703125 32.296875 61.703125 32.09375 
Q 56 31.09375 49 30.640625 
Q 42 30.203125 34.703125 29.796875 
Q 31.90625 29.59375 28.296875 29.546875 
Q 24.703125 29.5 20.890625 29.453125 
Q 17.09375 29.40625 13.390625 29.40625 
Q 9.703125 29.40625 6.796875 29.5 
Q 6.203125 29.5 5.75 29.890625 
Q 5.296875 30.296875 5.296875 30.796875 
L 5.296875 34 
Q 5.296875 34.59375 5.75 34.9375 
Q 6.203125 35.296875 6.796875 35.296875 
L 18.296875 35.296875 
L 18.296875 67.90625 
L 7.5 67.90625 
Q 7 67.90625 6.546875 68.296875 
Q 6.09375 68.703125 6.09375 69.296875 
L 6.09375 72.40625 
Q 6.09375 73 6.546875 73.390625 
Q 7 73.796875 7.5 73.796875 
L 56.703125 73.796875 
Q 58.203125 73.796875 58.203125 72.5 
L 58.203125 69.203125 
z
M 74.203125 3.59375 
Q 74.203125 6.59375 72.390625 8.890625 
Q 70.59375 11.203125 67.546875 12.75 
Q 64.5 14.296875 60.5 15.140625 
Q 56.5 16 52.203125 16 
Q 47.40625 16 43.40625 15.140625 
Q 39.40625 14.296875 36.546875 12.75 
Q 33.703125 11.203125 32.09375 8.890625 
Q 30.5 6.59375 30.5 3.59375 
Q 30.5 0.703125 32.09375 -1.546875 
Q 33.703125 -3.796875 36.546875 -5.296875 
Q 39.40625 -6.796875 43.40625 -7.59375 
Q 47.40625 -8.40625 52.203125 -8.40625 
Q 56.5 -8.40625 60.5 -7.59375 
Q 64.5 -6.796875 67.546875 -5.296875 
Q 70.59375 -3.796875 72.390625 -1.546875 
Q 74.203125 0.703125 74.203125 3.59375 
z
M 73.59375 64 
L 73.59375 76.796875 
Q 73.59375 78.203125 75 78.203125 
L 79.09375 78.203125 
Q 80.5 78.203125 80.5 76.796875 
L 80.5 24.296875 
Q 80.5 22.90625 79.09375 22.90625 
L 75 22.90625 
Q 73.59375 22.90625 73.59375 24.296875 
L 73.59375 42 
L 58.296875 42 
Q 57 42 57 43.203125 
L 57 46.703125 
Q 57 47.90625 58.296875 47.90625 
L 73.59375 47.90625 
L 73.59375 58.09375 
L 58.296875 58.09375 
Q 57 58.09375 57 59.296875 
L 57 62.796875 
Q 57 64 58.296875 64 
z
M 34.5 35.59375 
Q 36.296875 35.59375 38.09375 35.640625 
Q 39.90625 35.703125 41.59375 35.796875 
L 41.59375 67.90625 
L 25.09375 67.90625 
L 25.09375 35.40625 
Q 27.703125 35.5 30.09375 35.5 
Q 32.5 35.5 34.5 35.59375 
z
" id="NanumGothic-54217"/>
       <path d="M 78.203125 3.90625 
Q 78.203125 -0.40625 75.890625 -3.796875 
Q 73.59375 -7.203125 69.640625 -9.546875 
Q 65.703125 -11.90625 60.453125 -13.15625 
Q 55.203125 -14.40625 49.203125 -14.40625 
Q 42.703125 -14.40625 37.390625 -13.15625 
Q 32.09375 -11.90625 28.296875 -9.546875 
Q 24.5 -7.203125 22.390625 -3.796875 
Q 20.296875 -0.40625 20.296875 3.90625 
Q 20.296875 8.09375 22.390625 11.4375 
Q 24.5 14.796875 28.296875 17.140625 
Q 32.09375 19.5 37.390625 20.75 
Q 42.703125 22 49.203125 22 
Q 55.203125 22 60.453125 20.75 
Q 65.703125 19.5 69.640625 17.203125 
Q 73.59375 14.90625 75.890625 11.546875 
Q 78.203125 8.203125 78.203125 3.90625 
z
M 71.09375 3.59375 
Q 71.09375 6.59375 69.296875 8.890625 
Q 67.5 11.203125 64.453125 12.75 
Q 61.40625 14.296875 57.40625 15.140625 
Q 53.40625 16 49.09375 16 
Q 44.296875 16 40.296875 15.140625 
Q 36.296875 14.296875 33.4375 12.75 
Q 30.59375 11.203125 29 8.890625 
Q 27.40625 6.59375 27.40625 3.59375 
Q 27.40625 0.703125 29 -1.546875 
Q 30.59375 -3.796875 33.4375 -5.296875 
Q 36.296875 -6.796875 40.296875 -7.59375 
Q 44.296875 -8.40625 49.09375 -8.40625 
Q 53.40625 -8.40625 57.40625 -7.59375 
Q 61.40625 -6.796875 64.453125 -5.296875 
Q 67.5 -3.796875 69.296875 -1.546875 
Q 71.09375 0.703125 71.09375 3.59375 
z
M 63.59375 36.40625 
Q 63.90625 35.09375 62.40625 34.703125 
Q 59.09375 33.90625 53.640625 33.09375 
Q 48.203125 32.296875 42 31.6875 
Q 35.796875 31.09375 29.546875 30.75 
Q 23.296875 30.40625 18.40625 30.5 
Q 13.90625 30.59375 12.25 32.59375 
Q 10.59375 34.59375 10.59375 38.796875 
L 10.59375 66.90625 
Q 10.59375 71.09375 12.1875 72.5 
Q 13.796875 73.90625 18.203125 73.90625 
L 52.296875 73.90625 
Q 53.59375 73.90625 53.59375 72.703125 
L 53.59375 69.09375 
Q 53.59375 67.90625 52.296875 67.90625 
L 19.5 67.90625 
Q 18.09375 67.90625 17.796875 67.546875 
Q 17.5 67.203125 17.5 65.703125 
L 17.5 39.296875 
Q 17.5 37.796875 18 37.25 
Q 18.5 36.703125 19.90625 36.703125 
Q 25 36.703125 30.390625 36.953125 
Q 35.796875 37.203125 41.09375 37.703125 
Q 46.40625 38.203125 51.5 38.890625 
Q 56.59375 39.59375 61.09375 40.5 
Q 62.09375 40.703125 62.4375 40.390625 
Q 62.796875 40.09375 63 39.5 
z
M 77 24.296875 
Q 77 22.90625 75.59375 22.90625 
L 71.5 22.90625 
Q 70.09375 22.90625 70.09375 24.296875 
L 70.09375 76.796875 
Q 70.09375 78.203125 71.5 78.203125 
L 75.59375 78.203125 
Q 77 78.203125 77 76.796875 
L 77 53 
L 90.796875 53 
Q 91.40625 53 91.84375 52.640625 
Q 92.296875 52.296875 92.296875 51.703125 
L 92.296875 48.296875 
Q 92.296875 47.796875 91.84375 47.390625 
Q 91.40625 47 90.796875 47 
L 77 47 
L 77 24.296875 
z
" id="NanumGothic-45817"/>
       <path d="M 25 41.203125 
Q 22.59375 41.203125 21.140625 41.5 
Q 19.703125 41.796875 18.890625 42.640625 
Q 18.09375 43.5 17.796875 44.84375 
Q 17.5 46.203125 17.5 48.296875 
L 17.5 75.59375 
Q 17.5 76.09375 17.890625 76.4375 
Q 18.296875 76.796875 18.796875 76.796875 
L 23.09375 76.796875 
Q 23.59375 76.796875 23.9375 76.390625 
Q 24.296875 76 24.296875 75.59375 
L 24.296875 65.296875 
L 69.703125 65.296875 
L 69.703125 75.5 
Q 69.703125 76 70.046875 76.390625 
Q 70.40625 76.796875 70.90625 76.796875 
L 75.203125 76.796875 
Q 75.703125 76.796875 76.09375 76.4375 
Q 76.5 76.09375 76.5 75.59375 
L 76.5 47.59375 
Q 76.5 43.796875 74.890625 42.5 
Q 73.296875 41.203125 68.90625 41.203125 
z
M 45.5 4.09375 
Q 45 4.09375 44.59375 4.546875 
Q 44.203125 5 44.203125 5.59375 
L 44.203125 25.40625 
L 4.5 25.40625 
Q 3.90625 25.40625 3.453125 25.796875 
Q 3 26.203125 3 26.703125 
L 3 30.09375 
Q 3 30.703125 3.453125 31.046875 
Q 3.90625 31.40625 4.5 31.40625 
L 89.5 31.40625 
Q 90 31.40625 90.5 31.046875 
Q 91 30.703125 91 30.09375 
L 91 26.703125 
Q 91 26.203125 90.5 25.796875 
Q 90 25.40625 89.5 25.40625 
L 51.09375 25.40625 
L 51.09375 5.59375 
Q 51.09375 5 50.75 4.546875 
Q 50.40625 4.09375 49.796875 4.09375 
z
M 24.296875 59.40625 
L 24.296875 49.5 
Q 24.296875 48 24.796875 47.546875 
Q 25.296875 47.09375 26.703125 47.09375 
L 67.296875 47.09375 
Q 68.703125 47.09375 69.203125 47.546875 
Q 69.703125 48 69.703125 49.5 
L 69.703125 59.40625 
z
M 80.203125 -11 
Q 80.203125 -11.59375 79.703125 -11.890625 
Q 79.203125 -12.203125 78.703125 -12.203125 
L 23.59375 -12.203125 
Q 18.90625 -12.203125 17.453125 -10.25 
Q 16 -8.296875 16 -4.203125 
L 16 14.296875 
Q 16 15.703125 17.40625 15.703125 
L 21.5 15.703125 
Q 22.90625 15.703125 22.90625 14.296875 
L 22.90625 -4.09375 
Q 22.90625 -5.5 23.34375 -5.84375 
Q 23.796875 -6.203125 25.203125 -6.203125 
L 78.703125 -6.203125 
Q 79.203125 -6.203125 79.703125 -6.546875 
Q 80.203125 -6.90625 80.203125 -7.40625 
L 80.203125 -11 
z
" id="NanumGothic-48516"/>
       <path d="M 55.5 52 
Q 55.5 47 53.703125 42.84375 
Q 51.90625 38.703125 48.75 35.703125 
Q 45.59375 32.703125 41.25 31 
Q 36.90625 29.296875 31.703125 29.296875 
Q 26.703125 29.296875 22.390625 30.9375 
Q 18.09375 32.59375 14.9375 35.59375 
Q 11.796875 38.59375 10.046875 42.796875 
Q 8.296875 47 8.296875 52 
Q 8.296875 57.296875 10.046875 61.546875 
Q 11.796875 65.796875 14.9375 68.75 
Q 18.09375 71.703125 22.390625 73.25 
Q 26.703125 74.796875 31.703125 74.796875 
Q 36.5 74.796875 40.796875 73.25 
Q 45.09375 71.703125 48.34375 68.796875 
Q 51.59375 65.90625 53.546875 61.65625 
Q 55.5 57.40625 55.5 52 
z
M 78.203125 3.90625 
Q 78.203125 -0.40625 75.890625 -3.796875 
Q 73.59375 -7.203125 69.640625 -9.546875 
Q 65.703125 -11.90625 60.453125 -13.15625 
Q 55.203125 -14.40625 49.203125 -14.40625 
Q 42.703125 -14.40625 37.390625 -13.15625 
Q 32.09375 -11.90625 28.296875 -9.546875 
Q 24.5 -7.203125 22.390625 -3.796875 
Q 20.296875 -0.40625 20.296875 3.90625 
Q 20.296875 8.09375 22.390625 11.4375 
Q 24.5 14.796875 28.296875 17.140625 
Q 32.09375 19.5 37.390625 20.75 
Q 42.703125 22 49.203125 22 
Q 55.203125 22 60.453125 20.75 
Q 65.703125 19.5 69.640625 17.203125 
Q 73.59375 14.90625 75.890625 11.546875 
Q 78.203125 8.203125 78.203125 3.90625 
z
M 48.5 52.09375 
Q 48.5 56.09375 47.140625 59.140625 
Q 45.796875 62.203125 43.5 64.25 
Q 41.203125 66.296875 38.140625 67.34375 
Q 35.09375 68.40625 31.703125 68.40625 
Q 28.203125 68.40625 25.203125 67.34375 
Q 22.203125 66.296875 20 64.25 
Q 17.796875 62.203125 16.546875 59.140625 
Q 15.296875 56.09375 15.296875 52.09375 
Q 15.296875 48.296875 16.5 45.296875 
Q 17.703125 42.296875 19.84375 40.09375 
Q 22 37.90625 25 36.75 
Q 28 35.59375 31.703125 35.59375 
Q 35.09375 35.59375 38.140625 36.75 
Q 41.203125 37.90625 43.5 40.09375 
Q 45.796875 42.296875 47.140625 45.296875 
Q 48.5 48.296875 48.5 52.09375 
z
M 71.09375 3.59375 
Q 71.09375 6.59375 69.296875 8.890625 
Q 67.5 11.203125 64.453125 12.75 
Q 61.40625 14.296875 57.40625 15.140625 
Q 53.40625 16 49.09375 16 
Q 44.296875 16 40.296875 15.140625 
Q 36.296875 14.296875 33.4375 12.75 
Q 30.59375 11.203125 29 8.890625 
Q 27.40625 6.59375 27.40625 3.59375 
Q 27.40625 0.703125 29 -1.546875 
Q 30.59375 -3.796875 33.4375 -5.296875 
Q 36.296875 -6.796875 40.296875 -7.59375 
Q 44.296875 -8.40625 49.09375 -8.40625 
Q 53.40625 -8.40625 57.40625 -7.59375 
Q 61.40625 -6.796875 64.453125 -5.296875 
Q 67.5 -3.796875 69.296875 -1.546875 
Q 71.09375 0.703125 71.09375 3.59375 
z
M 77 24.59375 
Q 77 23.203125 75.59375 23.203125 
L 71.5 23.203125 
Q 70.09375 23.203125 70.09375 24.59375 
L 70.09375 76.796875 
Q 70.09375 78.203125 71.5 78.203125 
L 75.59375 78.203125 
Q 77 78.203125 77 76.796875 
L 77 60.59375 
L 90.796875 60.59375 
Q 91.40625 60.59375 91.84375 60.25 
Q 92.296875 59.90625 92.296875 59.296875 
L 92.296875 56 
Q 92.296875 55.5 91.84375 55.09375 
Q 91.40625 54.703125 90.796875 54.703125 
L 77 54.703125 
L 77 42.703125 
L 90.796875 42.703125 
Q 91.40625 42.703125 91.84375 42.34375 
Q 92.296875 42 92.296875 41.40625 
L 92.296875 38.09375 
Q 92.296875 37.59375 91.84375 37.1875 
Q 91.40625 36.796875 90.796875 36.796875 
L 77 36.796875 
L 77 24.59375 
z
" id="NanumGothic-50577"/>
       <path d="M 50.703125 63.5 
Q 50.203125 54.90625 47.296875 46.59375 
Q 44.40625 38.296875 39.25 30.75 
Q 34.09375 23.203125 26.84375 16.75 
Q 19.59375 10.296875 10.40625 5.40625 
Q 9.09375 4.703125 8.5 5.703125 
L 6.296875 9.203125 
Q 5.59375 10.40625 6.703125 10.90625 
Q 15.203125 15.296875 21.75 20.9375 
Q 28.296875 26.59375 32.9375 33.1875 
Q 37.59375 39.796875 40.296875 47.09375 
Q 43 54.40625 43.703125 62.09375 
Q 43.90625 63.59375 43.296875 64.140625 
Q 42.703125 64.703125 41.296875 64.703125 
L 10.296875 64.703125 
Q 9.09375 64.703125 9.09375 66 
L 9.09375 69.5 
Q 9.09375 70.703125 10.296875 70.703125 
L 43.203125 70.703125 
Q 47.90625 70.703125 49.40625 68.953125 
Q 50.90625 67.203125 50.703125 63.5 
z
M 77 -12.59375 
Q 77 -14 75.59375 -14 
L 71.5 -14 
Q 70.09375 -14 70.09375 -12.59375 
L 70.09375 76.796875 
Q 70.09375 78.203125 71.5 78.203125 
L 75.59375 78.203125 
Q 77 78.203125 77 76.796875 
L 77 41.40625 
L 90.796875 41.40625 
Q 91.40625 41.40625 91.84375 41.046875 
Q 92.296875 40.703125 92.296875 40.09375 
L 92.296875 36.703125 
Q 92.296875 36.203125 91.84375 35.796875 
Q 91.40625 35.40625 90.796875 35.40625 
L 77 35.40625 
L 77 -12.59375 
z
" id="NanumGothic-44032"/>
       <path d="M 53.5 65.796875 
Q 53 62.90625 52.296875 60.40625 
L 73.59375 60.40625 
L 73.59375 76.796875 
Q 73.59375 78.203125 75 78.203125 
L 79.09375 78.203125 
Q 80.5 78.203125 80.5 76.796875 
L 80.5 25.59375 
Q 80.5 24.203125 79.09375 24.203125 
L 75 24.203125 
Q 73.59375 24.203125 73.59375 25.59375 
L 73.59375 36.5 
L 48.203125 36.5 
Q 46.90625 36.5 46.90625 37.703125 
L 46.90625 41.203125 
Q 46.90625 42.40625 48.203125 42.40625 
L 73.59375 42.40625 
L 73.59375 54.5 
L 50.203125 54.5 
Q 46 44.703125 37.09375 36.84375 
Q 28.203125 29 13.59375 22.90625 
Q 12 22.203125 11.40625 23.5 
L 9.90625 26.796875 
Q 9.5 27.59375 9.84375 28.09375 
Q 10.203125 28.59375 10.703125 28.796875 
Q 26.59375 35.40625 35.34375 44.5 
Q 44.09375 53.59375 46 64.09375 
Q 46.59375 66.90625 43.59375 66.90625 
L 13.40625 66.90625 
Q 12.203125 66.90625 12.203125 68.203125 
L 12.203125 71.703125 
Q 12.203125 72.90625 13.40625 72.90625 
L 45.90625 72.90625 
Q 50.703125 72.90625 52.390625 71.203125 
Q 54.09375 69.5 53.5 65.796875 
z
M 22.203125 18.203125 
Q 22.203125 18.796875 22.703125 19.09375 
Q 23.203125 19.40625 23.703125 19.40625 
L 72.90625 19.40625 
Q 77.59375 19.40625 79.046875 17.65625 
Q 80.5 15.90625 80.5 11.796875 
L 80.5 -13 
Q 80.5 -14.40625 79.09375 -14.40625 
L 75 -14.40625 
Q 73.59375 -14.40625 73.59375 -13 
L 73.59375 11.296875 
Q 73.59375 12.703125 73.140625 13.046875 
Q 72.703125 13.40625 71.296875 13.40625 
L 23.703125 13.40625 
Q 23.203125 13.40625 22.703125 13.75 
Q 22.203125 14.09375 22.203125 14.59375 
L 22.203125 18.203125 
z
" id="NanumGothic-44201"/>
      </defs>
      <use xlink:href="#NanumGothic-54217"/>
      <use x="93.999985" xlink:href="#NanumGothic-45817"/>
      <use x="187.999969" xlink:href="#NanumGothic-48516"/>
      <use x="281.999954" xlink:href="#NanumGothic-50577"/>
      <use x="375.999939" xlink:href="#NanumGothic-44032"/>
      <use x="469.999924" xlink:href="#NanumGothic-44201"/>
     </g>
    </g>
   </g>
   <g id="matplotlib.axis_2">
    <g id="ytick_1">
     <g id="line2d_10">
      <defs>
       <path d="M 0 0 
L -3.5 0 
" id="m0ec5df678b" style="stroke:#000000;stroke-width:0.8;"/>
      </defs>
      <g>
       <use style="stroke:#000000;stroke-width:0.8;" x="42.828125" xlink:href="#m0ec5df678b" y="224.64"/>
      </g>
     </g>
     <g id="text_11">
      <!-- 0.0 -->
      <g transform="translate(20.679688 228.400156)scale(0.1 -0.1)">
       <defs>
        <path d="M 10.796875 -4 
Q 10.796875 -1.90625 12.25 -0.453125 
Q 13.703125 1 15.796875 1 
Q 17.90625 1 19.34375 -0.453125 
Q 20.796875 -1.90625 20.796875 -4 
Q 20.796875 -6.09375 19.34375 -7.546875 
Q 17.90625 -9 15.796875 -9 
Q 13.703125 -9 12.25 -7.546875 
Q 10.796875 -6.09375 10.796875 -4 
z
" id="NanumGothic-46"/>
       </defs>
       <use xlink:href="#NanumGothic-48"/>
       <use x="60.599991" xlink:href="#NanumGothic-46"/>
       <use x="90.899979" xlink:href="#NanumGothic-48"/>
      </g>
     </g>
    </g>
    <g id="ytick_2">
     <g id="line2d_11">
      <g>
       <use style="stroke:#000000;stroke-width:0.8;" x="42.828125" xlink:href="#m0ec5df678b" y="183.222179"/>
      </g>
     </g>
     <g id="text_12">
      <!-- 0.2 -->
      <g transform="translate(20.679688 186.982335)scale(0.1 -0.1)">
       <use xlink:href="#NanumGothic-48"/>
       <use x="60.599991" xlink:href="#NanumGothic-46"/>
       <use x="90.899979" xlink:href="#NanumGothic-50"/>
      </g>
     </g>
    </g>
    <g id="ytick_3">
     <g id="line2d_12">
      <g>
       <use style="stroke:#000000;stroke-width:0.8;" x="42.828125" xlink:href="#m0ec5df678b" y="141.804358"/>
      </g>
     </g>
     <g id="text_13">
      <!-- 0.4 -->
      <g transform="translate(20.679688 145.564515)scale(0.1 -0.1)">
       <use xlink:href="#NanumGothic-48"/>
       <use x="60.599991" xlink:href="#NanumGothic-46"/>
       <use x="90.899979" xlink:href="#NanumGothic-52"/>
      </g>
     </g>
    </g>
    <g id="ytick_4">
     <g id="line2d_13">
      <g>
       <use style="stroke:#000000;stroke-width:0.8;" x="42.828125" xlink:href="#m0ec5df678b" y="100.386538"/>
      </g>
     </g>
     <g id="text_14">
      <!-- 0.6 -->
      <g transform="translate(20.679688 104.146694)scale(0.1 -0.1)">
       <defs>
        <path d="M 48.09375 18.796875 
Q 48.09375 26.90625 43.90625 31.59375 
Q 39.703125 36.40625 31.90625 36.40625 
Q 27.90625 36.40625 24.703125 35.15625 
Q 21.5 33.90625 19.25 31.703125 
Q 17 29.5 15.75 26.390625 
Q 14.5 23.296875 14.5 19.59375 
Q 14.5 12 18.703125 6.796875 
Q 23.296875 0.703125 31 0.703125 
Q 38.90625 0.703125 43.703125 6 
Q 48.09375 11 48.09375 18.796875 
z
M 50.703125 62.703125 
Q 48.40625 63.5 45.453125 64 
Q 42.5 64.5 39.59375 64.5 
Q 26 64.5 19.5 54.703125 
Q 14 46.5 13.796875 32.203125 
Q 16 36.203125 20.203125 39 
Q 25.40625 42.703125 31.90625 42.703125 
Q 41 42.703125 47.203125 37.90625 
Q 55.09375 31.796875 55.09375 19.296875 
Q 55.09375 8.703125 48.59375 1.703125 
Q 42 -5.40625 30.796875 -5.40625 
Q 6.796875 -5.40625 6.796875 30 
Q 6.796875 48.5 14.203125 58.90625 
Q 22.90625 70.703125 40.40625 70.703125 
Q 43 70.703125 45.84375 70.296875 
Q 48.703125 69.90625 51.09375 69.203125 
Q 52.59375 68.90625 52.40625 67.40625 
L 52.203125 63.703125 
Q 52.203125 63 51.703125 62.75 
Q 51.203125 62.5 50.703125 62.703125 
z
" id="NanumGothic-54"/>
       </defs>
       <use xlink:href="#NanumGothic-48"/>
       <use x="60.599991" xlink:href="#NanumGothic-46"/>
       <use x="90.899979" xlink:href="#NanumGothic-54"/>
      </g>
     </g>
    </g>
    <g id="ytick_5">
     <g id="line2d_14">
      <g>
       <use style="stroke:#000000;stroke-width:0.8;" x="42.828125" xlink:href="#m0ec5df678b" y="58.968717"/>
      </g>
     </g>
     <g id="text_15">
      <!-- 0.8 -->
      <g transform="translate(20.679688 62.728873)scale(0.1 -0.1)">
       <defs>
        <path d="M 46 52.5 
Q 46 58.203125 41 61.5 
Q 36.59375 64.59375 30.703125 64.59375 
Q 24.296875 64.59375 19.90625 61.40625 
Q 15.09375 58.203125 15.09375 52.5 
Q 15.09375 47.296875 20.09375 43.09375 
Q 21.5 41.796875 23.84375 40.296875 
Q 26.203125 38.796875 29.40625 37.296875 
Q 30.203125 36.90625 30.703125 36.953125 
Q 31.203125 37 32.203125 37.5 
Q 38.59375 41 42.296875 44.84375 
Q 46 48.703125 46 52.5 
z
M 48.5 15 
Q 48.5 20.5 43.5 24.59375 
Q 41.90625 25.90625 39 27.5 
Q 36.09375 29.09375 31.90625 31 
Q 30.59375 31.703125 29 31 
Q 25.09375 29.5 22.09375 27.84375 
Q 19.09375 26.203125 17.296875 24.796875 
Q 15.296875 22.796875 14.046875 20.140625 
Q 12.796875 17.5 12.796875 14.5 
Q 12.796875 8.40625 18.5 4.5 
Q 23.703125 0.59375 30.703125 0.59375 
Q 37.90625 0.59375 42.796875 4 
Q 48.5 7.90625 48.5 15 
z
M 55.5 14.5 
Q 55.5 9.59375 53.453125 5.6875 
Q 51.40625 1.796875 47.59375 -0.796875 
Q 44.296875 -3 40 -4.203125 
Q 35.703125 -5.40625 30.703125 -5.40625 
Q 25.796875 -5.40625 21.546875 -4.09375 
Q 17.296875 -2.796875 13.796875 -0.5 
Q 10 2.203125 7.890625 6.046875 
Q 5.796875 9.90625 5.796875 14.5 
Q 5.796875 22.296875 11 27.203125 
Q 15 31 23.296875 34.09375 
Q 8.09375 41.59375 8.09375 53.296875 
Q 8.09375 57.5 10.1875 60.75 
Q 12.296875 64 16.09375 66.59375 
Q 19.296875 68.59375 22.9375 69.640625 
Q 26.59375 70.703125 30.703125 70.703125 
Q 35.5 70.703125 39.296875 69.640625 
Q 43.09375 68.59375 46.203125 66.5 
Q 53.09375 61.703125 53.09375 53.296875 
Q 53.09375 42.90625 37.5 34.09375 
Q 41.59375 32.59375 44.84375 30.796875 
Q 48.09375 29 50.09375 27.203125 
Q 55.5 22.40625 55.5 14.5 
z
" id="NanumGothic-56"/>
       </defs>
       <use xlink:href="#NanumGothic-48"/>
       <use x="60.599991" xlink:href="#NanumGothic-46"/>
       <use x="90.899979" xlink:href="#NanumGothic-56"/>
      </g>
     </g>
    </g>
    <g id="ytick_6">
     <g id="line2d_15">
      <g>
       <use style="stroke:#000000;stroke-width:0.8;" x="42.828125" xlink:href="#m0ec5df678b" y="17.550896"/>
      </g>
     </g>
     <g id="text_16">
      <!-- 1.0 -->
      <g transform="translate(20.679688 21.311052)scale(0.1 -0.1)">
       <use xlink:href="#NanumGothic-49"/>
       <use x="60.599991" xlink:href="#NanumGothic-46"/>
       <use x="90.899979" xlink:href="#NanumGothic-48"/>
      </g>
     </g>
    </g>
    <g id="text_17">
     <!-- Density -->
     <g transform="translate(14.709375 132.775469)rotate(-90)scale(0.1 -0.1)">
      <defs>
       <path d="M 57.90625 33.296875 
Q 57.90625 49.203125 49.09375 56.796875 
Q 41.296875 63.5 27.703125 63.5 
L 16.90625 63.5 
L 16.90625 2 
L 23 2 
Q 57.90625 2 57.90625 33.296875 
z
M 65.203125 32.90625 
Q 65.203125 23.59375 62 16.296875 
Q 58.796875 9 53.09375 4.203125 
Q 47.703125 0.09375 40 -2.09375 
Q 32.296875 -4.296875 22.59375 -4.296875 
L 12.296875 -4.296875 
Q 10.203125 -4.296875 9.84375 -3.9375 
Q 9.5 -3.59375 9.5 -1.5 
L 9.5 66.90625 
Q 9.5 69 9.84375 69.34375 
Q 10.203125 69.703125 12.296875 69.703125 
L 28 69.703125 
Q 47 69.703125 56.59375 59.40625 
Q 65.203125 49.90625 65.203125 32.90625 
z
" id="NanumGothic-68"/>
       <path d="M 42.703125 26.5 
Q 42.703125 30.59375 41.890625 33.796875 
Q 41.09375 37 39.40625 39.59375 
Q 35.703125 45.5 28.703125 45.5 
Q 21.5 45.5 17 39.5 
Q 15.203125 36.796875 14 33.296875 
Q 12.796875 29.796875 12.703125 26.5 
z
M 12.703125 20.796875 
Q 12.59375 15.796875 13.84375 11.9375 
Q 15.09375 8.09375 17.5 5.5 
Q 19.90625 2.90625 23.25 1.5 
Q 26.59375 0.09375 30.703125 0.09375 
Q 34.703125 0.09375 38.203125 0.84375 
Q 41.703125 1.59375 44.703125 3.296875 
Q 46 3.90625 46 2.59375 
L 46 -1.90625 
Q 46 -2.796875 44.90625 -3.296875 
Q 41.59375 -4.59375 38 -5.25 
Q 34.40625 -5.90625 30.203125 -5.90625 
Q 17.90625 -5.90625 11.59375 1.25 
Q 5.296875 8.40625 5.296875 22.796875 
Q 5.296875 35.5 11.59375 43.296875 
Q 18.203125 51.203125 28.296875 51.203125 
Q 33.90625 51.203125 38 49.203125 
Q 42.09375 47.203125 45 43.203125 
Q 50.09375 36.09375 50.09375 24.203125 
Q 50.09375 22.90625 50.046875 22.203125 
Q 50 21.5 49.703125 21.203125 
Q 49.40625 20.90625 48.65625 20.84375 
Q 47.90625 20.796875 46.5 20.796875 
z
" id="NanumGothic-101"/>
       <path d="M 52.09375 -2.90625 
Q 52.09375 -4.296875 50.703125 -4.296875 
L 46.703125 -4.296875 
Q 45.296875 -4.296875 45.296875 -2.90625 
L 45.296875 28.59375 
Q 45.296875 37.796875 42 41.640625 
Q 38.703125 45.5 32.703125 45.5 
Q 24.59375 45.5 20.34375 41 
Q 16.09375 36.5 16.09375 28.40625 
L 16.09375 -2.90625 
Q 16.09375 -4.296875 14.703125 -4.296875 
L 10.703125 -4.296875 
Q 9.296875 -4.296875 9.296875 -2.90625 
L 9.296875 37.09375 
Q 9.296875 41.40625 9.25 43.796875 
Q 9.203125 46.203125 9 48.40625 
Q 8.90625 49.09375 9.34375 49.4375 
Q 9.796875 49.796875 10.40625 49.796875 
L 14 49.796875 
Q 15.40625 49.796875 15.40625 48.40625 
L 15.40625 42.90625 
Q 18.203125 47.203125 22.140625 49.203125 
Q 26.09375 51.203125 33 51.203125 
Q 42.5 51.203125 47.296875 45.703125 
Q 52.09375 40.203125 52.09375 30.203125 
z
" id="NanumGothic-110"/>
       <path d="M 6.59375 2.296875 
Q 12.703125 -0.203125 19.203125 -0.203125 
Q 24.59375 -0.203125 28.09375 2.4375 
Q 31.59375 5.09375 31.59375 9.59375 
Q 31.59375 12.203125 29.640625 14.640625 
Q 27.703125 17.09375 24.90625 18.703125 
Q 21.796875 20.40625 18.546875 21.953125 
Q 15.296875 23.5 12.296875 25.203125 
Q 8.703125 27.203125 7 30.140625 
Q 5.296875 33.09375 5.296875 36.296875 
Q 5.296875 40 6.6875 42.796875 
Q 8.09375 45.59375 10.5 47.5 
Q 12.90625 49.40625 16.09375 50.296875 
Q 19.296875 51.203125 22.90625 51.203125 
Q 26.703125 51.203125 29.5 50.796875 
Q 32.296875 50.40625 35.09375 49.59375 
Q 35.703125 49.40625 36.140625 49 
Q 36.59375 48.59375 36.5 47.90625 
L 36.203125 44.90625 
Q 36.09375 44.09375 35.59375 43.890625 
Q 35.09375 43.703125 34.59375 43.90625 
Q 32.09375 44.796875 29.59375 45.140625 
Q 27.09375 45.5 23.59375 45.5 
Q 12 45.5 12 36.296875 
Q 12 34.296875 13.546875 32.5 
Q 15.09375 30.703125 18.796875 28.90625 
Q 22 27.296875 25.09375 25.84375 
Q 28.203125 24.40625 31.796875 22.40625 
Q 34.90625 20.703125 36.953125 17.203125 
Q 39 13.703125 39 9.59375 
Q 39 5.59375 37.390625 2.6875 
Q 35.796875 -0.203125 33.09375 -2.09375 
Q 30.40625 -4 26.90625 -4.953125 
Q 23.40625 -5.90625 19.703125 -5.90625 
Q 17.5 -5.90625 15.75 -5.796875 
Q 14 -5.703125 12.453125 -5.5 
Q 10.90625 -5.296875 9.296875 -5 
Q 7.703125 -4.703125 5.90625 -4.203125 
Q 4.5 -3.703125 4.59375 -2.40625 
L 5 1.296875 
Q 5.203125 2.90625 6.59375 2.296875 
z
" id="NanumGothic-115"/>
       <path d="M 16.40625 -2.90625 
Q 16.40625 -4.296875 15 -4.296875 
L 10.59375 -4.296875 
Q 9.203125 -4.296875 9.203125 -2.90625 
L 9.203125 48.40625 
Q 9.203125 49.796875 10.59375 49.796875 
L 15 49.796875 
Q 16.40625 49.796875 16.40625 48.40625 
L 16.40625 -2.90625 
z
M 7.90625 68.703125 
Q 7.90625 70.703125 9.296875 72.140625 
Q 10.703125 73.59375 12.703125 73.59375 
Q 14.703125 73.59375 16.140625 72.140625 
Q 17.59375 70.703125 17.59375 68.703125 
Q 17.59375 66.703125 16.140625 65.296875 
Q 14.703125 63.90625 12.703125 63.90625 
Q 10.703125 63.90625 9.296875 65.296875 
Q 7.90625 66.703125 7.90625 68.703125 
z
" id="NanumGothic-105"/>
       <path d="M 34.5 -4.40625 
Q 30.296875 -5.90625 26.203125 -5.90625 
Q 18.09375 -5.90625 15.5 -0.59375 
Q 13.796875 3 13.796875 12.09375 
L 13.796875 44 
L 4.40625 44 
Q 3 44 3 45.40625 
L 3 48.40625 
Q 3 49.796875 4.40625 49.796875 
L 13.796875 49.796875 
L 13.796875 63.296875 
Q 13.796875 64.796875 15.09375 64.796875 
L 19.296875 64.796875 
Q 20.59375 64.796875 20.59375 63.296875 
L 20.59375 49.796875 
L 31.703125 49.796875 
Q 33.09375 49.796875 33.09375 48.40625 
L 33.09375 45.40625 
Q 33.09375 44 31.703125 44 
L 20.59375 44 
L 20.59375 8.703125 
Q 20.59375 -0.203125 27.796875 -0.203125 
Q 30.59375 -0.203125 34.09375 1 
Q 34.59375 1.203125 35.046875 1 
Q 35.5 0.796875 35.5 0.203125 
L 35.703125 -2.40625 
Q 35.90625 -3.796875 34.5 -4.40625 
z
" id="NanumGothic-116"/>
       <path d="M 4.703125 -19.09375 
Q 3.5 -18.796875 3.703125 -17.59375 
L 4 -14.203125 
Q 4 -13 5.203125 -13.5 
Q 6.796875 -14.09375 8.90625 -14.09375 
Q 11 -14.09375 12.75 -13.4375 
Q 14.5 -12.796875 15.40625 -11.703125 
Q 16.5 -10.296875 17.84375 -7.09375 
Q 19.203125 -3.90625 20.5 0.203125 
Q 16 12.40625 11.59375 24.296875 
Q 7.203125 36.203125 2.703125 48.40625 
Q 2.5 48.90625 2.703125 49.34375 
Q 2.90625 49.796875 3.5 49.796875 
L 8.203125 49.796875 
Q 9.59375 49.796875 10.203125 48.40625 
L 23.703125 9.59375 
Q 27.40625 19.796875 30.75 29.046875 
Q 34.09375 38.296875 37.796875 48.40625 
Q 38.296875 49.796875 39.796875 49.796875 
L 44.09375 49.796875 
Q 44.703125 49.796875 44.890625 49.34375 
Q 45.09375 48.90625 44.90625 48.40625 
L 24.09375 -7.40625 
Q 23 -10.296875 21.640625 -12.59375 
Q 20.296875 -14.90625 18.90625 -16.296875 
Q 17.09375 -18 14.890625 -18.84375 
Q 12.703125 -19.703125 10.296875 -19.703125 
Q 8.796875 -19.703125 7.59375 -19.59375 
Q 6.40625 -19.5 4.703125 -19.09375 
z
" id="NanumGothic-121"/>
      </defs>
      <use xlink:href="#NanumGothic-68"/>
      <use x="72.699982" xlink:href="#NanumGothic-101"/>
      <use x="127.199966" xlink:href="#NanumGothic-110"/>
      <use x="187.799957" xlink:href="#NanumGothic-115"/>
      <use x="230.199951" xlink:href="#NanumGothic-105"/>
      <use x="254.399948" xlink:href="#NanumGothic-116"/>
      <use x="290.699936" xlink:href="#NanumGothic-121"/>
     </g>
    </g>
   </g>
   <g id="line2d_16">
    <path clip-path="url(#p306fe984bd)" d="M 58.046307 224.64 
L 64.164169 224.563656 
L 67.2231 224.340098 
L 68.752565 224.092456 
L 70.282031 223.687038 
L 71.811496 223.053824 
L 73.340962 222.108146 
L 74.870427 220.754637 
L 76.399893 218.894035 
L 77.929358 216.432476 
L 79.458824 213.292343 
L 80.988289 209.423156 
L 82.517755 204.810526 
L 84.04722 199.48114 
L 85.576686 193.502276 
L 88.635617 180.026635 
L 97.81241 136.633318 
L 100.871341 123.680843 
L 103.930272 111.883694 
L 106.989203 101.123762 
L 110.048134 91.326496 
L 113.107065 82.512799 
L 116.165996 74.691198 
L 119.224927 67.782311 
L 122.283858 61.664035 
L 125.342789 56.257059 
L 128.40172 51.546116 
L 131.460651 47.524098 
L 134.519582 44.139936 
L 137.578513 41.314649 
L 140.637444 38.983031 
L 143.696375 37.091497 
L 146.755306 35.572114 
L 149.814237 34.349303 
L 152.873168 33.366184 
L 155.932099 32.585228 
L 160.520496 31.713551 
L 165.108892 31.097988 
L 172.75622 30.378258 
L 178.874082 29.706937 
L 181.933013 29.199794 
L 184.991944 28.517324 
L 188.050875 27.650883 
L 200.286599 23.773604 
L 204.874996 22.758292 
L 210.992858 21.735864 
L 218.640185 20.702683 
L 232.405375 19.111792 
L 238.523237 18.577175 
L 244.641099 18.257453 
L 253.817892 18.006249 
L 266.053616 17.921657 
L 342.526892 17.784783 
L 356.292081 17.562645 
L 362.409943 17.554286 
L 362.409943 17.554286 
" style="fill:none;stroke:#1f77b4;stroke-linecap:square;stroke-width:1.5;"/>
   </g>
   <g id="patch_3">
    <path d="M 42.828125 224.64 
L 42.828125 7.2 
" style="fill:none;stroke:#000000;stroke-linecap:square;stroke-linejoin:miter;stroke-width:0.8;"/>
   </g>
   <g id="patch_4">
    <path d="M 377.628125 224.64 
L 377.628125 7.2 
" style="fill:none;stroke:#000000;stroke-linecap:square;stroke-linejoin:miter;stroke-width:0.8;"/>
   </g>
   <g id="patch_5">
    <path d="M 42.828125 224.64 
L 377.628125 224.64 
" style="fill:none;stroke:#000000;stroke-linecap:square;stroke-linejoin:miter;stroke-width:0.8;"/>
   </g>
   <g id="patch_6">
    <path d="M 42.828125 7.2 
L 377.628125 7.2 
" style="fill:none;stroke:#000000;stroke-linecap:square;stroke-linejoin:miter;stroke-width:0.8;"/>
   </g>
  </g>
 </g>
 <defs>
  <clipPath id="p306fe984bd">
   <rect height="217.44" width="334.8" x="42.828125" y="7.2"/>
  </clipPath>
 </defs>
</svg>
