<?xml version="1.0" encoding="utf-8" standalone="no"?>
<!DOCTYPE svg PUBLIC "-//W3C//DTD SVG 1.1//EN"
  "http://www.w3.org/Graphics/SVG/1.1/DTD/svg11.dtd">
<!-- Created with matplotlib (https://matplotlib.org/) -->
<svg height="239.362478pt" version="1.1" viewBox="0 0 898.688124 239.362478" width="898.688124pt" xmlns="http://www.w3.org/2000/svg" xmlns:xlink="http://www.w3.org/1999/xlink">
 <metadata>
  <rdf:RDF xmlns:cc="http://creativecommons.org/ns#" xmlns:dc="http://purl.org/dc/elements/1.1/" xmlns:rdf="http://www.w3.org/1999/02/22-rdf-syntax-ns#">
   <cc:Work>
    <dc:type rdf:resource="http://purl.org/dc/dcmitype/StillImage"/>
    <dc:date>2020-11-12T23:32:41.694579</dc:date>
    <dc:format>image/svg+xml</dc:format>
    <dc:creator>
     <cc:Agent>
      <dc:title>Matplotlib v3.3.2, https://matplotlib.org/</dc:title>
     </cc:Agent>
    </dc:creator>
   </cc:Work>
  </rdf:RDF>
 </metadata>
 <defs>
  <style type="text/css">*{stroke-linecap:butt;stroke-linejoin:round;}</style>
 </defs>
 <g id="figure_1">
  <g id="patch_1">
   <path d="M 0 239.362478 
L 898.688124 239.362478 
L 898.688124 -0 
L 0 -0 
z
" style="fill:none;"/>
  </g>
  <g id="axes_1">
   <g id="patch_2">
    <path d="M 44.496875 170.28 
L 881.496875 170.28 
L 881.496875 7.2 
L 44.496875 7.2 
z
" style="fill:#ffffff;"/>
   </g>
   <g id="matplotlib.axis_1">
    <g id="xtick_1">
     <g id="line2d_1">
      <defs>
       <path d="M 0 0 
L 0 3.5 
" id="m5edec356ef" style="stroke:#000000;stroke-width:0.8;"/>
      </defs>
      <g>
       <use style="stroke:#000000;stroke-width:0.8;" x="61.236875" xlink:href="#m5edec356ef" y="170.28"/>
      </g>
     </g>
     <g id="text_1">
      <!-- (2015, 102㎡~) -->
      <g transform="translate(31.74546 219.706234)rotate(-30)scale(0.1 -0.1)">
       <defs>
        <path d="M 31 -17.703125 
Q 30.296875 -17.703125 30.140625 -17.640625 
Q 30 -17.59375 29.59375 -17.09375 
Q 20.5 -5.703125 16.09375 6 
Q 11.703125 17.703125 11.703125 30.203125 
Q 11.703125 42.59375 16.09375 54.296875 
Q 20.5 66 29.59375 77.5 
Q 30 78 30.140625 78.046875 
Q 30.296875 78.09375 30.796875 78.09375 
L 33.59375 78.09375 
Q 34.203125 78.09375 34.203125 78 
Q 34.203125 77.90625 33.90625 77.40625 
Q 18.203125 52.796875 18.203125 30.203125 
Q 18.203125 18.703125 22.203125 7 
Q 26.203125 -4.703125 34 -17 
Q 34.5 -17.703125 33.5 -17.703125 
z
" id="NanumGothic-40"/>
        <path d="M 9 -4.703125 
Q 7.90625 -4.703125 7.34375 -4.640625 
Q 6.796875 -4.59375 6.546875 -4.34375 
Q 6.296875 -4.09375 6.25 -3.546875 
Q 6.203125 -3 6.203125 -1.90625 
L 6.296875 0.296875 
Q 6.296875 1.59375 7.09375 2.40625 
L 23.59375 20.59375 
Q 42 40.5 42 50.796875 
Q 42 56.796875 38 60.796875 
Q 34.09375 64.703125 28.296875 64.703125 
Q 20.203125 64.703125 11.40625 60.203125 
Q 10 59.5 9.796875 60.796875 
L 9.203125 64.09375 
Q 8.90625 65.796875 10.203125 66.203125 
Q 15.296875 68.5 19.390625 69.59375 
Q 23.5 70.703125 27.796875 70.703125 
Q 37.40625 70.703125 43.09375 65.90625 
Q 49.5 60.703125 49.5 51.09375 
Q 49.5 47.40625 47.703125 43 
Q 45.90625 38.59375 42.703125 33.796875 
Q 40.703125 31 37.046875 26.5 
Q 33.40625 22 28.703125 16.90625 
Q 25.203125 13.09375 21.75 9.1875 
Q 18.296875 5.296875 14.796875 1.5 
L 49.796875 1.5 
Q 51.203125 1.5 51.203125 0.09375 
L 51.203125 -3.296875 
Q 51.203125 -4.703125 49.796875 -4.703125 
z
" id="NanumGothic-50"/>
        <path d="M 47.90625 32.703125 
Q 47.90625 64.09375 30.703125 64.09375 
Q 13.5 64.09375 13.5 32.703125 
Q 13.5 1.203125 30.703125 1.203125 
Q 47.90625 1.203125 47.90625 32.703125 
z
M 55.09375 32.703125 
Q 55.09375 -5.09375 30.703125 -5.09375 
Q 6.09375 -5.09375 6.09375 32.703125 
Q 6.09375 48.40625 10.90625 58.203125 
Q 17 70.5 30.703125 70.5 
Q 44.203125 70.5 50.40625 58.203125 
Q 52.703125 53.296875 53.890625 47 
Q 55.09375 40.703125 55.09375 32.703125 
z
" id="NanumGothic-48"/>
        <path d="M 36.90625 -3.296875 
Q 36.90625 -4.703125 35.5 -4.703125 
L 31.40625 -4.703125 
Q 30 -4.703125 30 -3.296875 
L 30 61.703125 
Q 26.90625 59.09375 24.203125 56.796875 
Q 21.5 54.5 18.5 51.90625 
Q 17.40625 51 16.5 52.09375 
L 14.5 54.5 
Q 14.203125 55 14.203125 55.546875 
Q 14.203125 56.09375 14.703125 56.5 
L 30.203125 69.5 
Q 30.59375 69.90625 31.40625 69.90625 
L 34.09375 69.90625 
Q 36.203125 69.90625 36.546875 69.546875 
Q 36.90625 69.203125 36.90625 67.09375 
z
" id="NanumGothic-49"/>
        <path d="M 11.5 -3.203125 
Q 10.09375 -2.703125 10.09375 -1.40625 
L 10.09375 2.796875 
Q 10.09375 4.5 11.5 3.796875 
Q 15.09375 2.09375 18.546875 1.390625 
Q 22 0.703125 26.09375 0.703125 
Q 34.90625 0.703125 40.40625 5 
Q 46.40625 9.59375 46.40625 18.203125 
Q 46.40625 35.09375 27.09375 35.09375 
Q 23.296875 35.09375 20.25 34.6875 
Q 17.203125 34.296875 13.5 33.296875 
Q 12.40625 33 11.703125 33.546875 
Q 11 34.09375 11 35.203125 
L 11.59375 67.09375 
Q 11.59375 69.203125 11.9375 69.546875 
Q 12.296875 69.90625 14.40625 69.90625 
L 48.59375 69.90625 
Q 50 69.90625 50 68.5 
L 50 65.203125 
Q 50 63.796875 48.59375 63.796875 
L 18.40625 63.796875 
Q 18.296875 57.5 18.140625 51.5 
Q 18 45.5 17.90625 39.203125 
Q 22.796875 41.09375 29.796875 41.09375 
Q 40.296875 41.09375 46.796875 35.40625 
Q 53.296875 29.5 53.296875 19.59375 
Q 53.296875 7.5 45.796875 0.90625 
Q 38.59375 -5.40625 26.09375 -5.40625 
Q 21.59375 -5.40625 18.296875 -4.90625 
Q 15 -4.40625 11.5 -3.203125 
z
" id="NanumGothic-53"/>
        <path d="M 20.296875 1.796875 
Q 21.59375 1.796875 21.59375 1.34375 
Q 21.59375 0.90625 21.40625 0.296875 
L 14.796875 -17.59375 
Q 14.40625 -18.40625 14.046875 -18.65625 
Q 13.703125 -18.90625 13 -18.90625 
L 8.796875 -18.90625 
Q 7.5 -18.90625 7.796875 -17.5 
L 12.5 0.09375 
Q 12.703125 0.703125 13.09375 1.25 
Q 13.5 1.796875 14.59375 1.796875 
z
" id="NanumGothic-44"/>
        <path id="NanumGothic-32"/>
        <path d="M 74.203125 -4 
L 68.40625 -4 
L 68.40625 30.703125 
Q 68.40625 33.703125 68 36.140625 
Q 67.59375 38.59375 66.4375 40.296875 
Q 65.296875 42 63.390625 42.890625 
Q 61.5 43.796875 58.5 43.796875 
Q 55.5 43.796875 53.296875 42.34375 
Q 51.09375 40.90625 49.75 38.40625 
Q 48.40625 35.90625 47.75 32.5 
Q 47.09375 29.09375 47.09375 25.203125 
L 47.09375 -4 
L 41.203125 -4 
L 41.203125 30.5 
Q 41.203125 33.09375 40.84375 35.5 
Q 40.5 37.90625 39.546875 39.75 
Q 38.59375 41.59375 36.890625 42.6875 
Q 35.203125 43.796875 32.5 43.796875 
Q 29 43.796875 26.640625 42.390625 
Q 24.296875 41 22.796875 38.5 
Q 21.296875 36 20.640625 32.546875 
Q 20 29.09375 20 25.09375 
L 20 -4 
L 14.203125 -4 
L 14.203125 47.59375 
L 20 47.59375 
L 20 38.90625 
Q 21.09375 43.09375 24.59375 46.09375 
Q 28.09375 49.09375 33.59375 49.09375 
Q 38.90625 49.09375 42.203125 46.296875 
Q 45.5 43.5 46.203125 39 
Q 47.5 43.09375 50.84375 46.09375 
Q 54.203125 49.09375 59.796875 49.09375 
Q 67.203125 49.09375 70.703125 44.59375 
Q 74.203125 40.09375 74.203125 31 
z
M 79.796875 52.90625 
L 66.703125 52.90625 
Q 66.703125 54.703125 67.140625 56.046875 
Q 67.59375 57.40625 68.390625 58.5 
Q 69.203125 59.59375 70.34375 60.546875 
Q 71.5 61.5 72.90625 62.5 
Q 74.296875 63.5 75.390625 64.640625 
Q 76.5 65.796875 76.5 67.5 
Q 76.5 69 75.59375 69.75 
Q 74.703125 70.5 73.296875 70.5 
Q 70.09375 70.5 70.40625 65.203125 
L 67.09375 65.203125 
Q 66.796875 69.203125 68.5 71.453125 
Q 70.203125 73.703125 73.296875 73.703125 
Q 76 73.703125 77.890625 72.203125 
Q 79.796875 70.703125 79.796875 67.5 
Q 79.796875 64.40625 77.390625 62.203125 
Q 75 60 72 57.90625 
Q 71.5 57.59375 71.25 57.140625 
Q 71 56.703125 70.796875 56.203125 
L 79.796875 56.203125 
z
" id="NanumGothic-13217"/>
        <path d="M 56.796875 36.09375 
Q 57.59375 35 57.59375 34.640625 
Q 57.59375 34.296875 56.796875 33 
Q 52 25 44.40625 25 
Q 40.59375 25 32.09375 28.796875 
Q 23.703125 32.796875 21.5 32.796875 
Q 17.796875 32.796875 13.203125 26.703125 
Q 12.296875 25.40625 12 25.40625 
Q 11.703125 25.40625 10.796875 26.703125 
L 9.296875 28.796875 
Q 8.5 30 8.546875 30.546875 
Q 8.59375 31.09375 9.40625 32.5 
Q 14.203125 40 21.59375 40 
Q 25.796875 40 33.90625 36.203125 
Q 42 32.203125 44.5 32.203125 
Q 46.5 32.203125 48.640625 33.84375 
Q 50.796875 35.5 53 38.5 
Q 53.796875 39.59375 54 39.640625 
Q 54.203125 39.703125 55 38.59375 
z
" id="NanumGothic-126"/>
        <path d="M 4.703125 -17.703125 
Q 3.796875 -17.703125 4.296875 -17 
Q 12.09375 -4.703125 16.046875 7 
Q 20 18.703125 20 30.203125 
Q 20 41.59375 16.09375 53.34375 
Q 12.203125 65.09375 4.40625 77.40625 
Q 4.09375 77.90625 4.09375 78 
Q 4.09375 78.09375 4.59375 78.09375 
L 7.40625 78.09375 
Q 7.90625 78.09375 8.046875 78.046875 
Q 8.203125 78 8.703125 77.5 
Q 17.796875 66 22.140625 54.296875 
Q 26.5 42.59375 26.5 30.203125 
Q 26.5 17.703125 22.140625 6 
Q 17.796875 -5.703125 8.703125 -17.09375 
Q 8.203125 -17.59375 8.046875 -17.640625 
Q 7.90625 -17.703125 7.203125 -17.703125 
z
" id="NanumGothic-41"/>
       </defs>
       <use xlink:href="#NanumGothic-40"/>
       <use x="36.299988" xlink:href="#NanumGothic-50"/>
       <use x="96.899979" xlink:href="#NanumGothic-48"/>
       <use x="157.499969" xlink:href="#NanumGothic-49"/>
       <use x="218.09996" xlink:href="#NanumGothic-53"/>
       <use x="278.699951" xlink:href="#NanumGothic-44"/>
       <use x="308.999939" xlink:href="#NanumGothic-32"/>
       <use x="336.999924" xlink:href="#NanumGothic-49"/>
       <use x="397.599915" xlink:href="#NanumGothic-48"/>
       <use x="458.199905" xlink:href="#NanumGothic-50"/>
       <use x="518.799896" xlink:href="#NanumGothic-13217"/>
       <use x="612.799881" xlink:href="#NanumGothic-126"/>
       <use x="678.199875" xlink:href="#NanumGothic-41"/>
      </g>
     </g>
    </g>
    <g id="xtick_2">
     <g id="line2d_2">
      <g>
       <use style="stroke:#000000;stroke-width:0.8;" x="94.716875" xlink:href="#m5edec356ef" y="170.28"/>
      </g>
     </g>
     <g id="text_2">
      <!-- (2015, 60㎡) -->
      <g transform="translate(70.68142 213.406234)rotate(-30)scale(0.1 -0.1)">
       <defs>
        <path d="M 48.09375 18.796875 
Q 48.09375 26.90625 43.90625 31.59375 
Q 39.703125 36.40625 31.90625 36.40625 
Q 27.90625 36.40625 24.703125 35.15625 
Q 21.5 33.90625 19.25 31.703125 
Q 17 29.5 15.75 26.390625 
Q 14.5 23.296875 14.5 19.59375 
Q 14.5 12 18.703125 6.796875 
Q 23.296875 0.703125 31 0.703125 
Q 38.90625 0.703125 43.703125 6 
Q 48.09375 11 48.09375 18.796875 
z
M 50.703125 62.703125 
Q 48.40625 63.5 45.453125 64 
Q 42.5 64.5 39.59375 64.5 
Q 26 64.5 19.5 54.703125 
Q 14 46.5 13.796875 32.203125 
Q 16 36.203125 20.203125 39 
Q 25.40625 42.703125 31.90625 42.703125 
Q 41 42.703125 47.203125 37.90625 
Q 55.09375 31.796875 55.09375 19.296875 
Q 55.09375 8.703125 48.59375 1.703125 
Q 42 -5.40625 30.796875 -5.40625 
Q 6.796875 -5.40625 6.796875 30 
Q 6.796875 48.5 14.203125 58.90625 
Q 22.90625 70.703125 40.40625 70.703125 
Q 43 70.703125 45.84375 70.296875 
Q 48.703125 69.90625 51.09375 69.203125 
Q 52.59375 68.90625 52.40625 67.40625 
L 52.203125 63.703125 
Q 52.203125 63 51.703125 62.75 
Q 51.203125 62.5 50.703125 62.703125 
z
" id="NanumGothic-54"/>
       </defs>
       <use xlink:href="#NanumGothic-40"/>
       <use x="36.299988" xlink:href="#NanumGothic-50"/>
       <use x="96.899979" xlink:href="#NanumGothic-48"/>
       <use x="157.499969" xlink:href="#NanumGothic-49"/>
       <use x="218.09996" xlink:href="#NanumGothic-53"/>
       <use x="278.699951" xlink:href="#NanumGothic-44"/>
       <use x="308.999939" xlink:href="#NanumGothic-32"/>
       <use x="336.999924" xlink:href="#NanumGothic-54"/>
       <use x="397.599915" xlink:href="#NanumGothic-48"/>
       <use x="458.199905" xlink:href="#NanumGothic-13217"/>
       <use x="552.19989" xlink:href="#NanumGothic-41"/>
      </g>
     </g>
    </g>
    <g id="xtick_3">
     <g id="line2d_3">
      <g>
       <use style="stroke:#000000;stroke-width:0.8;" x="128.196875" xlink:href="#m5edec356ef" y="170.28"/>
      </g>
     </g>
     <g id="text_3">
      <!-- (2015, 60㎡~85㎡) -->
      <g transform="translate(92.011354 227.435922)rotate(-30)scale(0.1 -0.1)">
       <defs>
        <path d="M 46 52.5 
Q 46 58.203125 41 61.5 
Q 36.59375 64.59375 30.703125 64.59375 
Q 24.296875 64.59375 19.90625 61.40625 
Q 15.09375 58.203125 15.09375 52.5 
Q 15.09375 47.296875 20.09375 43.09375 
Q 21.5 41.796875 23.84375 40.296875 
Q 26.203125 38.796875 29.40625 37.296875 
Q 30.203125 36.90625 30.703125 36.953125 
Q 31.203125 37 32.203125 37.5 
Q 38.59375 41 42.296875 44.84375 
Q 46 48.703125 46 52.5 
z
M 48.5 15 
Q 48.5 20.5 43.5 24.59375 
Q 41.90625 25.90625 39 27.5 
Q 36.09375 29.09375 31.90625 31 
Q 30.59375 31.703125 29 31 
Q 25.09375 29.5 22.09375 27.84375 
Q 19.09375 26.203125 17.296875 24.796875 
Q 15.296875 22.796875 14.046875 20.140625 
Q 12.796875 17.5 12.796875 14.5 
Q 12.796875 8.40625 18.5 4.5 
Q 23.703125 0.59375 30.703125 0.59375 
Q 37.90625 0.59375 42.796875 4 
Q 48.5 7.90625 48.5 15 
z
M 55.5 14.5 
Q 55.5 9.59375 53.453125 5.6875 
Q 51.40625 1.796875 47.59375 -0.796875 
Q 44.296875 -3 40 -4.203125 
Q 35.703125 -5.40625 30.703125 -5.40625 
Q 25.796875 -5.40625 21.546875 -4.09375 
Q 17.296875 -2.796875 13.796875 -0.5 
Q 10 2.203125 7.890625 6.046875 
Q 5.796875 9.90625 5.796875 14.5 
Q 5.796875 22.296875 11 27.203125 
Q 15 31 23.296875 34.09375 
Q 8.09375 41.59375 8.09375 53.296875 
Q 8.09375 57.5 10.1875 60.75 
Q 12.296875 64 16.09375 66.59375 
Q 19.296875 68.59375 22.9375 69.640625 
Q 26.59375 70.703125 30.703125 70.703125 
Q 35.5 70.703125 39.296875 69.640625 
Q 43.09375 68.59375 46.203125 66.5 
Q 53.09375 61.703125 53.09375 53.296875 
Q 53.09375 42.90625 37.5 34.09375 
Q 41.59375 32.59375 44.84375 30.796875 
Q 48.09375 29 50.09375 27.203125 
Q 55.5 22.40625 55.5 14.5 
z
" id="NanumGothic-56"/>
       </defs>
       <use xlink:href="#NanumGothic-40"/>
       <use x="36.299988" xlink:href="#NanumGothic-50"/>
       <use x="96.899979" xlink:href="#NanumGothic-48"/>
       <use x="157.499969" xlink:href="#NanumGothic-49"/>
       <use x="218.09996" xlink:href="#NanumGothic-53"/>
       <use x="278.699951" xlink:href="#NanumGothic-44"/>
       <use x="308.999939" xlink:href="#NanumGothic-32"/>
       <use x="336.999924" xlink:href="#NanumGothic-54"/>
       <use x="397.599915" xlink:href="#NanumGothic-48"/>
       <use x="458.199905" xlink:href="#NanumGothic-13217"/>
       <use x="552.19989" xlink:href="#NanumGothic-126"/>
       <use x="617.599884" xlink:href="#NanumGothic-56"/>
       <use x="678.199875" xlink:href="#NanumGothic-53"/>
       <use x="738.799866" xlink:href="#NanumGothic-13217"/>
       <use x="832.79985" xlink:href="#NanumGothic-41"/>
      </g>
     </g>
    </g>
    <g id="xtick_4">
     <g id="line2d_4">
      <g>
       <use style="stroke:#000000;stroke-width:0.8;" x="161.676875" xlink:href="#m5edec356ef" y="170.28"/>
      </g>
     </g>
     <g id="text_4">
      <!-- (2015, 85㎡~102㎡) -->
      <g transform="translate(122.867568 230.465609)rotate(-30)scale(0.1 -0.1)">
       <use xlink:href="#NanumGothic-40"/>
       <use x="36.299988" xlink:href="#NanumGothic-50"/>
       <use x="96.899979" xlink:href="#NanumGothic-48"/>
       <use x="157.499969" xlink:href="#NanumGothic-49"/>
       <use x="218.09996" xlink:href="#NanumGothic-53"/>
       <use x="278.699951" xlink:href="#NanumGothic-44"/>
       <use x="308.999939" xlink:href="#NanumGothic-32"/>
       <use x="336.999924" xlink:href="#NanumGothic-56"/>
       <use x="397.599915" xlink:href="#NanumGothic-53"/>
       <use x="458.199905" xlink:href="#NanumGothic-13217"/>
       <use x="552.19989" xlink:href="#NanumGothic-126"/>
       <use x="617.599884" xlink:href="#NanumGothic-49"/>
       <use x="678.199875" xlink:href="#NanumGothic-48"/>
       <use x="738.799866" xlink:href="#NanumGothic-50"/>
       <use x="799.399857" xlink:href="#NanumGothic-13217"/>
       <use x="893.399841" xlink:href="#NanumGothic-41"/>
      </g>
     </g>
    </g>
    <g id="xtick_5">
     <g id="line2d_5">
      <g>
       <use style="stroke:#000000;stroke-width:0.8;" x="195.156875" xlink:href="#m5edec356ef" y="170.28"/>
      </g>
     </g>
     <g id="text_5">
      <!-- (2015, 전체) -->
      <g transform="translate(172.301407 212.056331)rotate(-30)scale(0.1 -0.1)">
       <defs>
        <path d="M 51.703125 63.09375 
Q 50.296875 58.90625 47.6875 54.59375 
Q 45.09375 50.296875 41.59375 46.09375 
Q 45.59375 41.40625 50.84375 37.25 
Q 56.09375 33.09375 61.203125 30.40625 
Q 62.5 29.796875 61.796875 28.5 
L 59.5 25.09375 
Q 59.203125 24.59375 58.59375 24.546875 
Q 58 24.5 57.5 24.796875 
Q 52.40625 27.59375 47.15625 32 
Q 41.90625 36.40625 37.40625 41.296875 
Q 31.703125 35.296875 24.890625 30.296875 
Q 18.09375 25.296875 11.203125 22.09375 
Q 10.703125 21.90625 10.203125 21.75 
Q 9.703125 21.59375 9.40625 22.09375 
L 7.40625 25.59375 
Q 7.09375 26.09375 7.296875 26.640625 
Q 7.5 27.203125 8 27.40625 
Q 19.796875 33.40625 29.140625 42.296875 
Q 38.5 51.203125 44.09375 62.703125 
Q 44.796875 64.09375 44.296875 64.6875 
Q 43.796875 65.296875 42.40625 65.296875 
L 13.09375 65.296875 
Q 11.90625 65.296875 11.90625 66.59375 
L 11.90625 70.09375 
Q 11.90625 71.296875 13.09375 71.296875 
L 45.09375 71.296875 
Q 50.296875 71.296875 51.796875 69.4375 
Q 53.296875 67.59375 51.703125 63.09375 
z
M 73.59375 51.5 
L 73.59375 76.796875 
Q 73.59375 78.203125 75 78.203125 
L 79.09375 78.203125 
Q 80.5 78.203125 80.5 76.796875 
L 80.5 12.203125 
Q 80.5 10.796875 79.09375 10.796875 
L 75 10.796875 
Q 73.59375 10.796875 73.59375 12.203125 
L 73.59375 45.703125 
L 54.703125 45.703125 
Q 53.40625 45.703125 53.40625 46.90625 
L 53.40625 50.296875 
Q 53.40625 51.5 54.703125 51.5 
z
M 83.59375 -11 
Q 83.59375 -11.59375 83.09375 -11.890625 
Q 82.59375 -12.203125 82.09375 -12.203125 
L 31.5 -12.203125 
Q 26.796875 -12.203125 25.34375 -10.453125 
Q 23.90625 -8.703125 23.90625 -4.59375 
L 23.90625 14.40625 
Q 23.90625 15.796875 25.296875 15.796875 
L 29.40625 15.796875 
Q 30.796875 15.796875 30.796875 14.40625 
L 30.796875 -4.09375 
Q 30.796875 -5.5 31.25 -5.84375 
Q 31.703125 -6.203125 33.09375 -6.203125 
L 82.09375 -6.203125 
Q 82.59375 -6.203125 83.09375 -6.546875 
Q 83.59375 -6.90625 83.59375 -7.40625 
L 83.59375 -11 
z
" id="NanumGothic-51204"/>
        <path d="M 44.296875 50.203125 
Q 42.59375 45.703125 40.34375 41.453125 
Q 38.09375 37.203125 35.296875 33.203125 
Q 39.203125 28.09375 43.75 23.75 
Q 48.296875 19.40625 52.796875 16.5 
Q 53.90625 15.703125 52.90625 14.59375 
L 50.40625 11.40625 
Q 49.90625 10.796875 49.5 10.796875 
Q 49.09375 10.796875 48.296875 11.40625 
Q 46.296875 12.90625 44.09375 14.796875 
Q 41.90625 16.703125 39.703125 18.890625 
Q 37.5 21.09375 35.34375 23.4375 
Q 33.203125 25.796875 31.296875 28.09375 
Q 26.796875 22.703125 21.5 18.09375 
Q 16.203125 13.5 10.40625 9.90625 
Q 10 9.59375 9.453125 9.59375 
Q 8.90625 9.59375 8.703125 9.796875 
L 6.203125 13 
Q 5.90625 13.5 6.09375 14.046875 
Q 6.296875 14.59375 6.703125 14.90625 
Q 12.09375 18.296875 16.84375 22.546875 
Q 21.59375 26.796875 25.5 31.34375 
Q 29.40625 35.90625 32.25 40.59375 
Q 35.09375 45.296875 36.703125 49.796875 
Q 37.703125 52.40625 35 52.40625 
L 10.703125 52.40625 
Q 9.5 52.40625 9.5 53.703125 
L 9.5 57.203125 
Q 9.5 58.40625 10.90625 58.40625 
L 37.703125 58.40625 
Q 42.90625 58.40625 44.453125 56.546875 
Q 46 54.703125 44.296875 50.203125 
z
M 59.5 39.09375 
L 59.5 75.09375 
Q 59.5 76.5 60.90625 76.5 
L 64.703125 76.5 
Q 66.09375 76.5 66.09375 75.09375 
L 66.09375 -8.796875 
Q 66.09375 -10.203125 64.703125 -10.203125 
L 60.90625 -10.203125 
Q 59.5 -10.203125 59.5 -8.796875 
L 59.5 33.09375 
L 47.203125 33.09375 
Q 46.59375 33.09375 46.140625 33.5 
Q 45.703125 33.90625 45.703125 34.40625 
L 45.703125 37.796875 
Q 45.703125 38.40625 46.140625 38.75 
Q 46.59375 39.09375 47.203125 39.09375 
z
M 83.796875 -12.59375 
Q 83.796875 -14 82.40625 -14 
L 78.59375 -14 
Q 77.203125 -14 77.203125 -12.59375 
L 77.203125 76.796875 
Q 77.203125 78.203125 78.59375 78.203125 
L 82.40625 78.203125 
Q 83.796875 78.203125 83.796875 76.796875 
z
M 37.203125 72.796875 
Q 38.703125 72.796875 38.703125 71.40625 
L 38.703125 68.203125 
Q 38.703125 66.703125 37.203125 66.703125 
L 18.5 66.703125 
Q 17 66.703125 17 68.203125 
L 17 71.40625 
Q 17 72.796875 18.5 72.796875 
L 37.203125 72.796875 
z
" id="NanumGothic-52404"/>
       </defs>
       <use xlink:href="#NanumGothic-40"/>
       <use x="36.299988" xlink:href="#NanumGothic-50"/>
       <use x="96.899979" xlink:href="#NanumGothic-48"/>
       <use x="157.499969" xlink:href="#NanumGothic-49"/>
       <use x="218.09996" xlink:href="#NanumGothic-53"/>
       <use x="278.699951" xlink:href="#NanumGothic-44"/>
       <use x="308.999939" xlink:href="#NanumGothic-32"/>
       <use x="336.999924" xlink:href="#NanumGothic-51204"/>
       <use x="430.999908" xlink:href="#NanumGothic-52404"/>
       <use x="524.999893" xlink:href="#NanumGothic-41"/>
      </g>
     </g>
    </g>
    <g id="xtick_6">
     <g id="line2d_6">
      <g>
       <use style="stroke:#000000;stroke-width:0.8;" x="228.636875" xlink:href="#m5edec356ef" y="170.28"/>
      </g>
     </g>
     <g id="text_6">
      <!-- (2016, 102㎡~) -->
      <g transform="translate(199.14546 219.706234)rotate(-30)scale(0.1 -0.1)">
       <use xlink:href="#NanumGothic-40"/>
       <use x="36.299988" xlink:href="#NanumGothic-50"/>
       <use x="96.899979" xlink:href="#NanumGothic-48"/>
       <use x="157.499969" xlink:href="#NanumGothic-49"/>
       <use x="218.09996" xlink:href="#NanumGothic-54"/>
       <use x="278.699951" xlink:href="#NanumGothic-44"/>
       <use x="308.999939" xlink:href="#NanumGothic-32"/>
       <use x="336.999924" xlink:href="#NanumGothic-49"/>
       <use x="397.599915" xlink:href="#NanumGothic-48"/>
       <use x="458.199905" xlink:href="#NanumGothic-50"/>
       <use x="518.799896" xlink:href="#NanumGothic-13217"/>
       <use x="612.799881" xlink:href="#NanumGothic-126"/>
       <use x="678.199875" xlink:href="#NanumGothic-41"/>
      </g>
     </g>
    </g>
    <g id="xtick_7">
     <g id="line2d_7">
      <g>
       <use style="stroke:#000000;stroke-width:0.8;" x="262.116875" xlink:href="#m5edec356ef" y="170.28"/>
      </g>
     </g>
     <g id="text_7">
      <!-- (2016, 60㎡) -->
      <g transform="translate(238.08142 213.406234)rotate(-30)scale(0.1 -0.1)">
       <use xlink:href="#NanumGothic-40"/>
       <use x="36.299988" xlink:href="#NanumGothic-50"/>
       <use x="96.899979" xlink:href="#NanumGothic-48"/>
       <use x="157.499969" xlink:href="#NanumGothic-49"/>
       <use x="218.09996" xlink:href="#NanumGothic-54"/>
       <use x="278.699951" xlink:href="#NanumGothic-44"/>
       <use x="308.999939" xlink:href="#NanumGothic-32"/>
       <use x="336.999924" xlink:href="#NanumGothic-54"/>
       <use x="397.599915" xlink:href="#NanumGothic-48"/>
       <use x="458.199905" xlink:href="#NanumGothic-13217"/>
       <use x="552.19989" xlink:href="#NanumGothic-41"/>
      </g>
     </g>
    </g>
    <g id="xtick_8">
     <g id="line2d_8">
      <g>
       <use style="stroke:#000000;stroke-width:0.8;" x="295.596875" xlink:href="#m5edec356ef" y="170.28"/>
      </g>
     </g>
     <g id="text_8">
      <!-- (2016, 60㎡~85㎡) -->
      <g transform="translate(259.411354 227.435922)rotate(-30)scale(0.1 -0.1)">
       <use xlink:href="#NanumGothic-40"/>
       <use x="36.299988" xlink:href="#NanumGothic-50"/>
       <use x="96.899979" xlink:href="#NanumGothic-48"/>
       <use x="157.499969" xlink:href="#NanumGothic-49"/>
       <use x="218.09996" xlink:href="#NanumGothic-54"/>
       <use x="278.699951" xlink:href="#NanumGothic-44"/>
       <use x="308.999939" xlink:href="#NanumGothic-32"/>
       <use x="336.999924" xlink:href="#NanumGothic-54"/>
       <use x="397.599915" xlink:href="#NanumGothic-48"/>
       <use x="458.199905" xlink:href="#NanumGothic-13217"/>
       <use x="552.19989" xlink:href="#NanumGothic-126"/>
       <use x="617.599884" xlink:href="#NanumGothic-56"/>
       <use x="678.199875" xlink:href="#NanumGothic-53"/>
       <use x="738.799866" xlink:href="#NanumGothic-13217"/>
       <use x="832.79985" xlink:href="#NanumGothic-41"/>
      </g>
     </g>
    </g>
    <g id="xtick_9">
     <g id="line2d_9">
      <g>
       <use style="stroke:#000000;stroke-width:0.8;" x="329.076875" xlink:href="#m5edec356ef" y="170.28"/>
      </g>
     </g>
     <g id="text_9">
      <!-- (2016, 85㎡~102㎡) -->
      <g transform="translate(290.267568 230.465609)rotate(-30)scale(0.1 -0.1)">
       <use xlink:href="#NanumGothic-40"/>
       <use x="36.299988" xlink:href="#NanumGothic-50"/>
       <use x="96.899979" xlink:href="#NanumGothic-48"/>
       <use x="157.499969" xlink:href="#NanumGothic-49"/>
       <use x="218.09996" xlink:href="#NanumGothic-54"/>
       <use x="278.699951" xlink:href="#NanumGothic-44"/>
       <use x="308.999939" xlink:href="#NanumGothic-32"/>
       <use x="336.999924" xlink:href="#NanumGothic-56"/>
       <use x="397.599915" xlink:href="#NanumGothic-53"/>
       <use x="458.199905" xlink:href="#NanumGothic-13217"/>
       <use x="552.19989" xlink:href="#NanumGothic-126"/>
       <use x="617.599884" xlink:href="#NanumGothic-49"/>
       <use x="678.199875" xlink:href="#NanumGothic-48"/>
       <use x="738.799866" xlink:href="#NanumGothic-50"/>
       <use x="799.399857" xlink:href="#NanumGothic-13217"/>
       <use x="893.399841" xlink:href="#NanumGothic-41"/>
      </g>
     </g>
    </g>
    <g id="xtick_10">
     <g id="line2d_10">
      <g>
       <use style="stroke:#000000;stroke-width:0.8;" x="362.556875" xlink:href="#m5edec356ef" y="170.28"/>
      </g>
     </g>
     <g id="text_10">
      <!-- (2016, 전체) -->
      <g transform="translate(339.701407 212.056331)rotate(-30)scale(0.1 -0.1)">
       <use xlink:href="#NanumGothic-40"/>
       <use x="36.299988" xlink:href="#NanumGothic-50"/>
       <use x="96.899979" xlink:href="#NanumGothic-48"/>
       <use x="157.499969" xlink:href="#NanumGothic-49"/>
       <use x="218.09996" xlink:href="#NanumGothic-54"/>
       <use x="278.699951" xlink:href="#NanumGothic-44"/>
       <use x="308.999939" xlink:href="#NanumGothic-32"/>
       <use x="336.999924" xlink:href="#NanumGothic-51204"/>
       <use x="430.999908" xlink:href="#NanumGothic-52404"/>
       <use x="524.999893" xlink:href="#NanumGothic-41"/>
      </g>
     </g>
    </g>
    <g id="xtick_11">
     <g id="line2d_11">
      <g>
       <use style="stroke:#000000;stroke-width:0.8;" x="396.036875" xlink:href="#m5edec356ef" y="170.28"/>
      </g>
     </g>
     <g id="text_11">
      <!-- (2017, 102㎡~) -->
      <g transform="translate(366.54546 219.706234)rotate(-30)scale(0.1 -0.1)">
       <defs>
        <path d="M 24.203125 -3.296875 
Q 23.5 -4.703125 22.203125 -4.703125 
L 17.203125 -4.703125 
Q 16.59375 -4.703125 16.34375 -4.296875 
Q 16.09375 -3.90625 16.40625 -3.296875 
L 45.5 63.796875 
L 8.40625 63.796875 
Q 7 63.796875 7 65.203125 
L 7 68.5 
Q 7 69.90625 8.40625 69.90625 
L 49.90625 69.90625 
Q 52 69.90625 52.34375 69.546875 
Q 52.703125 69.203125 52.703125 67.09375 
L 52.703125 64.59375 
Q 52.703125 63.796875 52.40625 63.203125 
z
" id="NanumGothic-55"/>
       </defs>
       <use xlink:href="#NanumGothic-40"/>
       <use x="36.299988" xlink:href="#NanumGothic-50"/>
       <use x="96.899979" xlink:href="#NanumGothic-48"/>
       <use x="157.499969" xlink:href="#NanumGothic-49"/>
       <use x="218.09996" xlink:href="#NanumGothic-55"/>
       <use x="278.699951" xlink:href="#NanumGothic-44"/>
       <use x="308.999939" xlink:href="#NanumGothic-32"/>
       <use x="336.999924" xlink:href="#NanumGothic-49"/>
       <use x="397.599915" xlink:href="#NanumGothic-48"/>
       <use x="458.199905" xlink:href="#NanumGothic-50"/>
       <use x="518.799896" xlink:href="#NanumGothic-13217"/>
       <use x="612.799881" xlink:href="#NanumGothic-126"/>
       <use x="678.199875" xlink:href="#NanumGothic-41"/>
      </g>
     </g>
    </g>
    <g id="xtick_12">
     <g id="line2d_12">
      <g>
       <use style="stroke:#000000;stroke-width:0.8;" x="429.516875" xlink:href="#m5edec356ef" y="170.28"/>
      </g>
     </g>
     <g id="text_12">
      <!-- (2017, 60㎡) -->
      <g transform="translate(405.48142 213.406234)rotate(-30)scale(0.1 -0.1)">
       <use xlink:href="#NanumGothic-40"/>
       <use x="36.299988" xlink:href="#NanumGothic-50"/>
       <use x="96.899979" xlink:href="#NanumGothic-48"/>
       <use x="157.499969" xlink:href="#NanumGothic-49"/>
       <use x="218.09996" xlink:href="#NanumGothic-55"/>
       <use x="278.699951" xlink:href="#NanumGothic-44"/>
       <use x="308.999939" xlink:href="#NanumGothic-32"/>
       <use x="336.999924" xlink:href="#NanumGothic-54"/>
       <use x="397.599915" xlink:href="#NanumGothic-48"/>
       <use x="458.199905" xlink:href="#NanumGothic-13217"/>
       <use x="552.19989" xlink:href="#NanumGothic-41"/>
      </g>
     </g>
    </g>
    <g id="xtick_13">
     <g id="line2d_13">
      <g>
       <use style="stroke:#000000;stroke-width:0.8;" x="462.996875" xlink:href="#m5edec356ef" y="170.28"/>
      </g>
     </g>
     <g id="text_13">
      <!-- (2017, 60㎡~85㎡) -->
      <g transform="translate(426.811354 227.435922)rotate(-30)scale(0.1 -0.1)">
       <use xlink:href="#NanumGothic-40"/>
       <use x="36.299988" xlink:href="#NanumGothic-50"/>
       <use x="96.899979" xlink:href="#NanumGothic-48"/>
       <use x="157.499969" xlink:href="#NanumGothic-49"/>
       <use x="218.09996" xlink:href="#NanumGothic-55"/>
       <use x="278.699951" xlink:href="#NanumGothic-44"/>
       <use x="308.999939" xlink:href="#NanumGothic-32"/>
       <use x="336.999924" xlink:href="#NanumGothic-54"/>
       <use x="397.599915" xlink:href="#NanumGothic-48"/>
       <use x="458.199905" xlink:href="#NanumGothic-13217"/>
       <use x="552.19989" xlink:href="#NanumGothic-126"/>
       <use x="617.599884" xlink:href="#NanumGothic-56"/>
       <use x="678.199875" xlink:href="#NanumGothic-53"/>
       <use x="738.799866" xlink:href="#NanumGothic-13217"/>
       <use x="832.79985" xlink:href="#NanumGothic-41"/>
      </g>
     </g>
    </g>
    <g id="xtick_14">
     <g id="line2d_14">
      <g>
       <use style="stroke:#000000;stroke-width:0.8;" x="496.476875" xlink:href="#m5edec356ef" y="170.28"/>
      </g>
     </g>
     <g id="text_14">
      <!-- (2017, 85㎡~102㎡) -->
      <g transform="translate(457.667568 230.465609)rotate(-30)scale(0.1 -0.1)">
       <use xlink:href="#NanumGothic-40"/>
       <use x="36.299988" xlink:href="#NanumGothic-50"/>
       <use x="96.899979" xlink:href="#NanumGothic-48"/>
       <use x="157.499969" xlink:href="#NanumGothic-49"/>
       <use x="218.09996" xlink:href="#NanumGothic-55"/>
       <use x="278.699951" xlink:href="#NanumGothic-44"/>
       <use x="308.999939" xlink:href="#NanumGothic-32"/>
       <use x="336.999924" xlink:href="#NanumGothic-56"/>
       <use x="397.599915" xlink:href="#NanumGothic-53"/>
       <use x="458.199905" xlink:href="#NanumGothic-13217"/>
       <use x="552.19989" xlink:href="#NanumGothic-126"/>
       <use x="617.599884" xlink:href="#NanumGothic-49"/>
       <use x="678.199875" xlink:href="#NanumGothic-48"/>
       <use x="738.799866" xlink:href="#NanumGothic-50"/>
       <use x="799.399857" xlink:href="#NanumGothic-13217"/>
       <use x="893.399841" xlink:href="#NanumGothic-41"/>
      </g>
     </g>
    </g>
    <g id="xtick_15">
     <g id="line2d_15">
      <g>
       <use style="stroke:#000000;stroke-width:0.8;" x="529.956875" xlink:href="#m5edec356ef" y="170.28"/>
      </g>
     </g>
     <g id="text_15">
      <!-- (2017, 전체) -->
      <g transform="translate(507.101407 212.056331)rotate(-30)scale(0.1 -0.1)">
       <use xlink:href="#NanumGothic-40"/>
       <use x="36.299988" xlink:href="#NanumGothic-50"/>
       <use x="96.899979" xlink:href="#NanumGothic-48"/>
       <use x="157.499969" xlink:href="#NanumGothic-49"/>
       <use x="218.09996" xlink:href="#NanumGothic-55"/>
       <use x="278.699951" xlink:href="#NanumGothic-44"/>
       <use x="308.999939" xlink:href="#NanumGothic-32"/>
       <use x="336.999924" xlink:href="#NanumGothic-51204"/>
       <use x="430.999908" xlink:href="#NanumGothic-52404"/>
       <use x="524.999893" xlink:href="#NanumGothic-41"/>
      </g>
     </g>
    </g>
    <g id="xtick_16">
     <g id="line2d_16">
      <g>
       <use style="stroke:#000000;stroke-width:0.8;" x="563.436875" xlink:href="#m5edec356ef" y="170.28"/>
      </g>
     </g>
     <g id="text_16">
      <!-- (2018, 102㎡~) -->
      <g transform="translate(533.94546 219.706234)rotate(-30)scale(0.1 -0.1)">
       <use xlink:href="#NanumGothic-40"/>
       <use x="36.299988" xlink:href="#NanumGothic-50"/>
       <use x="96.899979" xlink:href="#NanumGothic-48"/>
       <use x="157.499969" xlink:href="#NanumGothic-49"/>
       <use x="218.09996" xlink:href="#NanumGothic-56"/>
       <use x="278.699951" xlink:href="#NanumGothic-44"/>
       <use x="308.999939" xlink:href="#NanumGothic-32"/>
       <use x="336.999924" xlink:href="#NanumGothic-49"/>
       <use x="397.599915" xlink:href="#NanumGothic-48"/>
       <use x="458.199905" xlink:href="#NanumGothic-50"/>
       <use x="518.799896" xlink:href="#NanumGothic-13217"/>
       <use x="612.799881" xlink:href="#NanumGothic-126"/>
       <use x="678.199875" xlink:href="#NanumGothic-41"/>
      </g>
     </g>
    </g>
    <g id="xtick_17">
     <g id="line2d_17">
      <g>
       <use style="stroke:#000000;stroke-width:0.8;" x="596.916875" xlink:href="#m5edec356ef" y="170.28"/>
      </g>
     </g>
     <g id="text_17">
      <!-- (2018, 60㎡) -->
      <g transform="translate(572.88142 213.406234)rotate(-30)scale(0.1 -0.1)">
       <use xlink:href="#NanumGothic-40"/>
       <use x="36.299988" xlink:href="#NanumGothic-50"/>
       <use x="96.899979" xlink:href="#NanumGothic-48"/>
       <use x="157.499969" xlink:href="#NanumGothic-49"/>
       <use x="218.09996" xlink:href="#NanumGothic-56"/>
       <use x="278.699951" xlink:href="#NanumGothic-44"/>
       <use x="308.999939" xlink:href="#NanumGothic-32"/>
       <use x="336.999924" xlink:href="#NanumGothic-54"/>
       <use x="397.599915" xlink:href="#NanumGothic-48"/>
       <use x="458.199905" xlink:href="#NanumGothic-13217"/>
       <use x="552.19989" xlink:href="#NanumGothic-41"/>
      </g>
     </g>
    </g>
    <g id="xtick_18">
     <g id="line2d_18">
      <g>
       <use style="stroke:#000000;stroke-width:0.8;" x="630.396875" xlink:href="#m5edec356ef" y="170.28"/>
      </g>
     </g>
     <g id="text_18">
      <!-- (2018, 60㎡~85㎡) -->
      <g transform="translate(594.211354 227.435922)rotate(-30)scale(0.1 -0.1)">
       <use xlink:href="#NanumGothic-40"/>
       <use x="36.299988" xlink:href="#NanumGothic-50"/>
       <use x="96.899979" xlink:href="#NanumGothic-48"/>
       <use x="157.499969" xlink:href="#NanumGothic-49"/>
       <use x="218.09996" xlink:href="#NanumGothic-56"/>
       <use x="278.699951" xlink:href="#NanumGothic-44"/>
       <use x="308.999939" xlink:href="#NanumGothic-32"/>
       <use x="336.999924" xlink:href="#NanumGothic-54"/>
       <use x="397.599915" xlink:href="#NanumGothic-48"/>
       <use x="458.199905" xlink:href="#NanumGothic-13217"/>
       <use x="552.19989" xlink:href="#NanumGothic-126"/>
       <use x="617.599884" xlink:href="#NanumGothic-56"/>
       <use x="678.199875" xlink:href="#NanumGothic-53"/>
       <use x="738.799866" xlink:href="#NanumGothic-13217"/>
       <use x="832.79985" xlink:href="#NanumGothic-41"/>
      </g>
     </g>
    </g>
    <g id="xtick_19">
     <g id="line2d_19">
      <g>
       <use style="stroke:#000000;stroke-width:0.8;" x="663.876875" xlink:href="#m5edec356ef" y="170.28"/>
      </g>
     </g>
     <g id="text_19">
      <!-- (2018, 85㎡~102㎡) -->
      <g transform="translate(625.067568 230.465609)rotate(-30)scale(0.1 -0.1)">
       <use xlink:href="#NanumGothic-40"/>
       <use x="36.299988" xlink:href="#NanumGothic-50"/>
       <use x="96.899979" xlink:href="#NanumGothic-48"/>
       <use x="157.499969" xlink:href="#NanumGothic-49"/>
       <use x="218.09996" xlink:href="#NanumGothic-56"/>
       <use x="278.699951" xlink:href="#NanumGothic-44"/>
       <use x="308.999939" xlink:href="#NanumGothic-32"/>
       <use x="336.999924" xlink:href="#NanumGothic-56"/>
       <use x="397.599915" xlink:href="#NanumGothic-53"/>
       <use x="458.199905" xlink:href="#NanumGothic-13217"/>
       <use x="552.19989" xlink:href="#NanumGothic-126"/>
       <use x="617.599884" xlink:href="#NanumGothic-49"/>
       <use x="678.199875" xlink:href="#NanumGothic-48"/>
       <use x="738.799866" xlink:href="#NanumGothic-50"/>
       <use x="799.399857" xlink:href="#NanumGothic-13217"/>
       <use x="893.399841" xlink:href="#NanumGothic-41"/>
      </g>
     </g>
    </g>
    <g id="xtick_20">
     <g id="line2d_20">
      <g>
       <use style="stroke:#000000;stroke-width:0.8;" x="697.356875" xlink:href="#m5edec356ef" y="170.28"/>
      </g>
     </g>
     <g id="text_20">
      <!-- (2018, 전체) -->
      <g transform="translate(674.501407 212.056331)rotate(-30)scale(0.1 -0.1)">
       <use xlink:href="#NanumGothic-40"/>
       <use x="36.299988" xlink:href="#NanumGothic-50"/>
       <use x="96.899979" xlink:href="#NanumGothic-48"/>
       <use x="157.499969" xlink:href="#NanumGothic-49"/>
       <use x="218.09996" xlink:href="#NanumGothic-56"/>
       <use x="278.699951" xlink:href="#NanumGothic-44"/>
       <use x="308.999939" xlink:href="#NanumGothic-32"/>
       <use x="336.999924" xlink:href="#NanumGothic-51204"/>
       <use x="430.999908" xlink:href="#NanumGothic-52404"/>
       <use x="524.999893" xlink:href="#NanumGothic-41"/>
      </g>
     </g>
    </g>
    <g id="xtick_21">
     <g id="line2d_21">
      <g>
       <use style="stroke:#000000;stroke-width:0.8;" x="730.836875" xlink:href="#m5edec356ef" y="170.28"/>
      </g>
     </g>
     <g id="text_21">
      <!-- (2019, 102㎡~) -->
      <g transform="translate(701.34546 219.706234)rotate(-30)scale(0.1 -0.1)">
       <defs>
        <path d="M 46.796875 45.703125 
Q 46.796875 53.5 42.59375 58.796875 
Q 38 64.5 30.40625 64.5 
Q 22.296875 64.5 17.703125 59.40625 
Q 13.203125 54.59375 13.203125 46.59375 
Q 13.203125 38.09375 17.296875 33.40625 
L 17.203125 33.40625 
Q 21.5 28.796875 29.40625 28.796875 
Q 37.59375 28.796875 42.203125 33.40625 
Q 46.796875 38.203125 46.796875 45.703125 
z
M 10.203125 -4 
Q 8.703125 -3.703125 8.90625 -1.703125 
L 9.203125 1.796875 
Q 9.40625 3 10.796875 2.40625 
Q 13.296875 1.40625 15.84375 1 
Q 18.40625 0.59375 21.59375 0.59375 
Q 28.59375 0.59375 33.796875 3.34375 
Q 39 6.09375 42.296875 11.203125 
Q 47.296875 19.59375 47.5 32.5 
Q 41.40625 22.703125 29.40625 22.703125 
Q 20.203125 22.703125 14 27.40625 
Q 6.09375 33.5 6.09375 46.09375 
Q 6.09375 57.203125 12.59375 63.796875 
Q 19.203125 70.703125 30.59375 70.703125 
Q 54.59375 70.703125 54.59375 35.296875 
Q 54.59375 -5.40625 20.90625 -5.40625 
Q 16.296875 -5.40625 10.203125 -4 
z
" id="NanumGothic-57"/>
       </defs>
       <use xlink:href="#NanumGothic-40"/>
       <use x="36.299988" xlink:href="#NanumGothic-50"/>
       <use x="96.899979" xlink:href="#NanumGothic-48"/>
       <use x="157.499969" xlink:href="#NanumGothic-49"/>
       <use x="218.09996" xlink:href="#NanumGothic-57"/>
       <use x="278.699951" xlink:href="#NanumGothic-44"/>
       <use x="308.999939" xlink:href="#NanumGothic-32"/>
       <use x="336.999924" xlink:href="#NanumGothic-49"/>
       <use x="397.599915" xlink:href="#NanumGothic-48"/>
       <use x="458.199905" xlink:href="#NanumGothic-50"/>
       <use x="518.799896" xlink:href="#NanumGothic-13217"/>
       <use x="612.799881" xlink:href="#NanumGothic-126"/>
       <use x="678.199875" xlink:href="#NanumGothic-41"/>
      </g>
     </g>
    </g>
    <g id="xtick_22">
     <g id="line2d_22">
      <g>
       <use style="stroke:#000000;stroke-width:0.8;" x="764.316875" xlink:href="#m5edec356ef" y="170.28"/>
      </g>
     </g>
     <g id="text_22">
      <!-- (2019, 60㎡) -->
      <g transform="translate(740.28142 213.406234)rotate(-30)scale(0.1 -0.1)">
       <use xlink:href="#NanumGothic-40"/>
       <use x="36.299988" xlink:href="#NanumGothic-50"/>
       <use x="96.899979" xlink:href="#NanumGothic-48"/>
       <use x="157.499969" xlink:href="#NanumGothic-49"/>
       <use x="218.09996" xlink:href="#NanumGothic-57"/>
       <use x="278.699951" xlink:href="#NanumGothic-44"/>
       <use x="308.999939" xlink:href="#NanumGothic-32"/>
       <use x="336.999924" xlink:href="#NanumGothic-54"/>
       <use x="397.599915" xlink:href="#NanumGothic-48"/>
       <use x="458.199905" xlink:href="#NanumGothic-13217"/>
       <use x="552.19989" xlink:href="#NanumGothic-41"/>
      </g>
     </g>
    </g>
    <g id="xtick_23">
     <g id="line2d_23">
      <g>
       <use style="stroke:#000000;stroke-width:0.8;" x="797.796875" xlink:href="#m5edec356ef" y="170.28"/>
      </g>
     </g>
     <g id="text_23">
      <!-- (2019, 60㎡~85㎡) -->
      <g transform="translate(761.611354 227.435922)rotate(-30)scale(0.1 -0.1)">
       <use xlink:href="#NanumGothic-40"/>
       <use x="36.299988" xlink:href="#NanumGothic-50"/>
       <use x="96.899979" xlink:href="#NanumGothic-48"/>
       <use x="157.499969" xlink:href="#NanumGothic-49"/>
       <use x="218.09996" xlink:href="#NanumGothic-57"/>
       <use x="278.699951" xlink:href="#NanumGothic-44"/>
       <use x="308.999939" xlink:href="#NanumGothic-32"/>
       <use x="336.999924" xlink:href="#NanumGothic-54"/>
       <use x="397.599915" xlink:href="#NanumGothic-48"/>
       <use x="458.199905" xlink:href="#NanumGothic-13217"/>
       <use x="552.19989" xlink:href="#NanumGothic-126"/>
       <use x="617.599884" xlink:href="#NanumGothic-56"/>
       <use x="678.199875" xlink:href="#NanumGothic-53"/>
       <use x="738.799866" xlink:href="#NanumGothic-13217"/>
       <use x="832.79985" xlink:href="#NanumGothic-41"/>
      </g>
     </g>
    </g>
    <g id="xtick_24">
     <g id="line2d_24">
      <g>
       <use style="stroke:#000000;stroke-width:0.8;" x="831.276875" xlink:href="#m5edec356ef" y="170.28"/>
      </g>
     </g>
     <g id="text_24">
      <!-- (2019, 85㎡~102㎡) -->
      <g transform="translate(792.467568 230.465609)rotate(-30)scale(0.1 -0.1)">
       <use xlink:href="#NanumGothic-40"/>
       <use x="36.299988" xlink:href="#NanumGothic-50"/>
       <use x="96.899979" xlink:href="#NanumGothic-48"/>
       <use x="157.499969" xlink:href="#NanumGothic-49"/>
       <use x="218.09996" xlink:href="#NanumGothic-57"/>
       <use x="278.699951" xlink:href="#NanumGothic-44"/>
       <use x="308.999939" xlink:href="#NanumGothic-32"/>
       <use x="336.999924" xlink:href="#NanumGothic-56"/>
       <use x="397.599915" xlink:href="#NanumGothic-53"/>
       <use x="458.199905" xlink:href="#NanumGothic-13217"/>
       <use x="552.19989" xlink:href="#NanumGothic-126"/>
       <use x="617.599884" xlink:href="#NanumGothic-49"/>
       <use x="678.199875" xlink:href="#NanumGothic-48"/>
       <use x="738.799866" xlink:href="#NanumGothic-50"/>
       <use x="799.399857" xlink:href="#NanumGothic-13217"/>
       <use x="893.399841" xlink:href="#NanumGothic-41"/>
      </g>
     </g>
    </g>
    <g id="xtick_25">
     <g id="line2d_25">
      <g>
       <use style="stroke:#000000;stroke-width:0.8;" x="864.756875" xlink:href="#m5edec356ef" y="170.28"/>
      </g>
     </g>
     <g id="text_25">
      <!-- (2019, 전체) -->
      <g transform="translate(841.901407 212.056331)rotate(-30)scale(0.1 -0.1)">
       <use xlink:href="#NanumGothic-40"/>
       <use x="36.299988" xlink:href="#NanumGothic-50"/>
       <use x="96.899979" xlink:href="#NanumGothic-48"/>
       <use x="157.499969" xlink:href="#NanumGothic-49"/>
       <use x="218.09996" xlink:href="#NanumGothic-57"/>
       <use x="278.699951" xlink:href="#NanumGothic-44"/>
       <use x="308.999939" xlink:href="#NanumGothic-32"/>
       <use x="336.999924" xlink:href="#NanumGothic-51204"/>
       <use x="430.999908" xlink:href="#NanumGothic-52404"/>
       <use x="524.999893" xlink:href="#NanumGothic-41"/>
      </g>
     </g>
    </g>
   </g>
   <g id="matplotlib.axis_2">
    <g id="ytick_1">
     <g id="line2d_26">
      <defs>
       <path d="M 0 0 
L -3.5 0 
" id="m7c475067a4" style="stroke:#000000;stroke-width:0.8;"/>
      </defs>
      <g>
       <use style="stroke:#000000;stroke-width:0.8;" x="44.496875" xlink:href="#m7c475067a4" y="157.412565"/>
      </g>
     </g>
     <g id="text_26">
      <!-- 9000 -->
      <g transform="translate(13.259375 161.172721)scale(0.1 -0.1)">
       <use xlink:href="#NanumGothic-57"/>
       <use x="60.599991" xlink:href="#NanumGothic-48"/>
       <use x="121.199982" xlink:href="#NanumGothic-48"/>
       <use x="181.799973" xlink:href="#NanumGothic-48"/>
      </g>
     </g>
    </g>
    <g id="ytick_2">
     <g id="line2d_27">
      <g>
       <use style="stroke:#000000;stroke-width:0.8;" x="44.496875" xlink:href="#m7c475067a4" y="130.815587"/>
      </g>
     </g>
     <g id="text_27">
      <!-- 10000 -->
      <g transform="translate(7.2 134.575744)scale(0.1 -0.1)">
       <use xlink:href="#NanumGothic-49"/>
       <use x="60.599991" xlink:href="#NanumGothic-48"/>
       <use x="121.199982" xlink:href="#NanumGothic-48"/>
       <use x="181.799973" xlink:href="#NanumGothic-48"/>
       <use x="242.399963" xlink:href="#NanumGothic-48"/>
      </g>
     </g>
    </g>
    <g id="ytick_3">
     <g id="line2d_28">
      <g>
       <use style="stroke:#000000;stroke-width:0.8;" x="44.496875" xlink:href="#m7c475067a4" y="104.21861"/>
      </g>
     </g>
     <g id="text_28">
      <!-- 11000 -->
      <g transform="translate(7.2 107.978766)scale(0.1 -0.1)">
       <use xlink:href="#NanumGothic-49"/>
       <use x="60.599991" xlink:href="#NanumGothic-49"/>
       <use x="121.199982" xlink:href="#NanumGothic-48"/>
       <use x="181.799973" xlink:href="#NanumGothic-48"/>
       <use x="242.399963" xlink:href="#NanumGothic-48"/>
      </g>
     </g>
    </g>
    <g id="ytick_4">
     <g id="line2d_29">
      <g>
       <use style="stroke:#000000;stroke-width:0.8;" x="44.496875" xlink:href="#m7c475067a4" y="77.621632"/>
      </g>
     </g>
     <g id="text_29">
      <!-- 12000 -->
      <g transform="translate(7.2 81.381788)scale(0.1 -0.1)">
       <use xlink:href="#NanumGothic-49"/>
       <use x="60.599991" xlink:href="#NanumGothic-50"/>
       <use x="121.199982" xlink:href="#NanumGothic-48"/>
       <use x="181.799973" xlink:href="#NanumGothic-48"/>
       <use x="242.399963" xlink:href="#NanumGothic-48"/>
      </g>
     </g>
    </g>
    <g id="ytick_5">
     <g id="line2d_30">
      <g>
       <use style="stroke:#000000;stroke-width:0.8;" x="44.496875" xlink:href="#m7c475067a4" y="51.024655"/>
      </g>
     </g>
     <g id="text_30">
      <!-- 13000 -->
      <g transform="translate(7.2 54.784811)scale(0.1 -0.1)">
       <defs>
        <path d="M 7.703125 -3 
Q 6.203125 -2.59375 6.40625 -0.703125 
L 6.796875 3.203125 
Q 7 4.40625 8.40625 3.796875 
Q 12.59375 2.09375 16.34375 1.390625 
Q 20.09375 0.703125 25.09375 0.59375 
Q 33 0.5 38.40625 4.59375 
Q 44.703125 8.796875 44.703125 16.90625 
Q 44.703125 31.09375 23.40625 31.09375 
L 18.203125 31.09375 
Q 16.90625 31.09375 16.90625 32.203125 
L 16.90625 35.90625 
Q 16.90625 37.203125 18.203125 37.203125 
L 18.703125 37.203125 
Q 29.40625 37.203125 35.40625 39.5 
Q 44.5 43 44.5 52.09375 
Q 44.5 55 42.953125 57.453125 
Q 41.40625 59.90625 38.796875 61.59375 
Q 36.40625 63 33.40625 63.796875 
Q 30.40625 64.59375 27.09375 64.59375 
Q 23.703125 64.59375 19.59375 63.6875 
Q 15.5 62.796875 11.703125 61.296875 
Q 10.40625 60.796875 10.203125 62.09375 
L 9.796875 65.796875 
Q 9.5 67.203125 11.09375 67.796875 
Q 15.59375 69.296875 19.5 70 
Q 23.40625 70.703125 27.796875 70.703125 
Q 37.90625 70.703125 44.296875 66.40625 
Q 51.59375 61.5 51.59375 52.09375 
Q 51.59375 45.40625 46.796875 40.5 
Q 42.796875 36.203125 36.40625 34.203125 
Q 39.59375 33.796875 42.34375 32.5 
Q 45.09375 31.203125 47.09375 28.90625 
Q 49.40625 26.40625 50.59375 23.25 
Q 51.796875 20.09375 51.796875 16.296875 
Q 51.796875 11.296875 49.75 7.25 
Q 47.703125 3.203125 43.90625 0.296875 
Q 40.203125 -2.40625 35.390625 -3.953125 
Q 30.59375 -5.5 24.703125 -5.40625 
Q 19.40625 -5.296875 15.546875 -4.796875 
Q 11.703125 -4.296875 7.703125 -3 
z
" id="NanumGothic-51"/>
       </defs>
       <use xlink:href="#NanumGothic-49"/>
       <use x="60.599991" xlink:href="#NanumGothic-51"/>
       <use x="121.199982" xlink:href="#NanumGothic-48"/>
       <use x="181.799973" xlink:href="#NanumGothic-48"/>
       <use x="242.399963" xlink:href="#NanumGothic-48"/>
      </g>
     </g>
    </g>
    <g id="ytick_6">
     <g id="line2d_31">
      <g>
       <use style="stroke:#000000;stroke-width:0.8;" x="44.496875" xlink:href="#m7c475067a4" y="24.427677"/>
      </g>
     </g>
     <g id="text_31">
      <!-- 14000 -->
      <g transform="translate(7.2 28.187833)scale(0.1 -0.1)">
       <defs>
        <path d="M 39.203125 19 
L 39.203125 63.59375 
Q 31.796875 52.40625 24.5 41.296875 
Q 17.203125 30.203125 9.703125 19 
z
M 46 -3.296875 
Q 46 -4.703125 44.59375 -4.703125 
L 40.59375 -4.703125 
Q 39.203125 -4.703125 39.203125 -3.296875 
L 39.203125 12.90625 
L 6.203125 12.90625 
Q 4.09375 12.90625 3.75 13.25 
Q 3.40625 13.59375 3.40625 15.703125 
L 3.40625 18.796875 
Q 3.40625 19.703125 3.5 20 
Q 3.59375 20.296875 4.09375 21.09375 
L 36 68.703125 
Q 36.59375 69.59375 36.84375 69.75 
Q 37.09375 69.90625 38.203125 69.90625 
L 43.203125 69.90625 
Q 45.296875 69.90625 45.640625 69.546875 
Q 46 69.203125 46 67.09375 
L 46 19 
L 55.90625 19 
Q 57.296875 19 57.296875 17.59375 
L 57.296875 14.296875 
Q 57.296875 12.90625 55.90625 12.90625 
L 46 12.90625 
z
" id="NanumGothic-52"/>
       </defs>
       <use xlink:href="#NanumGothic-49"/>
       <use x="60.599991" xlink:href="#NanumGothic-52"/>
       <use x="121.199982" xlink:href="#NanumGothic-48"/>
       <use x="181.799973" xlink:href="#NanumGothic-48"/>
       <use x="242.399963" xlink:href="#NanumGothic-48"/>
      </g>
     </g>
    </g>
   </g>
   <g id="line2d_32">
    <path clip-path="url(#p07d0b4fadd)" d="M 52.866875 136.605749 
L 69.606875 136.605749 
L 69.606875 132.413268 
L 52.866875 132.413268 
L 52.866875 136.605749 
" style="fill:none;stroke:#1f77b4;stroke-linecap:square;"/>
   </g>
   <g id="line2d_33">
    <path clip-path="url(#p07d0b4fadd)" d="M 61.236875 136.605749 
L 61.236875 140.608063 
" style="fill:none;stroke:#1f77b4;stroke-linecap:square;"/>
   </g>
   <g id="line2d_34">
    <path clip-path="url(#p07d0b4fadd)" d="M 61.236875 132.413268 
L 61.236875 132.2231 
" style="fill:none;stroke:#1f77b4;stroke-linecap:square;"/>
   </g>
   <g id="line2d_35">
    <path clip-path="url(#p07d0b4fadd)" d="M 57.051875 140.608063 
L 65.421875 140.608063 
" style="fill:none;stroke:#000000;stroke-linecap:square;"/>
   </g>
   <g id="line2d_36">
    <path clip-path="url(#p07d0b4fadd)" d="M 57.051875 132.2231 
L 65.421875 132.2231 
" style="fill:none;stroke:#000000;stroke-linecap:square;"/>
   </g>
   <g id="line2d_37"/>
   <g id="line2d_38">
    <path clip-path="url(#p07d0b4fadd)" d="M 86.346875 161.42181 
L 103.086875 161.42181 
L 103.086875 156.619144 
L 86.346875 156.619144 
L 86.346875 161.42181 
" style="fill:none;stroke:#1f77b4;stroke-linecap:square;"/>
   </g>
   <g id="line2d_39">
    <path clip-path="url(#p07d0b4fadd)" d="M 94.716875 161.42181 
L 94.716875 162.867273 
" style="fill:none;stroke:#1f77b4;stroke-linecap:square;"/>
   </g>
   <g id="line2d_40">
    <path clip-path="url(#p07d0b4fadd)" d="M 94.716875 156.619144 
L 94.716875 153.26194 
" style="fill:none;stroke:#1f77b4;stroke-linecap:square;"/>
   </g>
   <g id="line2d_41">
    <path clip-path="url(#p07d0b4fadd)" d="M 90.531875 162.867273 
L 98.901875 162.867273 
" style="fill:none;stroke:#000000;stroke-linecap:square;"/>
   </g>
   <g id="line2d_42">
    <path clip-path="url(#p07d0b4fadd)" d="M 90.531875 153.26194 
L 98.901875 153.26194 
" style="fill:none;stroke:#000000;stroke-linecap:square;"/>
   </g>
   <g id="line2d_43"/>
   <g id="line2d_44">
    <path clip-path="url(#p07d0b4fadd)" d="M 119.826875 161.300965 
L 136.566875 161.300965 
L 136.566875 159.493935 
L 119.826875 159.493935 
L 119.826875 161.300965 
" style="fill:none;stroke:#1f77b4;stroke-linecap:square;"/>
   </g>
   <g id="line2d_45">
    <path clip-path="url(#p07d0b4fadd)" d="M 128.196875 161.300965 
L 128.196875 161.881796 
" style="fill:none;stroke:#1f77b4;stroke-linecap:square;"/>
   </g>
   <g id="line2d_46">
    <path clip-path="url(#p07d0b4fadd)" d="M 128.196875 159.493935 
L 128.196875 158.267736 
" style="fill:none;stroke:#1f77b4;stroke-linecap:square;"/>
   </g>
   <g id="line2d_47">
    <path clip-path="url(#p07d0b4fadd)" d="M 124.011875 161.881796 
L 132.381875 161.881796 
" style="fill:none;stroke:#000000;stroke-linecap:square;"/>
   </g>
   <g id="line2d_48">
    <path clip-path="url(#p07d0b4fadd)" d="M 124.011875 158.267736 
L 132.381875 158.267736 
" style="fill:none;stroke:#000000;stroke-linecap:square;"/>
   </g>
   <g id="line2d_49"/>
   <g id="line2d_50">
    <path clip-path="url(#p07d0b4fadd)" d="M 153.306875 144.52608 
L 170.046875 144.52608 
L 170.046875 142.271488 
L 153.306875 142.271488 
L 153.306875 144.52608 
" style="fill:none;stroke:#1f77b4;stroke-linecap:square;"/>
   </g>
   <g id="line2d_51">
    <path clip-path="url(#p07d0b4fadd)" d="M 161.676875 144.52608 
L 161.676875 146.322623 
" style="fill:none;stroke:#1f77b4;stroke-linecap:square;"/>
   </g>
   <g id="line2d_52">
    <path clip-path="url(#p07d0b4fadd)" d="M 161.676875 142.271488 
L 161.676875 141.813438 
" style="fill:none;stroke:#1f77b4;stroke-linecap:square;"/>
   </g>
   <g id="line2d_53">
    <path clip-path="url(#p07d0b4fadd)" d="M 157.491875 146.322623 
L 165.861875 146.322623 
" style="fill:none;stroke:#000000;stroke-linecap:square;"/>
   </g>
   <g id="line2d_54">
    <path clip-path="url(#p07d0b4fadd)" d="M 157.491875 141.813438 
L 165.861875 141.813438 
" style="fill:none;stroke:#000000;stroke-linecap:square;"/>
   </g>
   <g id="line2d_55"/>
   <g id="line2d_56">
    <path clip-path="url(#p07d0b4fadd)" d="M 186.786875 161.368083 
L 203.526875 161.368083 
L 203.526875 159.328721 
L 186.786875 159.328721 
L 186.786875 161.368083 
" style="fill:none;stroke:#1f77b4;stroke-linecap:square;"/>
   </g>
   <g id="line2d_57">
    <path clip-path="url(#p07d0b4fadd)" d="M 195.156875 161.368083 
L 195.156875 162.114128 
" style="fill:none;stroke:#1f77b4;stroke-linecap:square;"/>
   </g>
   <g id="line2d_58">
    <path clip-path="url(#p07d0b4fadd)" d="M 195.156875 159.328721 
L 195.156875 158.035404 
" style="fill:none;stroke:#1f77b4;stroke-linecap:square;"/>
   </g>
   <g id="line2d_59">
    <path clip-path="url(#p07d0b4fadd)" d="M 190.971875 162.114128 
L 199.341875 162.114128 
" style="fill:none;stroke:#000000;stroke-linecap:square;"/>
   </g>
   <g id="line2d_60">
    <path clip-path="url(#p07d0b4fadd)" d="M 190.971875 158.035404 
L 199.341875 158.035404 
" style="fill:none;stroke:#000000;stroke-linecap:square;"/>
   </g>
   <g id="line2d_61"/>
   <g id="line2d_62">
    <path clip-path="url(#p07d0b4fadd)" d="M 220.266875 127.599395 
L 237.006875 127.599395 
L 237.006875 118.34754 
L 220.266875 118.34754 
L 220.266875 127.599395 
" style="fill:none;stroke:#1f77b4;stroke-linecap:square;"/>
   </g>
   <g id="line2d_63">
    <path clip-path="url(#p07d0b4fadd)" d="M 228.636875 127.599395 
L 228.636875 134.510972 
" style="fill:none;stroke:#1f77b4;stroke-linecap:square;"/>
   </g>
   <g id="line2d_64">
    <path clip-path="url(#p07d0b4fadd)" d="M 228.636875 118.34754 
L 228.636875 109.761889 
" style="fill:none;stroke:#1f77b4;stroke-linecap:square;"/>
   </g>
   <g id="line2d_65">
    <path clip-path="url(#p07d0b4fadd)" d="M 224.451875 134.510972 
L 232.821875 134.510972 
" style="fill:none;stroke:#000000;stroke-linecap:square;"/>
   </g>
   <g id="line2d_66">
    <path clip-path="url(#p07d0b4fadd)" d="M 224.451875 109.761889 
L 232.821875 109.761889 
" style="fill:none;stroke:#000000;stroke-linecap:square;"/>
   </g>
   <g id="line2d_67">
    <defs>
     <path d="M 0 3 
C 0.795609 3 1.55874 2.683901 2.12132 2.12132 
C 2.683901 1.55874 3 0.795609 3 0 
C 3 -0.795609 2.683901 -1.55874 2.12132 -2.12132 
C 1.55874 -2.683901 0.795609 -3 0 -3 
C -0.795609 -3 -1.55874 -2.683901 -2.12132 -2.12132 
C -2.683901 -1.55874 -3 -0.795609 -3 0 
C -3 0.795609 -2.683901 1.55874 -2.12132 2.12132 
C -1.55874 2.683901 -0.795609 3 0 3 
z
" id="me73a63dd65" style="stroke:#000000;"/>
    </defs>
    <g clip-path="url(#p07d0b4fadd)">
     <use style="fill-opacity:0;stroke:#000000;" x="228.636875" xlink:href="#me73a63dd65" y="102.585399"/>
     <use style="fill-opacity:0;stroke:#000000;" x="228.636875" xlink:href="#me73a63dd65" y="97.252079"/>
    </g>
   </g>
   <g id="line2d_68">
    <path clip-path="url(#p07d0b4fadd)" d="M 253.746875 150.700879 
L 270.486875 150.700879 
L 270.486875 144.107075 
L 253.746875 144.107075 
L 253.746875 150.700879 
" style="fill:none;stroke:#1f77b4;stroke-linecap:square;"/>
   </g>
   <g id="line2d_69">
    <path clip-path="url(#p07d0b4fadd)" d="M 262.116875 150.700879 
L 262.116875 152.219671 
" style="fill:none;stroke:#1f77b4;stroke-linecap:square;"/>
   </g>
   <g id="line2d_70">
    <path clip-path="url(#p07d0b4fadd)" d="M 262.116875 144.107075 
L 262.116875 135.339108 
" style="fill:none;stroke:#1f77b4;stroke-linecap:square;"/>
   </g>
   <g id="line2d_71">
    <path clip-path="url(#p07d0b4fadd)" d="M 257.931875 152.219671 
L 266.301875 152.219671 
" style="fill:none;stroke:#000000;stroke-linecap:square;"/>
   </g>
   <g id="line2d_72">
    <path clip-path="url(#p07d0b4fadd)" d="M 257.931875 135.339108 
L 266.301875 135.339108 
" style="fill:none;stroke:#000000;stroke-linecap:square;"/>
   </g>
   <g id="line2d_73"/>
   <g id="line2d_74">
    <path clip-path="url(#p07d0b4fadd)" d="M 287.226875 153.551388 
L 303.966875 153.551388 
L 303.966875 146.511716 
L 287.226875 146.511716 
L 287.226875 153.551388 
" style="fill:none;stroke:#1f77b4;stroke-linecap:square;"/>
   </g>
   <g id="line2d_75">
    <path clip-path="url(#p07d0b4fadd)" d="M 295.596875 153.551388 
L 295.596875 156.532987 
" style="fill:none;stroke:#1f77b4;stroke-linecap:square;"/>
   </g>
   <g id="line2d_76">
    <path clip-path="url(#p07d0b4fadd)" d="M 295.596875 146.511716 
L 295.596875 142.525924 
" style="fill:none;stroke:#1f77b4;stroke-linecap:square;"/>
   </g>
   <g id="line2d_77">
    <path clip-path="url(#p07d0b4fadd)" d="M 291.411875 156.532987 
L 299.781875 156.532987 
" style="fill:none;stroke:#000000;stroke-linecap:square;"/>
   </g>
   <g id="line2d_78">
    <path clip-path="url(#p07d0b4fadd)" d="M 291.411875 142.525924 
L 299.781875 142.525924 
" style="fill:none;stroke:#000000;stroke-linecap:square;"/>
   </g>
   <g id="line2d_79"/>
   <g id="line2d_80">
    <path clip-path="url(#p07d0b4fadd)" d="M 320.706875 129.121542 
L 337.446875 129.121542 
L 337.446875 122.820004 
L 320.706875 122.820004 
L 320.706875 129.121542 
" style="fill:none;stroke:#1f77b4;stroke-linecap:square;"/>
   </g>
   <g id="line2d_81">
    <path clip-path="url(#p07d0b4fadd)" d="M 329.076875 129.121542 
L 329.076875 138.103691 
" style="fill:none;stroke:#1f77b4;stroke-linecap:square;"/>
   </g>
   <g id="line2d_82">
    <path clip-path="url(#p07d0b4fadd)" d="M 329.076875 122.820004 
L 329.076875 120.777888 
" style="fill:none;stroke:#1f77b4;stroke-linecap:square;"/>
   </g>
   <g id="line2d_83">
    <path clip-path="url(#p07d0b4fadd)" d="M 324.891875 138.103691 
L 333.261875 138.103691 
" style="fill:none;stroke:#000000;stroke-linecap:square;"/>
   </g>
   <g id="line2d_84">
    <path clip-path="url(#p07d0b4fadd)" d="M 324.891875 120.777888 
L 333.261875 120.777888 
" style="fill:none;stroke:#000000;stroke-linecap:square;"/>
   </g>
   <g id="line2d_85">
    <g clip-path="url(#p07d0b4fadd)">
     <use style="fill-opacity:0;stroke:#000000;" x="329.076875" xlink:href="#me73a63dd65" y="142.674681"/>
    </g>
   </g>
   <g id="line2d_86">
    <path clip-path="url(#p07d0b4fadd)" d="M 354.186875 153.448129 
L 370.926875 153.448129 
L 370.926875 146.941531 
L 354.186875 146.941531 
L 354.186875 153.448129 
" style="fill:none;stroke:#1f77b4;stroke-linecap:square;"/>
   </g>
   <g id="line2d_87">
    <path clip-path="url(#p07d0b4fadd)" d="M 362.556875 153.448129 
L 362.556875 156.269677 
" style="fill:none;stroke:#1f77b4;stroke-linecap:square;"/>
   </g>
   <g id="line2d_88">
    <path clip-path="url(#p07d0b4fadd)" d="M 362.556875 146.941531 
L 362.556875 142.174844 
" style="fill:none;stroke:#1f77b4;stroke-linecap:square;"/>
   </g>
   <g id="line2d_89">
    <path clip-path="url(#p07d0b4fadd)" d="M 358.371875 156.269677 
L 366.741875 156.269677 
" style="fill:none;stroke:#000000;stroke-linecap:square;"/>
   </g>
   <g id="line2d_90">
    <path clip-path="url(#p07d0b4fadd)" d="M 358.371875 142.174844 
L 366.741875 142.174844 
" style="fill:none;stroke:#000000;stroke-linecap:square;"/>
   </g>
   <g id="line2d_91"/>
   <g id="line2d_92">
    <path clip-path="url(#p07d0b4fadd)" d="M 387.666875 97.541204 
L 404.406875 97.541204 
L 404.406875 90.573813 
L 387.666875 90.573813 
L 387.666875 97.541204 
" style="fill:none;stroke:#1f77b4;stroke-linecap:square;"/>
   </g>
   <g id="line2d_93">
    <path clip-path="url(#p07d0b4fadd)" d="M 396.036875 97.541204 
L 396.036875 106.617657 
" style="fill:none;stroke:#1f77b4;stroke-linecap:square;"/>
   </g>
   <g id="line2d_94">
    <path clip-path="url(#p07d0b4fadd)" d="M 396.036875 90.573813 
L 396.036875 89.259844 
" style="fill:none;stroke:#1f77b4;stroke-linecap:square;"/>
   </g>
   <g id="line2d_95">
    <path clip-path="url(#p07d0b4fadd)" d="M 391.851875 106.617657 
L 400.221875 106.617657 
" style="fill:none;stroke:#000000;stroke-linecap:square;"/>
   </g>
   <g id="line2d_96">
    <path clip-path="url(#p07d0b4fadd)" d="M 391.851875 89.259844 
L 400.221875 89.259844 
" style="fill:none;stroke:#000000;stroke-linecap:square;"/>
   </g>
   <g id="line2d_97"/>
   <g id="line2d_98">
    <path clip-path="url(#p07d0b4fadd)" d="M 421.146875 129.383653 
L 437.886875 129.383653 
L 437.886875 119.781064 
L 421.146875 119.781064 
L 421.146875 129.383653 
" style="fill:none;stroke:#1f77b4;stroke-linecap:square;"/>
   </g>
   <g id="line2d_99">
    <path clip-path="url(#p07d0b4fadd)" d="M 429.516875 129.383653 
L 429.516875 134.631784 
" style="fill:none;stroke:#1f77b4;stroke-linecap:square;"/>
   </g>
   <g id="line2d_100">
    <path clip-path="url(#p07d0b4fadd)" d="M 429.516875 119.781064 
L 429.516875 110.280593 
" style="fill:none;stroke:#1f77b4;stroke-linecap:square;"/>
   </g>
   <g id="line2d_101">
    <path clip-path="url(#p07d0b4fadd)" d="M 425.331875 134.631784 
L 433.701875 134.631784 
" style="fill:none;stroke:#000000;stroke-linecap:square;"/>
   </g>
   <g id="line2d_102">
    <path clip-path="url(#p07d0b4fadd)" d="M 425.331875 110.280593 
L 433.701875 110.280593 
" style="fill:none;stroke:#000000;stroke-linecap:square;"/>
   </g>
   <g id="line2d_103"/>
   <g id="line2d_104">
    <path clip-path="url(#p07d0b4fadd)" d="M 454.626875 140.669846 
L 471.366875 140.669846 
L 471.366875 131.100332 
L 454.626875 131.100332 
L 454.626875 140.669846 
" style="fill:none;stroke:#1f77b4;stroke-linecap:square;"/>
   </g>
   <g id="line2d_105">
    <path clip-path="url(#p07d0b4fadd)" d="M 462.996875 140.669846 
L 462.996875 142.789234 
" style="fill:none;stroke:#1f77b4;stroke-linecap:square;"/>
   </g>
   <g id="line2d_106">
    <path clip-path="url(#p07d0b4fadd)" d="M 462.996875 131.100332 
L 462.996875 128.973199 
" style="fill:none;stroke:#1f77b4;stroke-linecap:square;"/>
   </g>
   <g id="line2d_107">
    <path clip-path="url(#p07d0b4fadd)" d="M 458.811875 142.789234 
L 467.181875 142.789234 
" style="fill:none;stroke:#000000;stroke-linecap:square;"/>
   </g>
   <g id="line2d_108">
    <path clip-path="url(#p07d0b4fadd)" d="M 458.811875 128.973199 
L 467.181875 128.973199 
" style="fill:none;stroke:#000000;stroke-linecap:square;"/>
   </g>
   <g id="line2d_109"/>
   <g id="line2d_110">
    <path clip-path="url(#p07d0b4fadd)" d="M 488.106875 124.873823 
L 504.846875 124.873823 
L 504.846875 108.484233 
L 488.106875 108.484233 
L 488.106875 124.873823 
" style="fill:none;stroke:#1f77b4;stroke-linecap:square;"/>
   </g>
   <g id="line2d_111">
    <path clip-path="url(#p07d0b4fadd)" d="M 496.476875 124.873823 
L 496.476875 125.90512 
" style="fill:none;stroke:#1f77b4;stroke-linecap:square;"/>
   </g>
   <g id="line2d_112">
    <path clip-path="url(#p07d0b4fadd)" d="M 496.476875 108.484233 
L 496.476875 100.385985 
" style="fill:none;stroke:#1f77b4;stroke-linecap:square;"/>
   </g>
   <g id="line2d_113">
    <path clip-path="url(#p07d0b4fadd)" d="M 492.291875 125.90512 
L 500.661875 125.90512 
" style="fill:none;stroke:#000000;stroke-linecap:square;"/>
   </g>
   <g id="line2d_114">
    <path clip-path="url(#p07d0b4fadd)" d="M 492.291875 100.385985 
L 500.661875 100.385985 
" style="fill:none;stroke:#000000;stroke-linecap:square;"/>
   </g>
   <g id="line2d_115"/>
   <g id="line2d_116">
    <path clip-path="url(#p07d0b4fadd)" d="M 521.586875 139.923801 
L 538.326875 139.923801 
L 538.326875 128.50079 
L 521.586875 128.50079 
L 521.586875 139.923801 
" style="fill:none;stroke:#1f77b4;stroke-linecap:square;"/>
   </g>
   <g id="line2d_117">
    <path clip-path="url(#p07d0b4fadd)" d="M 529.956875 139.923801 
L 529.956875 142.438154 
" style="fill:none;stroke:#1f77b4;stroke-linecap:square;"/>
   </g>
   <g id="line2d_118">
    <path clip-path="url(#p07d0b4fadd)" d="M 529.956875 128.50079 
L 529.956875 123.175214 
" style="fill:none;stroke:#1f77b4;stroke-linecap:square;"/>
   </g>
   <g id="line2d_119">
    <path clip-path="url(#p07d0b4fadd)" d="M 525.771875 142.438154 
L 534.141875 142.438154 
" style="fill:none;stroke:#000000;stroke-linecap:square;"/>
   </g>
   <g id="line2d_120">
    <path clip-path="url(#p07d0b4fadd)" d="M 525.771875 123.175214 
L 534.141875 123.175214 
" style="fill:none;stroke:#000000;stroke-linecap:square;"/>
   </g>
   <g id="line2d_121"/>
   <g id="line2d_122">
    <path clip-path="url(#p07d0b4fadd)" d="M 555.066875 101.030782 
L 571.806875 101.030782 
L 571.806875 88.006023 
L 555.066875 88.006023 
L 555.066875 101.030782 
" style="fill:none;stroke:#1f77b4;stroke-linecap:square;"/>
   </g>
   <g id="line2d_123">
    <path clip-path="url(#p07d0b4fadd)" d="M 563.436875 101.030782 
L 563.436875 104.373252 
" style="fill:none;stroke:#1f77b4;stroke-linecap:square;"/>
   </g>
   <g id="line2d_124">
    <path clip-path="url(#p07d0b4fadd)" d="M 563.436875 88.006023 
L 563.436875 70.678757 
" style="fill:none;stroke:#1f77b4;stroke-linecap:square;"/>
   </g>
   <g id="line2d_125">
    <path clip-path="url(#p07d0b4fadd)" d="M 559.251875 104.373252 
L 567.621875 104.373252 
" style="fill:none;stroke:#000000;stroke-linecap:square;"/>
   </g>
   <g id="line2d_126">
    <path clip-path="url(#p07d0b4fadd)" d="M 559.251875 70.678757 
L 567.621875 70.678757 
" style="fill:none;stroke:#000000;stroke-linecap:square;"/>
   </g>
   <g id="line2d_127"/>
   <g id="line2d_128">
    <path clip-path="url(#p07d0b4fadd)" d="M 588.546875 113.093622 
L 605.286875 113.093622 
L 605.286875 103.988671 
L 588.546875 103.988671 
L 588.546875 113.093622 
" style="fill:none;stroke:#1f77b4;stroke-linecap:square;"/>
   </g>
   <g id="line2d_129">
    <path clip-path="url(#p07d0b4fadd)" d="M 596.916875 113.093622 
L 596.916875 116.465454 
" style="fill:none;stroke:#1f77b4;stroke-linecap:square;"/>
   </g>
   <g id="line2d_130">
    <path clip-path="url(#p07d0b4fadd)" d="M 596.916875 103.988671 
L 596.916875 102.018508 
" style="fill:none;stroke:#1f77b4;stroke-linecap:square;"/>
   </g>
   <g id="line2d_131">
    <path clip-path="url(#p07d0b4fadd)" d="M 592.731875 116.465454 
L 601.101875 116.465454 
" style="fill:none;stroke:#000000;stroke-linecap:square;"/>
   </g>
   <g id="line2d_132">
    <path clip-path="url(#p07d0b4fadd)" d="M 592.731875 102.018508 
L 601.101875 102.018508 
" style="fill:none;stroke:#000000;stroke-linecap:square;"/>
   </g>
   <g id="line2d_133"/>
   <g id="line2d_134">
    <path clip-path="url(#p07d0b4fadd)" d="M 622.026875 118.047122 
L 638.766875 118.047122 
L 638.766875 108.453083 
L 622.026875 108.453083 
L 622.026875 118.047122 
" style="fill:none;stroke:#1f77b4;stroke-linecap:square;"/>
   </g>
   <g id="line2d_135">
    <path clip-path="url(#p07d0b4fadd)" d="M 630.396875 118.047122 
L 630.396875 126.546616 
" style="fill:none;stroke:#1f77b4;stroke-linecap:square;"/>
   </g>
   <g id="line2d_136">
    <path clip-path="url(#p07d0b4fadd)" d="M 630.396875 108.453083 
L 630.396875 96.995868 
" style="fill:none;stroke:#1f77b4;stroke-linecap:square;"/>
   </g>
   <g id="line2d_137">
    <path clip-path="url(#p07d0b4fadd)" d="M 626.211875 126.546616 
L 634.581875 126.546616 
" style="fill:none;stroke:#000000;stroke-linecap:square;"/>
   </g>
   <g id="line2d_138">
    <path clip-path="url(#p07d0b4fadd)" d="M 626.211875 96.995868 
L 634.581875 96.995868 
" style="fill:none;stroke:#000000;stroke-linecap:square;"/>
   </g>
   <g id="line2d_139"/>
   <g id="line2d_140">
    <path clip-path="url(#p07d0b4fadd)" d="M 655.506875 95.489431 
L 672.246875 95.489431 
L 672.246875 89.326178 
L 655.506875 89.326178 
L 655.506875 95.489431 
" style="fill:none;stroke:#1f77b4;stroke-linecap:square;"/>
   </g>
   <g id="line2d_141">
    <path clip-path="url(#p07d0b4fadd)" d="M 663.876875 95.489431 
L 663.876875 104.649101 
" style="fill:none;stroke:#1f77b4;stroke-linecap:square;"/>
   </g>
   <g id="line2d_142">
    <path clip-path="url(#p07d0b4fadd)" d="M 663.876875 89.326178 
L 663.876875 84.879947 
" style="fill:none;stroke:#1f77b4;stroke-linecap:square;"/>
   </g>
   <g id="line2d_143">
    <path clip-path="url(#p07d0b4fadd)" d="M 659.691875 104.649101 
L 668.061875 104.649101 
" style="fill:none;stroke:#000000;stroke-linecap:square;"/>
   </g>
   <g id="line2d_144">
    <path clip-path="url(#p07d0b4fadd)" d="M 659.691875 84.879947 
L 668.061875 84.879947 
" style="fill:none;stroke:#000000;stroke-linecap:square;"/>
   </g>
   <g id="line2d_145"/>
   <g id="line2d_146">
    <path clip-path="url(#p07d0b4fadd)" d="M 688.986875 115.735414 
L 705.726875 115.735414 
L 705.726875 110.275602 
L 688.986875 110.275602 
L 688.986875 115.735414 
" style="fill:none;stroke:#1f77b4;stroke-linecap:square;"/>
   </g>
   <g id="line2d_147">
    <path clip-path="url(#p07d0b4fadd)" d="M 697.356875 115.735414 
L 697.356875 121.16683 
" style="fill:none;stroke:#1f77b4;stroke-linecap:square;"/>
   </g>
   <g id="line2d_148">
    <path clip-path="url(#p07d0b4fadd)" d="M 697.356875 110.275602 
L 697.356875 106.76222 
" style="fill:none;stroke:#1f77b4;stroke-linecap:square;"/>
   </g>
   <g id="line2d_149">
    <path clip-path="url(#p07d0b4fadd)" d="M 693.171875 121.16683 
L 701.541875 121.16683 
" style="fill:none;stroke:#000000;stroke-linecap:square;"/>
   </g>
   <g id="line2d_150">
    <path clip-path="url(#p07d0b4fadd)" d="M 693.171875 106.76222 
L 701.541875 106.76222 
" style="fill:none;stroke:#000000;stroke-linecap:square;"/>
   </g>
   <g id="line2d_151">
    <g clip-path="url(#p07d0b4fadd)">
     <use style="fill-opacity:0;stroke:#000000;" x="697.356875" xlink:href="#me73a63dd65" y="100.523126"/>
    </g>
   </g>
   <g id="line2d_152">
    <path clip-path="url(#p07d0b4fadd)" d="M 722.466875 54.801159 
L 739.206875 54.801159 
L 739.206875 29.513701 
L 722.466875 29.513701 
L 722.466875 54.801159 
" style="fill:none;stroke:#1f77b4;stroke-linecap:square;"/>
   </g>
   <g id="line2d_153">
    <path clip-path="url(#p07d0b4fadd)" d="M 730.836875 54.801159 
L 730.836875 69.040383 
" style="fill:none;stroke:#1f77b4;stroke-linecap:square;"/>
   </g>
   <g id="line2d_154">
    <path clip-path="url(#p07d0b4fadd)" d="M 730.836875 29.513701 
L 730.836875 27.794688 
" style="fill:none;stroke:#1f77b4;stroke-linecap:square;"/>
   </g>
   <g id="line2d_155">
    <path clip-path="url(#p07d0b4fadd)" d="M 726.651875 69.040383 
L 735.021875 69.040383 
" style="fill:none;stroke:#000000;stroke-linecap:square;"/>
   </g>
   <g id="line2d_156">
    <path clip-path="url(#p07d0b4fadd)" d="M 726.651875 27.794688 
L 735.021875 27.794688 
" style="fill:none;stroke:#000000;stroke-linecap:square;"/>
   </g>
   <g id="line2d_157"/>
   <g id="line2d_158">
    <path clip-path="url(#p07d0b4fadd)" d="M 755.946875 98.088396 
L 772.686875 98.088396 
L 772.686875 84.335773 
L 755.946875 84.335773 
L 755.946875 98.088396 
" style="fill:none;stroke:#1f77b4;stroke-linecap:square;"/>
   </g>
   <g id="line2d_159">
    <path clip-path="url(#p07d0b4fadd)" d="M 764.316875 98.088396 
L 764.316875 100.737065 
" style="fill:none;stroke:#1f77b4;stroke-linecap:square;"/>
   </g>
   <g id="line2d_160">
    <path clip-path="url(#p07d0b4fadd)" d="M 764.316875 84.335773 
L 764.316875 79.754178 
" style="fill:none;stroke:#1f77b4;stroke-linecap:square;"/>
   </g>
   <g id="line2d_161">
    <path clip-path="url(#p07d0b4fadd)" d="M 760.131875 100.737065 
L 768.501875 100.737065 
" style="fill:none;stroke:#000000;stroke-linecap:square;"/>
   </g>
   <g id="line2d_162">
    <path clip-path="url(#p07d0b4fadd)" d="M 760.131875 79.754178 
L 768.501875 79.754178 
" style="fill:none;stroke:#000000;stroke-linecap:square;"/>
   </g>
   <g id="line2d_163"/>
   <g id="line2d_164">
    <path clip-path="url(#p07d0b4fadd)" d="M 789.426875 91.111162 
L 806.166875 91.111162 
L 806.166875 82.331013 
L 789.426875 82.331013 
L 789.426875 91.111162 
" style="fill:none;stroke:#1f77b4;stroke-linecap:square;"/>
   </g>
   <g id="line2d_165">
    <path clip-path="url(#p07d0b4fadd)" d="M 797.796875 91.111162 
L 797.796875 94.242084 
" style="fill:none;stroke:#1f77b4;stroke-linecap:square;"/>
   </g>
   <g id="line2d_166">
    <path clip-path="url(#p07d0b4fadd)" d="M 797.796875 82.331013 
L 797.796875 79.145639 
" style="fill:none;stroke:#1f77b4;stroke-linecap:square;"/>
   </g>
   <g id="line2d_167">
    <path clip-path="url(#p07d0b4fadd)" d="M 793.611875 94.242084 
L 801.981875 94.242084 
" style="fill:none;stroke:#000000;stroke-linecap:square;"/>
   </g>
   <g id="line2d_168">
    <path clip-path="url(#p07d0b4fadd)" d="M 793.611875 79.145639 
L 801.981875 79.145639 
" style="fill:none;stroke:#000000;stroke-linecap:square;"/>
   </g>
   <g id="line2d_169"/>
   <g id="line2d_170">
    <path clip-path="url(#p07d0b4fadd)" d="M 822.906875 84.273916 
L 839.646875 84.273916 
L 839.646875 25.103074 
L 822.906875 25.103074 
L 822.906875 84.273916 
" style="fill:none;stroke:#1f77b4;stroke-linecap:square;"/>
   </g>
   <g id="line2d_171">
    <path clip-path="url(#p07d0b4fadd)" d="M 831.276875 84.273916 
L 831.276875 87.182866 
" style="fill:none;stroke:#1f77b4;stroke-linecap:square;"/>
   </g>
   <g id="line2d_172">
    <path clip-path="url(#p07d0b4fadd)" d="M 831.276875 25.103074 
L 831.276875 14.612727 
" style="fill:none;stroke:#1f77b4;stroke-linecap:square;"/>
   </g>
   <g id="line2d_173">
    <path clip-path="url(#p07d0b4fadd)" d="M 827.091875 87.182866 
L 835.461875 87.182866 
" style="fill:none;stroke:#000000;stroke-linecap:square;"/>
   </g>
   <g id="line2d_174">
    <path clip-path="url(#p07d0b4fadd)" d="M 827.091875 14.612727 
L 835.461875 14.612727 
" style="fill:none;stroke:#000000;stroke-linecap:square;"/>
   </g>
   <g id="line2d_175"/>
   <g id="line2d_176">
    <path clip-path="url(#p07d0b4fadd)" d="M 856.386875 94.232484 
L 873.126875 94.232484 
L 873.126875 83.489771 
L 856.386875 83.489771 
L 856.386875 94.232484 
" style="fill:none;stroke:#1f77b4;stroke-linecap:square;"/>
   </g>
   <g id="line2d_177">
    <path clip-path="url(#p07d0b4fadd)" d="M 864.756875 94.232484 
L 864.756875 97.687057 
" style="fill:none;stroke:#1f77b4;stroke-linecap:square;"/>
   </g>
   <g id="line2d_178">
    <path clip-path="url(#p07d0b4fadd)" d="M 864.756875 83.489771 
L 864.756875 80.395071 
" style="fill:none;stroke:#1f77b4;stroke-linecap:square;"/>
   </g>
   <g id="line2d_179">
    <path clip-path="url(#p07d0b4fadd)" d="M 860.571875 97.687057 
L 868.941875 97.687057 
" style="fill:none;stroke:#000000;stroke-linecap:square;"/>
   </g>
   <g id="line2d_180">
    <path clip-path="url(#p07d0b4fadd)" d="M 860.571875 80.395071 
L 868.941875 80.395071 
" style="fill:none;stroke:#000000;stroke-linecap:square;"/>
   </g>
   <g id="line2d_181"/>
   <g id="line2d_182">
    <path clip-path="url(#p07d0b4fadd)" d="M 52.866875 132.603436 
L 69.606875 132.603436 
" style="fill:none;stroke:#2ca02c;stroke-linecap:square;"/>
   </g>
   <g id="line2d_183">
    <path clip-path="url(#p07d0b4fadd)" d="M 86.346875 159.976347 
L 103.086875 159.976347 
" style="fill:none;stroke:#2ca02c;stroke-linecap:square;"/>
   </g>
   <g id="line2d_184">
    <path clip-path="url(#p07d0b4fadd)" d="M 119.826875 160.720134 
L 136.566875 160.720134 
" style="fill:none;stroke:#2ca02c;stroke-linecap:square;"/>
   </g>
   <g id="line2d_185">
    <path clip-path="url(#p07d0b4fadd)" d="M 153.306875 142.729537 
L 170.046875 142.729537 
" style="fill:none;stroke:#2ca02c;stroke-linecap:square;"/>
   </g>
   <g id="line2d_186">
    <path clip-path="url(#p07d0b4fadd)" d="M 186.786875 160.622038 
L 203.526875 160.622038 
" style="fill:none;stroke:#2ca02c;stroke-linecap:square;"/>
   </g>
   <g id="line2d_187">
    <path clip-path="url(#p07d0b4fadd)" d="M 220.266875 124.070178 
L 237.006875 124.070178 
" style="fill:none;stroke:#2ca02c;stroke-linecap:square;"/>
   </g>
   <g id="line2d_188">
    <path clip-path="url(#p07d0b4fadd)" d="M 253.746875 149.271308 
L 270.486875 149.271308 
" style="fill:none;stroke:#2ca02c;stroke-linecap:square;"/>
   </g>
   <g id="line2d_189">
    <path clip-path="url(#p07d0b4fadd)" d="M 287.226875 148.388445 
L 303.966875 148.388445 
" style="fill:none;stroke:#2ca02c;stroke-linecap:square;"/>
   </g>
   <g id="line2d_190">
    <path clip-path="url(#p07d0b4fadd)" d="M 320.706875 125.60524 
L 337.446875 125.60524 
" style="fill:none;stroke:#2ca02c;stroke-linecap:square;"/>
   </g>
   <g id="line2d_191">
    <path clip-path="url(#p07d0b4fadd)" d="M 354.186875 148.791155 
L 370.926875 148.791155 
" style="fill:none;stroke:#2ca02c;stroke-linecap:square;"/>
   </g>
   <g id="line2d_192">
    <path clip-path="url(#p07d0b4fadd)" d="M 387.666875 95.713522 
L 404.406875 95.713522 
" style="fill:none;stroke:#2ca02c;stroke-linecap:square;"/>
   </g>
   <g id="line2d_193">
    <path clip-path="url(#p07d0b4fadd)" d="M 421.146875 124.665369 
L 437.886875 124.665369 
" style="fill:none;stroke:#2ca02c;stroke-linecap:square;"/>
   </g>
   <g id="line2d_194">
    <path clip-path="url(#p07d0b4fadd)" d="M 454.626875 133.795388 
L 471.366875 133.795388 
" style="fill:none;stroke:#2ca02c;stroke-linecap:square;"/>
   </g>
   <g id="line2d_195">
    <path clip-path="url(#p07d0b4fadd)" d="M 488.106875 114.714442 
L 504.846875 114.714442 
" style="fill:none;stroke:#2ca02c;stroke-linecap:square;"/>
   </g>
   <g id="line2d_196">
    <path clip-path="url(#p07d0b4fadd)" d="M 521.586875 132.406556 
L 538.326875 132.406556 
" style="fill:none;stroke:#2ca02c;stroke-linecap:square;"/>
   </g>
   <g id="line2d_197">
    <path clip-path="url(#p07d0b4fadd)" d="M 555.066875 96.725975 
L 571.806875 96.725975 
" style="fill:none;stroke:#2ca02c;stroke-linecap:square;"/>
   </g>
   <g id="line2d_198">
    <path clip-path="url(#p07d0b4fadd)" d="M 588.546875 108.320396 
L 605.286875 108.320396 
" style="fill:none;stroke:#2ca02c;stroke-linecap:square;"/>
   </g>
   <g id="line2d_199">
    <path clip-path="url(#p07d0b4fadd)" d="M 622.026875 114.382723 
L 638.766875 114.382723 
" style="fill:none;stroke:#2ca02c;stroke-linecap:square;"/>
   </g>
   <g id="line2d_200">
    <path clip-path="url(#p07d0b4fadd)" d="M 655.506875 91.132517 
L 672.246875 91.132517 
" style="fill:none;stroke:#2ca02c;stroke-linecap:square;"/>
   </g>
   <g id="line2d_201">
    <path clip-path="url(#p07d0b4fadd)" d="M 688.986875 113.889662 
L 705.726875 113.889662 
" style="fill:none;stroke:#2ca02c;stroke-linecap:square;"/>
   </g>
   <g id="line2d_202">
    <path clip-path="url(#p07d0b4fadd)" d="M 722.466875 34.956905 
L 739.206875 34.956905 
" style="fill:none;stroke:#2ca02c;stroke-linecap:square;"/>
   </g>
   <g id="line2d_203">
    <path clip-path="url(#p07d0b4fadd)" d="M 755.946875 90.880492 
L 772.686875 90.880492 
" style="fill:none;stroke:#2ca02c;stroke-linecap:square;"/>
   </g>
   <g id="line2d_204">
    <path clip-path="url(#p07d0b4fadd)" d="M 789.426875 84.122716 
L 806.166875 84.122716 
" style="fill:none;stroke:#2ca02c;stroke-linecap:square;"/>
   </g>
   <g id="line2d_205">
    <path clip-path="url(#p07d0b4fadd)" d="M 822.906875 31.645176 
L 839.646875 31.645176 
" style="fill:none;stroke:#2ca02c;stroke-linecap:square;"/>
   </g>
   <g id="line2d_206">
    <path clip-path="url(#p07d0b4fadd)" d="M 856.386875 86.223549 
L 873.126875 86.223549 
" style="fill:none;stroke:#2ca02c;stroke-linecap:square;"/>
   </g>
   <g id="patch_3">
    <path d="M 44.496875 170.28 
L 44.496875 7.2 
" style="fill:none;stroke:#000000;stroke-linecap:square;stroke-linejoin:miter;stroke-width:0.8;"/>
   </g>
   <g id="patch_4">
    <path d="M 881.496875 170.28 
L 881.496875 7.2 
" style="fill:none;stroke:#000000;stroke-linecap:square;stroke-linejoin:miter;stroke-width:0.8;"/>
   </g>
   <g id="patch_5">
    <path d="M 44.496875 170.28 
L 881.496875 170.28 
" style="fill:none;stroke:#000000;stroke-linecap:square;stroke-linejoin:miter;stroke-width:0.8;"/>
   </g>
   <g id="patch_6">
    <path d="M 44.496875 7.2 
L 881.496875 7.2 
" style="fill:none;stroke:#000000;stroke-linecap:square;stroke-linejoin:miter;stroke-width:0.8;"/>
   </g>
  </g>
 </g>
 <defs>
  <clipPath id="p07d0b4fadd">
   <rect height="163.08" width="837" x="44.496875" y="7.2"/>
  </clipPath>
 </defs>
</svg>
